<?xml version="1.0" encoding="UTF-8" standalone="no"?>
<!-- Created with Inkscape (http://www.inkscape.org/) -->

<svg
   xmlns:dc="http://purl.org/dc/elements/1.1/"
   xmlns:cc="http://creativecommons.org/ns#"
   xmlns:rdf="http://www.w3.org/1999/02/22-rdf-syntax-ns#"
   xmlns:svg="http://www.w3.org/2000/svg"
   xmlns="http://www.w3.org/2000/svg"
   xmlns:sodipodi="http://sodipodi.sourceforge.net/DTD/sodipodi-0.dtd"
   xmlns:inkscape="http://www.inkscape.org/namespaces/inkscape"
   version="1.1"
   id="svg7389"
   xml:space="preserve"
   width="816"
   height="1056"
   viewBox="0 0 816 1056"
   sodipodi:docname="XSR - Product drawing.svg"
   inkscape:version="0.92.2 (5c3e80d, 2017-08-06)"><metadata
     id="metadata7395"><rdf:RDF><cc:Work
         rdf:about=""><dc:format>image/svg+xml</dc:format><dc:type
           rdf:resource="http://purl.org/dc/dcmitype/StillImage" /><dc:title></dc:title></cc:Work></rdf:RDF></metadata><defs
     id="defs7393" /><sodipodi:namedview
     pagecolor="#ffffff"
     bordercolor="#666666"
     borderopacity="1"
     objecttolerance="10"
     gridtolerance="10"
     guidetolerance="10"
     inkscape:pageopacity="0"
     inkscape:pageshadow="2"
     inkscape:window-width="1680"
     inkscape:window-height="987"
     id="namedview7391"
     showgrid="false"
     showguides="true"
     inkscape:guide-bbox="true"
     inkscape:zoom="5.0568848"
     inkscape:cx="201.55311"
     inkscape:cy="873.5648"
     inkscape:window-x="-8"
     inkscape:window-y="-8"
     inkscape:window-maximized="1"
     inkscape:current-layer="g7397"><sodipodi:guide
       position="121.4428,867.96293"
       orientation="0,1"
       id="guide8154"
       inkscape:locked="false" /><sodipodi:guide
       position="119.07426,868.00131"
       orientation="1,0"
       id="guide8156"
       inkscape:locked="false" /><sodipodi:guide
       position="141.54343,869.11653"
       orientation="0,1"
       id="guide8176"
       inkscape:locked="false" /><sodipodi:guide
       position="139.46133,869.09598"
       orientation="1,0"
       id="guide8178"
       inkscape:locked="false" /><sodipodi:guide
       position="141.71822,840.90572"
       orientation="0,1"
       id="guide8198"
       inkscape:locked="false" /><sodipodi:guide
       position="142.9767,836.57098"
       orientation="1,0"
       id="guide8200"
       inkscape:locked="false" /><sodipodi:guide
       position="146.75212,834.05403"
       orientation="1,0"
       id="guide8202"
       inkscape:locked="false" /><sodipodi:guide
       position="192.87466,871.30664"
       orientation="0,1"
       id="guide8240"
       inkscape:locked="false" /><sodipodi:guide
       position="193.804,866.29731"
       orientation="0,1"
       id="guide8242"
       inkscape:locked="false" /><sodipodi:guide
       position="195.15466,868.85864"
       orientation="1,0"
       id="guide8244"
       inkscape:locked="false" /><sodipodi:guide
       position="193.22933,861.28665"
       orientation="0,1"
       id="guide8282"
       inkscape:locked="false" /><sodipodi:guide
       position="194.912,856.27731"
       orientation="0,1"
       id="guide8284"
       inkscape:locked="false" /><sodipodi:guide
       position="188.088,851.26798"
       orientation="0,1"
       id="guide8286"
       inkscape:locked="false" /></sodipodi:namedview><g
     id="g7397"
     inkscape:groupmode="layer"
     inkscape:label="XSR - Product drawing"
     transform="matrix(1.3333333,0,0,-1.3333333,0,1056)"><g
       id="g8378"><g
         transform="translate(-17.4663,211.694)"
         id="g7399"><path
           inkscape:connector-curvature="0"
           id="path7401"
           style="fill:none;stroke:#231f20;stroke-width:0.5;stroke-linecap:butt;stroke-linejoin:miter;stroke-miterlimit:10;stroke-dasharray:none;stroke-opacity:1"
           d="m 171.692,423.893 h -70.26 v 52.694 h 70.26 z" /></g><g
         transform="translate(-17.4663,211.694)"
         id="g7403"><path
           inkscape:connector-curvature="0"
           id="path7405"
           style="fill:none;stroke:#231f20;stroke-width:0.5;stroke-linecap:butt;stroke-linejoin:miter;stroke-miterlimit:10;stroke-dasharray:none;stroke-opacity:1"
           d="m 121.622,438.57 h 3.392 v -8.301 h -3.392 z" /></g><g
         transform="translate(-17.4663,211.694)"
         id="g7407"><path
           inkscape:connector-curvature="0"
           id="path7409"
           style="fill:none;stroke:#231f20;stroke-width:0.5;stroke-linecap:butt;stroke-linejoin:miter;stroke-miterlimit:10;stroke-dasharray:none;stroke-opacity:1"
           d="m 127.155,438.57 h 3.392 v -8.301 h -3.392 z" /></g><g
         transform="translate(95.0947,644.941)"
         id="g7411"><path
           inkscape:connector-curvature="0"
           id="path7413"
           style="fill:#231f20;fill-opacity:1;fill-rule:nonzero;stroke:none"
           d="m 0,0 c 0,-1.478 -1.199,-2.677 -2.677,-2.677 -1.479,0 -2.677,1.199 -2.677,2.677 0,1.478 1.198,2.677 2.677,2.677 C -1.199,2.677 0,1.478 0,0" /></g><g
         transform="translate(95.0947,644.941)"
         id="g7415"><path
           inkscape:connector-curvature="0"
           id="path7417"
           style="fill:none;stroke:#231f20;stroke-width:0.2;stroke-linecap:butt;stroke-linejoin:miter;stroke-miterlimit:10;stroke-dasharray:none;stroke-opacity:1"
           d="m 0,0 c 0,-1.478 -1.199,-2.677 -2.677,-2.677 -1.479,0 -2.677,1.199 -2.677,2.677 0,1.478 1.198,2.677 2.677,2.677 C -1.199,2.677 0,1.478 0,0 Z" /></g><g
         transform="translate(-17.4663,211.694)"
         id="g7419"><path
           inkscape:connector-curvature="0"
           id="path7421"
           style="fill:none;stroke:#231f20;stroke-width:0.5;stroke-linecap:butt;stroke-linejoin:miter;stroke-miterlimit:10;stroke-dasharray:none;stroke-opacity:1"
           d="m 101.693,468.467 h 2.326 v 3.86801 h -2.326 z" /></g><g
         transform="translate(-17.4663,211.694)"
         id="g7423"><path
           inkscape:connector-curvature="0"
           id="path7425"
           style="fill:none;stroke:#231f20;stroke-width:0.5;stroke-linecap:butt;stroke-linejoin:miter;stroke-miterlimit:10;stroke-dasharray:none;stroke-opacity:1"
           d="m 101.693,454.511 h 2.326 v 3.86801 h -2.326 z" /></g><g
         transform="translate(-17.4663,211.694)"
         id="g7427"><path
           inkscape:connector-curvature="0"
           id="path7429"
           style="fill:#231f20;fill-opacity:1;fill-rule:nonzero;stroke:#231f20;stroke-width:0.2;stroke-linecap:butt;stroke-linejoin:miter;stroke-miterlimit:10;stroke-dasharray:none;stroke-opacity:1"
           d="m 76.118,469.429 h 25.545 v 2.25601 H 76.118 Z" /></g><g
         transform="translate(-17.4663,211.694)"
         id="g7431"><path
           inkscape:connector-curvature="0"
           id="path7433"
           style="fill:#231f20;fill-opacity:1;fill-rule:nonzero;stroke:#231f20;stroke-width:0.2;stroke-linecap:butt;stroke-linejoin:miter;stroke-miterlimit:10;stroke-dasharray:none;stroke-opacity:1"
           d="m 76.118,455.473 h 25.545 v 2.25601 H 76.118 Z" /></g><g
         transform="translate(160.481,656.279)"
         id="g7435"><path
           inkscape:connector-curvature="0"
           id="path7437"
           style="fill:#ffffff;fill-opacity:1;fill-rule:nonzero;stroke:none"
           d="M 0,0 V 0.601 H 1.924 V 2.647 H -12.753 V 0.923 h 0.933 v -2.366 h 2.035 v -1.164 h -2.035 v -2.416 h 2.035 l 0.01,-1.284 h -2.045 v -2.415 h 2.035 v -1.284 h -2.035 v -2.415 h 2.035 v -1.285 h -2.035 v -2.415 h 2.035 v -1.284 h -2.035 v -2.446 h -0.933 v -1.263 H 1.924 v 1.865 H 0 v 0.801 h -3.329 v 1.524 H 0 v 1.861 h -3.329 v 1.525 H 0 v 1.859 h -3.329 v 1.524 H 0 v 1.862 h -3.329 v 1.524 H 0 v 1.859 h -3.329 v 1.525 H 0 v 1.86 H -3.329 V 0 Z" /></g><g
         transform="translate(160.481,656.279)"
         id="g7439"><path
           inkscape:connector-curvature="0"
           id="path7441"
           style="fill:none;stroke:#231f20;stroke-width:0.5;stroke-linecap:butt;stroke-linejoin:miter;stroke-miterlimit:10;stroke-dasharray:none;stroke-opacity:1"
           d="M 0,0 V 0.601 H 1.924 V 2.647 H -12.753 V 0.923 h 0.933 v -2.366 h 2.035 v -1.164 h -2.035 v -2.416 h 2.035 l 0.01,-1.284 h -2.045 v -2.415 h 2.035 v -1.284 h -2.035 v -2.415 h 2.035 v -1.285 h -2.035 v -2.415 h 2.035 v -1.284 h -2.035 v -2.446 h -0.933 v -1.263 H 1.924 v 1.865 H 0 v 0.801 h -3.329 v 1.524 H 0 v 1.861 h -3.329 v 1.525 H 0 v 1.859 h -3.329 v 1.524 H 0 v 1.862 h -3.329 v 1.524 H 0 v 1.859 h -3.329 v 1.525 H 0 v 1.86 H -3.329 V 0 Z" /></g><g
         transform="translate(147.728,657.202)"
         id="g7443"><path
           inkscape:connector-curvature="0"
           id="path7445"
           style="fill:none;stroke:#231f20;stroke-width:0.5;stroke-linecap:butt;stroke-linejoin:miter;stroke-miterlimit:10;stroke-dasharray:none;stroke-opacity:1"
           d="M 0,0 V -20.774" /></g><g
         transform="translate(97.0986,643.397)"
         id="g7447"><path
           inkscape:connector-curvature="0"
           id="path7449"
           style="fill:none;stroke:#231f20;stroke-width:0.5;stroke-linecap:butt;stroke-linejoin:miter;stroke-miterlimit:10;stroke-dasharray:none;stroke-opacity:1"
           d="M 0,0 C 0,0.423 0.357,0.767 0.797,0.767 V 2.476 C 0.357,2.476 0,2.82 0,3.243 0,3.666 0.357,4.01 0.797,4.01 V 5.604 H -10.546 V 4.006 c 0.432,-0.008 0.781,-0.346 0.781,-0.763 0,-0.417 -0.349,-0.756 -0.781,-0.764 V 0.923 c 0.432,-0.007 0.781,-0.346 0.781,-0.763 0,-0.417 -0.349,-0.756 -0.781,-0.764 V -2.517 H 0.797 v 1.75 C 0.357,-0.767 0,-0.423 0,0 Z" /></g><g
         transform="translate(106.011,631.227)"
         id="g7587"><path
           inkscape:connector-curvature="0"
           id="path7589"
           style="fill:#231f20;fill-opacity:1;fill-rule:nonzero;stroke:none"
           d="M 0,0 V 8.389 L 0.818,8.042 -0.159,10.356 -1.136,8.042 -0.317,8.389 V 0 Z" /></g><g
         transform="translate(111.543,631.227)"
         id="g7591"><path
           inkscape:connector-curvature="0"
           id="path7593"
           style="fill:#231f20;fill-opacity:1;fill-rule:nonzero;stroke:none"
           d="M 0,0 V 8.389 L 0.818,8.042 -0.159,10.356 -1.136,8.042 -0.317,8.389 V 0 Z" /></g><g
         transform="translate(104.944,679.194)"
         id="g7595"><path
           inkscape:connector-curvature="0"
           id="path7597"
           style="fill:#231f20;fill-opacity:1;fill-rule:nonzero;stroke:none"
           d="M 0,0 H 2.384 L 4.257,-4.149 6.342,0 H 8.336 L 5.323,-5.901 8.745,-12.989 H 6.33 l -2.211,4.971 -2.511,-4.971 h -2.027 l 3.478,6.734 z" /></g><g
         transform="translate(122.405,676.292)"
         id="g7599"><path
           inkscape:connector-curvature="0"
           id="path7601"
           style="fill:#231f20;fill-opacity:1;fill-rule:nonzero;stroke:none"
           d="M 0,0 -1.836,-0.638 C -2.052,0.051 -2.336,0.559 -2.688,0.887 -3.04,1.216 -3.521,1.38 -4.13,1.38 -4.694,1.38 -5.13,1.213 -5.438,0.879 -5.746,0.544 -5.9,0.161 -5.9,-0.271 c 0,-0.478 0.173,-0.858 0.519,-1.141 0.345,-0.283 1.035,-0.621 2.069,-1.015 0.882,-0.336 1.561,-0.656 2.037,-0.961 0.476,-0.304 0.861,-0.712 1.156,-1.222 0.295,-0.511 0.443,-1.103 0.443,-1.775 0,-1.092 -0.386,-2.021 -1.157,-2.788 -0.771,-0.768 -1.851,-1.152 -3.24,-1.152 -2.398,0 -3.882,1.212 -4.453,3.635 l 1.922,0.543 c 0.336,-1.599 1.212,-2.398 2.626,-2.398 0.692,0 1.217,0.179 1.575,0.537 0.359,0.359 0.538,0.801 0.538,1.328 0,0.387 -0.124,0.745 -0.371,1.075 -0.247,0.33 -0.863,0.682 -1.846,1.056 -1.041,0.394 -1.791,0.727 -2.251,1 -0.46,0.272 -0.852,0.675 -1.175,1.208 -0.324,0.533 -0.485,1.139 -0.485,1.818 0,1.034 0.36,1.903 1.08,2.607 0.72,0.704 1.676,1.056 2.869,1.056 C -1.932,3.14 -0.583,2.093 0,0" /></g><g
         transform="translate(126.783,677.529)"
         id="g7603"><path
           inkscape:connector-curvature="0"
           id="path7605"
           style="fill:#231f20;fill-opacity:1;fill-rule:nonzero;stroke:none"
           d="m 0,0 v -4.234 h 1.646 c 0.736,0 1.277,0.203 1.623,0.609 0.346,0.406 0.519,0.936 0.519,1.589 C 3.788,-0.679 3.08,0 1.666,0 Z M -2.15,1.666 H 1.761 C 3.175,1.666 4.219,1.345 4.892,0.705 5.564,0.063 5.9,-0.856 5.9,-2.055 5.9,-3.654 5.237,-4.786 3.911,-5.453 l 2.465,-5.871 H 4.043 L 2.024,-5.899 H 0 v -5.425 h -2.15 z" /></g><text
         transform="scale(1,-1)"
         id="text8152"
         y="-650.97632"
         x="88.8759"
         style="font-style:normal;font-variant:normal;font-weight:normal;font-stretch:normal;font-size:4.5px;line-height:1.25;font-family:Arial;-inkscape-font-specification:'Arial, Normal';font-variant-ligatures:normal;font-variant-caps:normal;font-variant-numeric:normal;font-feature-settings:normal;text-align:start;letter-spacing:0px;word-spacing:0px;writing-mode:lr-tb;text-anchor:start;fill:#231f20;fill-opacity:1;stroke:none;stroke-width:0.75"
         xml:space="preserve"><tspan
           style="font-size:4.5px;fill:#231f20;fill-opacity:1;stroke-width:0.75"
           y="-650.97632"
           x="88.8759"
           id="tspan8150"
           sodipodi:role="line">F/S</tspan></text>
<text
         transform="scale(1,-1)"
         id="text8152-5"
         y="-651.79993"
         x="104.26829"
         style="font-style:normal;font-variant:normal;font-weight:normal;font-stretch:normal;font-size:4.5px;line-height:1.25;font-family:Arial;-inkscape-font-specification:'Arial, Normal';font-variant-ligatures:normal;font-variant-caps:normal;font-variant-numeric:normal;font-feature-settings:normal;text-align:start;letter-spacing:0px;word-spacing:0px;writing-mode:lr-tb;text-anchor:start;fill:#231f20;fill-opacity:1;stroke:none;stroke-width:0.75"
         xml:space="preserve"><tspan
           style="font-size:4.5px;fill:#231f20;fill-opacity:1;stroke-width:0.75"
           y="-651.79993"
           x="104.26829"
           id="tspan8150-4"
           sodipodi:role="line">LED</tspan></text>
<text
         transform="scale(1,-1)"
         id="text8152-5-9"
         y="-627.784"
         x="92.818085"
         style="font-style:normal;font-variant:normal;font-weight:normal;font-stretch:normal;font-size:4px;line-height:1.25;font-family:Arial;-inkscape-font-specification:'Arial, Normal';font-variant-ligatures:normal;font-variant-caps:normal;font-variant-numeric:normal;font-feature-settings:normal;text-align:start;letter-spacing:0px;word-spacing:0px;writing-mode:lr-tb;text-anchor:start;fill:#231f20;fill-opacity:1;stroke:none;stroke-width:0.75"
         xml:space="preserve"><tspan
           style="font-size:4px;fill:#231f20;fill-opacity:1;stroke-width:0.75"
           y="-627.784"
           x="92.818085"
           id="tspan8150-4-0"
           sodipodi:role="line">ROUGE</tspan></text>
<text
         transform="scale(1,-1)"
         id="text8152-5-9-8"
         y="-627.80469"
         x="110.02142"
         style="font-style:normal;font-variant:normal;font-weight:normal;font-stretch:normal;font-size:3.99999976px;line-height:1.25;font-family:Arial;-inkscape-font-specification:'Arial, Normal';font-variant-ligatures:normal;font-variant-caps:normal;font-variant-numeric:normal;font-feature-settings:normal;text-align:start;letter-spacing:0px;word-spacing:0px;writing-mode:lr-tb;text-anchor:start;fill:#231f20;fill-opacity:1;stroke:none;stroke-width:0.75"
         xml:space="preserve"><tspan
           style="font-size:3.99999976px;fill:#231f20;fill-opacity:1;stroke-width:0.75"
           y="-627.80469"
           x="110.02142"
           id="tspan8150-4-0-3"
           sodipodi:role="line">VERTE</tspan></text>
<text
         transform="scale(1,-1)"
         id="text8152-5-9-8-2"
         y="-653.52576"
         x="139.8363"
         style="font-style:normal;font-variant:normal;font-weight:normal;font-stretch:normal;font-size:3px;line-height:1.25;font-family:Arial;-inkscape-font-specification:'Arial, Normal';font-variant-ligatures:normal;font-variant-caps:normal;font-variant-numeric:normal;font-feature-settings:normal;text-align:start;letter-spacing:0px;word-spacing:0px;writing-mode:lr-tb;text-anchor:start;fill:#231f20;fill-opacity:1;stroke:none;stroke-width:0.75"
         xml:space="preserve"><tspan
           style="font-size:3px;fill:#231f20;fill-opacity:1;stroke-width:0.75"
           y="-653.52576"
           x="139.8363"
           id="tspan8150-4-0-3-3"
           sodipodi:role="line">GND</tspan></text>
<text
         transform="scale(1,-1)"
         id="text8152-5-9-8-2-7"
         y="-649.74115"
         x="140.94562"
         style="font-style:normal;font-variant:normal;font-weight:normal;font-stretch:normal;font-size:3px;line-height:1.25;font-family:Arial;-inkscape-font-specification:'Arial, Normal';font-variant-ligatures:normal;font-variant-caps:normal;font-variant-numeric:normal;font-feature-settings:normal;text-align:start;letter-spacing:0px;word-spacing:0px;writing-mode:lr-tb;text-anchor:start;fill:#231f20;fill-opacity:1;stroke:none;stroke-width:0.75"
         xml:space="preserve"><tspan
           style="font-size:3px;fill:#231f20;fill-opacity:1;stroke-width:0.75"
           y="-649.74115"
           x="140.94562"
           id="tspan8150-4-0-3-3-4"
           sodipodi:role="line">+5V</tspan></text>
<text
         transform="scale(1,-1)"
         id="text8152-5-9-8-2-7-0"
         y="-646.01025"
         x="138.06108"
         style="font-style:normal;font-variant:normal;font-weight:normal;font-stretch:normal;font-size:3px;line-height:1.25;font-family:Arial;-inkscape-font-specification:'Arial, Normal';font-variant-ligatures:normal;font-variant-caps:normal;font-variant-numeric:normal;font-feature-settings:normal;text-align:start;letter-spacing:0px;word-spacing:0px;writing-mode:lr-tb;text-anchor:start;fill:#231f20;fill-opacity:1;stroke:none;stroke-width:0.75"
         xml:space="preserve"><tspan
           style="font-size:3px;fill:#231f20;fill-opacity:1;stroke-width:0.75"
           y="-646.01025"
           x="138.06108"
           id="tspan8150-4-0-3-3-4-1"
           sodipodi:role="line">S.Port</tspan></text>
<text
         transform="scale(1,-1)"
         id="text8152-5-9-8-2-7-0-1"
         y="-642.24274"
         x="137.95241"
         style="font-style:normal;font-variant:normal;font-weight:normal;font-stretch:normal;font-size:3px;line-height:1.25;font-family:Arial;-inkscape-font-specification:'Arial, Normal';font-variant-ligatures:normal;font-variant-caps:normal;font-variant-numeric:normal;font-feature-settings:normal;text-align:start;letter-spacing:0px;word-spacing:0px;writing-mode:lr-tb;text-anchor:start;fill:#231f20;fill-opacity:1;stroke:none;stroke-width:0.75"
         xml:space="preserve"><tspan
           style="font-size:3px;fill:#231f20;fill-opacity:1;stroke-width:0.75"
           y="-642.24274"
           x="137.95241"
           id="tspan8150-4-0-3-3-4-1-1"
           sodipodi:role="line">CPPM</tspan></text>
<text
         transform="scale(1,-1)"
         id="text8152-5-9-8-2-7-0-1-2"
         y="-638.46735"
         x="138.32855"
         style="font-style:normal;font-variant:normal;font-weight:normal;font-stretch:normal;font-size:3px;line-height:1.25;font-family:Arial;-inkscape-font-specification:'Arial, Normal';font-variant-ligatures:normal;font-variant-caps:normal;font-variant-numeric:normal;font-feature-settings:normal;text-align:start;letter-spacing:0px;word-spacing:0px;writing-mode:lr-tb;text-anchor:start;fill:#231f20;fill-opacity:1;stroke:none;stroke-width:0.75"
         xml:space="preserve"><tspan
           style="font-size:3px;fill:#231f20;fill-opacity:1;stroke-width:0.75"
           y="-638.46735"
           x="138.32855"
           id="tspan8150-4-0-3-3-4-1-1-3"
           sodipodi:role="line">SBUS</tspan></text>
</g></g></svg>