<?xml version="1.0" encoding="UTF-8" standalone="no"?>
<!-- Created with Inkscape (http://www.inkscape.org/) -->

<svg
   xmlns:dc="http://purl.org/dc/elements/1.1/"
   xmlns:cc="http://creativecommons.org/ns#"
   xmlns:rdf="http://www.w3.org/1999/02/22-rdf-syntax-ns#"
   xmlns:svg="http://www.w3.org/2000/svg"
   xmlns="http://www.w3.org/2000/svg"
   xmlns:sodipodi="http://sodipodi.sourceforge.net/DTD/sodipodi-0.dtd"
   xmlns:inkscape="http://www.inkscape.org/namespaces/inkscape"
   version="1.1"
   id="svg1088"
   xml:space="preserve"
   width="816"
   height="1056"
   viewBox="0 0 816 1056"
   sodipodi:docname="RX8R PRO - User Manual - Product Only.svg"
   inkscape:version="0.92.3 (2405546, 2018-03-11)"><metadata
     id="metadata1094"><rdf:RDF><cc:Work
         rdf:about=""><dc:format>image/svg+xml</dc:format><dc:type
           rdf:resource="http://purl.org/dc/dcmitype/StillImage" /><dc:title /></cc:Work></rdf:RDF></metadata><defs
     id="defs1092" /><sodipodi:namedview
     pagecolor="#ffffff"
     bordercolor="#666666"
     borderopacity="1"
     objecttolerance="10"
     gridtolerance="10"
     guidetolerance="10"
     inkscape:pageopacity="0"
     inkscape:pageshadow="2"
     inkscape:window-width="1680"
     inkscape:window-height="1027"
     id="namedview1090"
     showgrid="false"
     inkscape:zoom="3.1439395"
     inkscape:cx="175.17815"
     inkscape:cy="876.02437"
     inkscape:window-x="-8"
     inkscape:window-y="-8"
     inkscape:window-maximized="1"
     inkscape:current-layer="g1096"
     showguides="true"
     inkscape:guide-bbox="true"><sodipodi:guide
       position="256.04818,840.02889"
       orientation="1,0"
       id="guide1252"
       inkscape:locked="false" /><sodipodi:guide
       position="264.38296,841.27984"
       orientation="1,0"
       id="guide3150"
       inkscape:locked="false" /></sodipodi:namedview><g
     id="g1096"
     inkscape:groupmode="layer"
     inkscape:label="RX8R PRO - User Manual - Product Only"
     transform="matrix(1.3333333,0,0,-1.3333333,0,1056)">


<g
   id="g14863"><g
     transform="translate(183.521,655.773)"
     id="g1098"><path
       inkscape:connector-curvature="0"
       id="path1100"
       style="fill:#231f20;fill-opacity:1;fill-rule:nonzero;stroke:none"
       d="M 0,0 V 1.096 L -1.66,-0.284 0,-1.667 v 1.096 H 6.291 V 0 Z" /></g><g
     transform="translate(183.521,634.385)"
     id="g1102"><path
       inkscape:connector-curvature="0"
       id="path1104"
       style="fill:#231f20;fill-opacity:1;fill-rule:nonzero;stroke:none"
       d="M 0,0 V 1.096 L -1.66,-0.284 0,-1.667 v 1.095 H 6.291 V 0 Z" /></g><g
     transform="translate(163.992,616.692)"
     id="g1106"><path
       inkscape:connector-curvature="0"
       id="path1108"
       style="fill:#231f20;fill-opacity:1;fill-rule:nonzero;stroke:none"
       d="M 0,0 V 6.055 H 1.096 L -0.283,7.842 -1.666,6.055 h 1.095 V -0.571 H 7.43 V 0 Z" /></g><g
     transform="translate(177.994,627.676)"
     id="g1110"><path
       inkscape:connector-curvature="0"
       id="path1112"
       style="fill:none;stroke:#231f20;stroke-width:0.85000002;stroke-linecap:butt;stroke-linejoin:miter;stroke-miterlimit:10;stroke-dasharray:none;stroke-opacity:1"
       d="M 0,0 C 0,-0.511 -0.194,-1.023 -0.583,-1.413 -0.971,-1.804 -1.48,-1.998 -1.989,-1.998 H -23.38 c -0.509,0 -1.018,0.194 -1.406,0.585 -0.389,0.39 -0.583,0.902 -0.583,1.413 v 37.425 c 0,0.508 0.194,1.017 0.579,1.404 0.386,0.388 0.892,0.582 1.397,0.582 h 21.404 c 0.509,0 1.018,-0.195 1.406,-0.586 C -0.194,38.435 0,37.924 0,37.412 Z" /></g><g
     transform="translate(176.1,627.718)"
     id="g1114"><path
       inkscape:connector-curvature="0"
       id="path1116"
       style="fill:none;stroke:#231f20;stroke-width:0.56699997;stroke-linecap:butt;stroke-linejoin:miter;stroke-miterlimit:10;stroke-dasharray:none;stroke-opacity:1"
       d="m 0,0 h -4.372 v 13.595 h 2.361 v 1.788 H 0 Z" /></g><g
     transform="translate(-17.1752,214.761)"
     id="g1118"><path
       inkscape:connector-curvature="0"
       id="path1120"
       style="fill:#231f20;fill-opacity:1;fill-rule:nonzero;stroke:none"
       d="m 191.518,423.242 h -1.01199 v 0.99799 h 1.01199 z" /></g><g
     transform="translate(-17.1752,214.761)"
     id="g1122"><path
       inkscape:connector-curvature="0"
       id="path1124"
       style="fill:#231f20;fill-opacity:1;fill-rule:nonzero;stroke:none"
       d="m 191.518,419.141 h -1.01199 v 0.99701 h 1.01199 z" /></g><g
     transform="translate(-17.1752,214.761)"
     id="g1126"><path
       inkscape:connector-curvature="0"
       id="path1128"
       style="fill:#231f20;fill-opacity:1;fill-rule:nonzero;stroke:none"
       d="m 191.518,415.039 h -1.01199 v 0.99701 h 1.01199 z" /></g><g
     transform="translate(171.728,663.653)"
     id="g1130"><path
       inkscape:connector-curvature="0"
       id="path1132"
       style="fill:none;stroke:#231f20;stroke-width:0.56699997;stroke-linecap:butt;stroke-linejoin:miter;stroke-miterlimit:10;stroke-dasharray:none;stroke-opacity:1"
       d="M 0,0 H 4.372 V -13.595 H 2.01 v -1.788 H 0 Z" /></g><g
     transform="translate(-17.1752,214.761)"
     id="g1134"><path
       inkscape:connector-curvature="0"
       id="path1136"
       style="fill:#231f20;fill-opacity:1;fill-rule:nonzero;stroke:none"
       d="m 190.659,438.606 h 1.01199 v -0.99799 H 190.659 Z" /></g><g
     transform="translate(-17.1752,214.761)"
     id="g1138"><path
       inkscape:connector-curvature="0"
       id="path1140"
       style="fill:#231f20;fill-opacity:1;fill-rule:nonzero;stroke:none"
       d="m 190.659,442.707 h 1.01199 v -0.99799 H 190.659 Z" /></g><g
     transform="translate(-17.1752,214.761)"
     id="g1142"><path
       inkscape:connector-curvature="0"
       id="path1144"
       style="fill:#231f20;fill-opacity:1;fill-rule:nonzero;stroke:none"
       d="m 190.659,446.808 h 1.01199 v -0.99701 H 190.659 Z" /></g><g
     transform="translate(156.741,663.888)"
     id="g1146"><path
       inkscape:connector-curvature="0"
       id="path1148"
       style="fill:none;stroke:#231f20;stroke-width:0.56699997;stroke-linecap:butt;stroke-linejoin:miter;stroke-miterlimit:10;stroke-dasharray:none;stroke-opacity:1"
       d="m 0,0 h -0.674 -1.913 v -1.72 h 1.913 v -2.857 h -1.913 v -1.72 h 1.913 v -2.856 h -1.913 v -1.72 h 1.913 v -2.857 h -1.913 v -1.721 h 1.913 v -2.856 h -1.913 v -1.72 h 1.913 v -2.857 h -1.913 v -1.721 h 1.913 v -2.856 h -1.913 v -1.72 h 1.913 v -2.857 h -1.913 v -1.72 h 1.913 v -2.59 H 13.089 V 0 Z" /></g><g
     transform="translate(-17.1752,214.761)"
     id="g1150"><path
       inkscape:connector-curvature="0"
       id="path1152"
       style="fill:#231f20;fill-opacity:1;fill-rule:nonzero;stroke:none"
       d="m 176.187,446.54 h -0.89999 v 0.89999 h 0.89999 z" /></g><g
     transform="translate(-17.1752,214.761)"
     id="g1154"><path
       inkscape:connector-curvature="0"
       id="path1156"
       style="fill:#231f20;fill-opacity:1;fill-rule:nonzero;stroke:none"
       d="m 180.398,446.54 h -0.899 v 0.89999 h 0.899 z" /></g><g
     transform="translate(-17.1752,214.761)"
     id="g1158"><path
       inkscape:connector-curvature="0"
       id="path1160"
       style="fill:#231f20;fill-opacity:1;fill-rule:nonzero;stroke:none"
       d="m 184.61,446.54 h -0.89999 v 0.89999 H 184.61 Z" /></g><g
     transform="translate(-17.1752,214.761)"
     id="g1162"><path
       inkscape:connector-curvature="0"
       id="path1164"
       style="fill:#231f20;fill-opacity:1;fill-rule:nonzero;stroke:none"
       d="m 176.187,441.99 h -0.89999 v 0.89999 h 0.89999 z" /></g><g
     transform="translate(-17.1752,214.761)"
     id="g1166"><path
       inkscape:connector-curvature="0"
       id="path1168"
       style="fill:#231f20;fill-opacity:1;fill-rule:nonzero;stroke:none"
       d="m 180.398,441.99 h -0.899 v 0.89999 h 0.899 z" /></g><g
     transform="translate(-17.1752,214.761)"
     id="g1170"><path
       inkscape:connector-curvature="0"
       id="path1172"
       style="fill:#231f20;fill-opacity:1;fill-rule:nonzero;stroke:none"
       d="m 184.61,441.99 h -0.89999 v 0.89999 H 184.61 Z" /></g><g
     transform="translate(-17.1752,214.761)"
     id="g1174"><path
       inkscape:connector-curvature="0"
       id="path1176"
       style="fill:#231f20;fill-opacity:1;fill-rule:nonzero;stroke:none"
       d="m 176.187,437.44 h -0.89999 v 0.89999 h 0.89999 z" /></g><g
     transform="translate(-17.1752,214.761)"
     id="g1178"><path
       inkscape:connector-curvature="0"
       id="path1180"
       style="fill:#231f20;fill-opacity:1;fill-rule:nonzero;stroke:none"
       d="m 180.398,437.44 h -0.899 v 0.89999 h 0.899 z" /></g><g
     transform="translate(-17.1752,214.761)"
     id="g1182"><path
       inkscape:connector-curvature="0"
       id="path1184"
       style="fill:#231f20;fill-opacity:1;fill-rule:nonzero;stroke:none"
       d="m 184.61,437.44 h -0.89999 v 0.89999 H 184.61 Z" /></g><g
     transform="translate(-17.1752,214.761)"
     id="g1186"><path
       inkscape:connector-curvature="0"
       id="path1188"
       style="fill:#231f20;fill-opacity:1;fill-rule:nonzero;stroke:none"
       d="m 176.187,432.89 h -0.89999 v 0.89999 h 0.89999 z" /></g><g
     transform="translate(-17.1752,214.761)"
     id="g1190"><path
       inkscape:connector-curvature="0"
       id="path1192"
       style="fill:#231f20;fill-opacity:1;fill-rule:nonzero;stroke:none"
       d="m 180.398,432.89 h -0.899 v 0.89999 h 0.899 z" /></g><g
     transform="translate(-17.1752,214.761)"
     id="g1194"><path
       inkscape:connector-curvature="0"
       id="path1196"
       style="fill:#231f20;fill-opacity:1;fill-rule:nonzero;stroke:none"
       d="m 184.61,432.89 h -0.89999 v 0.89999 H 184.61 Z" /></g><g
     transform="translate(-17.1752,214.761)"
     id="g1198"><path
       inkscape:connector-curvature="0"
       id="path1200"
       style="fill:#231f20;fill-opacity:1;fill-rule:nonzero;stroke:none"
       d="m 176.187,428.34 h -0.89999 v 0.89899 h 0.89999 z" /></g><g
     transform="translate(-17.1752,214.761)"
     id="g1202"><path
       inkscape:connector-curvature="0"
       id="path1204"
       style="fill:#231f20;fill-opacity:1;fill-rule:nonzero;stroke:none"
       d="m 180.398,428.34 h -0.899 v 0.89899 h 0.899 z" /></g><g
     transform="translate(-17.1752,214.761)"
     id="g1206"><path
       inkscape:connector-curvature="0"
       id="path1208"
       style="fill:#231f20;fill-opacity:1;fill-rule:nonzero;stroke:none"
       d="m 184.61,428.34 h -0.89999 v 0.89899 H 184.61 Z" /></g><g
     transform="translate(-17.1752,214.761)"
     id="g1210"><path
       inkscape:connector-curvature="0"
       id="path1212"
       style="fill:#231f20;fill-opacity:1;fill-rule:nonzero;stroke:none"
       d="m 176.187,423.789 h -0.89999 v 0.89999 h 0.89999 z" /></g><g
     transform="translate(-17.1752,214.761)"
     id="g1214"><path
       inkscape:connector-curvature="0"
       id="path1216"
       style="fill:#231f20;fill-opacity:1;fill-rule:nonzero;stroke:none"
       d="m 180.398,423.789 h -0.899 v 0.89999 h 0.899 z" /></g><g
     transform="translate(-17.1752,214.761)"
     id="g1218"><path
       inkscape:connector-curvature="0"
       id="path1220"
       style="fill:#231f20;fill-opacity:1;fill-rule:nonzero;stroke:none"
       d="m 184.61,423.789 h -0.89999 v 0.89999 H 184.61 Z" /></g><g
     transform="translate(-17.1752,214.761)"
     id="g1222"><path
       inkscape:connector-curvature="0"
       id="path1224"
       style="fill:#231f20;fill-opacity:1;fill-rule:nonzero;stroke:none"
       d="m 176.187,419.239 h -0.89999 v 0.89899 h 0.89999 z" /></g><g
     transform="translate(-17.1752,214.761)"
     id="g1226"><path
       inkscape:connector-curvature="0"
       id="path1228"
       style="fill:#231f20;fill-opacity:1;fill-rule:nonzero;stroke:none"
       d="m 180.398,419.239 h -0.899 v 0.89899 h 0.899 z" /></g><g
     transform="translate(-17.1752,214.761)"
     id="g1230"><path
       inkscape:connector-curvature="0"
       id="path1232"
       style="fill:#231f20;fill-opacity:1;fill-rule:nonzero;stroke:none"
       d="m 184.61,419.239 h -0.89999 v 0.89899 H 184.61 Z" /></g><g
     transform="translate(-17.1752,214.761)"
     id="g1234"><path
       inkscape:connector-curvature="0"
       id="path1236"
       style="fill:#231f20;fill-opacity:1;fill-rule:nonzero;stroke:none"
       d="m 176.187,414.689 h -0.89999 v 0.89899 h 0.89999 z" /></g><g
     transform="translate(-17.1752,214.761)"
     id="g1238"><path
       inkscape:connector-curvature="0"
       id="path1240"
       style="fill:#231f20;fill-opacity:1;fill-rule:nonzero;stroke:none"
       d="m 180.398,414.689 h -0.899 v 0.89899 h 0.899 z" /></g><g
     transform="translate(-17.1752,214.761)"
     id="g1242"><path
       inkscape:connector-curvature="0"
       id="path1244"
       style="fill:#231f20;fill-opacity:1;fill-rule:nonzero;stroke:none"
       d="m 184.61,414.689 h -0.89999 v 0.89899 H 184.61 Z" /></g><g
     transform="translate(171.728,667.087)"
     id="g1246"><path
       inkscape:connector-curvature="0"
       id="path1248"
       style="fill:#7b7979;fill-opacity:1;fill-rule:nonzero;stroke:#231f20;stroke-width:0.56699997;stroke-linecap:butt;stroke-linejoin:miter;stroke-miterlimit:10;stroke-dasharray:none;stroke-opacity:1"
       d="M 0,0 V -41.409" /></g><g
     transform="translate(58.9752,662.607)"
     id="g1250"><path
       inkscape:connector-curvature="0"
       id="path1252"
       style="fill:#231f20;fill-opacity:1;fill-rule:nonzero;stroke:none"
       d="M 0,0 V -1.096 L 1.992,0.284 0,1.666 V 0.571 H -7.546 V 0 Z" /></g><g
     transform="translate(-17.1752,214.761)"
     id="g1254"><path
       inkscape:connector-curvature="0"
       id="path1256"
       style="fill:#918f90;fill-opacity:1;fill-rule:nonzero;stroke:#231f20;stroke-width:0.28299999;stroke-linecap:butt;stroke-linejoin:miter;stroke-miterlimit:10;stroke-dasharray:none;stroke-opacity:1"
       d="M 89.877,429.343 H 77.564 v 2.32401 h 12.313 z" /></g><g
     transform="translate(-17.1752,214.761)"
     id="g1258"><path
       inkscape:connector-curvature="0"
       id="path1260"
       style="fill:#918f90;fill-opacity:1;fill-rule:nonzero;stroke:#231f20;stroke-width:0.28299999;stroke-linecap:butt;stroke-linejoin:miter;stroke-miterlimit:10;stroke-dasharray:none;stroke-opacity:1"
       d="m 90.424,427.824 h -0.546997 v 4.935 H 90.424 Z" /></g><g
     transform="translate(-17.1752,214.761)"
     id="g1262"><path
       inkscape:connector-curvature="0"
       id="path1264"
       style="fill:#918f90;fill-opacity:1;fill-rule:nonzero;stroke:#231f20;stroke-width:0.28299999;stroke-linecap:butt;stroke-linejoin:miter;stroke-miterlimit:10;stroke-dasharray:none;stroke-opacity:1"
       d="M 89.877,420.121 H 77.564 v 2.32401 h 12.313 z" /></g><g
     transform="translate(-17.1752,214.761)"
     id="g1266"><path
       inkscape:connector-curvature="0"
       id="path1268"
       style="fill:#918f90;fill-opacity:1;fill-rule:nonzero;stroke:#231f20;stroke-width:0.28299999;stroke-linecap:butt;stroke-linejoin:miter;stroke-miterlimit:10;stroke-dasharray:none;stroke-opacity:1"
       d="m 90.424,418.603 h -0.546997 v 4.935 H 90.424 Z" /></g><g
     transform="translate(145.961,667.032)"
     id="g1270"><path
       inkscape:connector-curvature="0"
       id="path1272"
       style="fill:none;stroke:#231f20;stroke-width:0.85000002;stroke-linecap:butt;stroke-linejoin:miter;stroke-miterlimit:10;stroke-dasharray:none;stroke-opacity:1"
       d="m 0,0 h -70.954 l -0.477,-0.036 -0.402,-0.184 -0.366,-0.293 -0.257,-0.329 -0.183,-0.44 -0.073,-0.439 v -37.218 l 0.073,-0.439 0.183,-0.402 0.257,-0.368 0.366,-0.292 0.402,-0.147 0.477,-0.073 H 0 l 0.44,0.073 0.403,0.147 0.365,0.292 0.258,0.368 0.182,0.402 0.074,0.439 V -1.721 L 1.648,-1.282 1.466,-0.842 1.208,-0.513 0.843,-0.22 0.44,-0.036 Z" /></g><g
     transform="translate(69.2148,655.201)"
     id="g1274"><path
       inkscape:connector-curvature="0"
       id="path1276"
       style="fill:none;stroke:#231f20;stroke-width:0.56699997;stroke-linecap:butt;stroke-linejoin:miter;stroke-miterlimit:10;stroke-dasharray:none;stroke-opacity:1"
       d="m 0,0 h -4.372 v 13.595 h 2.362 v 1.788 H 0 Z" /></g><g
     transform="translate(-17.1752,214.761)"
     id="g1278"><path
       inkscape:connector-curvature="0"
       id="path1280"
       style="fill:#231f20;fill-opacity:1;fill-rule:nonzero;stroke:none"
       d="m 84.633,450.844 h -1.012 v 1.01199 h 1.012 z" /></g><g
     transform="translate(-17.1752,214.761)"
     id="g1282"><path
       inkscape:connector-curvature="0"
       id="path1284"
       style="fill:#231f20;fill-opacity:1;fill-rule:nonzero;stroke:none"
       d="m 84.633,446.684 h -1.012 v 1.01199 h 1.012 z" /></g><g
     transform="translate(-17.1752,214.761)"
     id="g1286"><path
       inkscape:connector-curvature="0"
       id="path1288"
       style="fill:#231f20;fill-opacity:1;fill-rule:nonzero;stroke:none"
       d="m 84.633,442.523 h -1.012 v 1.01199 h 1.012 z" /></g><g
     transform="translate(71.7148,662.85)"
     id="g1290"><path
       inkscape:connector-curvature="0"
       id="path1292"
       style="fill:none;stroke:#231f20;stroke-width:0.42500001;stroke-linecap:butt;stroke-linejoin:miter;stroke-miterlimit:10;stroke-dasharray:none;stroke-opacity:1"
       d="m 0,0 c 0,-5.297 -2.054,-9.591 -4.588,-9.591 -2.534,0 -4.588,4.294 -4.588,9.591 0,5.297 2.054,9.59 4.588,9.59 C -2.054,9.59 0,5.297 0,0 Z" /></g><g
     transform="translate(76.5879,637.473)"
     id="g1294"><path
       inkscape:connector-curvature="0"
       id="path1296"
       style="fill:#231f20;fill-opacity:1;fill-rule:nonzero;stroke:none"
       d="M 0,0 0.874,-0.662 1.5,2.451 -1.329,1.007 -0.455,0.345 -6.998,-8.293 -6.543,-8.637 Z" /></g><g
     transform="translate(83.1506,629.851)"
     id="g1298"><path
       inkscape:connector-curvature="0"
       id="path1300"
       style="fill:#231f20;fill-opacity:1;fill-rule:nonzero;stroke:none"
       d="m 0,0 1.015,0.413 -2.107,1.518 -0.452,-2.559 1.016,0.413 3.139,-7.718 0.53,0.215 z" /></g><g
     transform="translate(144.555,629.86)"
     id="g1302"><path
       inkscape:connector-curvature="0"
       id="path1304"
       style="fill:none;stroke:#231f20;stroke-width:0.56699997;stroke-linecap:butt;stroke-linejoin:miter;stroke-miterlimit:4;stroke-dasharray:none;stroke-opacity:1"
       d="m 0,0 c 0,-0.411 -0.157,-0.821 -0.47,-1.135 -0.314,-0.313 -0.724,-0.47 -1.135,-0.47 h -64.968 c -0.411,0 -0.821,0.157 -1.135,0.47 -0.313,0.314 -0.469,0.724 -0.469,1.135 v 33.687 c 0,0.41 0.156,0.82 0.469,1.134 0.314,0.313 0.724,0.47 1.135,0.47 h 64.968 c 0.411,0 0.821,-0.157 1.135,-0.47 C -0.157,34.507 0,34.097 0,33.687 Z" /></g><g
     transform="translate(82.4998,642.375)"
     id="g1306"><path
       inkscape:connector-curvature="0"
       id="path1308"
       style="fill:none;stroke:#7d7b7b;stroke-width:0.56699997;stroke-linecap:butt;stroke-linejoin:miter;stroke-miterlimit:4;stroke-dasharray:none;stroke-opacity:1"
       d="m 0,0 c 0,-1.329 -1.078,-2.406 -2.406,-2.406 -1.329,0 -2.406,1.077 -2.406,2.406 0,1.329 1.077,2.406 2.406,2.406 C -1.078,2.406 0,1.329 0,0 Z" /></g><g
     transform="translate(-17.1752,214.761)"
     id="g1310"><path
       inkscape:connector-curvature="0"
       id="path1312"
       style="fill:#d3d2d2;fill-opacity:1;fill-rule:nonzero;stroke:none"
       d="m 99.675,418.387 h -4.812 v 3.20902 h 4.812 z" /></g><g
     transform="translate(141.28,662.008)"
     id="g1314"><path
       inkscape:connector-curvature="0"
       id="path1316"
       style="fill:#918f90;fill-opacity:1;fill-rule:nonzero;stroke:none"
       d="M 0,0 1.306,-0.704 0,-1.407 Z" /></g><g
     transform="translate(141.28,657.837)"
     id="g1318"><path
       inkscape:connector-curvature="0"
       id="path1320"
       style="fill:#918f90;fill-opacity:1;fill-rule:nonzero;stroke:none"
       d="M 0,0 1.306,-0.704 0,-1.407 Z" /></g><g
     transform="translate(141.28,653.666)"
     id="g1322"><path
       inkscape:connector-curvature="0"
       id="path1324"
       style="fill:#918f90;fill-opacity:1;fill-rule:nonzero;stroke:none"
       d="M 0,0 1.306,-0.704 0,-1.407 Z" /></g><g
     transform="translate(141.28,649.495)"
     id="g1326"><path
       inkscape:connector-curvature="0"
       id="path1328"
       style="fill:#918f90;fill-opacity:1;fill-rule:nonzero;stroke:none"
       d="M 0,0 1.306,-0.704 0,-1.407 Z" /></g><g
     transform="translate(141.28,645.325)"
     id="g1330"><path
       inkscape:connector-curvature="0"
       id="path1332"
       style="fill:#918f90;fill-opacity:1;fill-rule:nonzero;stroke:none"
       d="M 0,0 1.306,-0.704 0,-1.407 Z" /></g><g
     transform="translate(141.28,641.153)"
     id="g1334"><path
       inkscape:connector-curvature="0"
       id="path1336"
       style="fill:#918f90;fill-opacity:1;fill-rule:nonzero;stroke:none"
       d="M 0,0 1.306,-0.704 0,-1.407 Z" /></g><g
     transform="translate(141.28,636.983)"
     id="g1338"><path
       inkscape:connector-curvature="0"
       id="path1340"
       style="fill:#918f90;fill-opacity:1;fill-rule:nonzero;stroke:none"
       d="M 0,0 1.306,-0.704 0,-1.407 Z" /></g><g
     transform="translate(141.28,632.812)"
     id="g1342"><path
       inkscape:connector-curvature="0"
       id="path1344"
       style="fill:#918f90;fill-opacity:1;fill-rule:nonzero;stroke:none"
       d="M 0,0 1.306,-0.704 0,-1.407 Z" /></g><g
     transform="translate(139.186,662.206)"
     id="g1346"><path
       inkscape:connector-curvature="0"
       id="path1348"
       style="fill:#231f20;fill-opacity:1;fill-rule:nonzero;stroke:none"
       d="m 0,0 h 0.259 v -1.899 h 0.347 v -0.263 h -1.065 v 0.263 h 0.371 v 1.465 c -0.096,-0.116 -0.223,-0.217 -0.38,-0.302 v 0.329 C -0.285,-0.307 -0.128,-0.171 0,0" /></g><g
     transform="translate(138.778,657.325)"
     id="g1350"><path
       inkscape:connector-curvature="0"
       id="path1352"
       style="fill:#231f20;fill-opacity:1;fill-rule:nonzero;stroke:none"
       d="m 0,0 -0.319,0.067 c 0.037,0.216 0.115,0.379 0.234,0.491 C 0.033,0.67 0.184,0.725 0.368,0.725 0.569,0.725 0.726,0.666 0.84,0.548 0.954,0.43 1.01,0.279 1.01,0.096 1.01,-0.117 0.928,-0.32 0.765,-0.512 0.601,-0.704 0.364,-0.914 0.056,-1.142 h 0.967 l -0.016,-0.31 h -1.326 v 0.307 c 0.414,0.357 0.678,0.617 0.793,0.78 0.114,0.163 0.171,0.31 0.171,0.44 0,0.105 -0.026,0.19 -0.08,0.257 -0.054,0.067 -0.126,0.1 -0.218,0.1 C 0.152,0.432 0.036,0.289 0,0" /></g><g
     transform="translate(138.772,653.291)"
     id="g1354"><path
       inkscape:connector-curvature="0"
       id="path1356"
       style="fill:#231f20;fill-opacity:1;fill-rule:nonzero;stroke:none"
       d="m 0,0 -0.298,0.069 c 0.098,0.347 0.318,0.52 0.66,0.52 0.195,0 0.348,-0.052 0.459,-0.155 0.112,-0.102 0.167,-0.243 0.167,-0.42 0,-0.226 -0.111,-0.386 -0.333,-0.479 0.262,-0.071 0.393,-0.245 0.393,-0.524 0,-0.198 -0.065,-0.354 -0.194,-0.468 -0.13,-0.114 -0.296,-0.171 -0.5,-0.171 -0.183,0 -0.338,0.046 -0.466,0.136 -0.128,0.09 -0.209,0.236 -0.244,0.438 l 0.304,0.072 c 0.053,-0.244 0.18,-0.365 0.384,-0.365 0.093,0 0.173,0.03 0.241,0.091 0.068,0.061 0.102,0.158 0.102,0.291 0,0.104 -0.031,0.19 -0.092,0.256 -0.062,0.066 -0.175,0.099 -0.34,0.099 H 0.108 v 0.26 h 0.135 c 0.092,0 0.162,0.008 0.21,0.024 0.049,0.016 0.091,0.05 0.126,0.103 0.036,0.053 0.054,0.121 0.054,0.205 0,0.103 -0.026,0.184 -0.078,0.245 C 0.502,0.288 0.43,0.318 0.337,0.318 0.164,0.318 0.052,0.212 0,0" /></g><g
     transform="translate(139.303,648.302)"
     id="g1358"><path
       inkscape:connector-curvature="0"
       id="path1360"
       style="fill:#231f20;fill-opacity:1;fill-rule:nonzero;stroke:none"
       d="M 0,0 V 1.097 L -0.572,0 Z M -0.08,1.407 H 0.326 V 0.013 H 0.594 V -0.26 H 0.326 V -0.771 H -0.017 V -0.26 H -0.852 V 0 Z" /></g><g
     transform="translate(138.639,645.499)"
     id="g1362"><path
       inkscape:connector-curvature="0"
       id="path1364"
       style="fill:#231f20;fill-opacity:1;fill-rule:nonzero;stroke:none"
       d="M 0,0 H 1.112 L 1.079,-0.31 H 0.266 L 0.235,-0.903 c 0.099,0.133 0.231,0.2 0.395,0.2 0.178,0 0.321,-0.063 0.429,-0.189 0.107,-0.125 0.161,-0.3 0.161,-0.525 0,-0.24 -0.064,-0.427 -0.193,-0.561 -0.129,-0.133 -0.3,-0.2 -0.512,-0.2 -0.168,0 -0.313,0.047 -0.435,0.14 -0.122,0.093 -0.2,0.23 -0.232,0.412 l 0.315,0.077 c 0.049,-0.224 0.17,-0.336 0.363,-0.336 0.234,0 0.351,0.152 0.351,0.455 0,0.137 -0.029,0.243 -0.087,0.319 -0.058,0.076 -0.143,0.115 -0.255,0.115 -0.158,0 -0.27,-0.079 -0.336,-0.235 l -0.266,0.056 z" /></g><g
     transform="translate(139.551,639.864)"
     id="g1366"><path
       inkscape:connector-curvature="0"
       id="path1368"
       style="fill:#231f20;fill-opacity:1;fill-rule:nonzero;stroke:none"
       d="M 0,0 C 0,0.143 -0.028,0.251 -0.085,0.323 -0.141,0.395 -0.217,0.431 -0.311,0.431 -0.424,0.431 -0.51,0.389 -0.57,0.306 -0.63,0.223 -0.659,0.12 -0.659,-0.003 c 0,-0.127 0.03,-0.231 0.092,-0.313 0.062,-0.082 0.145,-0.123 0.25,-0.123 C -0.106,-0.439 0,-0.293 0,0 M 0.324,0.985 0.03,0.893 C -0.02,1.117 -0.129,1.23 -0.296,1.23 -0.43,1.23 -0.529,1.161 -0.593,1.022 -0.657,0.884 -0.692,0.673 -0.699,0.389 c 0.093,0.21 0.245,0.316 0.456,0.316 0.163,0 0.302,-0.063 0.415,-0.189 0.114,-0.126 0.171,-0.295 0.171,-0.508 0,-0.217 -0.06,-0.392 -0.181,-0.523 -0.12,-0.132 -0.28,-0.198 -0.478,-0.198 -0.21,0 -0.381,0.086 -0.512,0.257 -0.131,0.171 -0.196,0.439 -0.196,0.802 0,0.375 0.065,0.662 0.197,0.86 0.132,0.199 0.31,0.298 0.536,0.298 0.148,0 0.277,-0.041 0.387,-0.124 C 0.205,1.298 0.282,1.166 0.324,0.985" /></g><g
     transform="translate(138.607,637.158)"
     id="g1370"><path
       inkscape:connector-curvature="0"
       id="path1372"
       style="fill:#231f20;fill-opacity:1;fill-rule:nonzero;stroke:none"
       d="M 0,0 H 1.235 V -0.249 C 1.057,-0.477 0.915,-0.759 0.809,-1.095 0.703,-1.431 0.65,-1.779 0.65,-2.138 H 0.276 c 0,0.652 0.214,1.262 0.642,1.828 h -0.946 z" /></g><g
     transform="translate(139.22,632.117)"
     id="g1374"><path
       inkscape:connector-curvature="0"
       id="path1376"
       style="fill:#231f20;fill-opacity:1;fill-rule:nonzero;stroke:none"
       d="M 0,0 C 0.194,0.097 0.291,0.217 0.291,0.359 0.291,0.445 0.262,0.518 0.204,0.576 0.146,0.634 0.069,0.663 -0.028,0.663 -0.12,0.663 -0.196,0.636 -0.255,0.582 -0.315,0.528 -0.345,0.458 -0.345,0.373 -0.345,0.21 -0.23,0.086 0,0 m -0.109,-0.313 c -0.22,-0.093 -0.33,-0.223 -0.33,-0.39 0,-0.111 0.037,-0.197 0.11,-0.259 0.073,-0.061 0.166,-0.092 0.28,-0.092 0.105,0 0.193,0.029 0.264,0.087 0.072,0.058 0.108,0.135 0.108,0.232 0,0.085 -0.03,0.159 -0.088,0.224 -0.058,0.064 -0.173,0.13 -0.344,0.198 m 0.375,0.2 c 0.267,-0.128 0.4,-0.318 0.4,-0.57 0,-0.177 -0.065,-0.326 -0.194,-0.446 -0.129,-0.119 -0.308,-0.179 -0.536,-0.179 -0.226,0 -0.398,0.054 -0.516,0.161 -0.119,0.108 -0.178,0.248 -0.178,0.422 0,0.241 0.132,0.422 0.398,0.543 -0.216,0.126 -0.324,0.294 -0.324,0.505 0,0.167 0.057,0.306 0.171,0.418 0.114,0.112 0.276,0.168 0.485,0.168 0.2,0 0.355,-0.051 0.464,-0.153 C 0.545,0.654 0.6,0.523 0.6,0.363 0.6,0.154 0.489,-0.004 0.266,-0.113" /></g><g
     transform="translate(93.1891,638.624)"
     id="g1378"><path
       inkscape:connector-curvature="0"
       id="path1380"
       style="fill:#231f20;fill-opacity:1;fill-rule:nonzero;stroke:none"
       d="M 0,0 C 0.175,0.069 0.262,0.154 0.262,0.255 0.262,0.316 0.236,0.368 0.184,0.409 0.132,0.45 0.062,0.471 -0.025,0.471 -0.108,0.471 -0.176,0.452 -0.23,0.413 -0.284,0.375 -0.31,0.326 -0.31,0.265 -0.31,0.149 -0.207,0.061 0,0 m -0.098,-0.223 c -0.198,-0.066 -0.297,-0.158 -0.297,-0.277 0,-0.078 0.033,-0.14 0.098,-0.183 0.066,-0.044 0.15,-0.066 0.253,-0.066 0.094,0 0.174,0.02 0.238,0.062 0.064,0.041 0.096,0.096 0.096,0.165 0,0.06 -0.026,0.113 -0.078,0.159 -0.053,0.045 -0.156,0.092 -0.31,0.14 M 0.24,-0.08 c 0.239,-0.091 0.359,-0.226 0.359,-0.405 0,-0.127 -0.058,-0.232 -0.174,-0.317 -0.116,-0.085 -0.277,-0.128 -0.483,-0.128 -0.203,0 -0.358,0.039 -0.465,0.115 -0.106,0.077 -0.16,0.176 -0.16,0.3 0,0.171 0.12,0.3 0.359,0.386 -0.195,0.089 -0.292,0.208 -0.292,0.358 0,0.119 0.051,0.218 0.154,0.297 0.103,0.08 0.248,0.119 0.437,0.119 0.18,0 0.319,-0.036 0.418,-0.108 C 0.491,0.465 0.54,0.372 0.54,0.258 0.54,0.11 0.44,-0.003 0.24,-0.08" /></g><g
     transform="translate(95.5757,639.242)"
     id="g1382"><path
       inkscape:connector-curvature="0"
       id="path1384"
       style="fill:#231f20;fill-opacity:1;fill-rule:nonzero;stroke:none"
       d="m 0,0 h 0.22 l -1.062,-1.9 h -0.22 z" /></g><g
     transform="translate(97.3557,639.259)"
     id="g1386"><path
       inkscape:connector-curvature="0"
       id="path1388"
       style="fill:#231f20;fill-opacity:1;fill-rule:nonzero;stroke:none"
       d="m 0,0 h 0.233 v -1.349 h 0.313 v -0.187 h -0.959 v 0.187 h 0.334 v 1.041 C -0.165,-0.391 -0.28,-0.462 -0.421,-0.523 v 0.234 C -0.256,-0.218 -0.115,-0.122 0,0" /></g><g
     transform="translate(99.7105,638.201)"
     id="g1390"><path
       inkscape:connector-curvature="0"
       id="path1392"
       style="fill:#231f20;fill-opacity:1;fill-rule:nonzero;stroke:none"
       d="m 0,0 c 0,0.102 -0.025,0.178 -0.076,0.229 -0.051,0.051 -0.119,0.077 -0.204,0.077 -0.102,0 -0.179,-0.029 -0.233,-0.088 -0.054,-0.059 -0.081,-0.133 -0.081,-0.22 0,-0.09 0.028,-0.164 0.084,-0.222 0.055,-0.058 0.13,-0.088 0.225,-0.088 C -0.095,-0.312 0,-0.208 0,0 M 0.292,0.7 0.027,0.634 c -0.045,0.16 -0.143,0.24 -0.293,0.24 -0.121,0 -0.21,-0.049 -0.268,-0.148 -0.057,-0.098 -0.089,-0.248 -0.095,-0.45 0.084,0.15 0.221,0.225 0.41,0.225 0.147,0 0.272,-0.045 0.374,-0.134 0.103,-0.09 0.154,-0.21 0.154,-0.361 0,-0.155 -0.054,-0.279 -0.163,-0.372 -0.109,-0.094 -0.252,-0.141 -0.431,-0.141 -0.189,0 -0.342,0.061 -0.46,0.183 -0.118,0.122 -0.177,0.312 -0.177,0.57 0,0.266 0.059,0.47 0.178,0.611 0.118,0.141 0.279,0.212 0.482,0.212 0.133,0 0.249,-0.03 0.348,-0.088 C 0.185,0.922 0.253,0.828 0.292,0.7" /></g><g
     transform="translate(101.933,638.234)"
     id="g1394"><path
       inkscape:connector-curvature="0"
       id="path1396"
       style="fill:#231f20;fill-opacity:1;fill-rule:nonzero;stroke:none"
       d="m 0,0 0.293,-0.032 c -0.06,-0.338 -0.27,-0.507 -0.629,-0.507 -0.234,0 -0.408,0.071 -0.523,0.213 -0.115,0.142 -0.172,0.331 -0.172,0.569 0,0.256 0.061,0.452 0.182,0.588 0.121,0.137 0.296,0.205 0.524,0.205 0.353,0 0.56,-0.173 0.621,-0.518 L 0,0.483 c -0.032,0.23 -0.14,0.345 -0.324,0.345 -0.246,0 -0.369,-0.2 -0.369,-0.6 0,-0.372 0.123,-0.558 0.369,-0.558 0.099,0 0.172,0.028 0.22,0.085 C -0.055,-0.189 -0.021,-0.107 0,0" /></g><g
     transform="translate(103.163,639.242)"
     id="g1398"><path
       inkscape:connector-curvature="0"
       id="path1400"
       style="fill:#231f20;fill-opacity:1;fill-rule:nonzero;stroke:none"
       d="M 0,0 H 0.319 V -0.63 H 0.886 V 0 H 1.204 V -1.52 H 0.886 v 0.677 H 0.319 V -1.52 H 0 Z" /></g><g
     transform="translate(107.601,639.242)"
     id="g1402"><path
       inkscape:connector-curvature="0"
       id="path1404"
       style="fill:#231f20;fill-opacity:1;fill-rule:nonzero;stroke:none"
       d="M 0,0 H 1.176 V -0.214 H 0.746 V -1.52 H 0.427 v 1.306 l -0.427,0 z" /></g><g
     transform="translate(109.587,639.242)"
     id="g1406"><path
       inkscape:connector-curvature="0"
       id="path1408"
       style="fill:#231f20;fill-opacity:1;fill-rule:nonzero;stroke:none"
       d="M 0,0 H 1.103 V -0.202 H 0.319 V -0.636 H 0.933 V -0.838 H 0.319 V -1.314 H 1.115 V -1.52 H 0 Z" /></g><g
     transform="translate(111.588,639.242)"
     id="g1410"><path
       inkscape:connector-curvature="0"
       id="path1412"
       style="fill:#231f20;fill-opacity:1;fill-rule:nonzero;stroke:none"
       d="M 0,0 H 0.319 V -1.307 H 1 V -1.52 H 0 Z" /></g><g
     transform="translate(113.441,639.242)"
     id="g1414"><path
       inkscape:connector-curvature="0"
       id="path1416"
       style="fill:#231f20;fill-opacity:1;fill-rule:nonzero;stroke:none"
       d="M 0,0 H 1.103 V -0.202 H 0.319 V -0.636 H 0.933 V -0.838 H 0.319 V -1.314 H 1.115 V -1.52 H 0 Z" /></g><g
     transform="translate(115.435,639.242)"
     id="g1418"><path
       inkscape:connector-curvature="0"
       id="path1420"
       style="fill:#231f20;fill-opacity:1;fill-rule:nonzero;stroke:none"
       d="M 0,0 H 0.473 L 0.857,-1.095 1.25,0 H 1.703 V -1.52 H 1.404 v 1.297 L 0.947,-1.52 H 0.715 L 0.266,-0.222 V -1.52 H 0 Z" /></g><g
     transform="translate(118.18,639.242)"
     id="g1422"><path
       inkscape:connector-curvature="0"
       id="path1424"
       style="fill:#231f20;fill-opacity:1;fill-rule:nonzero;stroke:none"
       d="M 0,0 H 1.103 V -0.202 H 0.319 V -0.636 H 0.933 V -0.838 H 0.319 V -1.314 H 1.115 V -1.52 H 0 Z" /></g><g
     transform="translate(119.95,639.242)"
     id="g1426"><path
       inkscape:connector-curvature="0"
       id="path1428"
       style="fill:#231f20;fill-opacity:1;fill-rule:nonzero;stroke:none"
       d="M 0,0 H 1.176 V -0.214 H 0.746 V -1.52 H 0.427 v 1.306 l -0.427,0 z" /></g><g
     transform="translate(122.255,639.047)"
     id="g1430"><path
       inkscape:connector-curvature="0"
       id="path1432"
       style="fill:#231f20;fill-opacity:1;fill-rule:nonzero;stroke:none"
       d="m 0,0 v -0.495 h 0.244 c 0.109,0 0.189,0.023 0.24,0.071 0.052,0.047 0.077,0.109 0.077,0.186 C 0.561,-0.08 0.456,0 0.246,0 Z m -0.319,0.195 h 0.58 C 0.47,0.195 0.625,0.157 0.725,0.082 0.824,0.007 0.874,-0.1 0.874,-0.241 0.874,-0.427 0.776,-0.56 0.579,-0.638 L 0.944,-1.325 H 0.599 L 0.3,-0.69 H 0 v -0.635 h -0.319 z" /></g><g
     transform="translate(123.857,639.242)"
     id="g1434"><path
       inkscape:connector-curvature="0"
       id="path1436"
       style="fill:#231f20;fill-opacity:1;fill-rule:nonzero;stroke:none"
       d="M 0,0 H 0.346 L 0.7,-0.634 1.06,0 H 1.365 L 0.831,-0.877 V -1.52 H 0.512 v 0.643 z" /></g><g
     transform="translate(89.1403,660.156)"
     id="g1438"><path
       inkscape:connector-curvature="0"
       id="path1440"
       style="fill:#ffffff;fill-opacity:1;fill-rule:nonzero;stroke:none"
       d="M 0,0 0.735,-0.733 V -4.375 L 0.036,-5.076 v -5.677 H -4.209 V 0 Z" /></g><g
     transform="translate(89.1403,660.156)"
     id="g1442"><path
       inkscape:connector-curvature="0"
       id="path1444"
       style="fill:none;stroke:#231f20;stroke-width:0.25;stroke-linecap:butt;stroke-linejoin:miter;stroke-miterlimit:10;stroke-dasharray:none;stroke-opacity:1"
       d="M 0,0 0.735,-0.733 V -4.375 L 0.036,-5.076 v -5.677 H -4.209 V 0 Z" /></g><g
     transform="translate(84.5468,649.052)"
     id="g1446"><path
       inkscape:connector-curvature="0"
       id="path1448"
       style="fill:#ffffff;fill-opacity:1;fill-rule:nonzero;stroke:none"
       d="m 0,0 -0.735,0.734 v 3.641 l 0.699,0.7 v 5.678 H 4.209 V 0 Z" /></g><g
     transform="translate(84.5468,649.052)"
     id="g1450"><path
       inkscape:connector-curvature="0"
       id="path1452"
       style="fill:none;stroke:#231f20;stroke-width:0.25;stroke-linecap:butt;stroke-linejoin:miter;stroke-miterlimit:10;stroke-dasharray:none;stroke-opacity:1"
       d="m 0,0 -0.735,0.734 v 3.641 l 0.699,0.7 v 5.678 H 4.209 V 0 Z" /></g><g
     transform="translate(84.5363,652.695)"
     id="g1454"><path
       inkscape:connector-curvature="0"
       id="path1456"
       style="fill:#231f20;fill-opacity:1;fill-rule:nonzero;stroke:none"
       d="m 0,0 c 0,0.046 0.021,0.092 0.059,0.124 0.039,0.03 0.087,0.039 0.132,0.03 L 0.453,0.096 v -1.772 c 0,-0.024 0.007,-0.046 0.02,-0.066 0.013,-0.017 0.032,-0.029 0.054,-0.031 L 2.3,-2.134 V -2.178 C 2.3,-2.318 2.228,-2.479 2.098,-2.601 1.971,-2.722 1.816,-2.773 1.695,-2.748 L 0.291,-2.457 C 0.205,-2.439 0.132,-2.395 0.079,-2.323 0.026,-2.25 0,-2.16 0,-2.062 Z" /></g><g
     transform="translate(88.1378,649.746)"
     id="g1458"><path
       inkscape:connector-curvature="0"
       id="path1460"
       style="fill:#231f20;fill-opacity:1;fill-rule:nonzero;stroke:none"
       d="M 0,0 C 0,-0.048 -0.021,-0.095 -0.062,-0.125 -0.104,-0.156 -0.154,-0.165 -0.2,-0.15 l -0.523,0.107 V 1.73 c 0,0.026 -0.006,0.049 -0.02,0.066 -0.012,0.02 -0.03,0.03 -0.053,0.034 l -1.673,0.36 v 0.043 c 0,0.14 0.073,0.3 0.202,0.422 0.129,0.123 0.283,0.173 0.402,0.149 L -0.29,2.47 C -0.204,2.453 -0.13,2.408 -0.078,2.336 -0.025,2.265 0,2.174 0,2.075 Z" /></g><g
     transform="translate(85.6692,651.55)"
     id="g1462"><path
       inkscape:connector-curvature="0"
       id="path1464"
       style="fill:#231f20;fill-opacity:1;fill-rule:nonzero;stroke:none"
       d="m 0,0 v -0.356 l 1.167,-0.247 v 0.354 z" /></g><g
     transform="translate(87.7106,653.59)"
     id="g1466"><path
       inkscape:connector-curvature="0"
       id="path1468"
       style="fill:#231f20;fill-opacity:1;fill-rule:nonzero;stroke:none"
       d="M 0,0 V 0.382 C 0,0.508 -0.012,0.598 -0.036,0.651 -0.06,0.704 -0.094,0.731 -0.138,0.731 -0.17,0.731 -0.197,0.715 -0.22,0.684 -0.242,0.653 -0.257,0.612 -0.264,0.56 -0.269,0.527 -0.271,0.467 -0.271,0.378 V 0 Z m 0.398,-0.196 h -0.759 v 0.558 c 0,0.098 0.003,0.173 0.008,0.225 0.006,0.072 0.018,0.133 0.035,0.182 0.018,0.049 0.042,0.089 0.073,0.119 0.032,0.029 0.066,0.044 0.104,0.044 0.064,0 0.119,-0.039 0.163,-0.12 C 0.067,0.732 0.09,0.588 0.09,0.379 V 0 h 0.308 z" /></g><g
     transform="translate(87.7405,654.934)"
     id="g1470"><path
       inkscape:connector-curvature="0"
       id="path1472"
       style="fill:#231f20;fill-opacity:1;fill-rule:nonzero;stroke:none"
       d="m 0,0 c 0.091,0 0.163,0.048 0.216,0.144 0.053,0.095 0.079,0.216 0.079,0.36 0,0.147 -0.027,0.268 -0.08,0.363 C 0.162,0.962 0.087,1.01 -0.011,1.01 -0.072,1.01 -0.126,0.989 -0.172,0.949 -0.218,0.908 -0.254,0.849 -0.279,0.77 -0.305,0.692 -0.318,0.604 -0.318,0.507 -0.318,0.369 -0.293,0.25 -0.244,0.15 -0.195,0.05 -0.114,0 0,0 m -0.001,-0.202 c -0.126,0 -0.225,0.066 -0.296,0.198 -0.071,0.132 -0.107,0.302 -0.107,0.51 0,0.136 0.017,0.259 0.05,0.369 0.034,0.109 0.08,0.193 0.14,0.25 0.06,0.058 0.128,0.086 0.204,0.086 0.077,0 0.145,-0.03 0.206,-0.09 C 0.257,1.06 0.303,0.975 0.334,0.864 0.365,0.753 0.381,0.633 0.381,0.505 0.381,0.366 0.363,0.242 0.329,0.132 0.295,0.022 0.248,-0.06 0.188,-0.117 0.128,-0.174 0.065,-0.202 -0.001,-0.202" /></g><g
     transform="translate(87.6847,656.617)"
     id="g1474"><path
       inkscape:connector-curvature="0"
       id="path1476"
       style="fill:#231f20;fill-opacity:1;fill-rule:nonzero;stroke:none"
       d="M 0,0 V 0.42 C 0,0.51 -0.005,0.58 -0.014,0.63 -0.024,0.68 -0.039,0.719 -0.06,0.745 -0.08,0.771 -0.103,0.784 -0.128,0.784 -0.164,0.784 -0.193,0.759 -0.216,0.708 -0.239,0.657 -0.251,0.577 -0.251,0.468 V 0 Z M 0.424,-0.196 H -0.335 V 0.46 c 0,0.131 0.007,0.231 0.021,0.3 0.014,0.069 0.038,0.123 0.072,0.164 0.034,0.041 0.073,0.062 0.114,0.062 0.054,0 0.1,-0.034 0.136,-0.102 C 0.045,0.816 0.069,0.711 0.079,0.57 0.091,0.621 0.104,0.661 0.116,0.687 0.143,0.745 0.177,0.799 0.217,0.85 L 0.424,1.107 V 0.861 L 0.266,0.665 C 0.22,0.608 0.185,0.561 0.161,0.524 0.137,0.487 0.12,0.454 0.111,0.425 0.101,0.396 0.094,0.366 0.091,0.336 0.088,0.313 0.087,0.277 0.087,0.227 V 0 h 0.337 z" /></g><g
     transform="translate(88.1083,658.268)"
     id="g1478"><path
       inkscape:connector-curvature="0"
       id="path1480"
       style="fill:#231f20;fill-opacity:1;fill-rule:nonzero;stroke:none"
       d="m 0,0 h -0.669 v -0.487 h -0.089 v 1.171 h 0.089 V 0.196 l 0.669,0 z" /></g><g
     transform="translate(85.7468,654.135)"
     id="g1482"><path
       inkscape:connector-curvature="0"
       id="path1484"
       style="fill:#231f20;fill-opacity:1;fill-rule:nonzero;stroke:none"
       d="m 0,0 c -0.313,0.055 -0.568,0.267 -0.568,0.581 0,0.313 0.255,0.433 0.568,0.378 L 0.87,0.806 V 0.535 L 0,0.689 C -0.163,0.718 -0.298,0.698 -0.298,0.532 -0.298,0.37 -0.163,0.299 0,0.271 L 0.87,0.117 v -0.27 z" /></g><g
     transform="translate(85.7468,653.447)"
     id="g1486"><path
       inkscape:connector-curvature="0"
       id="path1488"
       style="fill:#231f20;fill-opacity:1;fill-rule:nonzero;stroke:none"
       d="m 0,0 c -0.313,0.055 -0.568,0.267 -0.568,0.581 0,0.314 0.255,0.434 0.568,0.378 L 0.87,0.805 V 0.535 L 0,0.688 C -0.163,0.717 -0.298,0.699 -0.298,0.533 -0.298,0.369 -0.163,0.3 0,0.27 L 0.87,0.119 v -0.273 z" /></g><g
     transform="translate(85.7468,655.249)"
     id="g1490"><path
       inkscape:connector-curvature="0"
       id="path1492"
       style="fill:#231f20;fill-opacity:1;fill-rule:nonzero;stroke:none"
       d="m 0,0 c -0.313,0.055 -0.568,0.354 -0.568,0.668 0,0.314 0.255,0.524 0.568,0.468 L 0.87,0.983 V 0.711 L 0,0.865 C -0.163,0.893 -0.298,0.784 -0.298,0.62 -0.298,0.457 -0.163,0.3 0,0.271 L 0.87,0.118 v -0.273 z" /></g><g
     transform="translate(85.8021,656.104)"
     id="g1494"><path
       inkscape:connector-curvature="0"
       id="path1496"
       style="fill:#231f20;fill-opacity:1;fill-rule:nonzero;stroke:none"
       d="m 0,0 v -0.594 l 0.234,-0.039 v 0.591 z" /></g><g
     transform="translate(85.5006,658.994)"
     id="g1498"><path
       inkscape:connector-curvature="0"
       id="path1500"
       style="fill:#231f20;fill-opacity:1;fill-rule:nonzero;stroke:none"
       d="M 0,0 V -1.142 L -0.239,-1.1 v 1.144 z" /></g><g
     transform="translate(85.5006,658.56)"
     id="g1502"><path
       inkscape:connector-curvature="0"
       id="path1504"
       style="fill:#231f20;fill-opacity:1;fill-rule:nonzero;stroke:none"
       d="m 0,0 v -0.273 l 1.116,-0.198 v 0.274 z" /></g><g
     transform="translate(85.5006,656.591)"
     id="g1506"><path
       inkscape:connector-curvature="0"
       id="path1508"
       style="fill:#231f20;fill-opacity:1;fill-rule:nonzero;stroke:none"
       d="m 0,0 v 0.701 c 0,0 0.035,0.162 0.14,0.145 0.104,-0.02 0.161,-0.208 0.161,-0.208 v -0.69 l 0.815,-0.144 v 0.278 l -0.58,0.103 v 0.411 c 0,0 0.03,0.173 0.14,0.155 L 1.116,0.673 V 0.946 L 0.641,1.03 c 0,0 -0.222,-0.021 -0.222,-0.224 0,0 -0.052,0.272 -0.285,0.313 0,0 -0.373,0.061 -0.373,-0.351 V 0.042" /></g><g
     transform="translate(86.9787,653.236)"
     id="g1510"><path
       inkscape:connector-curvature="0"
       id="path1512"
       style="fill:none;stroke:#231f20;stroke-width:0.42500001;stroke-linecap:butt;stroke-linejoin:miter;stroke-miterlimit:10;stroke-dasharray:none;stroke-opacity:1"
       d="M 0,0 V 5.699" /></g><g
     transform="translate(82.5009,648.588)"
     id="g1514"><path
       inkscape:connector-curvature="0"
       id="path1516"
       style="fill:none;stroke:#231f20;stroke-width:0.56699997;stroke-linecap:butt;stroke-linejoin:miter;stroke-miterlimit:10;stroke-dasharray:none;stroke-opacity:1"
       d="m 0,0 h -3.691 v 10.788 h 1.827 v 2.045 H 0 Z" /></g><g
     transform="translate(81.5139,658.144)"
     id="g1518"><path
       inkscape:connector-curvature="0"
       id="path1520"
       style="fill:#231f20;fill-opacity:1;fill-rule:nonzero;stroke:none"
       d="M 0,0 C 0.026,0 0.052,-0.012 0.071,-0.034 0.089,-0.056 0.094,-0.086 0.089,-0.112 L 0.055,-0.265 h -1.033 c -0.015,0 -0.029,-0.002 -0.039,-0.01 -0.01,-0.009 -0.017,-0.019 -0.02,-0.032 l -0.209,-1.035 h -0.025 c -0.081,0 -0.176,0.043 -0.247,0.117 -0.072,0.075 -0.101,0.164 -0.086,0.236 l 0.169,0.82 c 0.011,0.05 0.036,0.093 0.079,0.123 C -1.315,-0.017 -1.261,0 -1.203,0 Z" /></g><g
     transform="translate(79.7929,656.043)"
     id="g1522"><path
       inkscape:connector-curvature="0"
       id="path1524"
       style="fill:#231f20;fill-opacity:1;fill-rule:nonzero;stroke:none"
       d="m 0,0 c -0.029,0 -0.055,0.013 -0.073,0.036 -0.019,0.025 -0.023,0.055 -0.016,0.08 l 0.064,0.306 h 1.034 c 0.014,0 0.028,0.004 0.038,0.01 0.011,0.008 0.019,0.02 0.021,0.032 L 1.277,1.44 H 1.303 C 1.383,1.44 1.478,1.398 1.549,1.322 1.62,1.248 1.65,1.158 1.635,1.088 L 1.441,0.17 C 1.43,0.119 1.405,0.076 1.363,0.046 1.321,0.014 1.268,0 1.21,0 Z" /></g><g
     transform="translate(80.8441,657.483)"
     id="g1526"><path
       inkscape:connector-curvature="0"
       id="path1528"
       style="fill:#231f20;fill-opacity:1;fill-rule:nonzero;stroke:none"
       d="m 0,0 h -0.207 l -0.144,-0.68 h 0.207 z" /></g><g
     transform="translate(-17.1752,214.761)"
     id="g1530"><path
       inkscape:connector-curvature="0"
       id="path1532"
       style="fill:#231f20;fill-opacity:1;fill-rule:nonzero;stroke:none"
       d="m 98.72,435.487 h -1.764 v 0.32199 h 1.764 z" /></g><g
     transform="translate(-17.1752,214.761)"
     id="g1534"><path
       inkscape:connector-curvature="0"
       id="path1536"
       style="fill:#231f20;fill-opacity:1;fill-rule:nonzero;stroke:none"
       d="m 98.72,438.627 h -1.764 v 0.32199 h 1.764 z" /></g><g
     transform="translate(-17.1752,214.761)"
     id="g1538"><path
       inkscape:connector-curvature="0"
       id="path1540"
       style="fill:#231f20;fill-opacity:1;fill-rule:nonzero;stroke:none"
       d="m 97.677,439.67 h 0.320999 v -1.76501 H 97.677 Z" /></g><g
     transform="translate(129.108,654.5)"
     id="g1542"><path
       inkscape:connector-curvature="0"
       id="path1544"
       style="fill:none;stroke:#231f20;stroke-width:0.56699997;stroke-linecap:butt;stroke-linejoin:miter;stroke-miterlimit:10;stroke-dasharray:none;stroke-opacity:1"
       d="M 0,0 H 0.744 V -1.488 H 1.489 V 0 h 0.745" /></g><g
     transform="translate(128.402,662.559)"
     id="g1546"><path
       inkscape:connector-curvature="0"
       id="path1548"
       style="fill:none;stroke:#231f20;stroke-width:0.56699997;stroke-linecap:butt;stroke-linejoin:miter;stroke-miterlimit:10;stroke-dasharray:none;stroke-opacity:1"
       d="M 0,0 H 3.691 V -10.788 H 1.863 v -2.045 H 0 Z" /></g><g
     transform="translate(-17.1752,214.761)"
     id="g1550"><path
       inkscape:connector-curvature="0"
       id="path1552"
       style="fill:#231f20;fill-opacity:1;fill-rule:nonzero;stroke:none"
       d="m 146.517,446.081 h 1.765 v -0.32101 h -1.765 z" /></g><g
     transform="translate(-17.1752,214.761)"
     id="g1554"><path
       inkscape:connector-curvature="0"
       id="path1556"
       style="fill:#231f20;fill-opacity:1;fill-rule:nonzero;stroke:none"
       d="m 146.517,442.62 h 1.765 v -0.32101 h -1.765 z" /></g><g
     transform="translate(-17.1752,214.761)"
     id="g1558"><path
       inkscape:connector-curvature="0"
       id="path1560"
       style="fill:#231f20;fill-opacity:1;fill-rule:nonzero;stroke:none"
       d="m 147.56,441.577 h -0.321 v 1.76401 h 0.321 z" /></g><g
     transform="translate(114.638,632.782)"
     id="g1562"><path
       inkscape:connector-curvature="0"
       id="path1564"
       style="fill:#231f20;fill-opacity:1;fill-rule:evenodd;stroke:none"
       d="M 0,0 H 0.817 L 0.879,0.459 C 0.924,0.793 0.849,1.049 0.506,1.077 H -1.138 C -1.484,1.043 -1.755,0.837 -1.917,0.422 L -2.334,-1.28 c -0.094,-0.412 0.014,-0.694 0.479,-0.748 h 8.221 c 0.704,0 1.187,1.845 0.451,1.856 H 5.48 C 5.228,-0.188 5.206,0.426 5.553,0.454 H 8.426 L 7.819,-2.044 h 0.733 l 0.604,2.51 h 0.815 l 0.311,0.612 h -4.9 C 5.027,1.11 4.799,0.936 4.674,0.59 L 4.521,-0.065 c -0.122,-0.61 0.06,-0.706 0.296,-0.712 H 6.211 C 6.53,-0.788 6.361,-1.403 6.07,-1.381 H 1.624 L 1.998,0.094 C 2.067,0.332 2.174,0.409 2.297,0.412 H 3.109 C 3.237,0.416 3.296,0.305 3.251,0.022 H 4.035 L 4.143,0.59 C 4.179,0.859 4.123,1.068 3.752,1.077 H 2.089 C 1.788,1.065 1.5,0.858 1.352,0.516 l -0.428,-1.864 -2.246,0.004 c -0.122,0 -0.238,0.134 -0.171,0.48 l 0.257,0.98 c 0.04,0.165 0.135,0.276 0.325,0.271 l 0.732,0.008 c 0.14,0.007 0.203,-0.099 0.173,-0.34 z" /></g><g
     transform="translate(109.012,631.949)"
     id="g1566"><path
       inkscape:connector-curvature="0"
       id="path1568"
       style="fill:#231f20;fill-opacity:1;fill-rule:evenodd;stroke:none"
       d="M 0,0 -0.377,-0.582 H 2.915 L 2.816,0.02 Z" /></g><g
     transform="translate(110.579,633.782)"
     id="g1570"><path
       inkscape:connector-curvature="0"
       id="path1572"
       style="fill:#231f20;fill-opacity:1;fill-rule:evenodd;stroke:none"
       d="M 0,0 H 0.946 L 1.447,-3.115 H 0.59 l -0.282,2.282 -1.48,-2.299 h -0.825 z" /></g><g
     transform="translate(131.247,638.621)"
     id="g1574"><path
       inkscape:connector-curvature="0"
       id="path1576"
       style="fill:none;stroke:#231f20;stroke-width:0.56699997;stroke-linecap:butt;stroke-linejoin:miter;stroke-miterlimit:10;stroke-dasharray:none;stroke-opacity:1"
       d="M 0,0 H -0.744 V 1.488 H -1.489 V 0 h -0.745" /></g><g
     transform="translate(131.953,630.562)"
     id="g1578"><path
       inkscape:connector-curvature="0"
       id="path1580"
       style="fill:none;stroke:#231f20;stroke-width:0.56699997;stroke-linecap:butt;stroke-linejoin:miter;stroke-miterlimit:10;stroke-dasharray:none;stroke-opacity:1"
       d="m 0,0 h -3.691 v 10.788 h 1.827 v 2.045 H 0 Z" /></g><g
     transform="translate(-17.1752,214.761)"
     id="g1582"><path
       inkscape:connector-curvature="0"
       id="path1584"
       style="fill:#231f20;fill-opacity:1;fill-rule:nonzero;stroke:none"
       d="m 148.187,417.517 h -1.765 v 0.32101 h 1.765 z" /></g><g
     transform="translate(-17.1752,214.761)"
     id="g1586"><path
       inkscape:connector-curvature="0"
       id="path1588"
       style="fill:#231f20;fill-opacity:1;fill-rule:nonzero;stroke:none"
       d="m 148.187,420.979 h -1.765 v 0.32101 h 1.765 z" /></g><g
     transform="translate(-17.1752,214.761)"
     id="g1590"><path
       inkscape:connector-curvature="0"
       id="path1592"
       style="fill:#231f20;fill-opacity:1;fill-rule:nonzero;stroke:none"
       d="m 147.144,422.021 h 0.321 v -1.76401 h -0.321 z" /></g><g
     transform="translate(101.186,656.702)"
     id="g1594"><path
       inkscape:connector-curvature="0"
       id="path1596"
       style="fill:#231f20;fill-opacity:1;fill-rule:nonzero;stroke:none"
       d="m 0,0 v -1.274 h -1.446 v 1.545 c 0,0.164 -0.133,0.297 -0.298,0.297 -0.165,0 -0.298,-0.133 -0.298,-0.297 v -1.545 h -0.009 -0.932 v 4.54 h 1.368 C -0.723,3.266 0,2.542 0,1.65 0,1.161 -0.217,0.725 -0.558,0.429 L -0.557,0.427 C -0.608,0.381 -0.64,0.317 -0.64,0.242 -0.64,0.109 -0.531,0 -0.398,0 Z" /></g><g
     transform="translate(-17.1752,214.761)"
     id="g1598"><path
       inkscape:connector-curvature="0"
       id="path1600"
       style="fill:#231f20;fill-opacity:1;fill-rule:nonzero;stroke:none"
       d="m 114.777,440.663 h -0.881 v 3.797 h 0.881 z" /></g><g
     transform="translate(-17.1752,214.761)"
     id="g1602"><path
       inkscape:connector-curvature="0"
       id="path1604"
       style="fill:#231f20;fill-opacity:1;fill-rule:nonzero;stroke:none"
       d="m 113.293,440.663 h -0.44 v 2.55499 h 0.44 z" /></g><g
     transform="translate(119.404,656.803)"
     id="g1606"><path
       inkscape:connector-curvature="0"
       id="path1608"
       style="fill:#231f20;fill-opacity:1;fill-rule:nonzero;stroke:none"
       d="m 0,0 h 2.082 0.015 v 0.021 0.805 h 0.549 v -2.202 h -3.211 v 0.564 h 2.647 0.015 v 0.021 0.234 0.021 H 2.079 -0.565 v 1.362 h 0.551 V 0.021 l 0,-0.021 z" /></g><g
     transform="translate(121.501,656.012)"
     id="g1610"><path
       inkscape:connector-curvature="0"
       id="path1612"
       style="fill:#231f20;fill-opacity:1;fill-rule:nonzero;stroke:none"
       d="M 0,0 V -0.021 H -0.014 C -0.007,-0.017 0,-0.01 0,0" /></g><g
     transform="translate(121.501,656.267)"
     id="g1614"><path
       inkscape:connector-curvature="0"
       id="path1616"
       style="fill:#231f20;fill-opacity:1;fill-rule:nonzero;stroke:none"
       d="M 0,0 V -0.022 C 0,-0.012 -0.008,-0.002 -0.018,0 Z" /></g><g
     transform="translate(121.501,656.824)"
     id="g1618"><path
       inkscape:connector-curvature="0"
       id="path1620"
       style="fill:#231f20;fill-opacity:1;fill-rule:nonzero;stroke:none"
       d="M 0,0 V -0.021 H -0.014 C -0.007,-0.018 0,-0.01 0,0" /></g><g
     transform="translate(119.404,656.803)"
     id="g1622"><path
       inkscape:connector-curvature="0"
       id="path1624"
       style="fill:#231f20;fill-opacity:1;fill-rule:nonzero;stroke:none"
       d="M 0,0 H -0.014 V 0.021 C -0.014,0.011 -0.009,0.003 0,0" /></g><g
     transform="translate(112.495,656.249)"
     id="g1626"><path
       inkscape:connector-curvature="0"
       id="path1628"
       style="fill:#231f20;fill-opacity:1;fill-rule:nonzero;stroke:none"
       d="M 0,0 V 0.018 H -0.022 -2.66 V 1.379 H 0.552 V 0.842 H -2.088 -2.11 V 0.826 0.57 0.554 h 0.017 2.645 V -0.822 H -2.66 v 0.563 H -0.017 0 v 0.018 z" /></g><g
     transform="translate(112.495,656.009)"
     id="g1630"><path
       inkscape:connector-curvature="0"
       id="path1632"
       style="fill:#231f20;fill-opacity:1;fill-rule:nonzero;stroke:none"
       d="M 0,0 V -0.018 H -0.017 C -0.009,-0.015 -0.002,-0.009 0,0" /></g><g
     transform="translate(112.495,656.267)"
     id="g1634"><path
       inkscape:connector-curvature="0"
       id="path1636"
       style="fill:#231f20;fill-opacity:1;fill-rule:nonzero;stroke:none"
       d="M 0,0 V -0.018 C -0.002,-0.008 -0.011,0 -0.022,0 Z" /></g><g
     transform="translate(110.385,657.092)"
     id="g1638"><path
       inkscape:connector-curvature="0"
       id="path1640"
       style="fill:#231f20;fill-opacity:1;fill-rule:nonzero;stroke:none"
       d="M 0,0 H 0.021 C 0.012,-0.001 0.002,-0.008 0,-0.017 Z" /></g><g
     transform="translate(110.402,656.803)"
     id="g1642"><path
       inkscape:connector-curvature="0"
       id="path1644"
       style="fill:#231f20;fill-opacity:1;fill-rule:nonzero;stroke:none"
       d="M 0,0 H -0.016 V 0.017 C -0.014,0.008 -0.008,0.002 0,0" /></g><g
     transform="translate(116.447,656.82)"
     id="g1646"><path
       inkscape:connector-curvature="0"
       id="path1648"
       style="fill:#231f20;fill-opacity:1;fill-rule:nonzero;stroke:none"
       d="M 0,0 V 0.809 H 0.55 V 0.004 -0.017 H 0.567 1.102 V -1.393 H 0.55 v 0.804 0.022 H 0.533 -1.543 -1.558 V -0.589 -1.393 H -2.11 v 2.202 h 0.552 V 0.004 -0.017 H -1.542 -0.017 0 Z" /></g><g
     transform="translate(117.014,656.803)"
     id="g1650"><path
       inkscape:connector-curvature="0"
       id="path1652"
       style="fill:#231f20;fill-opacity:1;fill-rule:nonzero;stroke:none"
       d="M 0,0 H -0.017 V 0.022 C -0.017,0.011 -0.01,0.002 0,0" /></g><g
     transform="translate(116.998,656.253)"
     id="g1654"><path
       inkscape:connector-curvature="0"
       id="path1656"
       style="fill:#231f20;fill-opacity:1;fill-rule:nonzero;stroke:none"
       d="M 0,0 V -0.022 C 0,-0.012 -0.008,-0.002 -0.018,0 Z" /></g><g
     transform="translate(116.447,656.82)"
     id="g1658"><path
       inkscape:connector-curvature="0"
       id="path1660"
       style="fill:#231f20;fill-opacity:1;fill-rule:nonzero;stroke:none"
       d="M 0,0 V -0.017 H -0.017 C -0.009,-0.015 -0.002,-0.008 0,0" /></g><g
     transform="translate(114.905,656.803)"
     id="g1662"><path
       inkscape:connector-curvature="0"
       id="path1664"
       style="fill:#231f20;fill-opacity:1;fill-rule:nonzero;stroke:none"
       d="M 0,0 H -0.017 V 0.022 C -0.017,0.011 -0.01,0.002 0,0" /></g><g
     transform="translate(114.889,656.253)"
     id="g1666"><path
       inkscape:connector-curvature="0"
       id="path1668"
       style="fill:#231f20;fill-opacity:1;fill-rule:nonzero;stroke:none"
       d="M 0,0 H 0.016 C 0.006,-0.003 0,-0.012 0,-0.022 Z" /></g><g
     transform="translate(107.505,656.256)"
     id="g1670"><path
       inkscape:connector-curvature="0"
       id="path1672"
       style="fill:#231f20;fill-opacity:1;fill-rule:nonzero;stroke:none"
       d="M 0,0 H -0.015 V -0.016 -0.829 H -0.566 V 0.545 H 1.04 v -0.546 z" /></g><g
     transform="translate(107.49,656.256)"
     id="g1674"><path
       inkscape:connector-curvature="0"
       id="path1676"
       style="fill:#231f20;fill-opacity:1;fill-rule:nonzero;stroke:none"
       d="M 0,0 H 0.015 C 0.009,-0.002 0.002,-0.009 0,-0.016 Z" /></g><g
     transform="translate(102.998,656.819)"
     id="g1678"><path
       inkscape:connector-curvature="0"
       id="path1680"
       style="fill:#231f20;fill-opacity:1;fill-rule:nonzero;stroke:none"
       d="m 0,0 v -0.016 h 0.015 2.637 v -0.55 H 0.017 0 v -0.016 -0.81 H -0.552 V 0.811 H 2.652 V 0.274 H 0.017 L 0,0.274 V 0.256 Z" /></g><g
     transform="translate(102.998,657.092)"
     id="g1682"><path
       inkscape:connector-curvature="0"
       id="path1684"
       style="fill:#231f20;fill-opacity:1;fill-rule:nonzero;stroke:none"
       d="M 0,0 H 0.017 C 0.009,-0.002 0.002,-0.009 0,-0.018 Z" /></g><g
     transform="translate(102.998,656.253)"
     id="g1686"><path
       inkscape:connector-curvature="0"
       id="path1688"
       style="fill:#231f20;fill-opacity:1;fill-rule:nonzero;stroke:none"
       d="M 0,0 H 0.017 C 0.008,-0.002 0.002,-0.009 0,-0.016 Z" /></g><g
     transform="translate(103.013,656.803)"
     id="g1690"><path
       inkscape:connector-curvature="0"
       id="path1692"
       style="fill:#231f20;fill-opacity:1;fill-rule:nonzero;stroke:none"
       d="M 0,0 H -0.015 V 0.016 C -0.013,0.008 -0.008,0.002 0,0" /></g><g
     transform="translate(83.9477,635.824)"
     id="g1694"><path
       inkscape:connector-curvature="0"
       id="path1696"
       style="fill:#231f20;fill-opacity:1;fill-rule:nonzero;stroke:none"
       d="m 0,0 h 0.266 v -1.384 h 0.57 V -1.609 H 0 Z" /></g><g
     transform="translate(84.9342,635.824)"
     id="g1698"><path
       inkscape:connector-curvature="0"
       id="path1700"
       style="fill:#231f20;fill-opacity:1;fill-rule:nonzero;stroke:none"
       d="M 0,0 H 0.922 V -0.213 H 0.267 v -0.46 H 0.78 V -0.888 H 0.267 V -1.391 H 0.933 V -1.609 H 0 Z" /></g><g
     transform="translate(86.3114,635.611)"
     id="g1702"><path
       inkscape:connector-curvature="0"
       id="path1704"
       style="fill:#231f20;fill-opacity:1;fill-rule:nonzero;stroke:none"
       d="m 0,0 v -1.183 h 0.111 c 0.156,0 0.268,0.054 0.338,0.162 0.071,0.106 0.105,0.25 0.105,0.429 C 0.554,-0.197 0.407,0 0.111,0 Z M -0.266,0.213 H 0.096 C 0.271,0.213 0.412,0.182 0.517,0.12 0.622,0.059 0.701,-0.034 0.755,-0.156 0.81,-0.28 0.836,-0.415 0.836,-0.565 0.836,-0.722 0.812,-0.862 0.764,-0.985 0.716,-1.108 0.641,-1.207 0.542,-1.283 0.442,-1.358 0.3,-1.396 0.116,-1.396 h -0.382 z" /></g><g
     transform="translate(83.3431,643.366)"
     id="g1706"><path
       inkscape:connector-curvature="0"
       id="path1708"
       style="fill:#231f20;fill-opacity:1;fill-rule:nonzero;stroke:none"
       d="M 0,0 H 0.894 V -0.213 H 0.266 V -0.694 H 0.768 V -0.907 H 0.266 V -1.609 H 0 Z" /></g><g
     transform="translate(85.069,643.366)"
     id="g1710"><path
       inkscape:connector-curvature="0"
       id="path1712"
       style="fill:#231f20;fill-opacity:1;fill-rule:nonzero;stroke:none"
       d="m 0,0 h 0.185 l -0.89,-2.012 h -0.183 z" /></g><g
     transform="translate(86.4816,643.007)"
     id="g1714"><path
       inkscape:connector-curvature="0"
       id="path1716"
       style="fill:#231f20;fill-opacity:1;fill-rule:nonzero;stroke:none"
       d="M 0,0 -0.227,-0.08 C -0.254,0.006 -0.29,0.069 -0.333,0.109 -0.377,0.15 -0.436,0.171 -0.511,0.171 -0.582,0.171 -0.636,0.15 -0.674,0.108 -0.712,0.067 -0.731,0.02 -0.731,-0.034 c 0,-0.059 0.021,-0.106 0.064,-0.141 0.043,-0.035 0.128,-0.077 0.256,-0.126 0.11,-0.042 0.194,-0.081 0.254,-0.119 0.058,-0.038 0.106,-0.088 0.142,-0.151 0.037,-0.063 0.055,-0.137 0.055,-0.22 0,-0.136 -0.048,-0.25 -0.143,-0.345 -0.095,-0.096 -0.229,-0.144 -0.402,-0.144 -0.297,0 -0.481,0.151 -0.552,0.451 l 0.239,0.067 c 0.041,-0.198 0.15,-0.297 0.325,-0.297 0.086,0 0.151,0.022 0.195,0.067 0.044,0.044 0.067,0.099 0.067,0.165 0,0.047 -0.016,0.092 -0.046,0.132 -0.031,0.041 -0.107,0.085 -0.229,0.131 -0.129,0.049 -0.222,0.09 -0.279,0.124 -0.057,0.034 -0.105,0.084 -0.145,0.149 -0.04,0.067 -0.06,0.142 -0.06,0.226 0,0.128 0.044,0.236 0.133,0.323 0.089,0.087 0.209,0.131 0.356,0.131 C -0.239,0.389 -0.072,0.259 0,0" /></g><g
     transform="translate(97.6749,647.523)"
     id="g1718"><path
       inkscape:connector-curvature="0"
       id="path1720"
       style="fill:#231f20;fill-opacity:1;fill-rule:nonzero;stroke:none"
       d="m 0,0 c 0.305,-0.333 0.457,-0.738 0.457,-1.217 v -1.832 h -1.575 v 1.837 c 0.007,0.273 -0.085,0.452 -0.274,0.535 H -2.609 -4.086 L -4.083,-1.56 V -3.062 H -5.59 V 0.91 h 1.494 V 0.642 h 2.175 c 0.176,-0.009 0.359,0.08 0.549,0.268 H 0.193 L 0.201,0.78 C 0.201,0.534 0.066,0.274 -0.203,0 Z M -4.096,1.48 H -5.59 v 1.512 l 3.931,-0.005 c 0.584,0 1.049,-0.192 1.395,-0.575 C 0.046,2.064 0.198,1.754 0.193,1.48 H -1.433 L -1.512,1.538 C -1.617,1.654 -1.75,1.718 -1.911,1.73 h -2.185 z" /></g><g
     transform="translate(104.112,650.465)"
     id="g1722"><path
       inkscape:connector-curvature="0"
       id="path1724"
       style="fill:#231f20;fill-opacity:1;fill-rule:nonzero;stroke:none"
       d="M 0,0 H 1.774 L 0.676,-1.462 h -1.759 z m -0.005,-6.009 -1.621,2.22 c -0.014,0.03 -0.034,0.049 -0.061,0.058 -0.022,0.012 -0.05,0.018 -0.084,0.018 -0.032,0 -0.059,-0.007 -0.08,-0.02 -0.021,-0.014 -0.034,-0.033 -0.039,-0.056 l -1.657,-2.22 h -1.774 l 0.559,0.78 c 0.124,0.172 0.248,0.346 0.374,0.522 0.102,0.142 0.214,0.303 0.338,0.481 0.022,0.03 0.124,0.178 0.307,0.446 l 0.496,0.775 -0.661,0.972 h 1.85 l 0.132,-0.178 c 0.036,-0.06 0.087,-0.089 0.155,-0.089 0.068,0 0.116,0.025 0.145,0.075 l 0.147,0.192 H 0.412 L -0.244,-3.005 1.784,-6.009 Z M -4.233,-1.462 -5.331,0 h 1.774 l 1.082,-1.462 z" /></g><g
     transform="translate(110.049,645.74)"
     id="g1726"><path
       inkscape:connector-curvature="0"
       id="path1728"
       style="fill:#231f20;fill-opacity:1;fill-rule:nonzero;stroke:none"
       d="M 0,0 C 0.166,0 0.297,0.056 0.394,0.169 0.49,0.282 0.539,0.41 0.539,0.553 0.539,0.695 0.495,0.817 0.407,0.918 0.308,1.028 0.162,1.09 -0.033,1.105 H -1.558 C -1.72,1.09 -1.851,1.028 -1.949,0.918 -2.037,0.817 -2.081,0.695 -2.081,0.553 -2.081,0.41 -2.033,0.282 -1.936,0.169 -1.839,0.056 -1.708,0 -1.542,0 h 0.686 z m -1.796,-1.271 c -0.587,0 -1.052,0.195 -1.398,0.584 -0.313,0.348 -0.47,0.773 -0.47,1.275 0,0.214 0.035,0.423 0.105,0.627 0.071,0.203 0.175,0.384 0.314,0.541 -0.139,0.146 -0.246,0.32 -0.322,0.522 -0.077,0.202 -0.112,0.34 -0.107,0.414 h 0.904 0.732 C -1.879,2.517 -1.713,2.429 -1.542,2.429 H 0 c 0.171,0 0.336,0.088 0.495,0.263 H 1.227 2.132 C 2.137,2.618 2.101,2.48 2.025,2.278 1.949,2.076 1.841,1.902 1.703,1.756 1.841,1.599 1.946,1.418 2.016,1.215 2.087,1.011 2.122,0.802 2.122,0.588 2.122,0.086 1.965,-0.339 1.652,-0.687 1.306,-1.076 0.84,-1.271 0.254,-1.271 l -1.08,0.005 z M 0.239,4.77 C 0.823,4.77 1.288,4.578 1.634,4.195 1.944,3.847 2.11,3.536 2.132,3.263 H 0.465 L 0.386,3.321 C 0.281,3.437 0.148,3.501 -0.013,3.513 H -1.545 C -1.706,3.501 -1.839,3.437 -1.944,3.321 L -2.022,3.263 h -1.667 c 0.022,0.273 0.188,0.584 0.498,0.932 0.345,0.383 0.808,0.578 1.39,0.584 h 1.108 z" /></g><g
     transform="translate(118.391,647.523)"
     id="g1730"><path
       inkscape:connector-curvature="0"
       id="path1732"
       style="fill:#231f20;fill-opacity:1;fill-rule:nonzero;stroke:none"
       d="m 0,0 c 0.305,-0.333 0.457,-0.738 0.457,-1.217 v -1.832 h -1.575 v 1.837 c 0.007,0.273 -0.085,0.452 -0.274,0.535 H -2.609 -4.086 L -4.083,-1.56 V -3.062 H -5.59 V 0.91 h 1.494 V 0.642 h 2.175 c 0.176,-0.009 0.359,0.08 0.549,0.268 H 0.193 L 0.201,0.78 C 0.201,0.534 0.066,0.274 -0.203,0 Z M -4.096,1.48 H -5.59 v 1.512 l 3.931,-0.005 c 0.584,0 1.049,-0.192 1.395,-0.575 C 0.046,2.064 0.198,1.754 0.193,1.48 H -1.433 L -1.512,1.538 C -1.617,1.654 -1.75,1.718 -1.911,1.73 h -2.185 z" /></g><g
     transform="translate(135.328,649.73)"
     id="g1734"><path
       inkscape:connector-curvature="0"
       id="path1736"
       style="fill:#231f20;fill-opacity:1;fill-rule:nonzero;stroke:none"
       d="m 0,0 -0.037,0.379 c 0.127,0.023 0.221,0.069 0.28,0.138 0.06,0.071 0.09,0.164 0.09,0.283 0,0.125 -0.026,0.219 -0.08,0.283 C 0.2,1.147 0.138,1.179 0.067,1.179 0.021,1.179 -0.017,1.165 -0.05,1.138 -0.081,1.112 -0.109,1.065 -0.133,0.998 -0.149,0.953 -0.177,0.849 -0.217,0.687 -0.269,0.478 -0.332,0.332 -0.408,0.247 -0.514,0.129 -0.643,0.07 -0.796,0.07 c -0.098,0 -0.19,0.027 -0.275,0.083 -0.086,0.056 -0.151,0.136 -0.196,0.241 -0.045,0.105 -0.067,0.231 -0.067,0.379 0,0.243 0.053,0.425 0.159,0.547 0.106,0.123 0.248,0.187 0.425,0.193 l 0.017,-0.39 C -0.832,1.107 -0.903,1.071 -0.947,1.016 -0.99,0.961 -1.012,0.879 -1.012,0.77 c 0,-0.114 0.024,-0.202 0.07,-0.266 0.03,-0.041 0.07,-0.062 0.12,-0.062 0.045,0 0.084,0.019 0.117,0.058 0.041,0.049 0.084,0.168 0.129,0.358 0.045,0.189 0.091,0.329 0.139,0.42 0.048,0.091 0.113,0.162 0.195,0.213 0.084,0.052 0.186,0.077 0.308,0.077 0.11,0 0.214,-0.031 0.31,-0.092 C 0.473,1.415 0.545,1.328 0.592,1.215 0.638,1.103 0.662,0.963 0.662,0.796 0.662,0.552 0.606,0.365 0.492,0.234 0.38,0.103 0.216,0.025 0,0" /></g><g
     transform="translate(135.115,651.881)"
     id="g1738"><path
       inkscape:connector-curvature="0"
       id="path1740"
       style="fill:#231f20;fill-opacity:1;fill-rule:nonzero;stroke:none"
       d="M 0,0 H 0.516 V 0.36 C 0.516,0.501 0.512,0.59 0.504,0.627 0.493,0.685 0.468,0.732 0.427,0.769 0.386,0.805 0.332,0.824 0.263,0.824 0.205,0.824 0.156,0.809 0.116,0.781 0.075,0.753 0.046,0.713 0.028,0.66 0.009,0.606 0,0.492 0,0.314 Z m -0.767,0 h 0.446 v 0.255 c 0,0.152 -0.002,0.246 -0.007,0.283 -0.007,0.067 -0.03,0.119 -0.069,0.157 -0.038,0.038 -0.088,0.057 -0.15,0.057 -0.06,0 -0.108,-0.016 -0.145,-0.049 C -0.73,0.67 -0.752,0.621 -0.76,0.556 -0.765,0.518 -0.767,0.407 -0.767,0.224 Z m -0.321,-0.389 v 0.771 c 0,0.152 0.007,0.266 0.019,0.341 0.013,0.075 0.039,0.142 0.08,0.201 0.04,0.059 0.094,0.109 0.161,0.148 0.067,0.04 0.142,0.059 0.226,0.059 0.09,0 0.173,-0.024 0.248,-0.072 0.076,-0.05 0.132,-0.115 0.17,-0.199 0.034,0.118 0.092,0.208 0.175,0.271 0.082,0.063 0.179,0.095 0.291,0.095 0.087,0 0.173,-0.02 0.255,-0.061 C 0.621,1.124 0.687,1.068 0.736,0.998 0.786,0.927 0.816,0.84 0.827,0.737 0.834,0.672 0.839,0.515 0.841,0.267 v -0.656 z" /></g><g
     transform="translate(134.027,653.299)"
     id="g1742"><path
       inkscape:connector-curvature="0"
       id="path1744"
       style="fill:#231f20;fill-opacity:1;fill-rule:nonzero;stroke:none"
       d="m 0,0 v 0.389 h 1.044 c 0.166,0 0.274,0.005 0.323,0.015 C 1.446,0.42 1.509,0.46 1.557,0.523 1.605,0.585 1.629,0.671 1.629,0.78 1.629,0.891 1.606,0.974 1.561,1.03 1.516,1.086 1.46,1.12 1.394,1.131 1.329,1.143 1.219,1.148 1.067,1.148 H 0 v 0.39 H 1.013 C 1.244,1.538 1.408,1.527 1.504,1.506 1.599,1.485 1.68,1.447 1.746,1.39 1.811,1.333 1.864,1.258 1.903,1.163 1.942,1.068 1.961,0.944 1.961,0.792 1.961,0.608 1.94,0.468 1.898,0.373 1.855,0.278 1.8,0.203 1.732,0.147 1.664,0.092 1.593,0.056 1.518,0.038 1.408,0.013 1.244,0 1.029,0 Z" /></g><g
     transform="translate(135.328,655.014)"
     id="g1746"><path
       inkscape:connector-curvature="0"
       id="path1748"
       style="fill:#231f20;fill-opacity:1;fill-rule:nonzero;stroke:none"
       d="m 0,0 -0.037,0.379 c 0.127,0.023 0.221,0.069 0.28,0.138 0.06,0.071 0.09,0.164 0.09,0.283 0,0.125 -0.026,0.22 -0.08,0.283 C 0.2,1.147 0.138,1.179 0.067,1.179 0.021,1.179 -0.017,1.165 -0.05,1.138 -0.081,1.112 -0.109,1.065 -0.133,0.998 -0.149,0.953 -0.177,0.849 -0.217,0.687 -0.269,0.478 -0.332,0.332 -0.408,0.247 -0.514,0.129 -0.643,0.07 -0.796,0.07 c -0.098,0 -0.19,0.027 -0.275,0.084 -0.086,0.055 -0.151,0.135 -0.196,0.24 -0.045,0.105 -0.067,0.231 -0.067,0.379 0,0.243 0.053,0.425 0.159,0.547 0.106,0.123 0.248,0.187 0.425,0.193 l 0.017,-0.39 C -0.832,1.107 -0.903,1.071 -0.947,1.016 -0.99,0.961 -1.012,0.879 -1.012,0.77 c 0,-0.114 0.024,-0.202 0.07,-0.266 0.03,-0.041 0.07,-0.062 0.12,-0.062 0.045,0 0.084,0.019 0.117,0.058 0.041,0.049 0.084,0.168 0.129,0.358 0.045,0.189 0.091,0.329 0.139,0.42 0.048,0.091 0.113,0.162 0.195,0.213 0.084,0.052 0.186,0.077 0.308,0.077 0.11,0 0.214,-0.031 0.31,-0.092 C 0.473,1.415 0.545,1.328 0.592,1.216 0.638,1.103 0.662,0.963 0.662,0.796 0.662,0.552 0.606,0.365 0.492,0.234 0.38,0.104 0.216,0.025 0,0" /></g><g
     transform="translate(134.99,657.711)"
     id="g1750"><path
       inkscape:connector-curvature="0"
       id="path1752"
       style="fill:#231f20;fill-opacity:1;fill-rule:nonzero;stroke:none"
       d="m 0,0 c 0.218,0 0.384,0.05 0.496,0.151 0.114,0.101 0.17,0.229 0.17,0.384 0,0.156 -0.056,0.283 -0.168,0.382 -0.112,0.1 -0.28,0.15 -0.503,0.15 -0.221,0 -0.386,-0.049 -0.495,-0.145 -0.109,-0.098 -0.163,-0.226 -0.163,-0.387 0,-0.16 0.055,-0.289 0.165,-0.388 C -0.388,0.049 -0.222,0 0,0 m 0.013,-0.401 c -0.196,0 -0.361,0.029 -0.494,0.088 -0.099,0.044 -0.187,0.103 -0.265,0.18 -0.078,0.075 -0.136,0.158 -0.174,0.249 -0.05,0.12 -0.076,0.259 -0.076,0.415 0,0.285 0.088,0.512 0.265,0.683 0.176,0.17 0.421,0.255 0.735,0.255 0.311,0 0.555,-0.084 0.731,-0.253 C 0.911,1.046 0.998,0.82 0.998,0.537 0.998,0.25 0.911,0.022 0.736,-0.147 0.561,-0.317 0.32,-0.401 0.013,-0.401" /></g><g
     transform="translate(134.027,659.347)"
     id="g1754"><path
       inkscape:connector-curvature="0"
       id="path1756"
       style="fill:#231f20;fill-opacity:1;fill-rule:nonzero;stroke:none"
       d="m 0,0 v 0.389 h 1.044 c 0.166,0 0.274,0.005 0.323,0.015 C 1.446,0.42 1.509,0.46 1.557,0.523 1.605,0.585 1.629,0.671 1.629,0.78 1.629,0.891 1.606,0.974 1.561,1.03 1.516,1.086 1.46,1.12 1.394,1.131 1.329,1.143 1.219,1.148 1.067,1.148 H 0 v 0.39 H 1.013 C 1.244,1.538 1.408,1.527 1.504,1.506 1.599,1.485 1.68,1.447 1.746,1.39 1.811,1.333 1.864,1.258 1.903,1.163 1.942,1.068 1.961,0.944 1.961,0.792 1.961,0.608 1.94,0.468 1.898,0.373 1.855,0.278 1.8,0.203 1.732,0.147 1.664,0.092 1.593,0.056 1.518,0.038 1.408,0.013 1.244,0 1.029,0 Z" /></g><g
     transform="translate(135.956,661.594)"
     id="g1758"><path
       inkscape:connector-curvature="0"
       id="path1760"
       style="fill:#231f20;fill-opacity:1;fill-rule:nonzero;stroke:none"
       d="M 0,0 H -1.602 V -0.572 H -1.929 V 0.96 h 0.327 V 0.389 l 1.602,0 z" /></g><g
     transform="translate(125.404,646.268)"
     id="g1762"><path
       inkscape:connector-curvature="0"
       id="path1764"
       style="fill:#231f20;fill-opacity:1;fill-rule:nonzero;stroke:none"
       d="m 0,0 h -5.08 c -0.146,0 -0.236,0.118 -0.202,0.264 l 0.436,1.872 C -4.813,2.282 -4.667,2.4 -4.521,2.4 h 5.08 C 0.704,2.4 0.795,2.282 0.761,2.136 L 0.325,0.264 C 0.291,0.118 0.146,0 0,0" /></g><g
     transform="translate(123.715,649.069)"
     id="g1766"><path
       inkscape:connector-curvature="0"
       id="path1768"
       style="fill:#231f20;fill-opacity:1;fill-rule:nonzero;stroke:none"
       d="m 0,0 c 0.71,0 1.42,-0.001 2.13,0 0.296,0.001 0.391,0.088 0.395,0.349 0.004,0.277 -0.093,0.372 -0.397,0.372 -1.412,0.001 -2.824,0.001 -4.235,0 -0.292,0 -0.392,-0.091 -0.397,-0.35 C -2.509,0.099 -2.406,0.001 -2.105,0 -1.403,-0.001 -0.702,0 0,0" /></g><g
     transform="translate(122.534,645.19)"
     id="g1770"><path
       inkscape:connector-curvature="0"
       id="path1772"
       style="fill:#231f20;fill-opacity:1;fill-rule:nonzero;stroke:none"
       d="m 0,0 c 0.719,0 1.439,-0.001 2.158,0.001 0.278,0 0.359,0.081 0.361,0.348 C 2.521,0.626 2.447,0.71 2.171,0.711 0.732,0.713 -0.707,0.713 -2.146,0.711 -2.422,0.71 -2.496,0.626 -2.494,0.349 -2.493,0.083 -2.411,0.001 -2.133,0.001 -1.422,-0.001 -0.711,0 0,0" /></g><g
     transform="translate(121.871,644.934)"
     id="g1774"><path
       inkscape:connector-curvature="0"
       id="path1776"
       style="fill:#231f20;fill-opacity:1;fill-rule:nonzero;stroke:none"
       d="m 0,0 c -0.513,0 -1.026,-0.002 -1.539,0.001 -0.162,0.001 -0.282,-0.045 -0.288,-0.227 -0.007,-0.195 0.115,-0.255 0.289,-0.255 1.009,0.001 2.018,0.001 3.027,0 0.168,0 0.301,0.044 0.301,0.244 10e-4,0.2 -0.132,0.239 -0.301,0.238 C 0.993,-0.002 0.496,0 0,0" /></g><g
     transform="translate(124.421,650.051)"
     id="g1778"><path
       inkscape:connector-curvature="0"
       id="path1780"
       style="fill:#231f20;fill-opacity:1;fill-rule:nonzero;stroke:none"
       d="M 0,0 C 0.504,0 1.009,0.004 1.513,-0.002 1.687,-0.004 1.816,0.043 1.812,0.236 1.809,0.412 1.685,0.468 1.524,0.468 0.507,0.467 -0.51,0.467 -1.527,0.468 -1.687,0.468 -1.811,0.414 -1.814,0.235 -1.816,0.038 -1.685,-0.004 -1.513,-0.002 -1.009,0.003 -0.504,0 0,0" /></g><g
     transform="translate(123.715,649.069)"
     id="g1782"><path
       inkscape:connector-curvature="0"
       id="path1784"
       style="fill:#231f20;fill-opacity:1;fill-rule:nonzero;stroke:none"
       d="m 0,0 c -0.702,0 -1.403,-0.001 -2.105,0 -0.301,0.001 -0.404,0.099 -0.399,0.371 0.005,0.259 0.105,0.35 0.397,0.35 1.411,0.001 2.823,0.001 4.235,0 0.304,0 0.401,-0.095 0.397,-0.372 C 2.521,0.088 2.426,0.001 2.13,0 1.42,-0.001 0.71,0 0,0" /></g><g
     transform="translate(122.534,645.19)"
     id="g1786"><path
       inkscape:connector-curvature="0"
       id="path1788"
       style="fill:#231f20;fill-opacity:1;fill-rule:nonzero;stroke:none"
       d="m 0,0 c -0.711,0 -1.422,-0.001 -2.133,0.001 -0.278,0 -0.36,0.082 -0.361,0.348 -0.002,0.277 0.072,0.361 0.348,0.362 1.439,0.002 2.878,0.002 4.317,0 C 2.447,0.71 2.521,0.626 2.519,0.349 2.517,0.082 2.436,0.001 2.158,0.001 1.439,-0.001 0.719,0 0,0" /></g><g
     transform="translate(121.871,644.934)"
     id="g1790"><path
       inkscape:connector-curvature="0"
       id="path1792"
       style="fill:#231f20;fill-opacity:1;fill-rule:nonzero;stroke:none"
       d="m 0,0 c 0.496,0 0.993,-0.002 1.489,0.001 0.169,0.001 0.302,-0.038 0.301,-0.238 0,-0.2 -0.133,-0.244 -0.301,-0.244 -1.009,0.001 -2.018,0.001 -3.027,0 -0.174,0 -0.296,0.06 -0.289,0.255 0.006,0.182 0.126,0.228 0.288,0.227 C -1.026,-0.002 -0.513,0 0,0" /></g><g
     transform="translate(124.421,650.051)"
     id="g1794"><path
       inkscape:connector-curvature="0"
       id="path1796"
       style="fill:#231f20;fill-opacity:1;fill-rule:nonzero;stroke:none"
       d="m 0,0 c -0.504,0 -1.009,0.003 -1.513,-0.002 -0.172,-0.002 -0.303,0.04 -0.301,0.237 0.003,0.179 0.127,0.233 0.287,0.233 1.017,-0.001 2.034,-0.001 3.051,0 0.161,0 0.285,-0.056 0.288,-0.232 C 1.816,0.043 1.687,-0.004 1.513,-0.002 1.009,0.004 0.504,0 0,0" /></g><g
     id="g1798"><g
   id="text1802"
   style="font-style:italic;font-variant:normal;font-weight:normal;font-stretch:condensed;font-size:2.7506001px;font-family:'Zebulon Condensed';-inkscape-font-specification:ZebulonCondensed-Italic;writing-mode:lr-tb;fill:#ffffff;fill-opacity:1;fill-rule:nonzero;stroke:none"
   transform="matrix(1,0,0,-1,120.4606,646.49552)"
   aria-label="PRO"><path
     id="path1203"
     style=""
     d="m 1.313519,-1.1416065 q 0.120876,0 0.1571388,-0.1343066 l 0.01746,-0.067153 q 0.00806,-0.030891 0.00806,-0.055066 0,-0.079241 -0.092672,-0.079241 H 0.3962046 L 0.50499299,-1.880293 H 1.5109498 q 0.3344235,0 0.3344235,0.3062191 0,0.099387 -0.03492,0.2310074 l -0.01746,0.067153 Q 1.6479425,-0.73868655 1.2047306,-0.73868655 H 0.51976672 L 0.32233595,0 H 0 l 0.30621915,-1.1416065 z" /><path
     id="path1205"
     style=""
     d="M 2.9788676,-0.73868655 H 2.2939037 L 2.096473,0 H 1.774137 L 2.0803562,-1.1416065 H 3.087656 q 0.120876,0 0.1571388,-0.1343066 l 0.01746,-0.067153 q 0.00806,-0.030891 0.00806,-0.055066 0,-0.079241 -0.092672,-0.079241 H 2.1703416 L 2.27913,-1.880293 h 1.0059568 q 0.3344235,0 0.3344235,0.3062191 0,0.099387 -0.03492,0.2310074 l -0.01746,0.067153 q -0.069839,0.2592118 -0.2095183,0.39351844 0.024175,0.10207305 0.024175,0.24309503 0,0.25518262 -0.076555,0.63929963 h -0.322336 q 0.057752,-0.36262794 0.057752,-0.54797111 0,-0.19071544 -0.061781,-0.19071544 z" /><path
     id="path1207"
     style=""
     d="M 3.8196917,-1.2087598 Q 3.9996626,-1.880293 4.4831665,-1.880293 h 0.483504 q 0.3518834,0 0.3518834,0.3572556 0,0.1316206 -0.04835,0.3142776 L 5.0902326,-0.53722658 Q 4.9465245,0 4.4630205,0 H 3.9795166 q -0.3518834,0 -0.3518834,-0.35725568 0,-0.13162051 0.04835,-0.31427755 z m 1.1281758,0 q 0.022832,-0.08327 0.022832,-0.141022 0,-0.1275913 -0.1114746,-0.1275913 H 4.3757212 q -0.161168,0 -0.2336935,0.2686133 l -0.1437082,0.53722657 q -0.022832,0.0832701 -0.022832,0.14102198 0,0.12759131 0.1114745,0.12759131 h 0.483504 q 0.1611679,0 0.2336935,-0.26861329 z" /></g>
</g><g
     transform="translate(135.316,631.903)"
     id="g1804"><path
       inkscape:connector-curvature="0"
       id="path1806"
       style="fill:#231f20;fill-opacity:1;fill-rule:nonzero;stroke:none"
       d="m 0,0 -0.038,0.386 c 0.13,0.023 0.225,0.07 0.286,0.141 0.061,0.071 0.091,0.167 0.091,0.287 0,0.128 -0.027,0.224 -0.081,0.289 C 0.204,1.168 0.141,1.2 0.068,1.2 0.022,1.2 -0.017,1.187 -0.05,1.159 -0.083,1.132 -0.111,1.085 -0.135,1.016 -0.151,0.97 -0.18,0.864 -0.221,0.699 -0.274,0.487 -0.338,0.337 -0.415,0.252 -0.523,0.131 -0.655,0.071 -0.811,0.071 c -0.099,0 -0.193,0.028 -0.28,0.085 -0.087,0.057 -0.153,0.138 -0.199,0.245 -0.046,0.107 -0.068,0.236 -0.068,0.386 0,0.247 0.054,0.432 0.162,0.557 0.108,0.125 0.252,0.19 0.433,0.196 L -0.746,1.144 C -0.847,1.127 -0.92,1.09 -0.964,1.034 -1.008,0.979 -1.03,0.895 -1.03,0.783 c 0,-0.115 0.023,-0.205 0.071,-0.27 0.03,-0.042 0.071,-0.063 0.122,-0.063 0.046,0 0.086,0.02 0.119,0.059 0.042,0.05 0.086,0.171 0.131,0.364 0.046,0.193 0.093,0.336 0.142,0.428 0.048,0.093 0.115,0.165 0.199,0.217 0.085,0.052 0.189,0.079 0.313,0.079 0.113,0 0.218,-0.032 0.316,-0.094 C 0.481,1.441 0.554,1.352 0.602,1.237 0.65,1.124 0.674,0.981 0.674,0.811 0.674,0.562 0.616,0.371 0.502,0.238 0.387,0.105 0.22,0.026 0,0" /></g><g
     transform="translate(135.099,634.122)"
     id="g1808"><path
       inkscape:connector-curvature="0"
       id="path1810"
       style="fill:#231f20;fill-opacity:1;fill-rule:nonzero;stroke:none"
       d="M 0,0 H 0.525 V 0.367 C 0.525,0.51 0.521,0.601 0.513,0.639 0.502,0.698 0.476,0.746 0.435,0.783 0.393,0.82 0.338,0.839 0.268,0.839 0.209,0.839 0.159,0.825 0.118,0.796 0.077,0.767 0.047,0.726 0.028,0.672 0.009,0.618 0,0.501 0,0.32 Z m -0.781,0 h 0.454 v 0.26 c 0,0.155 -0.002,0.25 -0.007,0.288 -0.008,0.068 -0.031,0.121 -0.07,0.16 -0.039,0.039 -0.09,0.059 -0.153,0.059 -0.061,0 -0.11,-0.017 -0.148,-0.051 C -0.743,0.682 -0.766,0.633 -0.774,0.567 -0.779,0.527 -0.781,0.415 -0.781,0.228 Z m -0.327,-0.397 v 0.786 c 0,0.155 0.007,0.271 0.019,0.347 0.013,0.077 0.04,0.145 0.082,0.205 0.041,0.061 0.095,0.111 0.164,0.151 0.068,0.04 0.144,0.06 0.229,0.06 0.092,0 0.177,-0.024 0.254,-0.074 0.076,-0.05 0.134,-0.117 0.172,-0.202 0.035,0.12 0.095,0.212 0.179,0.276 0.083,0.065 0.182,0.097 0.296,0.097 0.089,0 0.176,-0.021 0.26,-0.063 C 0.631,1.145 0.699,1.088 0.749,1.016 0.8,0.944 0.831,0.856 0.842,0.75 0.85,0.684 0.854,0.525 0.856,0.272 v -0.669 z" /></g><g
     transform="translate(133.991,635.593)"
     id="g1812"><path
       inkscape:connector-curvature="0"
       id="path1814"
       style="fill:#231f20;fill-opacity:1;fill-rule:nonzero;stroke:none"
       d="m 0,0 v 0.397 h 1.064 c 0.168,0 0.278,0.005 0.328,0.014 0.08,0.017 0.145,0.058 0.193,0.121 0.049,0.064 0.074,0.152 0.074,0.263 0,0.112 -0.023,0.197 -0.07,0.254 C 1.543,1.106 1.487,1.14 1.42,1.152 1.353,1.164 1.242,1.169 1.087,1.169 H 0 V 1.566 H 1.032 C 1.267,1.566 1.434,1.555 1.531,1.534 1.629,1.512 1.711,1.473 1.778,1.415 1.845,1.358 1.898,1.281 1.938,1.184 1.978,1.088 1.998,0.962 1.998,0.807 1.998,0.619 1.976,0.477 1.932,0.38 1.889,0.283 1.833,0.206 1.764,0.15 1.695,0.094 1.622,0.057 1.546,0.039 1.433,0.013 1.267,0 1.048,0 Z" /></g><g
     transform="translate(135.316,637.367)"
     id="g1816"><path
       inkscape:connector-curvature="0"
       id="path1818"
       style="fill:#231f20;fill-opacity:1;fill-rule:nonzero;stroke:none"
       d="m 0,0 -0.038,0.386 c 0.13,0.023 0.225,0.07 0.286,0.141 0.061,0.071 0.091,0.167 0.091,0.287 0,0.128 -0.027,0.224 -0.081,0.289 C 0.204,1.168 0.141,1.2 0.068,1.2 0.022,1.2 -0.017,1.187 -0.05,1.159 -0.083,1.132 -0.111,1.085 -0.135,1.016 -0.151,0.97 -0.18,0.864 -0.221,0.699 -0.274,0.487 -0.338,0.337 -0.415,0.252 -0.523,0.131 -0.655,0.071 -0.811,0.071 c -0.099,0 -0.193,0.028 -0.28,0.085 -0.087,0.057 -0.153,0.138 -0.199,0.245 -0.046,0.107 -0.068,0.236 -0.068,0.386 0,0.247 0.054,0.432 0.162,0.557 0.108,0.125 0.252,0.19 0.433,0.196 L -0.746,1.144 C -0.847,1.127 -0.92,1.09 -0.964,1.034 -1.008,0.979 -1.03,0.895 -1.03,0.783 c 0,-0.115 0.023,-0.205 0.071,-0.27 0.03,-0.042 0.071,-0.063 0.122,-0.063 0.046,0 0.086,0.02 0.119,0.059 0.042,0.05 0.086,0.171 0.131,0.364 0.046,0.193 0.093,0.336 0.142,0.428 0.048,0.093 0.115,0.165 0.199,0.217 0.085,0.052 0.189,0.079 0.313,0.079 0.113,0 0.218,-0.032 0.316,-0.094 C 0.481,1.441 0.554,1.352 0.602,1.237 0.65,1.124 0.674,0.981 0.674,0.811 0.674,0.562 0.616,0.371 0.502,0.238 0.387,0.105 0.22,0.026 0,0" /></g><g
     transform="translate(-17.1752,214.761)"
     id="g1820"><path
       inkscape:connector-curvature="0"
       id="path1822"
       style="fill:#231f20;fill-opacity:1;fill-rule:nonzero;stroke:none"
       d="m 153.13,425.066 h -1.964 v 0.397 h 1.964 z" /></g><g
     transform="translate(135.955,640.496)"
     id="g1824"><path
       inkscape:connector-curvature="0"
       id="path1826"
       style="fill:#231f20;fill-opacity:1;fill-rule:nonzero;stroke:none"
       d="M 0,0 H -1.964 V 0.386 L -0.652,1.19 H -1.964 V 1.558 L 0,1.558 V 1.16 L -1.281,0.368 H 0 Z" /></g><g
     transform="translate(-17.1752,214.761)"
     id="g1828"><path
       inkscape:connector-curvature="0"
       id="path1830"
       style="fill:none;stroke:#92949a;stroke-width:0.5;stroke-linecap:butt;stroke-linejoin:miter;stroke-miterlimit:2;stroke-dasharray:none;stroke-opacity:1"
       d="M 185.573,445.715 H 174.28 v 2.625 h 11.293 z" /></g><g
     transform="translate(162.736,669.584)"
     id="g1832"><path
       inkscape:connector-curvature="0"
       id="path1834"
       style="fill:none;stroke:#92949a;stroke-width:0.5;stroke-linecap:butt;stroke-linejoin:miter;stroke-miterlimit:2;stroke-dasharray:none;stroke-opacity:1"
       d="M 0,0 0.039,-6.385" /></g><g
     transform="translate(160.645,673.261)"
     id="g1836"><path
       inkscape:connector-curvature="0"
       id="path1838"
       style="fill:#100f0d;fill-opacity:1;fill-rule:evenodd;stroke:none"
       d="M 0,0 C 0,1.158 0.946,2.102 2.107,2.102 3.269,2.102 4.215,1.158 4.215,0 4.215,-1.158 3.269,-2.104 2.107,-2.104 0.946,-2.104 0,-1.158 0,0" /></g><g
     transform="translate(160.645,673.261)"
     id="g1840"><path
       inkscape:connector-curvature="0"
       id="path1842"
       style="fill:none;stroke:#100f0d;stroke-width:0.42500001;stroke-linecap:butt;stroke-linejoin:miter;stroke-miterlimit:2.41400003;stroke-dasharray:none;stroke-opacity:1"
       d="M 0,0 C 0,1.158 0.946,2.102 2.107,2.102 3.269,2.102 4.215,1.158 4.215,0 4.215,-1.158 3.269,-2.104 2.107,-2.104 0.946,-2.104 0,-1.158 0,0 Z" /></g><g
     transform="translate(164.333,673.261)"
     id="g1844"><path
       inkscape:connector-curvature="0"
       id="path1846"
       style="fill:none;stroke:#ffffff;stroke-width:0.85000002;stroke-linecap:butt;stroke-linejoin:miter;stroke-miterlimit:2.41400003;stroke-dasharray:none;stroke-opacity:1"
       d="m 0,0 h -3.161 m 1.58,-1.577 v 3.154" /></g><g
     transform="translate(-17.1752,214.761)"
     id="g1848"><path
       inkscape:connector-curvature="0"
       id="path1850"
       style="fill:none;stroke:#92949a;stroke-width:0.5;stroke-linecap:butt;stroke-linejoin:miter;stroke-miterlimit:2;stroke-dasharray:none;stroke-opacity:1"
       d="M 188.217,454.823 H 171.68 v 7.35001 h 16.537 z" /></g><g
     transform="translate(168.028,675.364)"
     id="g1852"><path
       inkscape:connector-curvature="0"
       id="path1854"
       style="fill:none;stroke:#100f0d;stroke-width:0.5;stroke-linecap:butt;stroke-linejoin:miter;stroke-miterlimit:2;stroke-dasharray:none;stroke-opacity:1"
       d="m 0,0 c 1.158,0 2.104,-0.949 2.104,-2.109 0,-1.16 -0.946,-2.107 -2.104,-2.107 -1.158,0 -2.102,0.947 -2.102,2.107 C -2.102,-0.949 -1.158,0 0,0 Z" /></g><g
     transform="translate(166.451,673.255)"
     id="g1856"><path
       inkscape:connector-curvature="0"
       id="path1858"
       style="fill:none;stroke:#100f0d;stroke-width:0.5;stroke-linecap:butt;stroke-linejoin:miter;stroke-miterlimit:2;stroke-dasharray:none;stroke-opacity:1"
       d="M 0,0 H 3.153" /></g><g
     transform="translate(157.524,675.362)"
     id="g1860"><path
       inkscape:connector-curvature="0"
       id="path1862"
       style="fill:none;stroke:#100f0d;stroke-width:0.5;stroke-linecap:butt;stroke-linejoin:miter;stroke-miterlimit:2;stroke-dasharray:none;stroke-opacity:1"
       d="M 0,0 C 1.158,0 2.102,-0.946 2.102,-2.108 2.102,-3.27 1.158,-4.215 0,-4.215 c -1.158,0 -2.102,0.945 -2.102,2.107 C -2.102,-0.946 -1.158,0 0,0 Z" /></g><g
     transform="translate(155.948,672.606)"
     id="g1864"><path
       inkscape:connector-curvature="0"
       id="path1866"
       style="fill:none;stroke:#100f0d;stroke-width:0.5;stroke-linecap:butt;stroke-linejoin:miter;stroke-miterlimit:2;stroke-dasharray:none;stroke-opacity:1"
       d="M 0,0 H 1.05 V 1.903 H 2.104 V 0 h 1.049" /></g><text
     transform="scale(1,-1)"
     id="text6163"
     y="-660.92609"
     x="16.103802"
     style="font-style:normal;font-variant:normal;font-weight:normal;font-stretch:normal;font-size:7px;line-height:1.25;font-family:Arial;-inkscape-font-specification:Arial;font-variant-ligatures:normal;font-variant-caps:normal;font-variant-numeric:normal;font-feature-settings:normal;text-align:start;letter-spacing:0px;word-spacing:0px;writing-mode:lr-tb;text-anchor:start;fill:#231f20;fill-opacity:1;stroke:none;stroke-width:0.75"
     xml:space="preserve"><tspan
       style="font-size:7px;fill:#231f20;fill-opacity:1;stroke-width:0.75"
       y="-660.92609"
       x="16.103802"
       id="tspan6161"
       sodipodi:role="line">Smart Port</tspan></text>
<text
     transform="scale(1,-1)"
     id="text6163-8"
     y="-625.01154"
     x="33.698982"
     style="font-style:normal;font-variant:normal;font-weight:normal;font-stretch:normal;font-size:7px;line-height:1.25;font-family:Arial;-inkscape-font-specification:Arial;font-variant-ligatures:normal;font-variant-caps:normal;font-variant-numeric:normal;font-feature-settings:normal;text-align:start;letter-spacing:0px;word-spacing:0px;writing-mode:lr-tb;text-anchor:start;fill:#231f20;fill-opacity:1;stroke:none;stroke-width:0.75"
     xml:space="preserve"><tspan
       style="font-size:7px;fill:#231f20;fill-opacity:1;stroke-width:0.75"
       y="-625.01154"
       x="33.698982"
       id="tspan6161-9"
       sodipodi:role="line">Bouton F/S</tspan></text>
<text
     transform="scale(1,-1)"
     id="text6163-8-5"
     y="-617.01996"
     x="86.776901"
     style="font-style:normal;font-variant:normal;font-weight:normal;font-stretch:normal;font-size:7px;line-height:1.25;font-family:Arial;-inkscape-font-specification:Arial;font-variant-ligatures:normal;font-variant-caps:normal;font-variant-numeric:normal;font-feature-settings:normal;text-align:start;letter-spacing:0px;word-spacing:0px;writing-mode:lr-tb;text-anchor:start;fill:#231f20;fill-opacity:1;stroke:none;stroke-width:0.75"
     xml:space="preserve"><tspan
       style="font-size:7px;fill:#231f20;fill-opacity:1;stroke-width:0.75"
       y="-617.01996"
       x="86.776901"
       id="tspan6161-9-5"
       sodipodi:role="line">LED</tspan></text>
<text
     transform="scale(1,-1)"
     id="text6163-8-5-7"
     y="-616.22498"
     x="173.94472"
     style="font-style:normal;font-variant:normal;font-weight:normal;font-stretch:normal;font-size:7px;line-height:1;font-family:Arial;-inkscape-font-specification:Arial;font-variant-ligatures:normal;font-variant-caps:normal;font-variant-numeric:normal;font-feature-settings:normal;text-align:start;letter-spacing:0px;word-spacing:0px;writing-mode:lr-tb;text-anchor:start;fill:#231f20;fill-opacity:1;stroke:none;stroke-width:0.75"
     xml:space="preserve"><tspan
       id="tspan1228"
       style="font-size:7px;line-height:1;fill:#231f20;fill-opacity:1;stroke-width:0.75"
       y="-616.22498"
       x="173.94472"
       sodipodi:role="line">Sorties voies</tspan><tspan
       id="tspan1232"
       style="font-size:7px;line-height:1;fill:#231f20;fill-opacity:1;stroke-width:0.75"
       y="-609.22498"
       x="173.94472"
       sodipodi:role="line">conventionnelles</tspan></text>
<text
     transform="scale(1,-1)"
     id="text6163-8-5-2"
     y="-631.77277"
     x="191.56467"
     style="font-style:normal;font-variant:normal;font-weight:normal;font-stretch:normal;font-size:7px;line-height:1.25;font-family:Arial;-inkscape-font-specification:Arial;font-variant-ligatures:normal;font-variant-caps:normal;font-variant-numeric:normal;font-feature-settings:normal;text-align:start;letter-spacing:0px;word-spacing:0px;writing-mode:lr-tb;text-anchor:start;fill:#231f20;fill-opacity:1;stroke:none;stroke-width:0.75"
     xml:space="preserve"><tspan
       style="font-size:7px;fill:#231f20;fill-opacity:1;stroke-width:0.75"
       y="-631.77277"
       x="191.56467"
       id="tspan6161-9-5-2"
       sodipodi:role="line">Entre SBUS</tspan></text>
<text
     transform="scale(1,-1)"
     id="text6163-8-5-2-1"
     y="-655.97778"
     x="191.84335"
     style="font-style:normal;font-variant:normal;font-weight:normal;font-stretch:normal;font-size:7px;line-height:1;font-family:Arial;-inkscape-font-specification:Arial;font-variant-ligatures:normal;font-variant-caps:normal;font-variant-numeric:normal;font-feature-settings:normal;text-align:start;letter-spacing:0px;word-spacing:0px;writing-mode:lr-tb;text-anchor:start;fill:#231f20;fill-opacity:1;stroke:none;stroke-width:0.75"
     xml:space="preserve"><tspan
       style="font-size:7px;line-height:1;fill:#231f20;fill-opacity:1;stroke-width:0.75"
       y="-655.97778"
       x="191.84335"
       id="tspan6161-9-5-2-0"
       sodipodi:role="line">Sortie SBUS</tspan><tspan
       id="tspan1272"
       style="font-size:7px;line-height:1;fill:#231f20;fill-opacity:1;stroke-width:0.75"
       y="-648.97778"
       x="191.84335"
       sodipodi:role="line">(V<tspan
   id="tspan1276"
   style="font-size:6px;line-height:1">OIE</tspan>1-V<tspan
   id="tspan1274"
   style="font-size:6px;line-height:1">OIE</tspan>16)</tspan></text>
<text
     transform="scale(1,-1)"
     id="text6163-8-5-2-0"
     y="-626.34595"
     x="198.27744"
     style="font-style:normal;font-variant:normal;font-weight:normal;font-stretch:normal;font-size:5px;line-height:1.25;font-family:Arial;-inkscape-font-specification:Arial;font-variant-ligatures:normal;font-variant-caps:normal;font-variant-numeric:normal;font-feature-settings:normal;text-align:start;letter-spacing:0px;word-spacing:0px;writing-mode:lr-tb;text-anchor:start;fill:#231f20;fill-opacity:1;stroke:none;stroke-width:0.75"
     xml:space="preserve"><tspan
       style="font-size:5px;fill:#231f20;fill-opacity:1;stroke-width:0.75"
       y="-626.34595"
       x="198.27744"
       id="tspan6161-9-5-2-5"
       sodipodi:role="line">ou SBUS In</tspan></text>
<text
     transform="scale(1,-1)"
     id="text6163-8-5-2-0-6"
     y="-643.50842"
     x="198.29488"
     style="font-style:normal;font-variant:normal;font-weight:normal;font-stretch:normal;font-size:5px;line-height:1.25;font-family:Arial;-inkscape-font-specification:Arial;font-variant-ligatures:normal;font-variant-caps:normal;font-variant-numeric:normal;font-feature-settings:normal;text-align:start;letter-spacing:0px;word-spacing:0px;writing-mode:lr-tb;text-anchor:start;fill:#231f20;fill-opacity:1;stroke:none;stroke-width:0.75"
     xml:space="preserve"><tspan
       style="font-size:5px;fill:#231f20;fill-opacity:1;stroke-width:0.75"
       y="-643.50842"
       x="198.29488"
       id="tspan6161-9-5-2-5-2"
       sodipodi:role="line">ou SBUS Out</tspan></text>
</g></g></svg>