<?xml version="1.0" encoding="UTF-8" standalone="no"?>
<!-- Created with Inkscape (http://www.inkscape.org/) -->

<svg
   xmlns:dc="http://purl.org/dc/elements/1.1/"
   xmlns:cc="http://creativecommons.org/ns#"
   xmlns:rdf="http://www.w3.org/1999/02/22-rdf-syntax-ns#"
   xmlns:svg="http://www.w3.org/2000/svg"
   xmlns="http://www.w3.org/2000/svg"
   xmlns:sodipodi="http://sodipodi.sourceforge.net/DTD/sodipodi-0.dtd"
   xmlns:inkscape="http://www.inkscape.org/namespaces/inkscape"
   width="148mm"
   height="210mm"
   viewBox="0 0 148 210"
   version="1.1"
   id="svg18404"
   inkscape:version="0.92.1 r15371"
   sodipodi:docname="Redundancy bus - Manuel utilisateur P06 - vPlus.Fr4.svg">
  <defs
     id="defs18398" />
  <sodipodi:namedview
     id="base"
     pagecolor="#ffffff"
     bordercolor="#666666"
     borderopacity="1.0"
     inkscape:pageopacity="0.0"
     inkscape:pageshadow="2"
     inkscape:zoom="1.979899"
     inkscape:cx="168.91485"
     inkscape:cy="116.78198"
     inkscape:document-units="mm"
     inkscape:current-layer="layer1"
     showgrid="false"
     inkscape:window-width="1680"
     inkscape:window-height="987"
     inkscape:window-x="-8"
     inkscape:window-y="-8"
     inkscape:window-maximized="1" />
  <metadata
     id="metadata18401">
    <rdf:RDF>
      <cc:Work
         rdf:about="">
        <dc:format>image/svg+xml</dc:format>
        <dc:type
           rdf:resource="http://purl.org/dc/dcmitype/StillImage" />
        <dc:title></dc:title>
      </cc:Work>
    </rdf:RDF>
  </metadata>
  <g
     inkscape:label="Calque 1"
     inkscape:groupmode="layer"
     id="layer1"
     transform="translate(0,-87)">
    <g
       id="g29912"
       transform="matrix(0.35277777,0,0,-0.35277777,-148.81975,300.74248)"
       style="opacity:1">
      <path
         d="M 438.883,579.556 H 541.877 V 553.398 H 438.883 Z"
         style="fill:#231f20;fill-opacity:1;fill-rule:nonzero;stroke:#231f20;stroke-width:0.75099999;stroke-linecap:butt;stroke-linejoin:miter;stroke-miterlimit:10;stroke-dasharray:none;stroke-opacity:1"
         id="path29914"
         inkscape:connector-curvature="0" />
    </g>
    <g
       id="g29916"
       transform="matrix(0.35277777,0,0,-0.35277777,-148.81975,300.74248)"
       style="opacity:1">
      <path
         d="m 542.107,553.398 h 281.854 v 26.158 H 542.107 Z"
         style="fill:#d3d2d2;fill-opacity:1;fill-rule:nonzero;stroke:#231f20;stroke-width:0.75099999;stroke-linecap:butt;stroke-linejoin:miter;stroke-miterlimit:10;stroke-dasharray:none;stroke-opacity:1"
         id="path29918"
         inkscape:connector-curvature="0" />
    </g>
    <path
       inkscape:connector-curvature="0"
       id="path29922"
       style="opacity:1;fill:none;stroke:#231f20;stroke-width:0.14993055;stroke-linecap:butt;stroke-linejoin:miter;stroke-miterlimit:10;stroke-dasharray:none;stroke-opacity:1"
       d="M 11.548778,112.7465 H 136.31571" />
    <path
       inkscape:connector-curvature="0"
       id="path29926"
       style="opacity:1;fill:none;stroke:#231f20;stroke-width:0.14993055;stroke-linecap:butt;stroke-linejoin:miter;stroke-miterlimit:10;stroke-dasharray:none;stroke-opacity:1"
       d="M 11.548778,190.18404 H 136.31571" />
    <path
       inkscape:connector-curvature="0"
       id="path29930"
       style="opacity:1;fill:#231f20;fill-opacity:1;fill-rule:nonzero;stroke:#231f20;stroke-width:0.14993055;stroke-linecap:butt;stroke-linejoin:miter;stroke-miterlimit:10;stroke-dasharray:none;stroke-opacity:1"
       d="m 10.76667,285.07633 126.51635,-0.002" />
    <path
       inkscape:connector-curvature="0"
       id="path29934"
       style="opacity:1;fill:none;stroke:#231f20;stroke-width:0.26458332;stroke-linecap:round;stroke-linejoin:round;stroke-miterlimit:10;stroke-dasharray:none;stroke-opacity:1"
       d="m 6.0084028,96.288031 v 0 196.745909 H 141.85608 V 96.288031 Z" />
    <text
       xml:space="preserve"
       style="font-style:normal;font-variant:normal;font-weight:normal;font-stretch:normal;font-size:3.38666677px;line-height:0%;font-family:Arial;-inkscape-font-specification:Arial;text-align:center;letter-spacing:0px;word-spacing:0px;text-anchor:middle;opacity:1;fill:#000000;fill-opacity:1;stroke:none;stroke-width:0.28222224px;stroke-linecap:butt;stroke-linejoin:miter;stroke-opacity:1"
       x="73.503281"
       y="288.23541"
       id="text7795-5-3-7-3-9-8-4"><tspan
         sodipodi:role="line"
         x="73.503281"
         y="288.23541"
         style="font-style:normal;font-variant:normal;font-weight:normal;font-stretch:normal;font-size:2.11666656px;line-height:125%;font-family:Arial;-inkscape-font-specification:Arial;text-align:center;text-anchor:middle;stroke-width:0.28222224px"
         id="tspan8009-0-8-6-3-8-1">FrSky Electronic Co., Ltd</tspan><tspan
         sodipodi:role="line"
         x="73.796806"
         y="290.88126"
         style="font-style:normal;font-variant:normal;font-weight:normal;font-stretch:normal;font-size:2.11666656px;line-height:125%;font-family:Arial;-inkscape-font-specification:Arial;text-align:center;text-anchor:middle;stroke-width:0.28222224px"
         id="tspan11880-1-6-8-2">Website : www.frsky-rc.com                                     Email : frsky@frsky-rc.com            Technical Support : sales4tech@gmail.com </tspan></text>
    <text
       xml:space="preserve"
       style="font-style:normal;font-weight:normal;font-size:3.38666677px;line-height:0%;font-family:sans-serif;letter-spacing:0px;word-spacing:0px;opacity:1;fill:#000000;fill-opacity:1;stroke:none;stroke-width:0.28222224px;stroke-linecap:butt;stroke-linejoin:miter;stroke-opacity:1"
       x="11.311511"
       y="111.66077"
       id="text7795-3-4"><tspan
         sodipodi:role="line"
         id="tspan7797-8-5"
         x="11.311511"
         y="111.66077"
         style="font-style:normal;font-variant:normal;font-weight:bold;font-stretch:normal;font-size:3.52777791px;line-height:125%;font-family:Arial;-inkscape-font-specification:'Arial Bold';stroke-width:0.28222224px">Configurer la période du signal de sortie des Servos</tspan></text>
    <text
       xml:space="preserve"
       style="font-style:normal;font-variant:normal;font-weight:normal;font-stretch:normal;font-size:3.38666677px;line-height:0%;font-family:Arial;-inkscape-font-specification:Arial;text-align:end;letter-spacing:0px;word-spacing:0px;text-anchor:end;opacity:1;fill:#696969;fill-opacity:1;stroke:none;stroke-width:0.28222224px;stroke-linecap:butt;stroke-linejoin:miter;stroke-opacity:1"
       x="141.80899"
       y="295.12015"
       id="text7795-5-3-2"><tspan
         sodipodi:role="line"
         x="141.80899"
         y="295.12015"
         style="font-style:normal;font-variant:normal;font-weight:normal;font-stretch:normal;font-size:2.11666656px;line-height:0px;font-family:Arial;-inkscape-font-specification:Arial;text-align:end;text-anchor:end;fill:#696969;stroke-width:0.28222224px"
         id="tspan11939">Ceeb182 sur http://frskytaranis.forumactif.org</tspan></text>
    <text
       xml:space="preserve"
       style="font-style:normal;font-weight:normal;font-size:3.38666677px;line-height:0%;font-family:sans-serif;letter-spacing:0px;word-spacing:0px;opacity:1;fill:#000000;fill-opacity:1;stroke:none;stroke-width:0.28222224px;stroke-linecap:butt;stroke-linejoin:miter;stroke-opacity:1"
       x="11.288618"
       y="189.03072"
       id="text7795-3-4-6"><tspan
         sodipodi:role="line"
         id="tspan7797-8-5-1"
         x="11.288618"
         y="189.03072"
         style="font-style:normal;font-variant:normal;font-weight:bold;font-stretch:normal;font-size:3.52777791px;line-height:125%;font-family:Arial;-inkscape-font-specification:'Arial Bold';stroke-width:0.28222224px">Modifier le signal SBUS de négatif à positif pour RX1 IN et RX2 IN</tspan></text>
    <text
       xml:space="preserve"
       style="font-style:normal;font-variant:normal;font-weight:normal;font-stretch:normal;font-size:3.38666677px;line-height:0%;font-family:Arial;-inkscape-font-specification:Arial;letter-spacing:0px;word-spacing:0px;opacity:1;fill:#000000;fill-opacity:1;stroke:none;stroke-width:0.28222224px;stroke-linecap:butt;stroke-linejoin:miter;stroke-opacity:1"
       x="13.211824"
       y="193.98796"
       id="text7795-5-0-8-7-5"><tspan
         sodipodi:role="line"
         x="13.211824"
         y="193.98796"
         style="font-style:normal;font-variant:normal;font-weight:normal;font-stretch:normal;font-size:2.11666656px;line-height:125%;font-family:Arial;-inkscape-font-specification:Arial;stroke-width:0.28222224px"
         id="tspan11580-4">Le signal SBUS issu du                                      de FrSky est négatif. Suivre les étapes ci-dessous pour le modifier de négatif à </tspan><tspan
         sodipodi:role="line"
         x="13.211824"
         y="196.63379"
         style="font-style:normal;font-variant:normal;font-weight:normal;font-stretch:normal;font-size:2.11666656px;line-height:125%;font-family:Arial;-inkscape-font-specification:Arial;stroke-width:0.28222224px"
         id="tspan12176">positif. Pour l'exemple, la manipulation est décrite pour RX1 IN :</tspan><tspan
         sodipodi:role="line"
         x="13.211824"
         y="199.27963"
         style="font-style:normal;font-variant:normal;font-weight:normal;font-stretch:normal;font-size:2.11666656px;line-height:125%;font-family:Arial;-inkscape-font-specification:Arial;stroke-width:0.28222224px"
         id="tspan12178"> </tspan><tspan
         sodipodi:role="line"
         x="13.211824"
         y="201.92546"
         style="font-style:normal;font-variant:normal;font-weight:normal;font-stretch:normal;font-size:2.11666656px;line-height:125%;font-family:Arial;-inkscape-font-specification:Arial;stroke-width:0.28222224px"
         id="tspan12180">  Etape 1 - Connecter entre elles les broches &quot;signal&quot; de la voie 11 et de la voie 12 à l'aide d'un cavalier;</tspan><tspan
         sodipodi:role="line"
         x="13.211824"
         y="204.57129"
         style="font-style:normal;font-variant:normal;font-weight:normal;font-stretch:normal;font-size:2.11666656px;line-height:125%;font-family:Arial;-inkscape-font-specification:Arial;stroke-width:0.28222224px"
         id="tspan12182">  Etape 2 - Connecter l'alimentation sur le connecteur BATT1 ou BATT2, la LED verte doit s'allumer;</tspan><tspan
         sodipodi:role="line"
         x="13.211824"
         y="207.21713"
         style="font-style:normal;font-variant:normal;font-weight:normal;font-stretch:normal;font-size:2.11666656px;line-height:125%;font-family:Arial;-inkscape-font-specification:Arial;stroke-width:0.28222224px"
         id="tspan12184">  Etape 3 - Débrancher le cavalier et déconnecter l'alimentation.</tspan><tspan
         sodipodi:role="line"
         x="13.211824"
         y="209.86296"
         style="font-style:normal;font-variant:normal;font-weight:normal;font-stretch:normal;font-size:2.11666656px;line-height:125%;font-family:Arial;-inkscape-font-specification:Arial;stroke-width:0.28222224px"
         id="tspan12186"> </tspan><tspan
         sodipodi:role="line"
         x="13.211824"
         y="212.50879"
         style="font-style:normal;font-variant:normal;font-weight:normal;font-stretch:normal;font-size:2.11666656px;line-height:125%;font-family:Arial;-inkscape-font-specification:Arial;stroke-width:0.28222224px"
         id="tspan12188">Note :</tspan><tspan
         sodipodi:role="line"
         x="13.211824"
         y="215.15463"
         style="font-style:normal;font-variant:normal;font-weight:normal;font-stretch:normal;font-size:2.11666656px;line-height:125%;font-family:Arial;-inkscape-font-specification:Arial;stroke-width:0.28222224px"
         id="tspan12194">Connecter entre elles les broches &quot;signal&quot; de la voie 13 et de la voie 14 à l'aide d'un cavalier, et suivre les étapes 2 et 3 pour </tspan><tspan
         sodipodi:role="line"
         x="13.211824"
         y="217.80046"
         style="font-style:normal;font-variant:normal;font-weight:normal;font-stretch:normal;font-size:2.11666656px;line-height:125%;font-family:Arial;-inkscape-font-specification:Arial;stroke-width:0.28222224px"
         id="tspan12201">modifier le signal SBUS de négatif à positif pour RX2 IN.</tspan><tspan
         sodipodi:role="line"
         x="13.211824"
         y="220.44629"
         style="font-style:normal;font-variant:normal;font-weight:normal;font-stretch:normal;font-size:2.11666656px;line-height:125%;font-family:Arial;-inkscape-font-specification:Arial;stroke-width:0.28222224px"
         id="tspan12205">Connecter entre elles les broches &quot;signal&quot; de la voie 11 et de la voie 12, ainsi que celles de la voie 13 et de la voie 14, et suivre les</tspan><tspan
         sodipodi:role="line"
         x="13.211824"
         y="223.09213"
         style="font-style:normal;font-variant:normal;font-weight:normal;font-stretch:normal;font-size:2.11666656px;line-height:125%;font-family:Arial;-inkscape-font-specification:Arial;stroke-width:0.28222224px"
         id="tspan12209">étapes 2 et 3 pour modifier le signal SBUS de négatif à positif pour RX1 IN et RX2 IN en même temps.</tspan><tspan
         sodipodi:role="line"
         x="13.211824"
         y="225.73796"
         style="font-style:normal;font-variant:normal;font-weight:normal;font-stretch:normal;font-size:2.11666656px;line-height:125%;font-family:Arial;-inkscape-font-specification:Arial;stroke-width:0.28222224px"
         id="tspan12217">Suivre les instructions de l'étape 1 à l'étape 3 pour revenir au réglage par défaut et modifier le signal SBUS de positif à négatif.</tspan><tspan
         sodipodi:role="line"
         x="13.211824"
         y="228.38379"
         style="font-style:normal;font-variant:normal;font-weight:normal;font-stretch:normal;font-size:2.11666656px;line-height:125%;font-family:Arial;-inkscape-font-specification:Arial;stroke-width:0.28222224px"
         id="tspan12211"> </tspan></text>
    <g
       style="opacity:1"
       id="g7896-9-0-7"
       transform="matrix(0.28222223,0,0,0.28222223,3.1533075,78.424623)">
      <g
         transform="matrix(0.66831339,0,0,0.66831339,47.358415,26.6408)"
         id="g7841-2-6-6">
        <path
           sodipodi:type="star"
           style="opacity:1;fill:none;fill-opacity:1;stroke:#8b0000;stroke-width:1;stroke-linecap:round;stroke-linejoin:round;stroke-miterlimit:4;stroke-dasharray:none;stroke-dashoffset:0;stroke-opacity:1"
           id="path7835-8-2-0"
           sodipodi:sides="3"
           sodipodi:cx="120.07945"
           sodipodi:cy="39.279659"
           sodipodi:r1="16.457026"
           sodipodi:r2="8.1094952"
           sodipodi:arg1="0.52359878"
           sodipodi:arg2="1.5707963"
           inkscape:flatsided="false"
           inkscape:rounded="0"
           inkscape:randomized="0"
           d="m 134.33165,47.508172 -14.2522,-0.119018 -14.2522,0.119018 7.22917,-12.28326 7.02303,-12.402278 7.02303,12.402278 z"
           inkscape:transform-center-y="-4.1142562" />
        <path
           inkscape:connector-curvature="0"
           id="path7839-4-7-1"
           style="opacity:1;fill:#8b0000;fill-opacity:1;stroke:none;stroke-width:1;stroke-linecap:round;stroke-linejoin:round;stroke-miterlimit:4;stroke-dasharray:none;stroke-dashoffset:0;stroke-opacity:1"
           d="m 121.84918,44.195568 a 1.7697299,1.7697299 0 0 1 -1.76973,1.76973 1.7697299,1.7697299 0 0 1 -1.76973,-1.76973 1.7697299,1.7697299 0 0 1 1.76973,-1.76973 1.7697299,1.7697299 0 0 1 1.76973,1.76973 z m -0.82355,-2.608496 c 0,0 1.46741,-12.977357 0,-12.977357 h -1.95432 c -1.32799,0 0,12.977357 0,12.977357 z" />
      </g>
      <text
         id="text7791-7-7-4-0"
         y="43.8424"
         x="254.8221"
         style="font-style:normal;font-weight:normal;line-height:0%;font-family:sans-serif;text-align:center;letter-spacing:0px;word-spacing:0px;text-anchor:middle;fill:#808080;fill-opacity:1;stroke:none;stroke-width:1px;stroke-linecap:butt;stroke-linejoin:miter;stroke-opacity:1"
         xml:space="preserve"><tspan
           style="font-style:italic;font-variant:normal;font-weight:bold;font-stretch:normal;font-size:7.5px;line-height:110.00000238%;font-family:Arial;-inkscape-font-specification:'Arial Bold Italic';text-align:center;text-anchor:middle"
           y="43.8424"
           x="254.8221"
           id="tspan7793-9-8-4-8"
           sodipodi:role="line">Ceci n'est pas le manuel officiel du produit !</tspan><tspan
           id="tspan7866-6-7-4"
           style="font-style:normal;font-variant:normal;font-weight:normal;font-stretch:normal;font-size:7.5px;line-height:110.00000238%;font-family:Arial;-inkscape-font-specification:Arial;text-align:center;text-anchor:middle"
           y="52.0924"
           x="254.8221"
           sodipodi:role="line">Ce document est une traduction enrichie d'informations non-officielles et</tspan><tspan
           id="tspan7870-0-3-3"
           style="font-style:normal;font-variant:normal;font-weight:normal;font-stretch:normal;font-size:7.5px;line-height:110.00000238%;font-family:Arial;-inkscape-font-specification:Arial;text-align:center;text-anchor:middle"
           y="60.3424"
           x="254.8221"
           sodipodi:role="line">réalisée par un bénévole pour le site http://frskytaranis.forumactif.org</tspan></text>
      <g
         transform="matrix(0.66831339,0,0,0.66831339,302.67306,26.6408)"
         id="g7841-8-9-5-0">
        <path
           sodipodi:type="star"
           style="opacity:1;fill:none;fill-opacity:1;stroke:#8b0000;stroke-width:1;stroke-linecap:round;stroke-linejoin:round;stroke-miterlimit:4;stroke-dasharray:none;stroke-dashoffset:0;stroke-opacity:1"
           id="path7835-6-0-1-4"
           sodipodi:sides="3"
           sodipodi:cx="120.07945"
           sodipodi:cy="39.279659"
           sodipodi:r1="16.457026"
           sodipodi:r2="8.1094952"
           sodipodi:arg1="0.52359878"
           sodipodi:arg2="1.5707963"
           inkscape:flatsided="false"
           inkscape:rounded="0"
           inkscape:randomized="0"
           d="m 134.33165,47.508172 -14.2522,-0.119018 -14.2522,0.119018 7.22917,-12.28326 7.02303,-12.402278 7.02303,12.402278 z"
           inkscape:transform-center-y="-4.1142562" />
        <path
           inkscape:connector-curvature="0"
           id="path7839-3-0-1-9"
           style="opacity:1;fill:#8b0000;fill-opacity:1;stroke:none;stroke-width:1;stroke-linecap:round;stroke-linejoin:round;stroke-miterlimit:4;stroke-dasharray:none;stroke-dashoffset:0;stroke-opacity:1"
           d="m 121.84918,44.195568 a 1.7697299,1.7697299 0 0 1 -1.76973,1.76973 1.7697299,1.7697299 0 0 1 -1.76973,-1.76973 1.7697299,1.7697299 0 0 1 1.76973,-1.76973 1.7697299,1.7697299 0 0 1 1.76973,1.76973 z m -0.82355,-2.608496 c 0,0 1.46741,-12.977357 0,-12.977357 h -1.95432 c -1.32799,0 0,12.977357 0,12.977357 z" />
      </g>
      <path
         style="fill:none;fill-rule:evenodd;stroke:#808080;stroke-width:0.69999999;stroke-linecap:butt;stroke-linejoin:miter;stroke-miterlimit:4;stroke-dasharray:none;stroke-opacity:1"
         d="M 243.36175,53.295767 H 366.08116"
         id="path8048-4-6-4"
         inkscape:connector-curvature="0"
         sodipodi:nodetypes="cc" />
    </g>
    <text
       xml:space="preserve"
       style="font-style:normal;font-weight:normal;font-size:3.38666677px;line-height:0%;font-family:sans-serif;text-align:start;letter-spacing:0px;word-spacing:0px;text-anchor:start;opacity:1;fill:#000000;fill-opacity:1;stroke:none;stroke-width:0.28222224px;stroke-linecap:butt;stroke-linejoin:miter;stroke-opacity:1"
       x="45.895626"
       y="102.28775"
       id="text7787-6-7-6"><tspan
         sodipodi:role="line"
         id="tspan7789-2-0-1"
         x="45.895626"
         y="102.28775"
         style="font-style:normal;font-variant:normal;font-weight:bold;font-stretch:normal;font-size:3.52777791px;line-height:125%;font-family:Arial;-inkscape-font-specification:'Arial Bold';text-align:start;text-anchor:start;stroke-width:0.28222224px">Manuel d'utilisation du                               FrSky</tspan></text>
    <g
       id="g7064-1-0-3"
       transform="matrix(0.360152,0,0,-0.360152,-0.86743323,298.64968)"
       style="opacity:1">
      <path
         inkscape:connector-curvature="0"
         d="m 32.8905,541.82199 h -1.354 v 7.853 h 1.354 z m 4.557,0 h -2.707 v 11.667 h 2.707 z m 11.0167,3.921 v -3.917 h -4.443 v 4.748 c 0,0.505 -0.411,0.916 -0.916,0.916 -0.506,0 -0.917,-0.411 -0.917,-0.916 v -4.748 h -0.029 -2.863 v 13.952 h 4.203 c 2.741,0 4.965,-2.223 4.965,-4.964 0,-1.503 -0.664,-2.843 -1.715,-3.751 l 0.004,-0.008 c -0.158,-0.139 -0.256,-0.338 -0.256,-0.566 0,-0.412 0.334,-0.746 0.745,-0.746 z"
         style="fill:#d3d2d2;fill-opacity:1;fill-rule:nonzero;stroke:none"
         id="path77538-9-6-2" />
      <g
         transform="translate(104.5895,546.04999)"
         id="g77548-4-4-0"
         style="fill:#ffffff" />
      <g
         transform="translate(111.0328,544.40299)"
         id="g77556-71-3-2"
         style="fill:#ffffff" />
      <g
         transform="translate(104.5895,546.04999)"
         id="g77564-0-9-7"
         style="fill:#ffffff" />
      <g
         transform="translate(83.360895,544.34899)"
         id="g77576-7-7-2"
         style="fill:#ffffff" />
      <g
         transform="translate(83.360895,543.60799)"
         id="g77580-2-7-7"
         style="fill:#ffffff" />
      <g
         transform="translate(76.875595,546.93799)"
         id="g77588-2-7-1"
         style="fill:#ffffff" />
      <g
         transform="translate(76.927395,546.04999)"
         id="g77592-33-9-6"
         style="fill:#ffffff" />
      <g
         transform="translate(97.245695,546.04999)"
         id="g77608-0-3-1"
         style="fill:#ffffff" />
      <g
         transform="translate(95.504495,546.10299)"
         id="g77616-0-7-4"
         style="fill:#ffffff" />
      <g
         transform="translate(90.764295,546.04999)"
         id="g77620-7-8-3"
         style="fill:#ffffff" />
      <g
         transform="translate(90.713495,544.35999)"
         id="g77624-5-3-0"
         style="fill:#ffffff" />
      <g
         transform="translate(67.976195,544.36799)"
         id="g77640-1-7-6"
         style="fill:#ffffff" />
      <g
         transform="translate(54.171495,546.93799)"
         id="g77656-7-7-0"
         style="fill:#ffffff" />
      <g
         transform="translate(54.171495,544.35999)"
         id="g77660-2-6-2"
         style="fill:#ffffff" />
      <g
         transform="translate(54.220295,546.04999)"
         id="g77664-6-5-8"
         style="fill:#ffffff">
        <path
           inkscape:connector-curvature="0"
           id="path77666-2-3-5"
           style="fill:#ffffff;fill-opacity:1;fill-rule:nonzero;stroke:none"
           d="M 0,0 H -0.049 V 0.049 C -0.043,0.025 -0.024,0.006 0,0 m -0.0488,-1.69 h 0.05 c -0.025,-0.006 -0.044,-0.027 -0.05,-0.051 z m 0,2.578 h 0.053 c -0.027,-0.006 -0.047,-0.029 -0.053,-0.055 z m 0,-0.839 V 0 h 0.049 8.1 v -1.69 h -8.099 -0.05 v -0.051 -2.488 h -1.694 v 6.768 h 9.843 V 0.888 h -8.096 -0.053 V 0.834 Z m 13.8047,-1.731 h 0.049 c -0.023,-0.006 -0.041,-0.025 -0.049,-0.048 z m 0.0488,0 h -0.049 V -1.73 -4.229 h -1.69 v 4.223 h 4.934 V -1.683 Z M 36.4932,-1.69 h 0.048 c -0.028,-0.009 -0.048,-0.035 -0.048,-0.065 z M 36.544,0 h -0.051 v 0.067 c 0,-0.032 0.022,-0.059 0.051,-0.067 m 4.7402,0.053 V 0 h -0.051 c 0.025,0.007 0.045,0.027 0.051,0.053 m 1.6904,-1.743 v -0.067 c 0,0.032 -0.023,0.06 -0.055,0.067 z M 43.0254,0 h -0.051 v 0.067 c 0,-0.032 0.023,-0.059 0.051,-0.067 m -1.7412,0.053 v 2.486 h 1.69 V 0.067 0 h 0.051 1.644 v -4.229 h -1.695 v 2.472 0.067 h -0.054 -6.379 -0.048 v -0.065 -2.474 h -1.694 v 6.768 h 1.694 V 0.067 0 h 0.051 4.689 0.051 z M 22.7071,0 h -0.052 V 0.051 C 22.6621,0.026 22.6831,0.006 22.7071,0 m -0.0518,0.888 h 0.064 c -0.031,-0.001 -0.058,-0.023 -0.064,-0.053 z m 6.4853,-2.535 v -0.054 c -0.007,0.03 -0.035,0.054 -0.067,0.054 z m 0,-0.795 v -0.054 h -0.054 c 0.028,0.006 0.048,0.027 0.054,0.054 m 0,0.741 v 0.054 h -0.067 -8.109 v 4.186 h 9.87 V 0.888 h -8.113 -0.002 -0.064 V 0.836 0.051 0 h 0.051 8.128 v -4.229 h -9.87 v 1.734 h 8.122 0.054 v 0.053 z M 50.369205,0 h -0.045 v 0.064 c 0,-0.029 0.019,-0.054 0.045,-0.064 m 6.4433,0.064 V 0 h -0.042 c 0.024,0.01 0.042,0.035 0.042,0.064 m 0,-1.711 v -0.066 c 0,0.031 -0.022,0.058 -0.052,0.066 z m 0,-0.785 v -0.064 h -0.042 c 0.024,0.011 0.042,0.035 0.042,0.064 M 50.369205,0 h 6.401 0.042 v 0.064 2.475 h 1.691 v -6.768 h -9.87 v 1.733 h 8.137 0.042 v 0.064 0.719 0.066 h -0.051 -8.128 v 4.186 h 1.691 V 0.064 0 Z" />
      </g>
    </g>
    <path
       d="m 113.26504,100.0095 v 0.33783 h -1.25631 c -0.0889,0 -0.15039,0.0162 -0.18308,0.0484 -0.0371,0.0383 -0.0562,0.0859 -0.0562,0.14123 v 0.19311 c 0,0.0545 0.0222,0.10288 0.0654,0.14342 0.044,0.0418 0.0963,0.0628 0.15737,0.0628 h 0.89536 c 0.13557,0 0.24455,0.044 0.3265,0.13208 0.0824,0.0881 0.12206,0.21316 0.12206,0.3775 v 0.38884 c 0,0.15518 -0.0414,0.27593 -0.12467,0.36224 -0.0933,0.0959 -0.21709,0.14472 -0.36966,0.14472 h -1.43111 v -0.33696 h 1.34262 c 0.0658,0 0.1177,-0.0192 0.1578,-0.0575 0.031,-0.0301 0.0466,-0.0946 0.0466,-0.19311 v -0.31124 c 0,-0.0488 -0.0231,-0.092 -0.0702,-0.1299 -0.0309,-0.0257 -0.0798,-0.0401 -0.14472,-0.0401 h -0.95988 c -0.12554,0 -0.22537,-0.0371 -0.30035,-0.11333 -0.061,-0.0615 -0.0915,-0.15519 -0.0915,-0.27986 v -0.39451 c 0,-0.13382 0.0188,-0.22755 0.0549,-0.27811 0.0933,-0.13121 0.21926,-0.19747 0.37663,-0.19747 h 1.44244 z m -3.67781,0.0113 v 1.75019 c 0,0.0963 0.0161,0.16042 0.0493,0.19093 0.0318,0.0305 0.0732,0.0453 0.12206,0.0453 h 0.90146 c 0.13688,0 0.20445,-0.0715 0.20445,-0.21577 v -1.77069 l 0.37837,-0.002 v 1.75848 c 0,0.18918 -0.051,0.33173 -0.15344,0.42719 -0.10114,0.0937 -0.22886,0.14036 -0.38404,0.14036 h -0.9625 c -0.1687,0 -0.29904,-0.0449 -0.39058,-0.13469 -0.0959,-0.092 -0.14341,-0.20924 -0.14341,-0.35091 v -1.83825 h 0.37837 z m -1.94592,1.28246 v 0.48256 c 0,0.14995 0.0597,0.22449 0.17873,0.22449 h 0.61158 c 0.0806,0 0.14342,-0.0218 0.18657,-0.0658 0.0335,-0.0336 0.0506,-0.0767 0.0506,-0.12598 v -0.33217 c 0,-0.044 -0.02,-0.0859 -0.0597,-0.1251 -0.0388,-0.0379 -0.0894,-0.058 -0.153,-0.058 z m 0,-0.33609 h 0.83783 c 0.0558,0 0.10113,-0.0161 0.13601,-0.0484 0.0357,-0.0331 0.0536,-0.0767 0.0536,-0.1286 v -0.25849 c 0,-0.0545 -0.0148,-0.0981 -0.0427,-0.13122 -0.0336,-0.0401 -0.0828,-0.0597 -0.1469,-0.0597 h -0.66085 c -0.0401,0 -0.0767,0.0122 -0.10941,0.0366 -0.0449,0.0344 -0.0676,0.0772 -0.0676,0.12686 v 0.46293 z m 1.29379,0.18265 c 0.0745,0.0981 0.11247,0.18526 0.11247,0.25936 v 0.46774 c 0,0.13906 -0.0488,0.25283 -0.14559,0.34394 -0.0907,0.0841 -0.19355,0.12641 -0.30689,0.12641 h -0.79162 c -0.16564,0 -0.29773,-0.0497 -0.39537,-0.15039 -0.0972,-0.10026 -0.14516,-0.22711 -0.14516,-0.38229 v -1.2999 c 0,-0.14734 0.0501,-0.26852 0.14952,-0.36486 0.0998,-0.0972 0.21883,-0.14647 0.35614,-0.14647 h 0.76677 c 0.1408,0 0.26591,0.0506 0.37707,0.15127 0.0898,0.0815 0.13513,0.17915 0.13513,0.29424 v 0.2306 c 0,0.1639 -0.0126,0.2755 -0.0366,0.33565 -0.0157,0.0375 -0.0405,0.082 -0.0759,0.1347 m -5.16645,-1.13512 h 0.37837 l 0.41063,0.85744 c 0.0301,0.0645 0.0737,0.11246 0.13077,0.14691 0.0471,0.027 0.0911,0.0405 0.13165,0.0405 0.0418,0 0.0837,-0.0144 0.12685,-0.044 0.0423,-0.0301 0.0737,-0.0654 0.0929,-0.1068 l 0.40453,-0.89406 h 0.37968 l -0.45902,1.05316 c -0.0593,0.13252 -0.12946,0.22494 -0.21272,0.27594 -0.0392,0.0244 -0.0998,0.0519 -0.18091,0.082 v 0.92195 h -0.3788 v -0.92195 c -0.14865,-0.0658 -0.24804,-0.15301 -0.29773,-0.26243 z m -0.15737,-0.006 -7.9e-4,0.33609 h -1.24715 c -0.0763,0 -0.13644,0.0222 -0.18003,0.0663 -0.0366,0.0366 -0.0554,0.0802 -0.0554,0.13295 v 1.22318 c 0,0.0824 0.0214,0.14341 0.0615,0.18221 0.0397,0.0375 0.0902,0.0562 0.15126,0.0562 h 1.26982 v 0.3374 h -1.33695 c -0.15694,0 -0.28553,-0.0501 -0.38666,-0.14865 -0.0915,-0.092 -0.13732,-0.22886 -0.13732,-0.41238 v -1.25761 c 0,-0.14603 0.0471,-0.26808 0.14037,-0.36835 0.0928,-0.0985 0.20837,-0.14734 0.34699,-0.14734 h 1.37444 z m -3.59237,2.34783 h -0.377942 v -1.87966 c 0,-0.15649 0.04446,-0.28073 0.133824,-0.37096 0.06844,-0.0684 0.159109,-0.10244 0.271578,-0.10244 0.1918,0 0.32301,0.0976 0.39276,0.29337 l 0.54271,1.50651 c 0.024,0.0628 0.0436,0.10463 0.061,0.12598 0.0152,0.0183 0.0383,0.0262 0.0684,0.0262 0.0671,0 0.10113,-0.0589 0.10113,-0.17567 v -1.76414 h 0.37794 v 1.78507 c 0,0.17698 -0.0471,0.31429 -0.14298,0.41237 -0.0667,0.0715 -0.16696,0.1068 -0.29991,0.1068 -0.1286,0 -0.23147,-0.0305 -0.30862,-0.0915 -0.0754,-0.061 -0.12903,-0.13513 -0.16085,-0.221 l -0.51657,-1.4407 c -0.0383,-0.10506 -0.0728,-0.15736 -0.10418,-0.15736 -0.0253,0 -0.0383,0.0157 -0.0383,0.0462 v 1.90102 z m -2.064491,-1.06145 h 0.854826 l -0.224494,-0.74933 c -0.01262,-0.0445 -0.03791,-0.0868 -0.07454,-0.13034 -0.03269,-0.0371 -0.07411,-0.0558 -0.12424,-0.0558 -0.05449,0 -0.101127,0.024 -0.140362,0.071 -0.02877,0.0344 -0.04969,0.0728 -0.06146,0.11508 z m -0.688309,1.05273 0.535303,-1.81035 c 0.04533,-0.14952 0.104182,-0.26983 0.177413,-0.35832 0.09852,-0.12162 0.232347,-0.18134 0.400172,-0.18134 0.166518,0 0.29555,0.0471 0.385784,0.14168 0.07149,0.0754 0.125108,0.17174 0.16129,0.28944 l 0.58325,1.92064 h -0.37968 l -0.22406,-0.71795 h -1.030499 l -0.239315,0.71795 -0.369658,-0.002 z m -1.62552,-0.34219 h 0.879234 c 0.06757,0 0.121184,-0.0179 0.158673,-0.0545 0.03924,-0.0371 0.05841,-0.0828 0.05841,-0.136 v -1.25369 c 0,-0.13645 -0.06712,-0.20532 -0.202263,-0.20532 h -0.894056 z m -0.378376,0.33783 v -2.32429 h 1.344798 c 0.147336,0 0.270698,0.0501 0.370523,0.14952 0.09154,0.0915 0.137313,0.21578 0.137313,0.37707 v 1.22143 c 0,0.18875 -0.04752,0.33216 -0.142108,0.43024 -0.04272,0.0445 -0.0959,0.0811 -0.159977,0.10942 -0.05711,0.0248 -0.106799,0.0366 -0.149956,0.0366 h -1.400563 z m -1.731883,0.0131 h -0.378812 v -1.87965 c 0,-0.1565 0.04446,-0.28073 0.13426,-0.37097 0.06888,-0.0684 0.158676,-0.10244 0.272011,-0.10244 0.190497,0 0.321707,0.0976 0.39189,0.29337 l 0.543584,1.50652 c 0.02305,0.0628 0.04359,0.10462 0.06059,0.12598 0.01529,0.0183 0.03835,0.0262 0.06887,0.0262 0.06713,0 0.100695,-0.0589 0.100695,-0.17568 v -1.76414 h 0.378381 v 1.78507 c 0,0.17698 -0.04708,0.3143 -0.143418,0.41237 -0.0667,0.0715 -0.16652,0.1068 -0.300347,0.1068 -0.128598,0 -0.23147,-0.0305 -0.308626,-0.0915 -0.07498,-0.061 -0.128595,-0.13513 -0.159977,-0.221 l -0.516999,-1.4407 c -0.0379,-0.10506 -0.07236,-0.15736 -0.104619,-0.15736 -0.02484,0 -0.03749,0.0157 -0.03749,0.0462 v 1.90102 z m -2.176253,-2.33563 v 1.7502 c 0,0.0963 0.01656,0.16042 0.04925,0.19093 0.03183,0.0305 0.0728,0.0453 0.122058,0.0453 h 0.901469 c 0.13688,0 0.20488,-0.0715 0.20488,-0.21578 v -1.77068 l 0.377937,-0.002 v 1.75848 c 0,0.18918 -0.05144,0.33172 -0.153879,0.42719 -0.100696,0.0937 -0.228415,0.14036 -0.383167,0.14036 h -0.962933 c -0.169135,0 -0.299037,-0.0449 -0.390575,-0.13469 -0.09591,-0.092 -0.142984,-0.20925 -0.142984,-0.35092 v -1.83826 h 0.377942 z m -2.018853,1.98472 h 0.878803 c 0.06801,0 0.121624,-0.0179 0.159112,-0.0545 0.03835,-0.0371 0.05798,-0.0828 0.05798,-0.136 v -1.25369 c 0,-0.13644 -0.06713,-0.20532 -0.20139,-0.20532 h -0.894501 z m -0.37837,0.33784 v -2.3243 h 1.344361 c 0.148212,0 0.271137,0.0501 0.370962,0.14952 0.0911,0.0915 0.136877,0.21578 0.136877,0.37707 v 1.22143 c 0,0.18875 -0.04708,0.33216 -0.141677,0.43025 -0.04272,0.0445 -0.09633,0.0811 -0.15998,0.10941 -0.0571,0.0248 -0.107236,0.0366 -0.149519,0.0366 h -1.401024 z m -0.16482,-2.33389 v 0.33784 h -1.062323 c -0.167825,0 -0.251521,0.0658 -0.251521,0.19921 v 0.36486 h 1.313844 v 0.33696 h -1.313844 v 0.56233 c 0,0.0663 0.01958,0.11726 0.05972,0.15388 0.0336,0.0305 0.07628,0.0453 0.129466,0.0453 h 1.124656 v 0.33739 h -1.124656 c -0.08849,0 -0.182211,-0.0192 -0.28117,-0.0567 -0.190487,-0.0728 -0.28639,-0.24803 -0.28639,-0.5257 v -1.20618 c 0,-0.16521 0.04839,-0.30208 0.146462,-0.40889 0.08675,-0.0937 0.203139,-0.14036 0.350912,-0.14036 z m -3.265956,0.97383 h 0.813856 c 0.144285,0 0.216212,-0.0658 0.216212,-0.19703 v -0.24193 c 0,-0.13208 -0.08457,-0.19747 -0.253703,-0.19747 h -0.512199 c -0.115954,0 -0.190056,0.0244 -0.221007,0.0702 -0.02922,0.041 -0.04316,0.0872 -0.04316,0.14036 z m 1.408005,1.35047 h -0.377937 v -0.80557 c 0,-0.0876 -0.01786,-0.14385 -0.05274,-0.17132 -0.03224,-0.0244 -0.07716,-0.0366 -0.136441,-0.0366 h -0.840883 v 1.02396 H 85.14812 v -1.83999 c 0,-0.14516 0.04184,-0.26111 0.125979,-0.35004 0.09154,-0.0968 0.216648,-0.14428 0.374015,-0.14428 h 0.718822 c 0.143412,0 0.247597,0.0174 0.312547,0.0519 0.170445,0.0885 0.254575,0.22929 0.254575,0.42196 v 0.3592 c 0,0.0872 -0.0087,0.16564 -0.02704,0.23321 -0.0096,0.0375 -0.03534,0.0811 -0.07628,0.13077 0.04359,0.0667 0.07148,0.12075 0.08413,0.16173 0.0131,0.0436 0.01918,0.0915 0.01918,0.14559 v 0.81952 z"
       style="opacity:1;fill:#110f0d;fill-opacity:1;fill-rule:nonzero;stroke:none;stroke-width:0.28222224"
       id="path8890-5-0-2-4-9-1"
       inkscape:connector-curvature="0" />
    <g
       transform="matrix(0,0.87524664,0.87524664,0,-458.32768,25.358282)"
       style="opacity:1"
       id="g58829-2-5">
      <g
         id="g4398-47-5-1-0-3"
         transform="translate(88.2461,680.104)">
        <path
           d="M 0,0 0.759,-0.756 V -4.514 L 0.037,-5.237 v -5.858 H -4.341 V 0 Z"
           style="fill:#ffffff;fill-opacity:1;fill-rule:nonzero;stroke:none"
           id="path4400-1-0-4-2-4"
           inkscape:connector-curvature="0" />
      </g>
      <path
         inkscape:connector-curvature="0"
         id="path4404-8-3-9-4-9"
         style="fill:none;stroke:#231f20;stroke-width:0.227;stroke-linecap:butt;stroke-linejoin:miter;stroke-miterlimit:10;stroke-dasharray:none;stroke-opacity:1"
         d="m 88.2461,680.104 0.759,-0.756 v -3.758 l -0.722,-0.723 v -5.858 h -4.378 v 11.095 z" />
      <g
         id="g4406-9-2-6-9-3"
         transform="translate(83.5078,668.648)">
        <path
           d="m 0,0 -0.759,0.757 v 3.756 l 0.721,0.724 v 5.858 h 4.38 V 0 Z"
           style="fill:#ffffff;fill-opacity:1;fill-rule:nonzero;stroke:none"
           id="path4408-0-8-1-2-1"
           inkscape:connector-curvature="0" />
      </g>
      <path
         inkscape:connector-curvature="0"
         id="path4412-5-8-05-2-7"
         style="fill:none;stroke:#231f20;stroke-width:0.227;stroke-linecap:butt;stroke-linejoin:miter;stroke-miterlimit:10;stroke-dasharray:none;stroke-opacity:1"
         d="m 83.5078,668.648 -0.759,0.757 v 3.756 l 0.721,0.724 v 5.858 h 4.38 v -11.095 z" />
      <path
         inkscape:connector-curvature="0"
         d="m 84.4907,676.426 v 0.723 c 0,0 0.037,0.167 0.145,0.148 0.108,-0.018 0.167,-0.213 0.167,-0.213 v -0.712 l 0.839,-0.149 v 0.287 l -0.597,0.106 v 0.424 c 0,0 0.031,0.18 0.143,0.16 l 0.454,-0.08 v 0.281 l -0.488,0.087 c 0,0 -0.23,-0.021 -0.23,-0.23 0,0 -0.053,0.28 -0.294,0.322 0,0 -0.384,0.063 -0.384,-0.362 v -0.749 m 0.245,1.988 v -0.282 l 1.151,-0.204 v 0.283 z m 0,0.448 v -1.177 l -0.245,0.043 v 1.179 z m 0.3116,-2.982 v -0.612 l 0.243,-0.041 v 0.61 z m -0.0567,-0.881 c -0.324,0.057 -0.586,0.365 -0.586,0.688 0,0.325 0.262,0.542 0.586,0.484 l 0.896,-0.158 v -0.28 l -0.896,0.159 c -0.169,0.028 -0.308,-0.084 -0.308,-0.253 0,-0.169 0.139,-0.33 0.308,-0.36 l 0.896,-0.158 v -0.282 z m 0,-1.86 c -0.324,0.058 -0.586,0.277 -0.586,0.6 0,0.323 0.262,0.447 0.586,0.39 l 0.896,-0.16 v -0.278 l -0.896,0.158 c -0.169,0.03 -0.308,0.01 -0.308,-0.16 0,-0.169 0.139,-0.241 0.308,-0.271 l 0.896,-0.156 v -0.281 z m 0,0.71 c -0.324,0.056 -0.586,0.275 -0.586,0.599 0,0.324 0.262,0.447 0.586,0.391 l 0.896,-0.158 v -0.28 l -0.896,0.159 c -0.169,0.03 -0.308,0.009 -0.308,-0.162 0,-0.168 0.139,-0.241 0.308,-0.269 l 0.896,-0.16 v -0.278 z m 1.7788,4.701 v -0.466 h 0.657 v -0.333 h -0.657 v -0.457 h -0.047 v 1.256 z m 0.2686,-2.184 v 0.425 c 0.003,0.054 -0.012,0.085 -0.047,0.091 h -0.18 c -0.028,-0.006 -0.043,-0.037 -0.046,-0.091 v -0.425 c 0.005,-0.089 0.026,-0.136 0.06,-0.142 h 0.162 c 0.031,0.011 0.049,0.059 0.051,0.142 m 0.38,-0.15 v -0.325 h -0.699 v 0.333 h 0.063 c -0.037,0.027 -0.058,0.075 -0.063,0.142 v 0.574 c 0.002,0.176 0.048,0.269 0.135,0.275 h 0.116 c 0.054,-0.013 0.09,-0.076 0.111,-0.192 l 0.269,0.116 c 0.031,0.023 0.057,0.056 0.076,0.1 0.009,-0.293 -0.024,-0.444 -0.097,-0.448 L 86.84,676.725 V 676.4 c -0.003,-0.066 -0.021,-0.114 -0.055,-0.141 z m -0.6486,-0.845 v -0.549 c 0,-0.055 0.014,-0.08 0.042,-0.075 h 0.521 c 0.032,-0.005 0.046,0.02 0.042,0.075 v 0.549 c 0.004,0.044 -0.009,0.066 -0.037,0.066 h -0.526 c -0.028,0 -0.042,-0.022 -0.042,-0.066 m 0.657,-0.69 c 0,-0.178 -0.048,-0.267 -0.145,-0.267 h -0.419 c -0.096,0 -0.144,0.089 -0.144,0.267 v 0.058 0.008 0.749 c 0,0.172 0.048,0.26 0.144,0.267 h 0.419 c 0.097,0 0.145,-0.089 0.145,-0.267 v -0.782 -0.026 z m -0.3157,-1.244 v 0.424 c 0.006,0.072 -0.016,0.106 -0.064,0.1 h -0.209 c -0.048,0.006 -0.071,-0.028 -0.068,-0.1 v -0.424 c 0.006,-0.078 0.024,-0.125 0.055,-0.142 h 0.231 c 0.028,0.011 0.046,0.059 0.055,0.142 m 0.315,-0.142 v -0.333 h -0.703 v 0.333 h 0.069 c -0.037,0.017 -0.061,0.067 -0.069,0.15 v 0.524 c 0,0.217 0.048,0.324 0.145,0.324 h 0.145 c 0.099,0 0.148,-0.107 0.144,-0.324 v -0.515 c 0,-0.083 -0.02,-0.137 -0.063,-0.159 z m -2.5152,-2.113 v -0.367 l 1.204,-0.256 v 0.366 z m 2.5464,-1.861 c 0,-0.049 -0.022,-0.098 -0.063,-0.128 -0.044,-0.033 -0.095,-0.042 -0.144,-0.026 l -0.539,0.11 v 1.829 c 0,0.027 -0.005,0.051 -0.02,0.069 -0.013,0.02 -0.031,0.03 -0.055,0.035 l -1.725,0.37 v 0.045 c 0,0.144 0.073,0.31 0.207,0.435 0.133,0.127 0.293,0.178 0.415,0.154 l 1.624,-0.344 c 0.09,-0.018 0.165,-0.064 0.22,-0.139 0.054,-0.074 0.08,-0.167 0.08,-0.269 z m -3.7158,3.042 c 0,0.048 0.023,0.094 0.061,0.128 0.04,0.031 0.09,0.04 0.136,0.031 l 0.27,-0.059 v -1.828 c 0,-0.026 0.008,-0.049 0.021,-0.069 0.013,-0.017 0.033,-0.03 0.056,-0.033 l 1.829,-0.372 v -0.045 c 0,-0.144 -0.074,-0.311 -0.208,-0.437 -0.132,-0.125 -0.29,-0.177 -0.416,-0.151 l -1.448,0.3 c -0.089,0.019 -0.165,0.064 -0.219,0.138 -0.055,0.076 -0.082,0.169 -0.082,0.27 z"
         style="fill:#231f20;fill-opacity:1;fill-rule:nonzero;stroke:none"
         id="path4468-37-8-9-1-9" />
      <path
         inkscape:connector-curvature="0"
         id="path4472-48-0-2-7-3"
         style="fill:none;stroke:#231f20;stroke-width:0.227;stroke-linecap:butt;stroke-linejoin:miter;stroke-miterlimit:10;stroke-dasharray:none;stroke-opacity:1"
         d="m 86.0161,672.964 v 5.88" />
    </g>
    <path
       d="m 56.906733,192.22989 v 0.25254 h -0.939165 c -0.06648,0 -0.112424,0.0121 -0.136867,0.0362 -0.02771,0.0287 -0.04204,0.0642 -0.04204,0.10558 v 0.14436 c 0,0.0407 0.01662,0.0769 0.04888,0.10721 0.03291,0.0313 0.07202,0.0469 0.117642,0.0469 h 0.66934 c 0.101346,0 0.182814,0.0329 0.244078,0.0987 0.06159,0.0658 0.09124,0.15935 0.09124,0.2822 v 0.29068 c 0,0.11601 -0.03096,0.20628 -0.0932,0.2708 -0.06974,0.0717 -0.162288,0.10819 -0.276342,0.10819 h -1.069843 v -0.2519 h 1.003689 c 0.04921,0 0.08799,-0.0143 0.117968,-0.043 0.02315,-0.0225 0.03487,-0.0707 0.03487,-0.14436 v -0.23268 c 0,-0.0365 -0.01725,-0.0688 -0.05247,-0.0971 -0.02315,-0.0192 -0.05963,-0.03 -0.108193,-0.03 h -0.717566 c -0.09385,0 -0.168479,-0.0277 -0.224528,-0.0847 -0.04563,-0.046 -0.06843,-0.11601 -0.06843,-0.20921 v -0.29492 c 0,-0.10004 0.01402,-0.1701 0.04106,-0.2079 0.06974,-0.0981 0.163912,-0.14762 0.281551,-0.14762 h 1.078312 z m -2.749386,0.008 v 1.30838 c 0,0.072 0.01204,0.11992 0.03682,0.14273 0.02379,0.0228 0.05474,0.0339 0.09125,0.0339 h 0.673905 c 0.102322,0 0.152831,-0.0534 0.152831,-0.16131 v -1.3237 l 0.282855,-0.001 v 1.31457 c 0,0.14143 -0.03813,0.24799 -0.114704,0.31935 -0.0756,0.0701 -0.171085,0.10494 -0.287095,0.10494 H 54.27368 c -0.126111,0 -0.223546,-0.0336 -0.291978,-0.1007 -0.07169,-0.0688 -0.107212,-0.15642 -0.107212,-0.26233 v -1.3742 h 0.282856 z m -1.454693,0.95872 v 0.36074 c 0,0.1121 0.04465,0.16782 0.13361,0.16782 h 0.457194 c 0.06029,0 0.107215,-0.0163 0.139475,-0.0492 0.02506,-0.0251 0.0378,-0.0574 0.0378,-0.0942 v -0.24831 c 0,-0.0329 -0.01497,-0.0642 -0.04465,-0.0935 -0.029,-0.0283 -0.0668,-0.0433 -0.114377,-0.0433 z m 0,-0.25125 h 0.626327 c 0.04171,0 0.0756,-0.0121 0.101672,-0.0362 0.0267,-0.0248 0.04008,-0.0573 0.04008,-0.0961 v -0.19324 c 0,-0.0407 -0.01109,-0.0733 -0.03193,-0.0981 -0.02508,-0.03 -0.06192,-0.0446 -0.109821,-0.0446 h -0.494024 c -0.02997,0 -0.05735,0.009 -0.08179,0.0274 -0.03356,0.0257 -0.05051,0.0577 -0.05051,0.0948 v 0.34608 z m 0.967187,0.13654 c 0.05573,0.0733 0.08407,0.1385 0.08407,0.1939 v 0.34966 c 0,0.10395 -0.0365,0.18901 -0.108839,0.25711 -0.06778,0.0629 -0.144687,0.0945 -0.229415,0.0945 h -0.591783 c -0.12383,0 -0.222572,-0.0371 -0.295566,-0.11243 -0.07267,-0.075 -0.108516,-0.16978 -0.108516,-0.28579 v -0.97175 c 0,-0.11015 0.03748,-0.20074 0.111773,-0.27276 0.07463,-0.0727 0.16359,-0.10949 0.266237,-0.10949 h 0.573212 c 0.105257,0 0.198782,0.0378 0.281879,0.11308 0.06713,0.0609 0.101018,0.13393 0.101018,0.21996 v 0.17239 c 0,0.12252 -0.0094,0.20595 -0.02737,0.25092 -0.01172,0.028 -0.03031,0.0613 -0.0567,0.10069 m -3.862237,-0.84857 h 0.282855 l 0.306973,0.64099 c 0.02249,0.0482 0.05507,0.0841 0.09776,0.10983 0.03519,0.0202 0.06811,0.0303 0.09841,0.0303 0.03128,0 0.06257,-0.0107 0.09483,-0.0329 0.03161,-0.0225 0.05507,-0.0489 0.06941,-0.0798 l 0.302408,-0.66837 h 0.283835 l -0.343141,0.78731 c -0.04432,0.0991 -0.09679,0.16815 -0.159028,0.20628 -0.02933,0.0183 -0.07463,0.0388 -0.135239,0.0613 v 0.68922 h -0.283181 v -0.68922 c -0.111122,-0.0492 -0.18542,-0.11438 -0.222567,-0.19617 z m -0.117642,-0.005 -5.29e-4,0.25125 h -0.93232 c -0.05703,0 -0.102,0.0166 -0.134586,0.0495 -0.02738,0.0274 -0.04138,0.06 -0.04138,0.0994 v 0.9144 c 0,0.0616 0.01598,0.10721 0.04595,0.13621 0.02966,0.028 0.06746,0.042 0.113077,0.042 h 0.949267 v 0.25222 h -0.99945 c -0.117314,0 -0.213445,-0.0375 -0.28905,-0.11112 -0.06843,-0.0688 -0.10265,-0.17108 -0.10265,-0.30827 v -0.94015 c 0,-0.10916 0.03519,-0.20041 0.104931,-0.27536 0.06941,-0.0736 0.155766,-0.11015 0.259395,-0.11015 h 1.027475 z m -2.685513,1.75515 h -0.282532 v -1.40516 c 0,-0.11698 0.03324,-0.20986 0.100041,-0.27731 0.05116,-0.0512 0.118944,-0.0766 0.20302,-0.0766 0.143383,0 0.241472,0.073 0.293614,0.21931 l 0.405709,1.12621 c 0.01791,0.0469 0.03258,0.0782 0.04562,0.0942 0.0114,0.0137 0.02867,0.0196 0.05116,0.0196 0.05018,0 0.0756,-0.044 0.0756,-0.13133 v -1.3188 h 0.282533 v 1.33445 c 0,0.1323 -0.0352,0.23495 -0.106887,0.30827 -0.04986,0.0534 -0.124812,0.0798 -0.2242,0.0798 -0.09614,0 -0.173043,-0.0228 -0.230716,-0.0684 -0.05638,-0.0456 -0.09646,-0.10102 -0.120251,-0.16522 l -0.386159,-1.07701 c -0.02867,-0.0785 -0.05442,-0.11764 -0.07789,-0.11764 -0.01892,0 -0.02867,0.0117 -0.02867,0.0345 v 1.42113 z m -1.543333,-0.79349 h 0.639038 l -0.167825,-0.56018 c -0.0094,-0.0332 -0.02834,-0.0649 -0.05572,-0.0974 -0.02445,-0.0277 -0.0554,-0.0417 -0.09288,-0.0417 -0.04073,0 -0.0756,0.0179 -0.104931,0.0531 -0.02151,0.0257 -0.03715,0.0544 -0.04595,0.086 z m -0.514551,0.78698 0.400169,-1.35335 c 0.03389,-0.11178 0.07788,-0.20172 0.132628,-0.26787 0.07365,-0.0909 0.173694,-0.13556 0.299154,-0.13556 0.124484,0 0.220943,0.0352 0.288398,0.10591 0.05344,0.0564 0.09352,0.12839 0.120574,0.21638 l 0.436014,1.43579 h -0.283831 l -0.1675,-0.53671 h -0.770364 l -0.178903,0.53671 -0.276339,-0.001 z m -1.215178,-0.25581 h 0.657283 c 0.05051,0 0.09059,-0.0134 0.118618,-0.0407 0.02933,-0.0277 0.04366,-0.0619 0.04366,-0.10167 v -0.93721 c 0,-0.102 -0.05018,-0.15348 -0.151201,-0.15348 h -0.668364 z m -0.282858,0.25255 v -1.73755 h 1.005319 c 0.11014,0 0.202363,0.0375 0.276989,0.11177 0.06843,0.0684 0.102648,0.16131 0.102648,0.28188 v 0.9131 c 0,0.1411 -0.03552,0.24831 -0.106233,0.32163 -0.03193,0.0332 -0.07169,0.0606 -0.119594,0.0818 -0.04269,0.0186 -0.07984,0.0274 -0.112102,0.0274 h -1.047027 z m -1.294688,0.01 h -0.283189 v -1.40516 c 0,-0.11699 0.03324,-0.20986 0.100369,-0.27732 0.05149,-0.0512 0.118618,-0.0766 0.203346,-0.0766 0.142404,0 0.240496,0.073 0.29296,0.21931 l 0.406363,1.12622 c 0.01725,0.0469 0.03259,0.0782 0.0453,0.0942 0.01143,0.0137 0.02867,0.0196 0.05149,0.0196 0.05019,0 0.07528,-0.044 0.07528,-0.13132 v -1.31881 h 0.282861 v 1.33445 c 0,0.1323 -0.03519,0.23496 -0.107212,0.30827 -0.04986,0.0534 -0.124484,0.0798 -0.224528,0.0798 -0.09613,0 -0.17304,-0.0228 -0.230716,-0.0684 -0.05605,-0.0456 -0.09613,-0.10102 -0.119595,-0.16522 l -0.386487,-1.077 c -0.02833,-0.0785 -0.05409,-0.11764 -0.07821,-0.11764 -0.01857,0 -0.02802,0.0117 -0.02802,0.0345 v 1.42113 z m -1.626889,-1.74603 v 1.30838 c 0,0.072 0.01238,0.11992 0.03682,0.14273 0.02379,0.0228 0.05442,0.0339 0.09124,0.0339 h 0.673905 c 0.102327,0 0.153159,-0.0534 0.153159,-0.1613 v -1.3237 l 0.282533,-0.001 v 1.31457 c 0,0.14142 -0.03845,0.24798 -0.115033,0.31935 -0.07528,0.0701 -0.170757,0.10493 -0.286441,0.10493 h -0.719854 c -0.126437,0 -0.223547,-0.0336 -0.291979,-0.10069 -0.07169,-0.0688 -0.106889,-0.15642 -0.106889,-0.26233 v -1.37421 h 0.282533 z m -1.509215,1.4837 h 0.65696 c 0.05084,0 0.09092,-0.0134 0.118946,-0.0407 0.02867,-0.0277 0.04334,-0.0619 0.04334,-0.10167 v -0.93722 c 0,-0.10199 -0.05019,-0.15348 -0.150553,-0.15348 h -0.668695 z m -0.282853,0.25255 v -1.73755 h 1.004991 c 0.110797,0 0.202692,0.0375 0.277318,0.11177 0.0681,0.0684 0.102324,0.16131 0.102324,0.28188 v 0.9131 c 0,0.1411 -0.0352,0.24831 -0.105912,0.32163 -0.03193,0.0332 -0.07202,0.0606 -0.119595,0.0818 -0.04269,0.0186 -0.08017,0.0274 -0.111773,0.0274 h -1.047353 z m -0.123216,-1.74472 v 0.25255 h -0.79415 c -0.12546,0 -0.188029,0.0492 -0.188029,0.14893 v 0.27275 h 0.982179 v 0.2519 h -0.982179 v 0.42038 c 0,0.0495 0.01466,0.0877 0.04465,0.11503 0.02511,0.0228 0.05703,0.0339 0.09679,0.0339 h 0.840748 v 0.25222 h -0.840748 c -0.06615,0 -0.136216,-0.0143 -0.210191,-0.0424 -0.142404,-0.0544 -0.214095,-0.18542 -0.214095,-0.393 v -0.90169 c 0,-0.1235 0.03617,-0.22583 0.10949,-0.30567 0.06485,-0.0701 0.151857,-0.10493 0.262329,-0.10493 z m -2.441501,0.728 h 0.608406 c 0.107863,0 0.161632,-0.0492 0.161632,-0.14729 v -0.18087 c 0,-0.0987 -0.06322,-0.14761 -0.189659,-0.14761 h -0.3829 c -0.08668,0 -0.142078,0.0182 -0.165216,0.0525 -0.02185,0.0306 -0.03226,0.0652 -0.03226,0.10493 z m 1.05257,1.00955 h -0.282532 v -0.60221 c 0,-0.0655 -0.01333,-0.10754 -0.03943,-0.12807 -0.0241,-0.0183 -0.05768,-0.0274 -0.101997,-0.0274 h -0.62861 v 0.76547 h -0.28253 v -1.37551 c 0,-0.10851 0.03128,-0.19519 0.09418,-0.26168 0.06843,-0.0723 0.16196,-0.10785 0.279596,-0.10785 h 0.537366 c 0.107212,0 0.185095,0.013 0.233648,0.0388 0.127418,0.0662 0.190312,0.17141 0.190312,0.31545 v 0.26852 c 0,0.0652 -0.0065,0.12383 -0.02021,0.17434 -0.0072,0.028 -0.02641,0.0606 -0.05703,0.0978 0.03259,0.0499 0.05344,0.0903 0.06289,0.1209 0.0098,0.0326 0.01434,0.0684 0.01434,0.10884 v 0.61264 z"
       style="opacity:1;fill:#110f0d;fill-opacity:1;fill-rule:nonzero;stroke:none;stroke-width:0.28222224"
       id="path8890-5-0-2-7"
       inkscape:connector-curvature="0" />
    <text
       xml:space="preserve"
       style="font-style:normal;font-variant:normal;font-weight:normal;font-stretch:normal;font-size:2.11666656px;line-height:2.64583302px;font-family:Arial;-inkscape-font-specification:Arial;letter-spacing:0px;word-spacing:0px;opacity:1;fill:#000000;fill-opacity:1;stroke:none;stroke-width:0.26458332"
       x="13.182697"
       y="116.8754"
       id="text12"><tspan
         sodipodi:role="line"
         id="tspan10"
         x="13.182697"
         y="116.8754"
         style="line-height:2.64583302px;stroke-width:0.26458332">La période par défaut du signal de sortie est 20ms, cette période peut aussi être synchronisée avec celle du récepteur.</tspan><tspan
         sodipodi:role="line"
         x="13.182697"
         y="119.52123"
         style="line-height:2.64583302px;stroke-width:0.26458332"
         id="tspan14">L'utilisation de servos analogiques n'est pas recommandée lorsque la période est synchronisée avec celle du récepteur.</tspan><tspan
         sodipodi:role="line"
         x="13.182697"
         y="122.16706"
         style="line-height:2.64583302px;stroke-width:0.26458332"
         id="tspan16"> </tspan><tspan
         sodipodi:role="line"
         x="13.182697"
         y="124.8129"
         style="line-height:2.64583302px;stroke-width:0.26458332"
         id="tspan18">Suivre les étapes suivantes pour configurer la période du signal de sortie :</tspan><tspan
         sodipodi:role="line"
         x="13.182697"
         y="127.45872"
         style="line-height:2.64583302px;stroke-width:0.26458332"
         id="tspan20">  Etape 1 - Connecter entre elles les broches &quot;signal&quot; de la voie 1 et de la voie 2 à l'aide d'un cavalier;</tspan><tspan
         sodipodi:role="line"
         x="13.182697"
         y="130.10457"
         style="line-height:2.64583302px;stroke-width:0.26458332"
         id="tspan22">  Etape 2 - Connecter l'alimentation sur le connecteur BATT1 ou BATT2;</tspan><tspan
         sodipodi:role="line"
         x="13.182697"
         y="132.7504"
         style="line-height:2.64583302px;stroke-width:0.26458332"
         id="tspan24">  Etape 3 - La LED verte clignote rapidement, indiquant que le processus de configuration de la période du signal de sortie  n'est</tspan><tspan
         sodipodi:role="line"
         x="13.182697"
         y="135.39622"
         style="line-height:2.64583302px;stroke-width:0.26458332"
         id="tspan26">                  plus 20ms mais désormais synchronisée à la période du récepteur;</tspan><tspan
         sodipodi:role="line"
         x="13.182697"
         y="138.04207"
         style="line-height:2.64583302px;stroke-width:0.26458332"
         id="tspan28">  Etape 4 - Débrancher le cavalier positionné sur les voies 1 et 2, débrancher l'alimentation.</tspan><tspan
         sodipodi:role="line"
         x="13.182697"
         y="140.6879"
         style="line-height:2.64583302px;stroke-width:0.26458332"
         id="tspan30"> </tspan><tspan
         sodipodi:role="line"
         x="13.182697"
         y="143.33372"
         style="line-height:2.64583302px;stroke-width:0.26458332"
         id="tspan32">Comment distinguer que la période configurée est 20ms ou celle synchronisée avec le récepteur :</tspan><tspan
         sodipodi:role="line"
         x="13.182697"
         y="145.97955"
         style="line-height:2.64583302px;stroke-width:0.26458332"
         id="tspan34">  Connecter un récepteur sur la prise RX1 IN ou sur la prise RX2 IN. Connecter l'alimentation sur la prise BATT1 ou BATT2. </tspan><tspan
         sodipodi:role="line"
         x="13.182697"
         y="148.6254"
         style="line-height:2.64583302px;stroke-width:0.26458332"
         id="tspan36">  Si la LED verte clignote rapidement, la période est synchronisée avec celle du récepteur.</tspan><tspan
         sodipodi:role="line"
         x="13.182697"
         y="151.27122"
         style="line-height:2.64583302px;stroke-width:0.26458332"
         id="tspan38">  Si la LED verte reste allumée, la période est configurée à 20ms.</tspan><tspan
         sodipodi:role="line"
         x="13.182697"
         y="153.91705"
         style="line-height:2.64583302px;stroke-width:0.26458332"
         id="tspan40"> </tspan><tspan
         sodipodi:role="line"
         x="13.182697"
         y="156.5629"
         style="line-height:2.64583302px;stroke-width:0.26458332"
         id="tspan42">Lors du fonctionnement en mode synchronisé, la période de la sortie MLI (PWM) est identique à celle de l'entrée SBUS.</tspan><tspan
         sodipodi:role="line"
         x="13.182697"
         y="159.20872"
         style="line-height:2.64583302px;stroke-width:0.26458332"
         id="tspan44">Par exemple, si la période de l'entrée SBUS est 9ms, la période de la sortie MLI (PWM) est aussi 9ms. Si la période de l'entrée</tspan><tspan
         sodipodi:role="line"
         x="13.182697"
         y="161.85455"
         style="line-height:2.64583302px;stroke-width:0.26458332"
         id="tspan46">SBUS présente sur RX1 IN est différente de celle présente sur RX2 IN, mais que les deux récepteurs sont alimentés en même</tspan><tspan
         sodipodi:role="line"
         x="13.182697"
         y="164.5004"
         style="line-height:2.64583302px;stroke-width:0.26458332"
         id="tspan48">temps, la période de la sortie MLI (PWM) sera celle du récepteur présentant la plus longue période. Dans le cas où les deux</tspan><tspan
         sodipodi:role="line"
         x="13.182697"
         y="167.14622"
         style="line-height:2.64583302px;stroke-width:0.26458332"
         id="tspan50">récepteurs n'ont pas été alimentés simultanément, la période de la sortie MLI (PWM) sera la même que celle du récepteur ayant</tspan><tspan
         sodipodi:role="line"
         x="13.182697"
         y="169.79205"
         style="line-height:2.64583302px;stroke-width:0.26458332"
         id="tspan52">été alimenté en premier. </tspan><tspan
         sodipodi:role="line"
         x="13.182697"
         y="172.4379"
         style="line-height:2.64583302px;stroke-width:0.26458332"
         id="tspan54">Par exemple, supposons que la période de l'entrée SBUS branchée sur RX1 IN soit de 9ms, tandis que celle branchée sur RX2 IN</tspan><tspan
         sodipodi:role="line"
         x="13.182697"
         y="175.08372"
         style="line-height:2.64583302px;stroke-width:0.26458332"
         id="tspan56">soit de 18ms. Si les deux récepteurs sont alimentés en même temps, la période de la sortie MLI (PWM) sera de 18ms. Si le RX1</tspan><tspan
         sodipodi:role="line"
         x="13.182697"
         y="177.72955"
         style="line-height:2.64583302px;stroke-width:0.26458332"
         id="tspan58">est alimenté avant le RX2, la période de la sortie MLI (PWM) sera de 9ms. </tspan><tspan
         sodipodi:role="line"
         x="13.182697"
         y="180.3754"
         style="line-height:2.64583302px;stroke-width:0.26458332"
         id="tspan60">En mode synchronisé, le signal a un retard de 3,05ms.</tspan></text>
    <text
       xml:space="preserve"
       style="font-style:normal;font-variant:normal;font-weight:normal;font-stretch:normal;font-size:3.38666677px;line-height:0%;font-family:Arial;-inkscape-font-specification:Arial;text-align:start;letter-spacing:0px;word-spacing:0px;text-anchor:start;opacity:0.98999999;fill:#696969;fill-opacity:1;stroke:none;stroke-width:0.28222224px;stroke-linecap:butt;stroke-linejoin:miter;stroke-opacity:1"
       x="6.0173993"
       y="295.10052"
       id="text7795-5-3-2-2"><tspan
         sodipodi:role="line"
         x="6.0173993"
         y="295.10052"
         style="font-style:normal;font-variant:normal;font-weight:normal;font-stretch:normal;font-size:2.11666656px;line-height:0px;font-family:Arial;-inkscape-font-specification:Arial;text-align:start;text-anchor:start;fill:#696969;stroke-width:0.28222224px"
         id="tspan11939-5">Redundancy Bus - Manuel utilisateur P02 - v<tspan
   style="font-style:normal;font-variant:normal;font-weight:bold;font-stretch:normal;line-height:0px;font-family:Arial;-inkscape-font-specification:'Arial Bold';fill:#8b0000;stroke-width:0.28222224px"
   id="tspan14717">Plus</tspan>.FR4</tspan></text>
  </g>
</svg>
