<?xml version="1.0" encoding="UTF-8" standalone="no"?>
<!-- Created with Inkscape (http://www.inkscape.org/) -->

<svg
   xmlns:dc="http://purl.org/dc/elements/1.1/"
   xmlns:cc="http://creativecommons.org/ns#"
   xmlns:rdf="http://www.w3.org/1999/02/22-rdf-syntax-ns#"
   xmlns:svg="http://www.w3.org/2000/svg"
   xmlns="http://www.w3.org/2000/svg"
   xmlns:sodipodi="http://sodipodi.sourceforge.net/DTD/sodipodi-0.dtd"
   xmlns:inkscape="http://www.inkscape.org/namespaces/inkscape"
   id="svg8820"
   version="1.1"
   inkscape:version="0.91 r13725"
   xml:space="preserve"
   width="765"
   height="990"
   viewBox="0 0 765 990"
   sodipodi:docname="X6R - Stock.svg"><metadata
     id="metadata8826"><rdf:RDF><cc:Work
         rdf:about=""><dc:format>image/svg+xml</dc:format><dc:type
           rdf:resource="http://purl.org/dc/dcmitype/StillImage" /><dc:title></dc:title></cc:Work></rdf:RDF></metadata><defs
     id="defs8824" /><sodipodi:namedview
     pagecolor="#ffffff"
     bordercolor="#666666"
     borderopacity="1"
     objecttolerance="10"
     gridtolerance="10"
     guidetolerance="10"
     inkscape:pageopacity="0"
     inkscape:pageshadow="2"
     inkscape:window-width="1680"
     inkscape:window-height="987"
     id="namedview8822"
     showgrid="false"
     inkscape:zoom="2.6970053"
     inkscape:cx="191.53806"
     inkscape:cy="801.52966"
     inkscape:window-x="-8"
     inkscape:window-y="-8"
     inkscape:window-maximized="1"
     inkscape:current-layer="g8828" /><g
     id="g8828"
     inkscape:groupmode="layer"
     inkscape:label="X6R - Image 02"
     transform="matrix(1.25,0,0,-1.25,0,990)"><g
       id="g9830"><g
         transform="translate(-17.4663,211.694)"
         id="g8830"><path
           inkscape:connector-curvature="0"
           id="path8832"
           style="fill:#918f90;fill-opacity:1;fill-rule:nonzero;stroke:#231f20;stroke-width:0.28299999;stroke-linecap:butt;stroke-linejoin:miter;stroke-miterlimit:10;stroke-dasharray:none;stroke-opacity:1"
           d="m 89.754,447.85 -12.703,0 0,2.397 12.703,0 0,-2.397 z" /></g><g
         transform="translate(-17.4663,211.694)"
         id="g8834"><path
           inkscape:connector-curvature="0"
           id="path8836"
           style="fill:#918f90;fill-opacity:1;fill-rule:nonzero;stroke:#231f20;stroke-width:0.28299999;stroke-linecap:butt;stroke-linejoin:miter;stroke-miterlimit:10;stroke-dasharray:none;stroke-opacity:1"
           d="m 90.319,446.283 -0.564003,0 0,5.091 0.564003,0 0,-5.091 z" /></g><g
         transform="translate(-17.4663,211.694)"
         id="g8838"><path
           inkscape:connector-curvature="0"
           id="path8840"
           style="fill:#918f90;fill-opacity:1;fill-rule:nonzero;stroke:#231f20;stroke-width:0.28299999;stroke-linecap:butt;stroke-linejoin:miter;stroke-miterlimit:10;stroke-dasharray:none;stroke-opacity:1"
           d="m 89.754,438.335 -12.703,0 0,2.397 12.703,0 0,-2.397 z" /></g><g
         transform="translate(-17.4663,211.694)"
         id="g8842"><path
           inkscape:connector-curvature="0"
           id="path8844"
           style="fill:#918f90;fill-opacity:1;fill-rule:nonzero;stroke:#231f20;stroke-width:0.28299999;stroke-linecap:butt;stroke-linejoin:miter;stroke-miterlimit:10;stroke-dasharray:none;stroke-opacity:1"
           d="m 90.319,436.77 -0.564003,0 0,5.091 0.564003,0 0,-5.091 z" /></g><g
         transform="translate(67.6909,670.992)"
         id="g8846"><path
           inkscape:connector-curvature="0"
           id="path8848"
           style="fill:none;stroke:#231f20;stroke-width:0.56699997;stroke-linecap:butt;stroke-linejoin:miter;stroke-miterlimit:10;stroke-dasharray:none;stroke-opacity:1"
           d="m 0,0 -4.51,0 0,14.025 2.436,0 0,1.845 L 0,15.87 0,0 Z" /></g><g
         transform="translate(-17.4663,211.694)"
         id="g8850"><path
           inkscape:connector-curvature="0"
           id="path8852"
           style="fill:#231f20;fill-opacity:1;fill-rule:nonzero;stroke:none"
           d="m 83.345,470.032 -1.044,0 0,1.04401 1.044,0 0,-1.04401 z" /></g><g
         transform="translate(-17.4663,211.694)"
         id="g8854"><path
           inkscape:connector-curvature="0"
           id="path8856"
           style="fill:#231f20;fill-opacity:1;fill-rule:nonzero;stroke:none"
           d="m 83.345,465.74 -1.044,0 0,1.04401 1.044,0 0,-1.04401 z" /></g><g
         transform="translate(-17.4663,211.694)"
         id="g8858"><path
           inkscape:connector-curvature="0"
           id="path8860"
           style="fill:#231f20;fill-opacity:1;fill-rule:nonzero;stroke:none"
           d="m 83.345,461.447 -1.044,0 0,1.04401 1.044,0 0,-1.04401 z" /></g><g
         transform="translate(70.27,678.883)"
         id="g8862"><path
           inkscape:connector-curvature="0"
           id="path8864"
           style="fill:none;stroke:#231f20;stroke-width:0.42500001;stroke-linecap:butt;stroke-linejoin:miter;stroke-miterlimit:10;stroke-dasharray:none;stroke-opacity:1"
           d="m 0,0 c 0,-5.465 -2.119,-9.895 -4.733,-9.895 -2.614,0 -4.733,4.43 -4.733,9.895 0,5.464 2.119,9.894 4.733,9.894 C -2.119,9.894 0,5.464 0,0 Z" /></g><g
         transform="translate(174.178,646.293)"
         id="g8866"><path
           inkscape:connector-curvature="0"
           id="path8868"
           style="fill:none;stroke:#231f20;stroke-width:0.56699997;stroke-linecap:butt;stroke-linejoin:miter;stroke-miterlimit:10;stroke-dasharray:none;stroke-opacity:1"
           d="m 0,0 c 0,-0.444 -0.168,-0.889 -0.507,-1.228 -0.337,-0.34 -0.78,-0.509 -1.223,-0.509 l -13.595,0 c -0.442,0 -0.885,0.169 -1.223,0.509 -0.338,0.339 -0.507,0.784 -0.507,1.228 l 0,29.049 c 0,0.441 0.169,0.884 0.505,1.221 0.335,0.337 0.775,0.505 1.214,0.505 l 13.606,0 c 0.443,0 0.886,-0.169 1.223,-0.508 C -0.168,29.928 0,29.483 0,29.038 L 0,0 Z" /></g><g
         transform="translate(-17.4663,211.694)"
         id="g8870"><path
           inkscape:connector-curvature="0"
           id="path8872"
           style="fill:#231f20;fill-opacity:1;fill-rule:nonzero;stroke:none"
           d="m 180.451,461.614 -0.838,0 0,0.83801 0.838,0 0,-0.83801 z" /></g><g
         transform="translate(-17.4663,211.694)"
         id="g8874"><path
           inkscape:connector-curvature="0"
           id="path8876"
           style="fill:#231f20;fill-opacity:1;fill-rule:nonzero;stroke:none"
           d="m 184.372,461.614 -0.83701,0 0,0.83801 0.83701,0 0,-0.83801 z" /></g><g
         transform="translate(-17.4663,211.694)"
         id="g8878"><path
           inkscape:connector-curvature="0"
           id="path8880"
           style="fill:#231f20;fill-opacity:1;fill-rule:nonzero;stroke:none"
           d="m 188.295,461.614 -0.838,0 0,0.83801 0.838,0 0,-0.83801 z" /></g><g
         transform="translate(-17.4663,211.694)"
         id="g8882"><path
           inkscape:connector-curvature="0"
           id="path8884"
           style="fill:#231f20;fill-opacity:1;fill-rule:nonzero;stroke:none"
           d="m 180.451,457.64 -0.838,0 0,0.83801 0.838,0 0,-0.83801 z" /></g><g
         transform="translate(-17.4663,211.694)"
         id="g8886"><path
           inkscape:connector-curvature="0"
           id="path8888"
           style="fill:#231f20;fill-opacity:1;fill-rule:nonzero;stroke:none"
           d="m 184.372,457.64 -0.83701,0 0,0.83801 0.83701,0 0,-0.83801 z" /></g><g
         transform="translate(-17.4663,211.694)"
         id="g8890"><path
           inkscape:connector-curvature="0"
           id="path8892"
           style="fill:#231f20;fill-opacity:1;fill-rule:nonzero;stroke:none"
           d="m 188.295,457.64 -0.838,0 0,0.83801 0.838,0 0,-0.83801 z" /></g><g
         transform="translate(-17.4663,211.694)"
         id="g8894"><path
           inkscape:connector-curvature="0"
           id="path8896"
           style="fill:#231f20;fill-opacity:1;fill-rule:nonzero;stroke:none"
           d="m 180.451,453.665 -0.838,0 0,0.83801 0.838,0 0,-0.83801 z" /></g><g
         transform="translate(-17.4663,211.694)"
         id="g8898"><path
           inkscape:connector-curvature="0"
           id="path8900"
           style="fill:#231f20;fill-opacity:1;fill-rule:nonzero;stroke:none"
           d="m 184.372,453.665 -0.83701,0 0,0.83801 0.83701,0 0,-0.83801 z" /></g><g
         transform="translate(-17.4663,211.694)"
         id="g8902"><path
           inkscape:connector-curvature="0"
           id="path8904"
           style="fill:#231f20;fill-opacity:1;fill-rule:nonzero;stroke:none"
           d="m 188.295,453.665 -0.838,0 0,0.83801 0.838,0 0,-0.83801 z" /></g><g
         transform="translate(-17.4663,211.694)"
         id="g8906"><path
           inkscape:connector-curvature="0"
           id="path8908"
           style="fill:#231f20;fill-opacity:1;fill-rule:nonzero;stroke:none"
           d="m 180.451,449.69 -0.838,0 0,0.83801 0.838,0 0,-0.83801 z" /></g><g
         transform="translate(-17.4663,211.694)"
         id="g8910"><path
           inkscape:connector-curvature="0"
           id="path8912"
           style="fill:#231f20;fill-opacity:1;fill-rule:nonzero;stroke:none"
           d="m 184.372,449.69 -0.83701,0 0,0.83801 0.83701,0 0,-0.83801 z" /></g><g
         transform="translate(-17.4663,211.694)"
         id="g8914"><path
           inkscape:connector-curvature="0"
           id="path8916"
           style="fill:#231f20;fill-opacity:1;fill-rule:nonzero;stroke:none"
           d="m 188.295,449.69 -0.838,0 0,0.83801 0.838,0 0,-0.83801 z" /></g><g
         transform="translate(-17.4663,211.694)"
         id="g8918"><path
           inkscape:connector-curvature="0"
           id="path8920"
           style="fill:#231f20;fill-opacity:1;fill-rule:nonzero;stroke:none"
           d="m 180.451,445.717 -0.838,0 0,0.83701 0.838,0 0,-0.83701 z" /></g><g
         transform="translate(-17.4663,211.694)"
         id="g8922"><path
           inkscape:connector-curvature="0"
           id="path8924"
           style="fill:#231f20;fill-opacity:1;fill-rule:nonzero;stroke:none"
           d="m 184.372,445.717 -0.83701,0 0,0.83701 0.83701,0 0,-0.83701 z" /></g><g
         transform="translate(-17.4663,211.694)"
         id="g8926"><path
           inkscape:connector-curvature="0"
           id="path8928"
           style="fill:#231f20;fill-opacity:1;fill-rule:nonzero;stroke:none"
           d="m 188.295,445.717 -0.838,0 0,0.83701 0.838,0 0,-0.83701 z" /></g><g
         transform="translate(-17.4663,211.694)"
         id="g8930"><path
           inkscape:connector-curvature="0"
           id="path8932"
           style="fill:#231f20;fill-opacity:1;fill-rule:nonzero;stroke:none"
           d="m 180.451,441.742 -0.838,0 0,0.83801 0.838,0 0,-0.83801 z" /></g><g
         transform="translate(-17.4663,211.694)"
         id="g8934"><path
           inkscape:connector-curvature="0"
           id="path8936"
           style="fill:#231f20;fill-opacity:1;fill-rule:nonzero;stroke:none"
           d="m 184.372,441.742 -0.83701,0 0,0.83801 0.83701,0 0,-0.83801 z" /></g><g
         transform="translate(-17.4663,211.694)"
         id="g8938"><path
           inkscape:connector-curvature="0"
           id="path8940"
           style="fill:#231f20;fill-opacity:1;fill-rule:nonzero;stroke:none"
           d="m 188.295,441.742 -0.838,0 0,0.83801 0.838,0 0,-0.83801 z" /></g><g
         transform="translate(-17.4663,211.694)"
         id="g8942"><path
           inkscape:connector-curvature="0"
           id="path8944"
           style="fill:#231f20;fill-opacity:1;fill-rule:nonzero;stroke:none"
           d="m 180.451,437.768 -0.838,0 0,0.83801 0.838,0 0,-0.83801 z" /></g><g
         transform="translate(-17.4663,211.694)"
         id="g8946"><path
           inkscape:connector-curvature="0"
           id="path8948"
           style="fill:#231f20;fill-opacity:1;fill-rule:nonzero;stroke:none"
           d="m 184.372,437.768 -0.83701,0 0,0.83801 0.83701,0 0,-0.83801 z" /></g><g
         transform="translate(-17.4663,211.694)"
         id="g8950"><path
           inkscape:connector-curvature="0"
           id="path8952"
           style="fill:#231f20;fill-opacity:1;fill-rule:nonzero;stroke:none"
           d="m 188.295,437.768 -0.838,0 0,0.83801 0.838,0 0,-0.83801 z" /></g><g
         transform="translate(142.791,674.664)"
         id="g8954"><path
           inkscape:connector-curvature="0"
           id="path8956"
           style="fill:#918f90;fill-opacity:1;fill-rule:nonzero;stroke:none"
           d="M 0,0 1.284,-0.693 0,-1.384 0,0 Z" /></g><g
         transform="translate(142.791,670.56)"
         id="g8958"><path
           inkscape:connector-curvature="0"
           id="path8960"
           style="fill:#918f90;fill-opacity:1;fill-rule:nonzero;stroke:none"
           d="M 0,0 1.284,-0.692 0,-1.383 0,0 Z" /></g><g
         transform="translate(142.791,666.723)"
         id="g8962"><path
           inkscape:connector-curvature="0"
           id="path8964"
           style="fill:#918f90;fill-opacity:1;fill-rule:nonzero;stroke:none"
           d="M 0,0 1.284,-0.692 0,-1.384 0,0 Z" /></g><g
         transform="translate(142.791,662.753)"
         id="g8966"><path
           inkscape:connector-curvature="0"
           id="path8968"
           style="fill:#918f90;fill-opacity:1;fill-rule:nonzero;stroke:none"
           d="M 0,0 1.284,-0.692 0,-1.383 0,0 Z" /></g><g
         transform="translate(142.791,658.783)"
         id="g8970"><path
           inkscape:connector-curvature="0"
           id="path8972"
           style="fill:#918f90;fill-opacity:1;fill-rule:nonzero;stroke:none"
           d="M 0,0 1.284,-0.692 0,-1.383 0,0 Z" /></g><g
         transform="translate(142.791,654.813)"
         id="g8974"><path
           inkscape:connector-curvature="0"
           id="path8976"
           style="fill:#918f90;fill-opacity:1;fill-rule:nonzero;stroke:none"
           d="M 0,0 1.284,-0.692 0,-1.383 0,0 Z" /></g><g
         transform="translate(142.791,650.843)"
         id="g8978"><path
           inkscape:connector-curvature="0"
           id="path8980"
           style="fill:#918f90;fill-opacity:1;fill-rule:nonzero;stroke:none"
           d="M 0,0 1.284,-0.692 0,-1.383 0,0 Z" /></g><g
         transform="translate(86.8584,674.554)"
         id="g8982"><path
           inkscape:connector-curvature="0"
           id="path8984"
           style="fill:#ffffff;fill-opacity:1;fill-rule:nonzero;stroke:none"
           d="m 0,0 0.736,-0.734 0,-3.649 -0.7,-0.702 0,-5.689 -4.253,0 L -4.217,0 0,0 Z" /></g><g
         transform="translate(86.8584,674.554)"
         id="g8986"><path
           inkscape:connector-curvature="0"
           id="path8988"
           style="fill:none;stroke:#231f20;stroke-width:0.28299999;stroke-linecap:butt;stroke-linejoin:miter;stroke-miterlimit:10;stroke-dasharray:none;stroke-opacity:1"
           d="m 0,0 0.736,-0.734 0,-3.649 -0.7,-0.702 0,-5.689 -4.253,0 L -4.217,0 0,0 Z" /></g><g
         transform="translate(82.2559,663.428)"
         id="g8990"><path
           inkscape:connector-curvature="0"
           id="path8992"
           style="fill:#ffffff;fill-opacity:1;fill-rule:nonzero;stroke:none"
           d="m 0,0 -0.737,0.735 0,3.649 0.701,0.701 0,5.689 4.253,0 L 4.217,0 0,0 Z" /></g><g
         transform="translate(82.2559,663.428)"
         id="g8994"><path
           inkscape:connector-curvature="0"
           id="path8996"
           style="fill:none;stroke:#231f20;stroke-width:0.28299999;stroke-linecap:butt;stroke-linejoin:miter;stroke-miterlimit:10;stroke-dasharray:none;stroke-opacity:1"
           d="m 0,0 -0.737,0.735 0,3.649 0.701,0.701 0,5.689 4.253,0 L 4.217,0 0,0 Z" /></g><g
         transform="translate(82.2456,667.078)"
         id="g8998"><path
           inkscape:connector-curvature="0"
           id="path9000"
           style="fill:#231f20;fill-opacity:1;fill-rule:nonzero;stroke:none"
           d="m 0,0 c 0,0.046 0.021,0.092 0.059,0.125 0.038,0.029 0.087,0.039 0.132,0.029 l 0.263,-0.057 0,-1.776 c 0,-0.024 0.006,-0.046 0.02,-0.066 0.012,-0.017 0.032,-0.028 0.053,-0.031 l 1.777,-0.362 0,-0.044 c 0,-0.14 -0.072,-0.301 -0.202,-0.423 C 1.974,-2.727 1.82,-2.778 1.698,-2.753 L 0.291,-2.461 C 0.206,-2.443 0.131,-2.399 0.079,-2.328 0.026,-2.254 0,-2.164 0,-2.065 L 0,0 Z" /></g><g
         transform="translate(85.854,664.124)"
         id="g9002"><path
           inkscape:connector-curvature="0"
           id="path9004"
           style="fill:#231f20;fill-opacity:1;fill-rule:nonzero;stroke:none"
           d="m 0,0 c 0,-0.047 -0.021,-0.095 -0.062,-0.125 -0.042,-0.031 -0.092,-0.04 -0.139,-0.025 l -0.524,0.107 0,1.776 c 0,0.027 -0.005,0.05 -0.02,0.066 -0.011,0.021 -0.029,0.031 -0.053,0.035 l -1.675,0.36 0,0.044 c 0,0.14 0.072,0.301 0.201,0.422 0.129,0.124 0.285,0.174 0.402,0.15 L -0.291,2.476 C -0.205,2.458 -0.13,2.413 -0.078,2.341 -0.025,2.27 0,2.179 0,2.08 L 0,0 Z" /></g><g
         transform="translate(83.3809,665.931)"
         id="g9006"><path
           inkscape:connector-curvature="0"
           id="path9008"
           style="fill:#231f20;fill-opacity:1;fill-rule:nonzero;stroke:none"
           d="m 0,0 0,-0.356 1.169,-0.248 0,0.355 L 0,0 Z" /></g><g
         transform="translate(85.5176,668.121)"
         id="g9010"><path
           inkscape:connector-curvature="0"
           id="path9012"
           style="fill:#231f20;fill-opacity:1;fill-rule:nonzero;stroke:none"
           d="m 0,0 0,0.413 c 0.006,0.069 -0.015,0.101 -0.062,0.096 l -0.204,0 C -0.312,0.514 -0.335,0.482 -0.332,0.413 l 0,-0.413 c 0.006,-0.075 0.024,-0.122 0.054,-0.137 l 0.224,0 C -0.026,-0.127 -0.008,-0.08 0,0 m 0.307,-0.137 0,-0.323 -0.684,0 0,0.323 0.066,0 c -0.036,0.015 -0.058,0.064 -0.066,0.145 l 0,0.509 c 0,0.211 0.046,0.316 0.141,0.316 l 0.14,0 c 0.097,0 0.144,-0.105 0.141,-0.316 l 0,-0.5 c 0,-0.082 -0.02,-0.133 -0.061,-0.154 l 0.323,0 z" /></g><g
         transform="translate(85.1856,670)"
         id="g9014"><path
           inkscape:connector-curvature="0"
           id="path9016"
           style="fill:#231f20;fill-opacity:1;fill-rule:nonzero;stroke:none"
           d="m 0,0 0,-0.533 c 0,-0.054 0.014,-0.079 0.042,-0.073 l 0.506,0 c 0.031,-0.006 0.044,0.019 0.041,0.073 L 0.589,0 C 0.592,0.043 0.58,0.065 0.552,0.065 l -0.51,0 C 0.014,0.065 0,0.043 0,0 m 0.639,-0.67 c 0,-0.173 -0.047,-0.259 -0.141,-0.259 l -0.406,0 c -0.095,0 -0.141,0.086 -0.141,0.259 l 0,0.057 0,0.007 0,0.728 c 0,0.167 0.046,0.252 0.141,0.258 l 0.406,0 c 0.094,0 0.141,-0.086 0.141,-0.258 l 0,-0.76 0,-0.024 0,-0.008 z" /></g><g
         transform="translate(85.4468,670.966)"
         id="g9018"><path
           inkscape:connector-curvature="0"
           id="path9020"
           style="fill:#231f20;fill-opacity:1;fill-rule:nonzero;stroke:none"
           d="m 0,0 0,0.413 c 0.003,0.052 -0.012,0.083 -0.045,0.088 l -0.174,0 C -0.247,0.496 -0.263,0.465 -0.266,0.413 l 0,-0.413 c 0.006,-0.086 0.026,-0.133 0.059,-0.138 l 0.158,0 C -0.019,-0.127 -0.002,-0.08 0,0 m 0.369,-0.146 0,-0.314 -0.68,0 0,0.322 0.062,0 C -0.284,-0.11 -0.305,-0.065 -0.311,0 l 0,0.558 c 0.003,0.172 0.047,0.261 0.133,0.267 l 0.112,0 C -0.014,0.813 0.023,0.751 0.042,0.639 L 0.303,0.751 C 0.333,0.773 0.358,0.806 0.377,0.849 0.386,0.563 0.354,0.417 0.282,0.413 l -0.236,-0.106 0,-0.316 C 0.043,-0.073 0.025,-0.119 -0.007,-0.146 l 0.376,0 z" /></g><g
         transform="translate(85.1856,673.087)"
         id="g9022"><path
           inkscape:connector-curvature="0"
           id="path9024"
           style="fill:#231f20;fill-opacity:1;fill-rule:nonzero;stroke:none"
           d="m 0,0 0,-0.453 0.639,0 0,-0.322 -0.639,0 0,-0.445 -0.045,0 0,1.22 L 0,0 Z" /></g><g
         transform="translate(83.458,668.521)"
         id="g9026"><path
           inkscape:connector-curvature="0"
           id="path9028"
           style="fill:#231f20;fill-opacity:1;fill-rule:nonzero;stroke:none"
           d="m 0,0 c -0.314,0.055 -0.568,0.268 -0.568,0.582 0,0.314 0.254,0.434 0.568,0.379 L 0.872,0.808 0.872,0.537 0,0.69 C -0.164,0.719 -0.298,0.7 -0.298,0.534 -0.298,0.371 -0.164,0.3 0,0.272 l 0.872,-0.155 0,-0.27 L 0,0 Z" /></g><g
         transform="translate(83.458,667.832)"
         id="g9030"><path
           inkscape:connector-curvature="0"
           id="path9032"
           style="fill:#231f20;fill-opacity:1;fill-rule:nonzero;stroke:none"
           d="m 0,0 c -0.314,0.056 -0.568,0.268 -0.568,0.583 0,0.313 0.254,0.434 0.568,0.378 L 0.872,0.807 0.872,0.536 0,0.689 C -0.164,0.719 -0.298,0.7 -0.298,0.534 -0.298,0.37 -0.164,0.3 0,0.271 l 0.872,-0.152 0,-0.272 L 0,0 Z" /></g><g
         transform="translate(83.458,669.638)"
         id="g9034"><path
           inkscape:connector-curvature="0"
           id="path9036"
           style="fill:#231f20;fill-opacity:1;fill-rule:nonzero;stroke:none"
           d="m 0,0 c -0.314,0.055 -0.568,0.355 -0.568,0.669 0,0.315 0.254,0.525 0.568,0.469 L 0.872,0.985 0.872,0.712 0,0.867 C -0.164,0.895 -0.298,0.786 -0.298,0.622 -0.298,0.458 -0.164,0.3 0,0.272 l 0.872,-0.153 0,-0.274 L 0,0 Z" /></g><g
         transform="translate(83.5137,670.494)"
         id="g9038"><path
           inkscape:connector-curvature="0"
           id="path9040"
           style="fill:#231f20;fill-opacity:1;fill-rule:nonzero;stroke:none"
           d="m 0,0 0,-0.595 0.234,-0.04 0,0.593 L 0,0 Z" /></g><g
         transform="translate(83.2119,673.39)"
         id="g9042"><path
           inkscape:connector-curvature="0"
           id="path9044"
           style="fill:#231f20;fill-opacity:1;fill-rule:nonzero;stroke:none"
           d="m 0,0 0,-1.144 -0.239,0.042 0,1.146 L 0,0 Z" /></g><g
         transform="translate(83.2119,672.954)"
         id="g9046"><path
           inkscape:connector-curvature="0"
           id="path9048"
           style="fill:#231f20;fill-opacity:1;fill-rule:nonzero;stroke:none"
           d="m 0,0 0,-0.273 1.118,-0.198 0,0.274 L 0,0 Z" /></g><g
         transform="translate(83.2119,670.982)"
         id="g9050"><path
           inkscape:connector-curvature="0"
           id="path9052"
           style="fill:#231f20;fill-opacity:1;fill-rule:nonzero;stroke:none"
           d="m 0,0 0,0.702 c 0,0 0.035,0.163 0.14,0.145 C 0.244,0.828 0.302,0.639 0.302,0.639 l 0,-0.692 0.816,-0.143 0,0.278 -0.582,0.103 0,0.412 c 0,0 0.031,0.174 0.141,0.156 l 0.441,-0.079 0,0.274 -0.476,0.084 c 0,0 -0.223,-0.021 -0.223,-0.224 0,0 -0.052,0.272 -0.285,0.312 0,0 -0.373,0.063 -0.373,-0.35 l 0,-0.728" /></g><g
         transform="translate(84.6919,667.621)"
         id="g9054"><path
           inkscape:connector-curvature="0"
           id="path9056"
           style="fill:none;stroke:#231f20;stroke-width:0.28299999;stroke-linecap:butt;stroke-linejoin:miter;stroke-miterlimit:10;stroke-dasharray:none;stroke-opacity:1"
           d="M 0,0 0,5.709" /></g><g
         transform="translate(79.8965,662.578)"
         id="g9058"><path
           inkscape:connector-curvature="0"
           id="path9060"
           style="fill:none;stroke:#918f90;stroke-width:0.56699997;stroke-linecap:butt;stroke-linejoin:miter;stroke-miterlimit:10;stroke-dasharray:none;stroke-opacity:1"
           d="m 0,0 -3.628,0 0,10.604 1.796,0 0,2.012 1.832,0 L 0,0 Z" /></g><g
         transform="translate(78.9268,671.972)"
         id="g9062"><path
           inkscape:connector-curvature="0"
           id="path9064"
           style="fill:#918f90;fill-opacity:1;fill-rule:nonzero;stroke:none"
           d="m 0,0 c 0.025,0 0.051,-0.012 0.069,-0.034 0.018,-0.021 0.023,-0.05 0.018,-0.075 l -0.034,-0.152 -1.014,0 c -0.015,0 -0.029,-0.002 -0.039,-0.01 -0.01,-0.008 -0.017,-0.019 -0.02,-0.031 l -0.205,-1.017 -0.025,0 c -0.08,0 -0.173,0.042 -0.242,0.115 -0.071,0.074 -0.1,0.161 -0.085,0.231 l 0.166,0.807 c 0.012,0.048 0.036,0.091 0.078,0.121 C -1.293,-0.016 -1.239,0 -1.183,0 L 0,0 Z" /></g><g
         transform="translate(77.2349,669.907)"
         id="g9066"><path
           inkscape:connector-curvature="0"
           id="path9068"
           style="fill:#918f90;fill-opacity:1;fill-rule:nonzero;stroke:none"
           d="M 0,0 C -0.029,0 -0.054,0.013 -0.072,0.035 -0.09,0.059 -0.094,0.088 -0.088,0.114 l 0.064,0.301 1.016,0 c 0.014,0 0.027,0.003 0.037,0.009 0.011,0.008 0.018,0.02 0.021,0.032 l 0.205,0.959 0.026,0 C 1.36,1.415 1.453,1.374 1.522,1.299 1.593,1.226 1.622,1.138 1.606,1.068 L 1.416,0.167 C 1.406,0.117 1.381,0.074 1.34,0.045 1.299,0.014 1.246,0 1.189,0 L 0,0 Z" /></g><g
         transform="translate(78.2681,671.322)"
         id="g9070"><path
           inkscape:connector-curvature="0"
           id="path9072"
           style="fill:#918f90;fill-opacity:1;fill-rule:nonzero;stroke:none"
           d="m 0,0 -0.204,0 -0.141,-0.668 0.203,0 L 0,0 Z" /></g><g
         transform="translate(-17.4663,211.694)"
         id="g9074"><path
           inkscape:connector-curvature="0"
           id="path9076"
           style="fill:#918f90;fill-opacity:1;fill-rule:nonzero;stroke:none"
           d="m 96.423,452.516 -1.734,0 0,0.31601 1.734,0 0,-0.31601 z" /></g><g
         transform="translate(-17.4663,211.694)"
         id="g9078"><path
           inkscape:connector-curvature="0"
           id="path9080"
           style="fill:#918f90;fill-opacity:1;fill-rule:nonzero;stroke:none"
           d="m 96.423,455.603 -1.734,0 0,0.31601 1.734,0 0,-0.31601 z" /></g><g
         transform="translate(-17.4663,211.694)"
         id="g9082"><path
           inkscape:connector-curvature="0"
           id="path9084"
           style="fill:#918f90;fill-opacity:1;fill-rule:nonzero;stroke:none"
           d="m 95.398,456.628 0.316002,0 0,-1.73499 -0.316002,0 0,1.73499 z" /></g><g
         transform="translate(80.999,651.225)"
         id="g9086"><path
           inkscape:connector-curvature="0"
           id="path9088"
           style="fill:#ffffff;fill-opacity:1;fill-rule:nonzero;stroke:none"
           d="m 0,0 c 0,-1.306 -1.058,-2.366 -2.365,-2.366 -1.306,0 -2.365,1.06 -2.365,2.366 0,1.306 1.059,2.365 2.365,2.365 C -1.058,2.365 0,1.306 0,0" /></g><g
         transform="translate(80.999,651.225)"
         id="g9090"><path
           inkscape:connector-curvature="0"
           id="path9092"
           style="fill:none;stroke:#918f90;stroke-width:0.56699997;stroke-linecap:butt;stroke-linejoin:miter;stroke-miterlimit:10;stroke-dasharray:none;stroke-opacity:1"
           d="m 0,0 c 0,-1.306 -1.058,-2.366 -2.365,-2.366 -1.306,0 -2.365,1.06 -2.365,2.366 0,1.306 1.059,2.365 2.365,2.365 C -1.058,2.365 0,1.306 0,0 Z" /></g><g
         transform="translate(-17.4663,211.694)"
         id="g9094"><path
           inkscape:connector-curvature="0"
           id="path9096"
           style="fill:#bdbcbc;fill-opacity:1;fill-rule:nonzero;stroke:none"
           d="m 98.465,445.437 -4.73,0 0,3.15399 4.73,0 0,-3.15399 z" /></g><g
         transform="translate(83.9434,651.225)"
         id="g9098"><path
           inkscape:connector-curvature="0"
           id="path9100"
           style="fill:#231f20;fill-opacity:1;fill-rule:nonzero;stroke:none"
           d="m 0,0 c 0,-0.036 -0.021,-0.054 -0.06,-0.054 l -1.653,0 0,-0.525 c 0,-0.035 -0.02,-0.054 -0.06,-0.054 -0.04,0 -0.06,0.019 -0.06,0.054 l 0,1.211 1.773,0 C -0.021,0.632 0,0.614 0,0.577 0,0.542 -0.021,0.523 -0.06,0.523 l -1.653,0 0,-0.469 1.653,0 C -0.021,0.054 0,0.036 0,0" /></g><g
         transform="translate(83.9434,651.225)"
         id="g9102"><path
           inkscape:connector-curvature="0"
           id="path9104"
           style="fill:none;stroke:#231f20;stroke-width:0.28299999;stroke-linecap:butt;stroke-linejoin:miter;stroke-miterlimit:2.41400003;stroke-dasharray:none;stroke-opacity:1"
           d="m 0,0 c 0,-0.036 -0.021,-0.054 -0.06,-0.054 l -1.653,0 0,-0.525 c 0,-0.035 -0.02,-0.054 -0.06,-0.054 -0.04,0 -0.06,0.019 -0.06,0.054 l 0,1.211 1.773,0 C -0.021,0.632 0,0.614 0,0.577 0,0.542 -0.021,0.523 -0.06,0.523 l -1.653,0 0,-0.469 1.653,0 C -0.021,0.054 0,0.036 0,0 Z" /></g><g
         transform="translate(84.2095,650.583)"
         id="g9106"><path
           inkscape:connector-curvature="0"
           id="path9108"
           style="fill:#231f20;fill-opacity:1;fill-rule:nonzero;stroke:none"
           d="m 0,0 c -0.04,0 -0.061,0.019 -0.061,0.054 0,0.014 0.007,0.026 0.018,0.036 L 1.242,1.248 C 1.253,1.257 1.267,1.263 1.285,1.263 1.324,1.263 1.342,1.246 1.342,1.21 1.342,1.195 1.336,1.183 1.326,1.173 L 0.04,0.015 C 0.028,0.006 0.016,0 0,0" /></g><g
         transform="translate(84.2095,650.583)"
         id="g9110"><path
           inkscape:connector-curvature="0"
           id="path9112"
           style="fill:none;stroke:#231f20;stroke-width:0.28299999;stroke-linecap:butt;stroke-linejoin:miter;stroke-miterlimit:2.41400003;stroke-dasharray:none;stroke-opacity:1"
           d="m 0,0 c -0.04,0 -0.061,0.019 -0.061,0.054 0,0.014 0.007,0.026 0.018,0.036 L 1.242,1.248 C 1.253,1.257 1.267,1.263 1.285,1.263 1.324,1.263 1.342,1.246 1.342,1.21 1.342,1.195 1.336,1.183 1.326,1.173 L 0.04,0.015 C 0.028,0.006 0.016,0 0,0 Z" /></g><g
         transform="translate(85.8482,651.085)"
         id="g9114"><path
           inkscape:connector-curvature="0"
           id="path9116"
           style="fill:#231f20;fill-opacity:1;fill-rule:nonzero;stroke:none"
           d="m 0,0 c 0.039,0 0.06,-0.017 0.06,-0.054 0,-0.099 0.078,-0.184 0.236,-0.256 0.158,-0.072 0.345,-0.108 0.56,-0.108 0.234,0 0.426,0.021 0.574,0.065 0.149,0.044 0.223,0.101 0.223,0.17 0,0.075 -0.059,0.13 -0.175,0.166 C 1.392,0.01 1.218,0.04 0.957,0.072 L 0.847,0.085 0.746,0.099 C 0.464,0.137 0.281,0.17 0.199,0.195 c -0.173,0.055 -0.26,0.144 -0.26,0.266 0,0.117 0.098,0.206 0.291,0.266 0.163,0.05 0.371,0.075 0.626,0.075 0.258,0 0.474,-0.044 0.651,-0.135 C 1.684,0.577 1.773,0.464 1.773,0.332 1.773,0.296 1.752,0.279 1.712,0.279 1.673,0.279 1.653,0.296 1.653,0.332 1.653,0.431 1.574,0.517 1.416,0.588 1.258,0.66 1.071,0.697 0.856,0.697 0.622,0.697 0.43,0.674 0.282,0.631 0.134,0.587 0.06,0.531 0.06,0.461 0.06,0.388 0.123,0.332 0.248,0.293 0.333,0.268 0.503,0.238 0.762,0.205 L 0.973,0.177 C 1.246,0.145 1.43,0.112 1.524,0.082 1.689,0.028 1.773,-0.061 1.773,-0.183 1.773,-0.3 1.676,-0.389 1.482,-0.449 1.32,-0.498 1.111,-0.524 0.856,-0.524 c -0.257,0 -0.474,0.045 -0.65,0.136 -0.178,0.09 -0.267,0.202 -0.267,0.334 C -0.061,-0.017 -0.04,0 0,0" /></g><g
         transform="translate(85.8482,651.085)"
         id="g9118"><path
           inkscape:connector-curvature="0"
           id="path9120"
           style="fill:none;stroke:#231f20;stroke-width:0.28299999;stroke-linecap:butt;stroke-linejoin:miter;stroke-miterlimit:2.41400003;stroke-dasharray:none;stroke-opacity:1"
           d="m 0,0 c 0.039,0 0.06,-0.017 0.06,-0.054 0,-0.099 0.078,-0.184 0.236,-0.256 0.158,-0.072 0.345,-0.108 0.56,-0.108 0.234,0 0.426,0.021 0.574,0.065 0.149,0.044 0.223,0.101 0.223,0.17 0,0.075 -0.059,0.13 -0.175,0.166 C 1.392,0.01 1.218,0.04 0.957,0.072 L 0.847,0.085 0.746,0.099 C 0.464,0.137 0.281,0.17 0.199,0.195 c -0.173,0.055 -0.26,0.144 -0.26,0.266 0,0.117 0.098,0.206 0.291,0.266 0.163,0.05 0.371,0.075 0.626,0.075 0.258,0 0.474,-0.044 0.651,-0.135 C 1.684,0.577 1.773,0.464 1.773,0.332 1.773,0.296 1.752,0.279 1.712,0.279 1.673,0.279 1.653,0.296 1.653,0.332 1.653,0.431 1.574,0.517 1.416,0.588 1.258,0.66 1.071,0.697 0.856,0.697 0.622,0.697 0.43,0.674 0.282,0.631 0.134,0.587 0.06,0.531 0.06,0.461 0.06,0.388 0.123,0.332 0.248,0.293 0.333,0.268 0.503,0.238 0.762,0.205 L 0.973,0.177 C 1.246,0.145 1.43,0.112 1.524,0.082 1.689,0.028 1.773,-0.061 1.773,-0.183 1.773,-0.3 1.676,-0.389 1.482,-0.449 1.32,-0.498 1.111,-0.524 0.856,-0.524 c -0.257,0 -0.474,0.045 -0.65,0.136 -0.178,0.09 -0.267,0.202 -0.267,0.334 C -0.061,-0.017 -0.04,0 0,0 Z" /></g><g
         transform="translate(83.7573,658.584)"
         id="g9122"><path
           inkscape:connector-curvature="0"
           id="path9124"
           style="fill:#231f20;fill-opacity:1;fill-rule:nonzero;stroke:none"
           d="m 0,0 c 0,-0.035 -0.014,-0.052 -0.042,-0.052 l -1.254,0 0,1.208 c 0,0.036 0.014,0.055 0.042,0.055 0.029,0 0.043,-0.019 0.043,-0.055 l 0,-1.103 1.169,0 C -0.014,0.053 0,0.036 0,0" /></g><g
         transform="translate(83.7573,658.584)"
         id="g9126"><path
           inkscape:connector-curvature="0"
           id="path9128"
           style="fill:none;stroke:#231f20;stroke-width:0.28299999;stroke-linecap:butt;stroke-linejoin:miter;stroke-miterlimit:2.41400003;stroke-dasharray:none;stroke-opacity:1"
           d="m 0,0 c 0,-0.035 -0.014,-0.052 -0.042,-0.052 l -1.254,0 0,1.208 c 0,0.036 0.014,0.055 0.042,0.055 0.029,0 0.043,-0.019 0.043,-0.055 l 0,-1.103 1.169,0 C -0.014,0.053 0,0.036 0,0 Z" /></g><g
         transform="translate(84.3018,659.12)"
         id="g9130"><path
           inkscape:connector-curvature="0"
           id="path9132"
           style="fill:#231f20;fill-opacity:1;fill-rule:nonzero;stroke:none"
           d="m 0,0 0,-0.471 1.17,0 c 0.028,0 0.042,-0.018 0.042,-0.054 0,-0.036 -0.014,-0.055 -0.042,-0.055 l -1.254,0 0,1.266 1.254,0 c 0.028,0 0.042,-0.018 0.042,-0.054 0,-0.036 -0.014,-0.054 -0.042,-0.054 l -1.17,0 0,-0.471 1.17,0 C 1.198,0.107 1.212,0.09 1.212,0.053 1.212,0.017 1.198,0 1.17,0 L 0,0 Z" /></g><g
         transform="translate(84.3018,659.12)"
         id="g9134"><path
           inkscape:connector-curvature="0"
           id="path9136"
           style="fill:none;stroke:#231f20;stroke-width:0.28299999;stroke-linecap:butt;stroke-linejoin:miter;stroke-miterlimit:2.41400003;stroke-dasharray:none;stroke-opacity:1"
           d="m 0,0 0,-0.471 1.17,0 c 0.028,0 0.042,-0.018 0.042,-0.054 0,-0.036 -0.014,-0.055 -0.042,-0.055 l -1.254,0 0,1.266 1.254,0 c 0.028,0 0.042,-0.018 0.042,-0.054 0,-0.036 -0.014,-0.054 -0.042,-0.054 l -1.17,0 0,-0.471 1.17,0 C 1.198,0.107 1.212,0.09 1.212,0.053 1.212,0.017 1.198,0 1.17,0 L 0,0 Z" /></g><g
         transform="translate(87.1094,658.871)"
         id="g9138"><path
           inkscape:connector-curvature="0"
           id="path9140"
           style="fill:#231f20;fill-opacity:1;fill-rule:nonzero;stroke:none"
           d="M 0,0 C 0.05,0.091 0.076,0.192 0.076,0.302 0.076,0.413 0.05,0.514 0,0.605 -0.051,0.696 -0.116,0.76 -0.199,0.798 -0.241,0.817 -0.287,0.827 -0.337,0.827 l -0.714,0 0,-1.049 0.714,0 c 0.05,0 0.096,0.01 0.138,0.029 C -0.116,-0.155 -0.051,-0.092 0,0 M 0.068,0.668 C 0.13,0.559 0.161,0.436 0.161,0.302 0.161,0.168 0.13,0.046 0.068,-0.063 c -0.06,-0.11 -0.141,-0.187 -0.239,-0.23 -0.055,-0.024 -0.11,-0.038 -0.166,-0.038 l -0.799,0 0,1.266 0.799,0 c 0.056,0 0.111,-0.013 0.166,-0.037 0.098,-0.044 0.179,-0.121 0.239,-0.23" /></g><g
         transform="translate(87.1094,658.871)"
         id="g9142"><path
           inkscape:connector-curvature="0"
           id="path9144"
           style="fill:none;stroke:#231f20;stroke-width:0.28299999;stroke-linecap:butt;stroke-linejoin:miter;stroke-miterlimit:2.41400003;stroke-dasharray:none;stroke-opacity:1"
           d="M 0,0 C 0.05,0.091 0.076,0.192 0.076,0.302 0.076,0.413 0.05,0.514 0,0.605 -0.051,0.696 -0.116,0.76 -0.199,0.798 -0.241,0.817 -0.287,0.827 -0.337,0.827 l -0.714,0 0,-1.049 0.714,0 c 0.05,0 0.096,0.01 0.138,0.029 C -0.116,-0.155 -0.051,-0.092 0,0 Z M 0.068,0.668 C 0.13,0.559 0.161,0.436 0.161,0.302 0.161,0.168 0.13,0.046 0.068,-0.063 c -0.06,-0.11 -0.141,-0.187 -0.239,-0.23 -0.055,-0.024 -0.11,-0.038 -0.166,-0.038 l -0.799,0 0,1.266 0.799,0 c 0.056,0 0.111,-0.013 0.166,-0.037 0.098,-0.044 0.179,-0.121 0.239,-0.23 z" /></g><g
         transform="translate(132.5,673.411)"
         id="g9146"><path
           inkscape:connector-curvature="0"
           id="path9148"
           style="fill:#231f20;fill-opacity:1;fill-rule:nonzero;stroke:none"
           d="m 0,0 0.443,0.043 c 0.028,-0.148 0.081,-0.258 0.162,-0.328 0.082,-0.07 0.192,-0.105 0.331,-0.105 0.147,0 0.257,0.031 0.332,0.094 0.074,0.062 0.112,0.134 0.112,0.217 0,0.054 -0.016,0.1 -0.047,0.137 C 1.301,0.095 1.247,0.128 1.169,0.156 1.116,0.174 0.994,0.207 0.804,0.254 0.559,0.315 0.388,0.39 0.29,0.478 0.151,0.602 0.082,0.753 0.082,0.932 c 0,0.114 0.032,0.222 0.098,0.322 0.065,0.1 0.158,0.177 0.281,0.229 0.123,0.052 0.271,0.079 0.444,0.079 0.283,0 0.497,-0.062 0.64,-0.187 C 1.688,1.251 1.764,1.085 1.771,0.878 L 1.315,0.858 C 1.295,0.974 1.254,1.057 1.189,1.108 1.125,1.159 1.029,1.185 0.9,1.185 0.768,1.185 0.665,1.157 0.59,1.103 0.542,1.068 0.517,1.021 0.517,0.962 0.517,0.909 0.54,0.864 0.585,0.825 0.642,0.777 0.782,0.727 1.003,0.675 1.226,0.622 1.39,0.568 1.496,0.512 1.602,0.456 1.686,0.38 1.746,0.283 1.806,0.186 1.835,0.066 1.835,-0.077 1.835,-0.206 1.799,-0.328 1.728,-0.44 1.656,-0.553 1.554,-0.637 1.422,-0.692 1.291,-0.747 1.128,-0.774 0.932,-0.774 0.646,-0.774 0.427,-0.709 0.274,-0.577 0.121,-0.445 0.029,-0.252 0,0" /></g><g
         transform="translate(135.176,673.661)"
         id="g9150"><path
           inkscape:connector-curvature="0"
           id="path9152"
           style="fill:#231f20;fill-opacity:1;fill-rule:nonzero;stroke:none"
           d="m 0,0 0,-0.604 0.422,0 c 0.164,0 0.268,0.005 0.313,0.014 0.067,0.012 0.122,0.043 0.165,0.09 0.042,0.048 0.064,0.111 0.064,0.192 0,0.067 -0.016,0.125 -0.049,0.172 C 0.881,-0.089 0.834,-0.054 0.772,-0.033 0.71,-0.011 0.576,0 0.368,0 L 0,0 Z m 0,0.897 0,-0.522 0.298,0 c 0.178,0 0.289,0.003 0.331,0.008 0.079,0.009 0.14,0.036 0.184,0.081 C 0.858,0.508 0.88,0.567 0.88,0.64 0.88,0.71 0.862,0.767 0.823,0.81 0.784,0.854 0.727,0.88 0.651,0.89 0.606,0.895 0.476,0.897 0.262,0.897 L 0,0.897 Z m -0.456,0.376 0.903,0 C 0.625,1.273 0.758,1.266 0.846,1.251 0.935,1.236 1.012,1.205 1.082,1.158 1.151,1.11 1.209,1.047 1.255,0.969 1.301,0.891 1.325,0.802 1.325,0.705 1.325,0.599 1.296,0.502 1.239,0.414 1.182,0.326 1.104,0.259 1.007,0.215 1.145,0.175 1.25,0.107 1.325,0.01 1.398,-0.086 1.435,-0.2 1.435,-0.33 1.435,-0.433 1.411,-0.532 1.364,-0.629 1.316,-0.726 1.251,-0.804 1.168,-0.862 1.085,-0.92 0.983,-0.956 0.862,-0.969 0.786,-0.977 0.603,-0.982 0.312,-0.984 l -0.768,0 0,2.257 z" /></g><g
         transform="translate(136.993,674.934)"
         id="g9154"><path
           inkscape:connector-curvature="0"
           id="path9156"
           style="fill:#231f20;fill-opacity:1;fill-rule:nonzero;stroke:none"
           d="m 0,0 0.456,0 0,-1.223 c 0,-0.194 0.005,-0.319 0.017,-0.377 0.019,-0.092 0.066,-0.166 0.139,-0.222 0.074,-0.056 0.174,-0.084 0.302,-0.084 0.129,0 0.227,0.026 0.292,0.079 0.065,0.053 0.105,0.118 0.118,0.195 0.014,0.077 0.021,0.205 0.021,0.383 L 1.345,0 1.8,0 1.8,-1.186 C 1.8,-1.457 1.788,-1.648 1.764,-1.76 1.739,-1.872 1.693,-1.967 1.627,-2.043 1.561,-2.12 1.472,-2.181 1.362,-2.227 1.25,-2.273 1.106,-2.296 0.927,-2.296 c -0.215,0 -0.379,0.025 -0.49,0.075 -0.111,0.05 -0.2,0.114 -0.265,0.194 -0.064,0.079 -0.106,0.163 -0.127,0.25 C 0.015,-1.648 0,-1.457 0,-1.204 L 0,0 Z" /></g><g
         transform="translate(139.159,673.411)"
         id="g9158"><path
           inkscape:connector-curvature="0"
           id="path9160"
           style="fill:#231f20;fill-opacity:1;fill-rule:nonzero;stroke:none"
           d="m 0,0 0.443,0.043 c 0.027,-0.148 0.081,-0.258 0.163,-0.328 0.081,-0.07 0.191,-0.105 0.33,-0.105 0.147,0 0.258,0.031 0.332,0.094 0.074,0.062 0.111,0.134 0.111,0.217 0,0.054 -0.015,0.1 -0.046,0.137 C 1.301,0.095 1.247,0.128 1.169,0.156 1.115,0.174 0.994,0.207 0.804,0.254 0.559,0.315 0.388,0.39 0.289,0.478 0.151,0.602 0.082,0.753 0.082,0.932 c 0,0.114 0.032,0.222 0.097,0.322 0.066,0.1 0.159,0.177 0.282,0.229 0.122,0.052 0.271,0.079 0.444,0.079 0.284,0 0.497,-0.062 0.64,-0.187 C 1.688,1.251 1.764,1.085 1.771,0.878 L 1.315,0.858 C 1.295,0.974 1.253,1.057 1.189,1.108 1.125,1.159 1.029,1.185 0.901,1.185 0.769,1.185 0.665,1.157 0.59,1.103 0.542,1.068 0.517,1.021 0.517,0.962 0.517,0.909 0.54,0.864 0.585,0.825 0.643,0.777 0.782,0.727 1.004,0.675 1.226,0.622 1.39,0.568 1.496,0.512 1.602,0.456 1.686,0.38 1.746,0.283 1.806,0.186 1.835,0.066 1.835,-0.077 1.835,-0.206 1.799,-0.328 1.727,-0.44 1.656,-0.553 1.555,-0.637 1.423,-0.692 1.292,-0.747 1.127,-0.774 0.931,-0.774 0.646,-0.774 0.427,-0.709 0.274,-0.577 0.121,-0.445 0.029,-0.252 0,0" /></g><g
         transform="translate(140.635,668.734)"
         id="g9162"><path
           inkscape:connector-curvature="0"
           id="path9164"
           style="fill:#231f20;fill-opacity:1;fill-rule:nonzero;stroke:none"
           d="m 0,0 -0.433,0 0,1.631 C -0.591,1.483 -0.777,1.374 -0.992,1.303 l 0,0.393 c 0.113,0.036 0.236,0.107 0.368,0.21 0.133,0.103 0.224,0.223 0.273,0.361 L 0,2.267 0,0 Z" /></g><g
         transform="translate(140.989,665.194)"
         id="g9166"><path
           inkscape:connector-curvature="0"
           id="path9168"
           style="fill:#231f20;fill-opacity:1;fill-rule:nonzero;stroke:none"
           d="m 0,0 0,-0.402 -1.516,0 c 0.016,0.152 0.065,0.296 0.147,0.432 0.083,0.136 0.244,0.316 0.487,0.541 0.195,0.182 0.315,0.305 0.359,0.37 0.06,0.089 0.089,0.177 0.089,0.265 0,0.096 -0.026,0.17 -0.078,0.222 -0.051,0.051 -0.123,0.078 -0.215,0.078 -0.09,0 -0.162,-0.027 -0.215,-0.082 C -0.996,1.37 -1.026,1.28 -1.034,1.153 l -0.432,0.043 c 0.026,0.239 0.106,0.409 0.242,0.513 0.136,0.103 0.305,0.156 0.508,0.156 0.223,0 0.398,-0.06 0.526,-0.18 C -0.063,1.564 0,1.415 0,1.236 0,1.135 -0.018,1.038 -0.054,0.946 -0.091,0.854 -0.148,0.758 -0.228,0.657 -0.28,0.591 -0.374,0.495 -0.511,0.369 -0.648,0.244 -0.734,0.161 -0.771,0.12 -0.807,0.079 -0.836,0.039 -0.859,0 L 0,0 Z" /></g><g
         transform="translate(139.513,661.449)"
         id="g9170"><path
           inkscape:connector-curvature="0"
           id="path9172"
           style="fill:#231f20;fill-opacity:1;fill-rule:nonzero;stroke:none"
           d="m 0,0 0.419,0.051 c 0.014,-0.107 0.049,-0.188 0.107,-0.245 0.059,-0.056 0.13,-0.084 0.214,-0.084 0.089,0 0.164,0.034 0.225,0.101 0.061,0.068 0.092,0.159 0.092,0.274 0,0.109 -0.03,0.195 -0.088,0.259 C 0.911,0.42 0.839,0.452 0.754,0.452 0.699,0.452 0.633,0.44 0.556,0.419 L 0.604,0.772 C 0.721,0.769 0.811,0.794 0.872,0.848 0.934,0.902 0.964,0.974 0.964,1.063 0.964,1.139 0.941,1.2 0.896,1.245 0.851,1.29 0.791,1.312 0.716,1.312 0.643,1.312 0.579,1.287 0.526,1.235 0.475,1.184 0.442,1.109 0.431,1.01 L 0.032,1.078 C 0.06,1.215 0.102,1.324 0.158,1.405 0.214,1.487 0.292,1.551 0.392,1.598 0.492,1.645 0.604,1.667 0.729,1.667 0.941,1.667 1.111,1.6 1.24,1.465 1.345,1.354 1.398,1.229 1.398,1.089 1.398,0.891 1.29,0.732 1.074,0.615 1.203,0.587 1.306,0.525 1.384,0.428 1.461,0.332 1.5,0.216 1.5,0.079 1.5,-0.119 1.428,-0.288 1.283,-0.428 1.138,-0.567 0.958,-0.637 0.743,-0.637 0.538,-0.637 0.368,-0.578 0.234,-0.461 0.1,-0.343 0.021,-0.189 0,0" /></g><g
         transform="translate(140.377,657.743)"
         id="g9174"><path
           inkscape:connector-curvature="0"
           id="path9176"
           style="fill:#231f20;fill-opacity:1;fill-rule:nonzero;stroke:none"
           d="M 0,0 0,0.771 -0.52,0 0,0 Z m 0,-0.835 0,0.454 -0.924,0 0,0.379 0.979,1.434 0.363,0 0,-1.432 0.281,0 0,-0.381 -0.281,0 0,-0.454 -0.418,0 z" /></g><g
         transform="translate(139.534,653.546)"
         id="g9178"><path
           inkscape:connector-curvature="0"
           id="path9180"
           style="fill:#231f20;fill-opacity:1;fill-rule:nonzero;stroke:none"
           d="m 0,0 0.431,0.045 c 0.012,-0.098 0.049,-0.175 0.11,-0.232 0.06,-0.057 0.13,-0.085 0.209,-0.085 0.09,0 0.167,0.036 0.23,0.109 0.062,0.074 0.093,0.184 0.093,0.332 0,0.139 -0.031,0.243 -0.093,0.312 C 0.918,0.55 0.837,0.585 0.737,0.585 0.613,0.585 0.502,0.531 0.403,0.42 l -0.351,0.052 0.222,1.175 1.144,0 0,-0.405 -0.816,0 -0.068,-0.384 c 0.097,0.048 0.195,0.073 0.296,0.073 0.192,0 0.355,-0.07 0.488,-0.21 0.134,-0.14 0.2,-0.321 0.2,-0.544 0,-0.186 -0.054,-0.352 -0.161,-0.497 -0.147,-0.199 -0.351,-0.299 -0.611,-0.299 -0.209,0 -0.379,0.056 -0.51,0.168 C 0.104,-0.339 0.025,-0.188 0,0" /></g><g
         transform="translate(140.013,649.784)"
         id="g9182"><path
           inkscape:connector-curvature="0"
           id="path9184"
           style="fill:#231f20;fill-opacity:1;fill-rule:nonzero;stroke:none"
           d="m 0,0 c 0,-0.141 0.033,-0.249 0.097,-0.325 0.065,-0.077 0.139,-0.114 0.222,-0.114 0.08,0 0.147,0.03 0.2,0.093 0.054,0.063 0.08,0.165 0.08,0.307 0,0.148 -0.028,0.256 -0.086,0.323 C 0.455,0.353 0.383,0.387 0.297,0.387 0.214,0.387 0.144,0.354 0.087,0.289 0.029,0.224 0,0.128 0,0 M 0.981,0.944 0.562,0.898 C 0.552,0.984 0.525,1.048 0.482,1.089 0.439,1.13 0.383,1.151 0.314,1.151 0.223,1.151 0.146,1.109 0.083,1.028 0.02,0.945 -0.021,0.774 -0.037,0.514 0.071,0.642 0.205,0.706 0.365,0.706 0.546,0.706 0.701,0.637 0.829,0.5 0.958,0.361 1.023,0.185 1.023,-0.033 c 0,-0.232 -0.068,-0.417 -0.204,-0.556 -0.135,-0.14 -0.309,-0.21 -0.522,-0.21 -0.228,0 -0.415,0.089 -0.562,0.265 -0.147,0.178 -0.22,0.468 -0.22,0.871 0,0.413 0.077,0.712 0.229,0.895 0.153,0.183 0.352,0.274 0.596,0.274 0.172,0 0.314,-0.048 0.427,-0.143 C 0.878,1.266 0.95,1.127 0.981,0.944" /></g><g
         transform="translate(112.678,673.359)"
         id="g9186"><path
           inkscape:connector-curvature="0"
           id="path9188"
           style="fill:#bdbcbc;fill-opacity:1;fill-rule:evenodd;stroke:none"
           d="m 0,0 -0.213,-0.637 c -0.093,0.082 -0.21,0.124 -0.355,0.124 l -0.164,-0.003 -1.251,0 c -0.092,0 -0.162,-0.012 -0.21,-0.035 -0.051,-0.025 -0.091,-0.066 -0.123,-0.127 l -0.058,-0.109 c -0.043,-0.081 -0.054,-0.132 -0.032,-0.155 0.022,-0.023 0.096,-0.035 0.219,-0.035 l 0.895,0 c 0.228,0 0.388,-0.008 0.478,-0.028 0.091,-0.019 0.155,-0.057 0.194,-0.115 0.079,-0.105 0.059,-0.274 -0.061,-0.504 L -1.14,-2.479 c -0.121,-0.215 -0.29,-0.38 -0.504,-0.496 -0.115,-0.061 -0.226,-0.101 -0.331,-0.122 -0.106,-0.02 -0.263,-0.031 -0.47,-0.031 l -2.399,0 0.207,0.626 c 0.076,-0.048 0.156,-0.078 0.241,-0.091 0.084,-0.013 0.246,-0.019 0.485,-0.019 l 1.053,0 c 0.125,0 0.202,0.003 0.23,0.012 0.037,0.012 0.065,0.027 0.086,0.046 0.02,0.021 0.043,0.057 0.072,0.109 l 0.053,0.098 c 0.04,0.075 0.057,0.126 0.046,0.152 -0.007,0.025 -0.043,0.038 -0.109,0.038 l -1.023,0 c -0.217,0 -0.374,0.01 -0.473,0.028 -0.098,0.019 -0.167,0.052 -0.208,0.101 -0.083,0.099 -0.06,0.272 0.069,0.52 l 0.46,0.86 c 0.123,0.214 0.29,0.379 0.505,0.495 0.116,0.062 0.228,0.103 0.331,0.122 C -2.713,-0.011 -2.556,0 -2.348,0 L 0,0 Z m 1.567,-1.407 1.531,0.988 c 0.166,0.107 0.277,0.209 0.331,0.31 0.013,0.026 0.025,0.06 0.036,0.109 L 4.664,0 C 4.45,-0.075 4.181,-0.219 3.855,-0.432 L 3.097,-0.917 3.321,-2.481 c 0.038,-0.261 0.095,-0.477 0.173,-0.647 l -1.669,0 -0.12,1.324 L 1.167,-2.153 0.895,-2.665 C 0.792,-2.869 0.757,-3.024 0.796,-3.128 l -1.678,0 c 0.153,0.109 0.285,0.263 0.4,0.463 l 1.178,2.201 C 0.796,-0.263 0.829,-0.11 0.793,0 L 2.471,0 C 2.321,-0.104 2.189,-0.258 2.072,-0.464 L 1.567,-1.407 Z m 5.576,0.131 1.041,0.832 c 0.155,0.122 0.262,0.238 0.319,0.347 C 8.515,-0.075 8.529,-0.044 8.548,0 L 9.522,0 C 9.428,-0.042 9.345,-0.087 9.274,-0.136 9.202,-0.187 9.083,-0.281 8.915,-0.422 L 7.021,-1.938 6.632,-2.665 C 6.53,-2.869 6.498,-3.024 6.536,-3.128 l -1.678,0 c 0.15,0.104 0.282,0.259 0.399,0.463 l 0.389,0.727 -0.278,1.44 C 5.329,-0.271 5.285,-0.106 5.231,0 L 7.055,0 C 7.009,-0.086 6.982,-0.16 6.975,-0.223 6.967,-0.284 6.973,-0.37 6.992,-0.475 l 0.151,-0.801 z m -15.252,0.56 -0.179,-0.397 c 0.086,0.097 0.158,0.168 0.219,0.214 0.06,0.046 0.133,0.084 0.218,0.114 0.14,0.049 0.304,0.071 0.492,0.069 l 0.688,0 -0.428,-0.798 c -0.034,0.054 -0.089,0.09 -0.16,0.109 -0.069,0.02 -0.183,0.03 -0.338,0.03 l -0.279,0 c -0.146,0 -0.278,-0.032 -0.392,-0.095 -0.113,-0.062 -0.202,-0.151 -0.263,-0.265 l -0.423,-0.788 c -0.098,-0.183 -0.159,-0.31 -0.185,-0.383 -0.025,-0.073 -0.033,-0.147 -0.026,-0.222 l -1.59,0 c 0.087,0.075 0.158,0.149 0.211,0.222 0.052,0.073 0.128,0.2 0.226,0.383 l 0.645,1.2 c 0.098,0.184 0.159,0.313 0.185,0.385 0.026,0.073 0.035,0.148 0.028,0.222 l 1.351,0 z m 1.91,1.899 c 0.014,-0.009 0.027,-0.017 0.041,-0.026 0.739,-0.481 1.013,-1.178 1.022,-1.606 0,0 -0.024,-0.184 -0.208,-0.183 0,0 -0.2,-0.005 -0.248,0.169 0,0 -0.024,0.763 -0.881,1.334 -0.869,0.553 -1.725,0.364 -1.725,0.364 -0.205,-0.009 -0.256,0.16 -0.256,0.16 -0.052,0.153 0.146,0.223 0.146,0.223 0.479,0.111 1.33,0.073 2.07,-0.408 0.011,-0.01 0.026,-0.018 0.039,-0.027 M -6.745,0.559 c 0.009,-0.007 0.019,-0.013 0.027,-0.019 0.501,-0.326 0.687,-0.797 0.693,-1.088 0,0 -0.017,-0.124 -0.142,-0.123 0,0 -0.136,-0.003 -0.167,0.113 0,0 -0.016,0.516 -0.597,0.903 -0.589,0.376 -1.167,0.247 -1.167,0.247 -0.14,-0.006 -0.173,0.109 -0.173,0.109 -0.037,0.103 0.098,0.152 0.098,0.152 0.324,0.075 0.901,0.049 1.4,-0.277 0.009,-0.007 0.019,-0.012 0.028,-0.017 m -1.778,1.853 c 0.202,0.154 0.5,0.174 0.88,0.157 0.396,-0.048 1.083,-0.069 2.105,-0.739 1.022,-0.67 1.393,-1.618 1.406,-2.206 0,0 -0.035,-0.254 -0.286,-0.252 0,0 -0.276,-0.005 -0.343,0.232 0,0 -0.031,1.065 -1.237,1.851 0,0 -1.199,0.715 -2.23,0.518 -0.314,-0.014 -0.48,0.241 -0.295,0.439 m -3.065,-2.928 -0.405,-0.754 1.204,0 c 0.161,-10e-4 0.329,0.024 0.506,0.078 l -0.369,-0.687 c -0.073,0.038 -0.144,0.064 -0.213,0.076 -0.071,0.011 -0.176,0.018 -0.321,0.018 l -1.083,0 -0.469,-0.877 c -0.104,-0.206 -0.137,-0.362 -0.099,-0.466 l -1.679,0 c 0.153,0.109 0.286,0.264 0.401,0.466 l 1.178,2.198 c 0.1,0.201 0.134,0.354 0.098,0.464 l 3.168,0 -0.206,-0.592 c -0.085,0.036 -0.159,0.056 -0.222,0.062 -0.062,0.007 -0.226,0.01 -0.493,0.014 l -0.996,0 z" /></g><g
         transform="translate(116.213,650.524)"
         id="g9190"><path
           inkscape:connector-curvature="0"
           id="path9192"
           style="fill:#231f20;fill-opacity:1;fill-rule:evenodd;stroke:none"
           d="M 0,0 0.803,0 0.864,0.452 C 0.908,0.78 0.834,1.031 0.498,1.058 l -1.618,0 C -1.459,1.026 -1.725,0.822 -1.884,0.415 l -0.411,-1.673 c -0.092,-0.405 0.014,-0.682 0.472,-0.736 l 8.081,0 c 0.693,0 1.167,1.813 0.444,1.825 l -1.315,0 C 5.14,-0.185 5.118,0.419 5.458,0.446 l 2.824,0 -0.596,-2.455 0.72,0 0.595,2.467 0.8,0 0.306,0.601 -4.817,0 C 4.941,1.092 4.718,0.92 4.595,0.581 L 4.443,-0.064 c -0.119,-0.6 0.06,-0.693 0.292,-0.7 l 1.369,0 C 6.419,-0.775 6.253,-1.379 5.967,-1.357 l -4.371,0 0.368,1.449 c 0.068,0.234 0.173,0.31 0.294,0.313 l 0.799,0 C 3.183,0.41 3.24,0.3 3.195,0.022 l 0.772,0 0.105,0.559 C 4.108,0.846 4.052,1.049 3.689,1.058 l -1.636,0 C 1.758,1.047 1.474,0.843 1.329,0.507 l -0.421,-1.833 -2.207,0.005 c -0.119,0 -0.234,0.132 -0.169,0.471 l 0.253,0.964 c 0.039,0.162 0.133,0.272 0.32,0.266 l 0.719,0.008 c 0.138,0.008 0.199,-0.097 0.17,-0.334 L 0,0 Z" /></g><g
         transform="translate(110.682,649.707)"
         id="g9194"><path
           inkscape:connector-curvature="0"
           id="path9196"
           style="fill:#231f20;fill-opacity:1;fill-rule:evenodd;stroke:none"
           d="m 0,0 -0.37,-0.573 3.236,0 L 2.769,0.019 0,0 Z" /></g><g
         transform="translate(125.545,651.915)"
         id="g9198"><path
           inkscape:connector-curvature="0"
           id="path9200"
           style="fill:#231f20;fill-opacity:1;fill-rule:nonzero;stroke:none"
           d="M 0,0 0,0.137 0.571,0.881 C 0.506,0.877 0.45,0.875 0.399,0.875 l -0.364,0 0,0.139 0.732,0 0,-0.113 L 0.281,0.258 0.188,0.137 c 0.067,0.008 0.133,0.01 0.191,0.01 l 0.414,0 L 0.793,0 0,0 Z m -1.238,0 0,1.399 0.162,0 0,-0.573 0.642,0 0,0.573 0.164,0 0,-1.399 -0.164,0 0,0.66 -0.642,0 0,-0.66 -0.162,0 z m -0.867,0.55 0,0.164 0.522,0.001 0,-0.52 c -0.081,-0.074 -0.162,-0.127 -0.25,-0.166 -0.084,-0.035 -0.171,-0.054 -0.262,-0.054 -0.121,0 -0.231,0.029 -0.33,0.088 -0.101,0.059 -0.176,0.145 -0.227,0.256 -0.049,0.111 -0.074,0.236 -0.074,0.373 0,0.138 0.025,0.266 0.074,0.383 0.051,0.118 0.124,0.208 0.217,0.265 0.095,0.057 0.204,0.084 0.327,0.084 0.09,0 0.17,-0.016 0.243,-0.049 0.073,-0.032 0.129,-0.077 0.17,-0.135 0.041,-0.061 0.071,-0.137 0.092,-0.232 L -1.749,0.963 c -0.019,0.07 -0.042,0.128 -0.069,0.169 -0.028,0.04 -0.067,0.073 -0.118,0.097 -0.051,0.025 -0.109,0.037 -0.169,0.037 -0.078,0 -0.141,-0.013 -0.196,-0.04 C -2.354,1.202 -2.399,1.167 -2.434,1.126 -2.465,1.083 -2.491,1.038 -2.512,0.987 -2.542,0.901 -2.56,0.807 -2.56,0.704 c 0,-0.125 0.02,-0.229 0.059,-0.313 0.038,-0.083 0.092,-0.146 0.165,-0.19 0.074,-0.037 0.15,-0.061 0.232,-0.061 0.07,0 0.14,0.019 0.208,0.048 0.066,0.032 0.118,0.063 0.152,0.099 l 0,0.263 -0.361,0 z m -1.213,-0.058 0,0.634 -0.386,-0.634 0.386,0 z m 0,-0.492 0,0.334 -0.537,0 0,0.158 0.565,0.907 0.124,0 0,-0.907 0.167,0 0,-0.158 -0.167,0 0,-0.334 -0.152,0 z m -0.979,0.195 0.174,0 0,-0.195 -0.174,0 0,0.195 z M -4.64,0.165 -4.64,0 -5.46,0 c 0,0.041 0.005,0.081 0.02,0.119 0.02,0.064 0.052,0.126 0.098,0.186 0.048,0.061 0.114,0.131 0.198,0.211 0.136,0.125 0.227,0.226 0.275,0.299 0.047,0.073 0.07,0.142 0.07,0.206 0,0.068 -0.021,0.125 -0.065,0.173 -0.042,0.047 -0.098,0.07 -0.168,0.07 -0.072,0 -0.13,-0.024 -0.176,-0.074 C -5.252,1.14 -5.274,1.072 -5.274,0.983 l -0.157,0.018 c 0.012,0.132 0.052,0.233 0.122,0.303 0.07,0.067 0.163,0.104 0.282,0.104 0.118,0 0.212,-0.039 0.28,-0.113 0.07,-0.074 0.103,-0.168 0.103,-0.278 0,-0.056 -0.008,-0.111 -0.029,-0.165 -0.02,-0.053 -0.054,-0.113 -0.1,-0.17 C -4.821,0.622 -4.899,0.539 -5.008,0.434 -5.098,0.348 -5.157,0.287 -5.185,0.258 -5.211,0.227 -5.23,0.195 -5.247,0.165 l 0.607,0 z" /></g><g
         transform="translate(112.223,651.508)"
         id="g9202"><path
           inkscape:connector-curvature="0"
           id="path9204"
           style="fill:#231f20;fill-opacity:1;fill-rule:evenodd;stroke:none"
           d="m 0,0 0.93,0 0.492,-3.062 -0.841,0 -0.278,2.243 -1.454,-2.261 -0.812,0 L 0,0 Z" /></g><g
         transform="translate(100.595,667.064)"
         id="g9206"><path
           inkscape:connector-curvature="0"
           id="path9208"
           style="fill:#231f20;fill-opacity:1;fill-rule:nonzero;stroke:none"
           d="m 0,0 2.166,0 -1.34,-2.078 -2.148,0 L 0,0 Z m -0.006,-8.538 -1.979,3.154 c -0.017,0.042 -0.042,0.07 -0.075,0.083 -0.026,0.016 -0.061,0.025 -0.102,0.025 -0.04,0 -0.072,-0.01 -0.098,-0.029 -0.026,-0.019 -0.042,-0.045 -0.048,-0.079 l -2.023,-3.154 -2.166,0 0.683,1.108 c 0.15,0.245 0.304,0.493 0.457,0.742 0.124,0.202 0.261,0.43 0.412,0.683 0.026,0.043 0.152,0.254 0.375,0.634 l 0.606,1.102 -0.807,1.381 2.259,0 0.16,-0.253 c 0.044,-0.085 0.107,-0.127 0.19,-0.127 0.083,0 0.141,0.035 0.177,0.107 l 0.179,0.273 2.309,0 -0.8,-1.381 2.475,-4.269 -2.184,0 z m -5.162,6.46 -1.341,2.078 2.166,0 1.321,-2.078 -2.146,0 z" /></g><g
         transform="translate(109.312,661.12)"
         id="g9210"><path
           inkscape:connector-curvature="0"
           id="path9212"
           style="fill:#231f20;fill-opacity:1;fill-rule:nonzero;stroke:none"
           d="m 0,0 c 0.295,-0.511 0.666,-0.766 1.11,-0.766 l 0.739,-0.039 0.924,0 c 0.193,0 0.348,0.085 0.466,0.254 C 3.344,-0.399 3.396,-0.215 3.396,0 3.396,0.211 3.345,0.387 3.242,0.526 3.128,0.683 2.972,0.76 2.773,0.76 l -0.924,0 -2.196,0 C -0.332,0.642 -0.215,0.389 0,0 m 4.914,5.979 0,-1.824 -3.22,0 -0.739,0 c -0.45,0 -0.743,-0.11 -0.878,-0.329 l -2.138,0 c 0.236,0.603 0.576,1.101 1.018,1.494 0.486,0.43 1.051,0.647 1.694,0.647 l 0.456,0.012 3.807,0 z m -7.086,-2.964 1.923,0 C -0.339,2.83 -0.389,2.702 -0.397,2.635 l 2.246,-0.019 1.229,0 c 0.711,0 1.275,-0.272 1.69,-0.817 C 5.047,1.326 5.187,0.726 5.187,0 5.171,-0.709 5.03,-1.313 4.766,-1.811 4.345,-2.356 3.783,-2.628 3.078,-2.628 l -1.229,0 -1.049,0 c -0.671,0 -1.25,0.208 -1.74,0.627 -0.449,0.38 -0.793,0.899 -1.034,1.558 -0.225,0.625 -0.338,1.304 -0.338,2.039 l 0.003,0.203 c -0.008,0.406 0.038,0.811 0.137,1.216" /></g><g
         transform="translate(125.551,662.858)"
         id="g9214"><path
           inkscape:connector-curvature="0"
           id="path9216"
           style="fill:#231f20;fill-opacity:1;fill-rule:nonzero;stroke:none"
           d="m 0,0 c 0.372,-0.472 0.559,-1.049 0.559,-1.729 l 0,-2.603 -1.924,0 0,2.61 c 0.008,0.389 -0.104,0.641 -0.336,0.76 l -1.486,0 -1.802,0 0.003,-1.254 0,-2.135 -1.84,0 0,5.643 1.825,0 0,-0.38 2.655,0 c 0.215,-0.013 0.439,0.114 0.67,0.38 l 1.911,0 0.01,-0.183 C 0.245,0.758 0.081,0.389 -0.249,0 L 0,0 Z m -5.001,2.103 -1.825,0 0,2.147 4.8,-0.006 c 0.714,0 1.281,-0.273 1.703,-0.817 C 0.056,2.933 0.242,2.492 0.235,2.103 l -1.985,0 -0.096,0.082 c -0.129,0.165 -0.29,0.256 -0.487,0.273 l -2.668,0 0,-0.355 z" /></g><g
         transform="translate(97.6025,655.65)"
         id="g9218"><path
           inkscape:connector-curvature="0"
           id="path9220"
           style="fill:#231f20;fill-opacity:1;fill-rule:nonzero;stroke:none"
           d="m 0,0 c 0,0.219 -0.142,0.365 -0.365,0.365 -0.191,0 -0.375,-0.141 -0.375,-0.293 0.007,-0.265 0.145,-0.456 0.395,-0.456 C -0.13,-0.384 0,-0.222 0,0 m -0.728,0.376 c 0.099,0.099 0.258,0.175 0.465,0.175 0.343,0 0.592,-0.204 0.592,-0.535 0,-0.315 -0.252,-0.595 -0.674,-0.595 -0.454,0 -0.721,0.294 -0.721,0.713 0,0.329 0.139,0.592 0.344,0.762 0.221,0.184 0.555,0.262 0.855,0.262 L 0.136,0.952 c -0.606,0 -0.824,-0.327 -0.869,-0.576 l 0.005,0 z" /></g><g
         transform="translate(98.4175,654.993)"
         id="g9222"><path
           inkscape:connector-curvature="0"
           id="path9224"
           style="fill:#231f20;fill-opacity:1;fill-rule:nonzero;stroke:none"
           d="m 0,0 -0.238,0 0.81,1.844 0.241,0 L 0,0 Z" /></g><g
         transform="translate(100.082,655.096)"
         id="g9226"><path
           inkscape:connector-curvature="0"
           id="path9228"
           style="fill:#231f20;fill-opacity:1;fill-rule:nonzero;stroke:none"
           d="m 0,0 0,1.45 -0.005,0 -0.36,-0.157 -0.074,0.191 0.482,0.203 0.278,0 L 0.321,0 0,0 Z" /></g><g
         transform="translate(102.266,655.65)"
         id="g9230"><path
           inkscape:connector-curvature="0"
           id="path9232"
           style="fill:#231f20;fill-opacity:1;fill-rule:nonzero;stroke:none"
           d="m 0,0 c 0,0.219 -0.142,0.365 -0.366,0.365 -0.19,0 -0.374,-0.141 -0.374,-0.293 0.005,-0.265 0.144,-0.456 0.394,-0.456 C -0.13,-0.384 0,-0.222 0,0 m -0.729,0.376 c 0.099,0.099 0.259,0.175 0.466,0.175 0.342,0 0.592,-0.204 0.592,-0.535 0,-0.315 -0.252,-0.595 -0.675,-0.595 -0.454,0 -0.72,0.294 -0.72,0.713 0,0.329 0.138,0.592 0.343,0.762 0.221,0.184 0.556,0.262 0.856,0.262 L 0.136,0.952 c -0.606,0 -0.825,-0.327 -0.871,-0.576 l 0.006,0 z" /></g><g
         transform="translate(104.464,655.144)"
         id="g9234"><path
           inkscape:connector-curvature="0"
           id="path9236"
           style="fill:#231f20;fill-opacity:1;fill-rule:nonzero;stroke:none"
           d="m 0,0 c -0.091,-0.036 -0.276,-0.072 -0.511,-0.072 -0.603,0 -1.01,0.317 -1.01,0.863 0,0.583 0.466,0.901 1.067,0.901 0.249,0 0.403,-0.042 0.462,-0.067 l -0.07,-0.213 c -0.092,0.033 -0.219,0.062 -0.381,0.062 -0.419,0 -0.731,-0.224 -0.731,-0.67 0,-0.421 0.277,-0.656 0.725,-0.656 0.148,0 0.298,0.024 0.391,0.06 L 0,0 Z" /></g><g
         transform="translate(106.474,655.096)"
         id="g9238"><path
           inkscape:connector-curvature="0"
           id="path9240"
           style="fill:#231f20;fill-opacity:1;fill-rule:nonzero;stroke:none"
           d="m 0,0 -0.329,0 0,0.78 -0.884,0 0,-0.78 -0.329,0 0,1.717 0.329,0 0,-0.709 0.884,0 0,0.709 L 0,1.717 0,0 Z" /></g><g
         transform="translate(109.134,656.588)"
         id="g9242"><path
           inkscape:connector-curvature="0"
           id="path9244"
           style="fill:#231f20;fill-opacity:1;fill-rule:nonzero;stroke:none"
           d="m 0,0 -0.586,0 0,-1.492 -0.329,0 0,1.492 -0.584,0 0,0.223 L 0,0.223 0,0 Z" /></g><g
         transform="translate(110.703,655.096)"
         id="g9246"><path
           inkscape:connector-curvature="0"
           id="path9248"
           style="fill:#231f20;fill-opacity:1;fill-rule:nonzero;stroke:none"
           d="m 0,0 -1.182,0 0,1.715 1.133,0 0,-0.218 -0.805,0 0,-0.495 0.761,0 0,-0.215 -0.761,0 0,-0.569 L 0,0.218 0,0 Z" /></g><g
         transform="translate(112.345,655.096)"
         id="g9250"><path
           inkscape:connector-curvature="0"
           id="path9252"
           style="fill:#231f20;fill-opacity:1;fill-rule:nonzero;stroke:none"
           d="m 0,0 -1.166,0 0,1.715 0.329,0 0,-1.495 L 0,0.22 0,0 Z" /></g><g
         transform="translate(113.961,655.096)"
         id="g9254"><path
           inkscape:connector-curvature="0"
           id="path9256"
           style="fill:#231f20;fill-opacity:1;fill-rule:nonzero;stroke:none"
           d="m 0,0 -1.182,0 0,1.715 1.135,0 0,-0.218 -0.806,0 0,-0.495 0.76,0 0,-0.215 -0.76,0 0,-0.569 L 0,0.218 0,0 Z" /></g><g
         transform="translate(116.513,655.096)"
         id="g9258"><path
           inkscape:connector-curvature="0"
           id="path9260"
           style="fill:#231f20;fill-opacity:1;fill-rule:nonzero;stroke:none"
           d="m 0,0 -0.317,0 -0.048,0.722 c -0.014,0.233 -0.031,0.497 -0.029,0.711 l -0.008,0 C -0.467,1.23 -0.552,1.011 -0.643,0.793 l -0.323,-0.777 -0.247,0 -0.297,0.762 c -0.088,0.224 -0.165,0.448 -0.219,0.655 l -0.009,0 C -1.743,1.219 -1.759,0.948 -1.777,0.708 L -1.826,0 l -0.305,0 0.147,1.717 0.408,0 0.306,-0.756 c 0.08,-0.21 0.145,-0.401 0.199,-0.588 l 0.009,0 c 0.053,0.183 0.122,0.378 0.206,0.591 l 0.315,0.753 0.411,0 L 0,0 Z" /></g><g
         transform="translate(118.233,655.096)"
         id="g9262"><path
           inkscape:connector-curvature="0"
           id="path9264"
           style="fill:#231f20;fill-opacity:1;fill-rule:nonzero;stroke:none"
           d="m 0,0 -1.182,0 0,1.715 1.134,0 0,-0.218 -0.806,0 0,-0.495 0.761,0 0,-0.215 -0.761,0 0,-0.569 L 0,0.218 0,0 Z" /></g><g
         transform="translate(119.999,656.588)"
         id="g9266"><path
           inkscape:connector-curvature="0"
           id="path9268"
           style="fill:#231f20;fill-opacity:1;fill-rule:nonzero;stroke:none"
           d="m 0,0 -0.586,0 0,-1.492 -0.33,0 0,1.492 -0.584,0 0,0.223 1.5,0 L 0,0 Z" /></g><g
         transform="translate(120.933,656.017)"
         id="g9270"><path
           inkscape:connector-curvature="0"
           id="path9272"
           style="fill:#231f20;fill-opacity:1;fill-rule:nonzero;stroke:none"
           d="m 0,0 c 0.272,0 0.442,0.125 0.442,0.308 0,0.221 -0.198,0.298 -0.433,0.298 -0.111,0 -0.191,-0.007 -0.23,-0.016 L -0.221,0 0,0 Z m 0.382,-0.104 c 0.162,-0.048 0.253,-0.168 0.304,-0.35 0.065,-0.225 0.119,-0.4 0.162,-0.466 l -0.341,0 c -0.031,0.049 -0.082,0.199 -0.136,0.41 -0.059,0.229 -0.164,0.316 -0.394,0.316 l -0.198,0 0,-0.726 -0.326,0 0,1.691 c 0.138,0.021 0.331,0.037 0.526,0.037 0.285,0 0.483,-0.041 0.619,-0.137 C 0.712,0.592 0.771,0.474 0.771,0.334 0.771,0.115 0.601,-0.035 0.382,-0.1 l 0,-0.004 z" /></g><g
         transform="translate(123.658,656.811)"
         id="g9274"><path
           inkscape:connector-curvature="0"
           id="path9276"
           style="fill:#231f20;fill-opacity:1;fill-rule:nonzero;stroke:none"
           d="m 0,0 -0.672,-0.991 0,-0.724 -0.329,0 0,0.717 -0.637,0.998 0.371,0 0.254,-0.448 c 0.072,-0.126 0.134,-0.234 0.191,-0.354 l 0.006,0 c 0.054,0.114 0.119,0.228 0.19,0.356 L -0.368,0 0,0 Z" /></g><g
         transform="translate(145.653,646.178)"
         id="g9278"><path
           inkscape:connector-curvature="0"
           id="path9280"
           style="fill:none;stroke:#231f20;stroke-width:0.56699997;stroke-linecap:butt;stroke-linejoin:miter;stroke-miterlimit:10;stroke-dasharray:none;stroke-opacity:1"
           d="m 0,0 c 0,-0.201 -0.078,-0.403 -0.231,-0.557 -0.155,-0.154 -0.356,-0.231 -0.558,-0.231 l -69.383,0 c -0.203,0 -0.404,0.077 -0.558,0.231 -0.154,0.154 -0.231,0.356 -0.231,0.557 l 0,32.327 c 0,0.201 0.077,0.403 0.231,0.558 0.154,0.154 0.355,0.23 0.558,0.23 l 69.383,0 c 0.202,0 0.403,-0.076 0.558,-0.23 C -0.078,32.73 0,32.528 0,32.327 L 0,0 Z" /></g><g
         transform="translate(147.36,644.813)"
         id="g9282"><path
           inkscape:connector-curvature="0"
           id="path9284"
           style="fill:none;stroke:#231f20;stroke-width:0.56699997;stroke-linecap:butt;stroke-linejoin:miter;stroke-miterlimit:10;stroke-dasharray:none;stroke-opacity:1"
           d="m 0,0 c 0,-0.218 -0.084,-0.437 -0.25,-0.604 -0.168,-0.167 -0.386,-0.25 -0.605,-0.25 l -72.665,0 c -0.219,0 -0.437,0.083 -0.605,0.25 -0.167,0.167 -0.25,0.386 -0.25,0.604 l 0,35.058 c 0,0.218 0.083,0.438 0.25,0.605 0.168,0.167 0.386,0.25 0.605,0.25 l 72.665,0 c 0.219,0 0.437,-0.083 0.605,-0.25 C -0.084,35.496 0,35.276 0,35.058 L 0,0 Z" /></g><g
         transform="translate(161.44,675.617)"
         id="g9286"><path
           inkscape:connector-curvature="0"
           id="path9288"
           style="fill:none;stroke:#231f20;stroke-width:0.42500001;stroke-linecap:butt;stroke-linejoin:miter;stroke-miterlimit:10;stroke-dasharray:none;stroke-opacity:1"
           d="m 0,0 -0.515,0 -1.902,0 0,-2.58 1.902,0 0,-1.462 -1.902,0 0,-2.58 1.902,0 0,-1.461 -1.902,0 0,-2.58 1.902,0 0,-1.462 -1.902,0 0,-2.58 1.902,0 0,-1.461 -1.902,0 0,-2.58 1.902,0 0,-1.462 -1.902,0 0,-2.58 1.902,0 0,-1.461 -1.902,0 0,-2.58 1.902,0 0,-0.796 11.125,0 L 10.61,0 0,0 Z" /></g></g></g></svg>