<?xml version="1.0" encoding="UTF-8" standalone="no"?>
<!-- Created with Inkscape (http://www.inkscape.org/) -->

<svg
   xmlns:dc="http://purl.org/dc/elements/1.1/"
   xmlns:cc="http://creativecommons.org/ns#"
   xmlns:rdf="http://www.w3.org/1999/02/22-rdf-syntax-ns#"
   xmlns:svg="http://www.w3.org/2000/svg"
   xmlns="http://www.w3.org/2000/svg"
   xmlns:sodipodi="http://sodipodi.sourceforge.net/DTD/sodipodi-0.dtd"
   xmlns:inkscape="http://www.inkscape.org/namespaces/inkscape"
   version="1.1"
   id="svg1319"
   xml:space="preserve"
   width="816"
   height="1056"
   viewBox="0 0 816 1056"
   sodipodi:docname="RX8R - Product only.svg"
   inkscape:version="0.92.2 (5c3e80d, 2017-08-06)"><metadata
     id="metadata1325"><rdf:RDF><cc:Work
         rdf:about=""><dc:format>image/svg+xml</dc:format><dc:type
           rdf:resource="http://purl.org/dc/dcmitype/StillImage" /><dc:title></dc:title></cc:Work></rdf:RDF></metadata><defs
     id="defs1323"><clipPath
       clipPathUnits="userSpaceOnUse"
       id="clipPath1859"><path
         d="m 95.8868,703.825 h 3.91501 v -5.95898 H 95.8868 Z"
         id="path1857"
         inkscape:connector-curvature="0" /></clipPath><clipPath
       clipPathUnits="userSpaceOnUse"
       id="clipPath1895"><path
         d="m 123.01,700.754 h 4.21399 v -2.89001 H 123.01 Z"
         id="path1893"
         inkscape:connector-curvature="0" /></clipPath><clipPath
       clipPathUnits="userSpaceOnUse"
       id="clipPath1923"><path
         d="m 111.194,700.754 h 4.215 v -2.89001 h -4.215 z"
         id="path1921"
         inkscape:connector-curvature="0" /></clipPath><clipPath
       clipPathUnits="userSpaceOnUse"
       id="clipPath1955"><path
         d="m 117.102,700.754 h 4.215 v -2.89001 h -4.215 z"
         id="path1953"
         inkscape:connector-curvature="0" /></clipPath><clipPath
       clipPathUnits="userSpaceOnUse"
       id="clipPath1987"><path
         d="m 101.496,700.754 h 4.20399 v -2.89001 H 101.496 Z"
         id="path1985"
         inkscape:connector-curvature="0" /></clipPath></defs><sodipodi:namedview
     pagecolor="#ffffff"
     bordercolor="#666666"
     borderopacity="1"
     objecttolerance="10"
     gridtolerance="10"
     guidetolerance="10"
     inkscape:pageopacity="0"
     inkscape:pageshadow="2"
     inkscape:window-width="1680"
     inkscape:window-height="987"
     id="namedview1321"
     showgrid="false"
     inkscape:zoom="10.11377"
     inkscape:cx="126.57795"
     inkscape:cy="917.18075"
     inkscape:window-x="-8"
     inkscape:window-y="-8"
     inkscape:window-maximized="1"
     inkscape:current-layer="g1327" /><g
     id="g1327"
     inkscape:groupmode="layer"
     inkscape:label="RX8R - Product only"
     transform="matrix(1.3333333,0,0,-1.3333333,0,1056)"><g
       id="g1329"
       transform="translate(-18.1822,214.76)"><path
         d="M 90.971,473.555 H 78.268 v 2.39801 h 12.703 z"
         style="fill:#918f90;fill-opacity:1;fill-rule:nonzero;stroke:#231f20;stroke-width:0.28299999;stroke-linecap:butt;stroke-linejoin:miter;stroke-miterlimit:10;stroke-dasharray:none;stroke-opacity:1"
         id="path1331"
         inkscape:connector-curvature="0" /></g><g
       id="g1333"
       transform="translate(-18.1822,214.76)"><path
         d="m 91.535,471.989 h -0.564003 v 5.091 H 91.535 Z"
         style="fill:#918f90;fill-opacity:1;fill-rule:nonzero;stroke:#231f20;stroke-width:0.28299999;stroke-linecap:butt;stroke-linejoin:miter;stroke-miterlimit:10;stroke-dasharray:none;stroke-opacity:1"
         id="path1335"
         inkscape:connector-curvature="0" /></g><g
       id="g1337"
       transform="translate(-18.1822,214.76)"><path
         d="M 90.971,464.041 H 78.268 v 2.397 h 12.703 z"
         style="fill:#918f90;fill-opacity:1;fill-rule:nonzero;stroke:#231f20;stroke-width:0.28299999;stroke-linecap:butt;stroke-linejoin:miter;stroke-miterlimit:10;stroke-dasharray:none;stroke-opacity:1"
         id="path1339"
         inkscape:connector-curvature="0" /></g><g
       id="g1341"
       transform="translate(-18.1822,214.76)"><path
         d="m 91.535,462.475 h -0.564003 v 5.091 H 91.535 Z"
         style="fill:#918f90;fill-opacity:1;fill-rule:nonzero;stroke:#231f20;stroke-width:0.28299999;stroke-linecap:butt;stroke-linejoin:miter;stroke-miterlimit:10;stroke-dasharray:none;stroke-opacity:1"
         id="path1343"
         inkscape:connector-curvature="0" /></g><g
       id="g1345"
       transform="translate(148.368,711.969)"><path
         d="m 0,0 h -73.2 l -0.492,-0.037 -0.415,-0.19 -0.378,-0.302 -0.266,-0.34 -0.188,-0.453 -0.076,-0.453 v -38.396 l 0.076,-0.454 0.188,-0.414 0.266,-0.38 0.378,-0.301 0.415,-0.152 0.492,-0.075 H 0 l 0.454,0.075 0.416,0.152 0.377,0.301 0.265,0.38 0.189,0.414 0.075,0.454 v 38.396 l -0.075,0.453 -0.189,0.453 -0.265,0.34 -0.377,0.302 -0.416,0.19 z"
         style="fill:none;stroke:#231f20;stroke-width:0.85000002;stroke-linecap:butt;stroke-linejoin:miter;stroke-miterlimit:10;stroke-dasharray:none;stroke-opacity:1"
         id="path1347"
         inkscape:connector-curvature="0" /></g><g
       id="g1349"
       transform="translate(146.917,673.619)"><path
         d="m 0,0 c 0,-0.424 -0.162,-0.847 -0.484,-1.171 -0.325,-0.323 -0.747,-0.485 -1.171,-0.485 h -67.027 c -0.424,0 -0.847,0.162 -1.17,0.485 -0.323,0.324 -0.485,0.747 -0.485,1.171 v 34.755 c 0,0.421 0.162,0.845 0.485,1.169 0.323,0.323 0.746,0.485 1.17,0.485 h 67.027 c 0.424,0 0.846,-0.162 1.171,-0.485 C -0.162,35.6 0,35.176 0,34.755 Z"
         style="fill:none;stroke:#231f20;stroke-width:0.56699997;stroke-linecap:butt;stroke-linejoin:miter;stroke-miterlimit:4;stroke-dasharray:none;stroke-opacity:1"
         id="path1351"
         inkscape:connector-curvature="0" /></g><g
       id="g1353"
       transform="translate(82.8955,686.53)"><path
         d="m 0,0 c 0,-1.37 -1.111,-2.482 -2.482,-2.482 -1.37,0 -2.482,1.112 -2.482,2.482 0,1.371 1.112,2.483 2.482,2.483 C -1.111,2.483 0,1.371 0,0 Z"
         style="fill:none;stroke:#7d7b7b;stroke-width:0.56699997;stroke-linecap:butt;stroke-linejoin:miter;stroke-miterlimit:4;stroke-dasharray:none;stroke-opacity:1"
         id="path1355"
         inkscape:connector-curvature="0" /></g><g
       id="g1357"
       transform="translate(-18.1822,214.76)"><path
         d="m 101.078,462.251 h -4.964 v 3.311 h 4.964 z"
         style="fill:#d3d2d2;fill-opacity:1;fill-rule:nonzero;stroke:none"
         id="path1359"
         inkscape:connector-curvature="0" /></g><g
       id="g1361"
       transform="translate(143.538,706.785)"><path
         d="M 0,0 1.349,-0.726 0,-1.451 Z"
         style="fill:#918f90;fill-opacity:1;fill-rule:nonzero;stroke:none"
         id="path1363"
         inkscape:connector-curvature="0" /></g><g
       id="g1365"
       transform="translate(143.538,702.482)"><path
         d="M 0,0 1.349,-0.726 0,-1.452 Z"
         style="fill:#918f90;fill-opacity:1;fill-rule:nonzero;stroke:none"
         id="path1367"
         inkscape:connector-curvature="0" /></g><g
       id="g1369"
       transform="translate(143.538,698.18)"><path
         d="M 0,0 1.349,-0.726 0,-1.452 Z"
         style="fill:#918f90;fill-opacity:1;fill-rule:nonzero;stroke:none"
         id="path1371"
         inkscape:connector-curvature="0" /></g><g
       id="g1373"
       transform="translate(143.538,693.876)"><path
         d="M 0,0 1.349,-0.726 0,-1.451 Z"
         style="fill:#918f90;fill-opacity:1;fill-rule:nonzero;stroke:none"
         id="path1375"
         inkscape:connector-curvature="0" /></g><g
       id="g1377"
       transform="translate(143.538,689.574)"><path
         d="M 0,0 1.349,-0.727 0,-1.452 Z"
         style="fill:#918f90;fill-opacity:1;fill-rule:nonzero;stroke:none"
         id="path1379"
         inkscape:connector-curvature="0" /></g><g
       id="g1381"
       transform="translate(143.538,685.271)"><path
         d="M 0,0 1.349,-0.727 0,-1.452 Z"
         style="fill:#918f90;fill-opacity:1;fill-rule:nonzero;stroke:none"
         id="path1383"
         inkscape:connector-curvature="0" /></g><g
       id="g1385"
       transform="translate(143.538,680.968)"><path
         d="M 0,0 1.349,-0.726 0,-1.452 Z"
         style="fill:#918f90;fill-opacity:1;fill-rule:nonzero;stroke:none"
         id="path1387"
         inkscape:connector-curvature="0" /></g><g
       id="g1389"
       transform="translate(143.538,676.665)"><path
         d="M 0,0 1.349,-0.727 0,-1.452 Z"
         style="fill:#918f90;fill-opacity:1;fill-rule:nonzero;stroke:none"
         id="path1391"
         inkscape:connector-curvature="0" /></g><g
       id="g1393"
       transform="translate(141.822,704.76)"><path
         d="M 0,0 H -0.454 V 1.711 C -0.62,1.556 -0.816,1.442 -1.041,1.367 V 1.78 c 0.12,0.038 0.248,0.112 0.386,0.22 0.139,0.108 0.235,0.234 0.287,0.379 H 0 Z"
         style="fill:#231f20;fill-opacity:1;fill-rule:nonzero;stroke:none"
         id="path1395"
         inkscape:connector-curvature="0" /></g><g
       id="g1397"
       transform="translate(142.194,700.879)"><path
         d="m 0,0 v -0.422 h -1.592 c 0.017,0.16 0.069,0.311 0.155,0.453 0.086,0.143 0.256,0.332 0.511,0.568 0.205,0.191 0.33,0.32 0.376,0.389 0.063,0.092 0.094,0.186 0.094,0.278 0,0.1 -0.027,0.178 -0.081,0.232 C -0.592,1.553 -0.667,1.58 -0.763,1.58 -0.858,1.58 -0.934,1.552 -0.989,1.495 -1.045,1.437 -1.078,1.342 -1.086,1.21 l -0.453,0.046 c 0.028,0.249 0.111,0.428 0.254,0.538 0.142,0.108 0.32,0.162 0.533,0.162 0.234,0 0.418,-0.063 0.552,-0.189 C -0.066,1.642 0,1.485 0,1.298 0,1.19 -0.02,1.089 -0.057,0.993 -0.096,0.896 -0.157,0.795 -0.24,0.689 -0.294,0.62 -0.394,0.519 -0.536,0.388 -0.681,0.255 -0.77,0.168 -0.809,0.126 -0.847,0.082 -0.878,0.041 -0.902,0 Z"
         style="fill:#231f20;fill-opacity:1;fill-rule:nonzero;stroke:none"
         id="path1399"
         inkscape:connector-curvature="0" /></g><g
       id="g1401"
       transform="translate(140.644,696.782)"><path
         d="m 0,0 0.439,0.054 c 0.015,-0.113 0.052,-0.199 0.113,-0.257 0.062,-0.06 0.136,-0.09 0.223,-0.09 0.094,0 0.173,0.036 0.238,0.107 0.063,0.071 0.096,0.167 0.096,0.288 0,0.114 -0.031,0.205 -0.093,0.272 C 0.955,0.44 0.88,0.474 0.792,0.474 0.733,0.474 0.664,0.462 0.583,0.44 l 0.05,0.37 C 0.757,0.807 0.85,0.833 0.913,0.891 0.979,0.946 1.012,1.022 1.012,1.115 1.012,1.195 0.987,1.258 0.94,1.306 0.893,1.353 0.83,1.377 0.751,1.377 0.674,1.377 0.608,1.35 0.552,1.296 0.498,1.243 0.464,1.164 0.453,1.06 L 0.033,1.131 C 0.062,1.274 0.106,1.39 0.165,1.475 0.224,1.56 0.306,1.627 0.411,1.677 0.517,1.727 0.634,1.75 0.764,1.75 0.987,1.75 1.166,1.679 1.301,1.538 1.412,1.421 1.467,1.289 1.467,1.143 1.467,0.935 1.353,0.769 1.126,0.645 1.262,0.616 1.371,0.551 1.452,0.45 1.534,0.349 1.574,0.226 1.574,0.082 c 0,-0.207 -0.077,-0.384 -0.228,-0.531 -0.152,-0.147 -0.341,-0.22 -0.567,-0.22 -0.215,0 -0.393,0.062 -0.533,0.185 C 0.104,-0.36 0.023,-0.199 0,0"
         style="fill:#231f20;fill-opacity:1;fill-rule:nonzero;stroke:none"
         id="path1403"
         inkscape:connector-curvature="0" /></g><g
       id="g1405"
       transform="translate(141.55,692.727)"><path
         d="M 0,0 V 0.81 L -0.544,0 Z m 0,-0.876 v 0.477 h -0.97 v 0.397 L 0.058,1.502 H 0.44 V 0 H 0.733 V -0.399 H 0.44 v -0.477 z"
         style="fill:#231f20;fill-opacity:1;fill-rule:nonzero;stroke:none"
         id="path1407"
         inkscape:connector-curvature="0" /></g><g
       id="g1409"
       transform="translate(140.667,688.158)"><path
         d="m 0,0 0.452,0.047 c 0.013,-0.104 0.051,-0.184 0.115,-0.244 0.064,-0.06 0.137,-0.089 0.22,-0.089 0.094,0 0.175,0.038 0.24,0.115 0.067,0.077 0.099,0.193 0.099,0.348 0,0.145 -0.032,0.255 -0.099,0.327 -0.064,0.074 -0.149,0.11 -0.254,0.11 -0.13,0 -0.247,-0.058 -0.351,-0.173 L 0.055,0.495 0.288,1.727 h 1.2 V 1.302 H 0.632 L 0.56,0.899 c 0.102,0.052 0.205,0.077 0.311,0.077 0.202,0 0.372,-0.073 0.512,-0.22 0.139,-0.147 0.21,-0.337 0.21,-0.57 0,-0.195 -0.057,-0.37 -0.17,-0.523 C 1.269,-0.545 1.056,-0.65 0.782,-0.65 0.562,-0.65 0.385,-0.591 0.247,-0.474 0.109,-0.356 0.026,-0.199 0,0"
         style="fill:#231f20;fill-opacity:1;fill-rule:nonzero;stroke:none"
         id="path1411"
         inkscape:connector-curvature="0" /></g><g
       id="g1413"
       transform="translate(141.169,684.043)"><path
         d="m 0,0 c 0,-0.147 0.034,-0.261 0.101,-0.341 0.068,-0.08 0.146,-0.12 0.234,-0.12 0.083,0 0.154,0.032 0.209,0.098 0.057,0.066 0.084,0.174 0.084,0.323 0,0.154 -0.029,0.267 -0.09,0.339 C 0.478,0.371 0.402,0.406 0.312,0.406 0.225,0.406 0.151,0.372 0.091,0.304 0.031,0.235 0,0.134 0,0 M 1.03,0.991 0.59,0.943 C 0.579,1.033 0.551,1.1 0.506,1.142 0.461,1.186 0.402,1.208 0.33,1.208 0.234,1.208 0.152,1.165 0.086,1.078 0.02,0.993 -0.021,0.812 -0.039,0.541 c 0.114,0.133 0.254,0.2 0.422,0.2 0.19,0 0.352,-0.073 0.487,-0.217 0.135,-0.144 0.203,-0.332 0.203,-0.559 0,-0.242 -0.071,-0.437 -0.214,-0.584 -0.141,-0.146 -0.324,-0.219 -0.547,-0.219 -0.24,0 -0.436,0.092 -0.59,0.278 -0.154,0.186 -0.231,0.491 -0.231,0.914 0,0.435 0.081,0.747 0.241,0.939 0.16,0.192 0.368,0.288 0.625,0.288 0.18,0 0.329,-0.05 0.447,-0.151 C 0.921,1.329 0.997,1.182 1.03,0.991"
         style="fill:#231f20;fill-opacity:1;fill-rule:nonzero;stroke:none"
         id="path1415"
         inkscape:connector-curvature="0" /></g><g
       id="g1417"
       transform="translate(140.66,680.857)"><path
         d="M 0,0 V 0.421 H 1.553 V 0.092 C 1.425,-0.035 1.293,-0.215 1.162,-0.451 1.029,-0.687 0.928,-0.937 0.859,-1.203 0.79,-1.469 0.755,-1.706 0.756,-1.915 H 0.318 c 0.007,0.328 0.075,0.662 0.203,1 0.127,0.342 0.298,0.647 0.512,0.915 z"
         style="fill:#231f20;fill-opacity:1;fill-rule:nonzero;stroke:none"
         id="path1419"
         inkscape:connector-curvature="0" /></g><g
       id="g1421"
       transform="translate(141.143,676.375)"><path
         d="m 0,0 c 0,-0.091 0.025,-0.161 0.077,-0.212 0.051,-0.05 0.118,-0.076 0.204,-0.076 0.086,0 0.155,0.026 0.207,0.076 C 0.54,-0.16 0.566,-0.09 0.566,0.002 0.566,0.086 0.54,0.155 0.489,0.206 0.437,0.258 0.37,0.282 0.287,0.282 0.199,0.282 0.129,0.257 0.078,0.204 0.026,0.154 0,0.085 0,0 m -0.042,-1.015 c 0,-0.125 0.032,-0.222 0.096,-0.293 0.064,-0.07 0.144,-0.104 0.24,-0.104 0.094,0 0.171,0.033 0.234,0.1 0.06,0.068 0.091,0.165 0.091,0.293 0,0.11 -0.031,0.2 -0.094,0.266 -0.062,0.068 -0.141,0.102 -0.237,0.102 -0.111,0 -0.195,-0.039 -0.248,-0.115 -0.055,-0.076 -0.082,-0.16 -0.082,-0.249 m -0.052,0.557 c -0.117,0.05 -0.202,0.118 -0.256,0.204 -0.053,0.088 -0.08,0.183 -0.08,0.286 0,0.177 0.063,0.322 0.184,0.438 0.124,0.115 0.3,0.172 0.527,0.172 0.226,0 0.401,-0.057 0.525,-0.172 0.125,-0.116 0.187,-0.261 0.187,-0.438 0,-0.11 -0.03,-0.207 -0.086,-0.293 C 0.85,-0.348 0.77,-0.412 0.665,-0.458 c 0.132,-0.052 0.233,-0.13 0.3,-0.23 0.07,-0.102 0.103,-0.219 0.103,-0.351 0,-0.219 -0.069,-0.397 -0.209,-0.534 C 0.72,-1.71 0.535,-1.778 0.302,-1.778 c -0.216,0 -0.395,0.056 -0.538,0.17 -0.168,0.133 -0.253,0.316 -0.253,0.549 0,0.128 0.031,0.247 0.095,0.353 0.063,0.107 0.163,0.19 0.3,0.248"
         style="fill:#231f20;fill-opacity:1;fill-rule:nonzero;stroke:none"
         id="path1423"
         inkscape:connector-curvature="0" /></g><g
       id="g1425"
       transform="translate(85.6895,686.53)"><path
         d="m 0,0 c 0,-0.038 -0.021,-0.057 -0.062,-0.057 h -1.736 v -0.549 c 0,-0.037 -0.021,-0.057 -0.063,-0.057 -0.042,0 -0.062,0.02 -0.062,0.057 v 1.271 h 1.861 C -0.021,0.665 0,0.645 0,0.607 0,0.57 -0.021,0.55 -0.062,0.55 H -1.798 V 0.057 h 1.736 C -0.021,0.057 0,0.039 0,0"
         style="fill:#231f20;fill-opacity:1;fill-rule:nonzero;stroke:none"
         id="path1427"
         inkscape:connector-curvature="0" /></g><g
       id="g1429"
       transform="translate(85.6895,686.53)"><path
         d="m 0,0 c 0,-0.038 -0.021,-0.057 -0.062,-0.057 h -1.736 v -0.549 c 0,-0.037 -0.021,-0.057 -0.063,-0.057 -0.042,0 -0.062,0.02 -0.062,0.057 v 1.271 h 1.861 C -0.021,0.665 0,0.645 0,0.607 0,0.57 -0.021,0.55 -0.062,0.55 H -1.798 V 0.057 h 1.736 C -0.021,0.057 0,0.039 0,0 Z"
         style="fill:none;stroke:#231f20;stroke-width:0.28299999;stroke-linecap:butt;stroke-linejoin:miter;stroke-miterlimit:2.41400003;stroke-dasharray:none;stroke-opacity:1"
         id="path1431"
         inkscape:connector-curvature="0" /></g><g
       id="g1433"
       transform="translate(85.9693,685.856)"><path
         d="m 0,0 c -0.042,0 -0.063,0.02 -0.063,0.058 0,0.014 0.007,0.027 0.017,0.037 l 1.35,1.214 c 0.01,0.01 0.025,0.017 0.044,0.017 0.041,0 0.06,-0.019 0.06,-0.055 0,-0.016 -0.006,-0.03 -0.017,-0.04 L 0.042,0.017 C 0.029,0.007 0.016,0 0,0"
         style="fill:#231f20;fill-opacity:1;fill-rule:nonzero;stroke:none"
         id="path1435"
         inkscape:connector-curvature="0" /></g><g
       id="g1437"
       transform="translate(85.9693,685.856)"><path
         d="m 0,0 c -0.042,0 -0.063,0.02 -0.063,0.058 0,0.014 0.007,0.027 0.017,0.037 l 1.35,1.214 c 0.01,0.01 0.025,0.017 0.044,0.017 0.041,0 0.06,-0.019 0.06,-0.055 0,-0.016 -0.006,-0.03 -0.017,-0.04 L 0.042,0.017 C 0.029,0.007 0.016,0 0,0 Z"
         style="fill:none;stroke:#231f20;stroke-width:0.28299999;stroke-linecap:butt;stroke-linejoin:miter;stroke-miterlimit:2.41400003;stroke-dasharray:none;stroke-opacity:1"
         id="path1439"
         inkscape:connector-curvature="0" /></g><g
       id="g1441"
       transform="translate(87.6895,686.385)"><path
         d="m 0,0 c 0.041,0 0.062,-0.019 0.062,-0.058 0,-0.104 0.083,-0.191 0.249,-0.268 0.166,-0.076 0.36,-0.113 0.586,-0.113 0.247,0 0.448,0.022 0.603,0.068 0.156,0.047 0.234,0.105 0.234,0.179 0,0.078 -0.062,0.136 -0.184,0.173 C 1.46,0.01 1.278,0.041 1.004,0.075 L 0.888,0.088 0.783,0.104 C 0.486,0.143 0.294,0.178 0.208,0.203 c -0.182,0.059 -0.273,0.152 -0.273,0.28 0,0.123 0.103,0.216 0.306,0.28 0.17,0.052 0.389,0.078 0.656,0.078 0.271,0 0.498,-0.047 0.684,-0.142 C 1.767,0.604 1.86,0.487 1.86,0.348 1.86,0.31 1.839,0.292 1.797,0.292 1.755,0.292 1.734,0.31 1.734,0.348 1.734,0.451 1.651,0.541 1.485,0.616 1.32,0.692 1.124,0.73 0.897,0.73 0.652,0.73 0.451,0.707 0.295,0.662 0.139,0.616 0.062,0.555 0.062,0.483 0.062,0.406 0.128,0.348 0.259,0.308 0.348,0.28 0.528,0.25 0.799,0.214 L 1.021,0.186 C 1.308,0.151 1.5,0.117 1.599,0.085 1.773,0.028 1.86,-0.064 1.86,-0.192 1.86,-0.315 1.757,-0.408 1.555,-0.471 1.385,-0.524 1.166,-0.55 0.897,-0.55 0.627,-0.55 0.4,-0.503 0.214,-0.407 0.029,-0.313 -0.065,-0.196 -0.065,-0.058 -0.065,-0.019 -0.042,0 0,0"
         style="fill:#231f20;fill-opacity:1;fill-rule:nonzero;stroke:none"
         id="path1443"
         inkscape:connector-curvature="0" /></g><g
       id="g1445"
       transform="translate(87.6895,686.385)"><path
         d="m 0,0 c 0.041,0 0.062,-0.019 0.062,-0.058 0,-0.104 0.083,-0.191 0.249,-0.268 0.166,-0.076 0.36,-0.113 0.586,-0.113 0.247,0 0.448,0.022 0.603,0.068 0.156,0.047 0.234,0.105 0.234,0.179 0,0.078 -0.062,0.136 -0.184,0.173 C 1.46,0.01 1.278,0.041 1.004,0.075 L 0.888,0.088 0.783,0.104 C 0.486,0.143 0.294,0.178 0.208,0.203 c -0.182,0.059 -0.273,0.152 -0.273,0.28 0,0.123 0.103,0.216 0.306,0.28 0.17,0.052 0.389,0.078 0.656,0.078 0.271,0 0.498,-0.047 0.684,-0.142 C 1.767,0.604 1.86,0.487 1.86,0.348 1.86,0.31 1.839,0.292 1.797,0.292 1.755,0.292 1.734,0.31 1.734,0.348 1.734,0.451 1.651,0.541 1.485,0.616 1.32,0.692 1.124,0.73 0.897,0.73 0.652,0.73 0.451,0.707 0.295,0.662 0.139,0.616 0.062,0.555 0.062,0.483 0.062,0.406 0.128,0.348 0.259,0.308 0.348,0.28 0.528,0.25 0.799,0.214 L 1.021,0.186 C 1.308,0.151 1.5,0.117 1.599,0.085 1.773,0.028 1.86,-0.064 1.86,-0.192 1.86,-0.315 1.757,-0.408 1.555,-0.471 1.385,-0.524 1.166,-0.55 0.897,-0.55 0.627,-0.55 0.4,-0.503 0.214,-0.407 0.029,-0.313 -0.065,-0.196 -0.065,-0.058 -0.065,-0.019 -0.042,0 0,0 Z"
         style="fill:none;stroke:#231f20;stroke-width:0.28299999;stroke-linecap:butt;stroke-linejoin:miter;stroke-miterlimit:2.41400003;stroke-dasharray:none;stroke-opacity:1"
         id="path1447"
         inkscape:connector-curvature="0" /></g><g
       id="g1449"
       transform="translate(85.7505,678.328)"><path
         d="M 0,0 C 0,-0.037 -0.016,-0.055 -0.045,-0.055 H -1.36 v 1.268 c 0,0.038 0.014,0.057 0.044,0.057 0.029,0 0.044,-0.019 0.044,-0.057 V 0.056 h 1.227 C -0.016,0.056 0,0.038 0,0"
         style="fill:#231f20;fill-opacity:1;fill-rule:nonzero;stroke:none"
         id="path1451"
         inkscape:connector-curvature="0" /></g><g
       id="g1453"
       transform="translate(85.7505,678.328)"><path
         d="M 0,0 C 0,-0.037 -0.016,-0.055 -0.045,-0.055 H -1.36 v 1.268 c 0,0.038 0.014,0.057 0.044,0.057 0.029,0 0.044,-0.019 0.044,-0.057 V 0.056 h 1.227 C -0.016,0.056 0,0.038 0,0 Z"
         style="fill:none;stroke:#231f20;stroke-width:0.28299999;stroke-linecap:butt;stroke-linejoin:miter;stroke-miterlimit:2.41400003;stroke-dasharray:none;stroke-opacity:1"
         id="path1455"
         inkscape:connector-curvature="0" /></g><g
       id="g1457"
       transform="translate(86.3213,678.891)"><path
         d="m 0,0 v -0.495 h 1.227 c 0.03,0 0.044,-0.019 0.044,-0.056 0,-0.038 -0.014,-0.057 -0.044,-0.057 h -1.316 v 1.327 h 1.316 c 0.03,0 0.044,-0.018 0.044,-0.056 0,-0.037 -0.014,-0.056 -0.044,-0.056 H 0 V 0.113 h 1.227 c 0.03,0 0.044,-0.018 0.044,-0.057 C 1.271,0.018 1.257,0 1.227,0 Z"
         style="fill:#231f20;fill-opacity:1;fill-rule:nonzero;stroke:none"
         id="path1459"
         inkscape:connector-curvature="0" /></g><g
       id="g1461"
       transform="translate(86.3213,678.891)"><path
         d="m 0,0 v -0.495 h 1.227 c 0.03,0 0.044,-0.019 0.044,-0.056 0,-0.038 -0.014,-0.057 -0.044,-0.057 h -1.316 v 1.327 h 1.316 c 0.03,0 0.044,-0.018 0.044,-0.056 0,-0.037 -0.014,-0.056 -0.044,-0.056 H 0 V 0.113 h 1.227 c 0.03,0 0.044,-0.018 0.044,-0.057 C 1.271,0.018 1.257,0 1.227,0 Z"
         style="fill:none;stroke:#231f20;stroke-width:0.28299999;stroke-linecap:butt;stroke-linejoin:miter;stroke-miterlimit:2.41400003;stroke-dasharray:none;stroke-opacity:1"
         id="path1463"
         inkscape:connector-curvature="0" /></g><g
       id="g1465"
       transform="translate(89.2681,678.63)"><path
         d="M 0,0 C 0.052,0.096 0.079,0.202 0.079,0.317 0.079,0.433 0.052,0.54 0,0.635 -0.053,0.731 -0.122,0.798 -0.208,0.836 -0.253,0.857 -0.301,0.868 -0.354,0.868 h -0.75 v -1.101 h 0.75 c 0.053,0 0.101,0.01 0.146,0.03 C -0.122,-0.163 -0.053,-0.096 0,0 M 0.072,0.701 C 0.137,0.586 0.168,0.457 0.168,0.317 0.168,0.176 0.137,0.049 0.072,-0.066 0.008,-0.182 -0.077,-0.262 -0.181,-0.309 -0.237,-0.333 -0.296,-0.347 -0.354,-0.347 H -1.193 V 0.98 h 0.839 c 0.058,0 0.117,-0.012 0.173,-0.037 0.104,-0.047 0.189,-0.127 0.253,-0.242"
         style="fill:#231f20;fill-opacity:1;fill-rule:nonzero;stroke:none"
         id="path1467"
         inkscape:connector-curvature="0" /></g><g
       id="g1469"
       transform="translate(89.2681,678.63)"><path
         d="M 0,0 C 0.052,0.096 0.079,0.202 0.079,0.317 0.079,0.433 0.052,0.54 0,0.635 -0.053,0.731 -0.122,0.798 -0.208,0.836 -0.253,0.857 -0.301,0.868 -0.354,0.868 h -0.75 v -1.101 h 0.75 c 0.053,0 0.101,0.01 0.146,0.03 C -0.122,-0.163 -0.053,-0.096 0,0 Z M 0.072,0.701 C 0.137,0.586 0.168,0.457 0.168,0.317 0.168,0.176 0.137,0.049 0.072,-0.066 0.008,-0.182 -0.077,-0.262 -0.181,-0.309 -0.237,-0.333 -0.296,-0.347 -0.354,-0.347 H -1.193 V 0.98 h 0.839 c 0.058,0 0.117,-0.012 0.173,-0.037 0.104,-0.047 0.189,-0.127 0.253,-0.242 z"
         style="fill:none;stroke:#231f20;stroke-width:0.28299999;stroke-linecap:butt;stroke-linejoin:miter;stroke-miterlimit:2.41400003;stroke-dasharray:none;stroke-opacity:1"
         id="path1471"
         inkscape:connector-curvature="0" /></g><g
       id="g6587"><g
         transform="translate(95.6307,685.252)"
         id="g1473"><path
           inkscape:connector-curvature="0"
           id="path1475"
           style="fill:#231f20;fill-opacity:1;fill-rule:nonzero;stroke:none"
           d="m 0,0 c 0,-0.162 0.145,-0.259 0.357,-0.315 0.154,0.05 0.28,0.165 0.28,0.306 0,0.139 -0.091,0.272 -0.313,0.272 C 0.104,0.263 0,0.134 0,0 m 0.689,-0.881 c 0,0.197 -0.166,0.307 -0.409,0.371 -0.218,-0.059 -0.338,-0.195 -0.338,-0.353 0,-0.174 0.144,-0.315 0.372,-0.315 0.238,0 0.375,0.135 0.375,0.297 m -0.683,0.47 c -0.224,0.092 -0.334,0.242 -0.334,0.395 0,0.282 0.289,0.47 0.664,0.47 0.428,0 0.627,-0.223 0.627,-0.437 0,-0.151 -0.1,-0.31 -0.345,-0.41 v -0.006 c 0.245,-0.085 0.42,-0.24 0.42,-0.456 0,-0.309 -0.309,-0.516 -0.731,-0.516 -0.459,0 -0.712,0.226 -0.712,0.476 0,0.225 0.17,0.388 0.411,0.477 z" /></g><g
         transform="translate(97.1918,683.798)"
         id="g1477"><path
           inkscape:connector-curvature="0"
           id="path1479"
           style="fill:#231f20;fill-opacity:1;fill-rule:nonzero;stroke:none"
           d="M 0,0 H -0.25 L 0.602,1.936 H 0.854 Z" /></g><g
         transform="translate(98.9393,683.907)"
         id="g1481"><path
           inkscape:connector-curvature="0"
           id="path1483"
           style="fill:#231f20;fill-opacity:1;fill-rule:nonzero;stroke:none"
           d="M 0,0 V 1.522 H -0.005 L -0.383,1.356 -0.461,1.557 0.045,1.77 h 0.292 l 0,-1.77 z" /></g><g
         transform="translate(101.233,684.487)"
         id="g1485"><path
           inkscape:connector-curvature="0"
           id="path1487"
           style="fill:#231f20;fill-opacity:1;fill-rule:nonzero;stroke:none"
           d="m 0,0 c 0,0.231 -0.148,0.383 -0.384,0.383 -0.199,0 -0.392,-0.149 -0.392,-0.308 0.006,-0.277 0.15,-0.477 0.413,-0.477 C -0.137,-0.402 0,-0.232 0,0 m -0.764,0.396 c 0.104,0.103 0.27,0.182 0.488,0.182 0.359,0 0.622,-0.213 0.622,-0.561 0,-0.33 -0.265,-0.624 -0.709,-0.624 -0.476,0 -0.756,0.309 -0.756,0.749 0,0.346 0.146,0.62 0.36,0.799 0.233,0.193 0.583,0.275 0.9,0.275 L 0.143,1 C -0.494,1 -0.723,0.657 -0.77,0.396 Z" /></g><g
         transform="translate(103.541,683.956)"
         id="g1489"><path
           inkscape:connector-curvature="0"
           id="path1491"
           style="fill:#231f20;fill-opacity:1;fill-rule:nonzero;stroke:none"
           d="m 0,0 c -0.095,-0.037 -0.289,-0.076 -0.536,-0.076 -0.634,0 -1.059,0.332 -1.059,0.906 0,0.611 0.488,0.945 1.119,0.945 0.261,0 0.422,-0.043 0.484,-0.07 L -0.066,1.482 c -0.095,0.034 -0.229,0.065 -0.399,0.065 -0.44,0 -0.767,-0.235 -0.767,-0.703 0,-0.442 0.291,-0.689 0.761,-0.689 0.155,0 0.312,0.026 0.411,0.063 z" /></g><g
         transform="translate(105.653,683.907)"
         id="g1493"><path
           inkscape:connector-curvature="0"
           id="path1495"
           style="fill:#231f20;fill-opacity:1;fill-rule:nonzero;stroke:none"
           d="M 0,0 H -0.346 V 0.817 H -1.273 V 0 h -0.346 v 1.801 h 0.346 V 1.058 h 0.927 v 0.743 l 0.346,0 z" /></g><g
         transform="translate(109.264,685.472)"
         id="g1497"><path
           inkscape:connector-curvature="0"
           id="path1499"
           style="fill:#231f20;fill-opacity:1;fill-rule:nonzero;stroke:none"
           d="M 0,0 H -0.617 V -1.565 H -0.962 V 0 H -1.575 V 0.233 H 0 Z" /></g><g
         transform="translate(110.91,683.907)"
         id="g1501"><path
           inkscape:connector-curvature="0"
           id="path1503"
           style="fill:#231f20;fill-opacity:1;fill-rule:nonzero;stroke:none"
           d="M 0,0 H -1.241 V 1.799 H -0.05 V 1.57 H -0.896 V 1.051 h 0.798 V 0.826 H -0.896 V 0.229 l 0.896,0 z" /></g><g
         transform="translate(112.637,683.907)"
         id="g1505"><path
           inkscape:connector-curvature="0"
           id="path1507"
           style="fill:#231f20;fill-opacity:1;fill-rule:nonzero;stroke:none"
           d="m 0,0 h -1.224 v 1.799 h 0.345 V 0.23 L 0,0.23 Z" /></g><g
         transform="translate(114.333,683.907)"
         id="g1509"><path
           inkscape:connector-curvature="0"
           id="path1511"
           style="fill:#231f20;fill-opacity:1;fill-rule:nonzero;stroke:none"
           d="m 0,0 h -1.24 v 1.799 h 1.19 V 1.57 H -0.895 V 1.051 h 0.798 V 0.826 H -0.895 V 0.229 l 0.895,0 z" /></g><g
         transform="translate(117.014,683.907)"
         id="g1513"><path
           inkscape:connector-curvature="0"
           id="path1515"
           style="fill:#231f20;fill-opacity:1;fill-rule:nonzero;stroke:none"
           d="m 0,0 h -0.333 l -0.051,0.757 c -0.015,0.244 -0.033,0.522 -0.03,0.745 H -0.422 C -0.491,1.291 -0.58,1.061 -0.676,0.832 L -1.015,0.016 H -1.273 L -1.585,0.815 C -1.678,1.051 -1.758,1.287 -1.816,1.502 H -1.823 C -1.83,1.279 -1.848,0.995 -1.865,0.743 L -1.916,0 h -0.322 l 0.155,1.801 h 0.429 l 0.321,-0.793 c 0.083,-0.22 0.151,-0.42 0.209,-0.618 h 0.008 c 0.056,0.193 0.128,0.398 0.218,0.621 l 0.33,0.79 h 0.431 z" /></g><g
         transform="translate(118.82,683.907)"
         id="g1517"><path
           inkscape:connector-curvature="0"
           id="path1519"
           style="fill:#231f20;fill-opacity:1;fill-rule:nonzero;stroke:none"
           d="m 0,0 h -1.24 v 1.799 h 1.189 V 1.57 H -0.895 V 1.051 h 0.797 V 0.826 H -0.895 V 0.229 l 0.895,0 z" /></g><g
         transform="translate(120.676,685.472)"
         id="g1521"><path
           inkscape:connector-curvature="0"
           id="path1523"
           style="fill:#231f20;fill-opacity:1;fill-rule:nonzero;stroke:none"
           d="M 0,0 H -0.616 V -1.565 H -0.961 V 0 H -1.575 V 0.233 H 0 Z" /></g><g
         transform="translate(121.657,684.874)"
         id="g1525"><path
           inkscape:connector-curvature="0"
           id="path1527"
           style="fill:#231f20;fill-opacity:1;fill-rule:nonzero;stroke:none"
           d="m 0,0 c 0.286,0 0.464,0.128 0.464,0.322 0,0.232 -0.208,0.312 -0.455,0.312 -0.116,0 -0.2,-0.007 -0.241,-0.017 L -0.232,0 Z M 0.402,-0.112 C 0.571,-0.161 0.667,-0.288 0.72,-0.478 0.788,-0.713 0.846,-0.9 0.889,-0.967 H 0.533 c -0.034,0.052 -0.087,0.208 -0.143,0.43 -0.063,0.239 -0.173,0.332 -0.414,0.332 h -0.208 v -0.762 h -0.343 v 1.776 c 0.146,0.021 0.349,0.037 0.555,0.037 0.296,0 0.505,-0.043 0.648,-0.143 C 0.747,0.62 0.809,0.496 0.809,0.35 0.809,0.119 0.631,-0.039 0.402,-0.107 Z" /></g><g
         transform="translate(124.518,685.706)"
         id="g1529"><path
           inkscape:connector-curvature="0"
           id="path1531"
           style="fill:#231f20;fill-opacity:1;fill-rule:nonzero;stroke:none"
           d="M 0,0 -0.705,-1.038 V -1.799 H -1.05 v 0.753 L -1.72,0 h 0.39 l 0.268,-0.47 c 0.074,-0.132 0.139,-0.245 0.199,-0.372 h 0.006 c 0.057,0.12 0.126,0.24 0.199,0.375 L -0.387,0 Z" /></g></g><g
       id="g1533"
       transform="translate(89.7466,704.875)"><path
         d="M 0,0 0.759,-0.756 V -4.514 L 0.037,-5.237 v -5.858 H -4.341 V 0 Z"
         style="fill:#ffffff;fill-opacity:1;fill-rule:nonzero;stroke:none"
         id="path1535"
         inkscape:connector-curvature="0" /></g><g
       id="g1537"
       transform="translate(89.7466,704.875)"><path
         d="M 0,0 0.759,-0.756 V -4.514 L 0.037,-5.237 v -5.858 H -4.341 V 0 Z"
         style="fill:none;stroke:#231f20;stroke-width:0.227;stroke-linecap:butt;stroke-linejoin:miter;stroke-miterlimit:10;stroke-dasharray:none;stroke-opacity:1"
         id="path1539"
         inkscape:connector-curvature="0" /></g><g
       id="g1541"
       transform="translate(85.0083,693.419)"><path
         d="m 0,0 -0.759,0.757 v 3.756 l 0.721,0.724 v 5.858 h 4.38 V 0 Z"
         style="fill:#ffffff;fill-opacity:1;fill-rule:nonzero;stroke:none"
         id="path1543"
         inkscape:connector-curvature="0" /></g><g
       id="g1545"
       transform="translate(85.0083,693.419)"><path
         d="m 0,0 -0.759,0.757 v 3.756 l 0.721,0.724 v 5.858 h 4.38 V 0 Z"
         style="fill:none;stroke:#231f20;stroke-width:0.227;stroke-linecap:butt;stroke-linejoin:miter;stroke-miterlimit:10;stroke-dasharray:none;stroke-opacity:1"
         id="path1547"
         inkscape:connector-curvature="0" /></g><g
       id="g1549"
       transform="translate(84.9966,697.178)"><path
         d="m 0,0 c 0,0.048 0.023,0.094 0.061,0.128 0.04,0.031 0.09,0.04 0.136,0.031 L 0.467,0.1 v -1.828 c 0,-0.026 0.008,-0.049 0.021,-0.069 0.014,-0.018 0.034,-0.03 0.056,-0.033 L 2.373,-2.202 V -2.247 C 2.373,-2.391 2.299,-2.558 2.165,-2.684 2.033,-2.809 1.875,-2.861 1.749,-2.836 L 0.301,-2.535 C 0.212,-2.516 0.136,-2.471 0.082,-2.398 0.027,-2.321 0,-2.228 0,-2.128 Z"
         style="fill:#231f20;fill-opacity:1;fill-rule:nonzero;stroke:none"
         id="path1551"
         inkscape:connector-curvature="0" /></g><g
       id="g1553"
       transform="translate(88.7124,694.135)"><path
         d="M 0,0 C 0,-0.049 -0.022,-0.098 -0.063,-0.128 -0.107,-0.161 -0.158,-0.17 -0.207,-0.154 l -0.539,0.11 v 1.829 c 0,0.027 -0.005,0.051 -0.02,0.069 -0.013,0.02 -0.031,0.03 -0.055,0.035 l -1.725,0.37 v 0.045 c 0,0.144 0.073,0.31 0.207,0.435 0.134,0.127 0.293,0.179 0.415,0.154 L -0.3,2.549 C -0.21,2.531 -0.135,2.485 -0.08,2.41 -0.026,2.336 0,2.243 0,2.141 Z"
         style="fill:#231f20;fill-opacity:1;fill-rule:nonzero;stroke:none"
         id="path1555"
         inkscape:connector-curvature="0" /></g><g
       id="g1557"
       transform="translate(86.166,695.996)"><path
         d="m 0,0 v -0.367 l 1.204,-0.256 v 0.366 z"
         style="fill:#231f20;fill-opacity:1;fill-rule:nonzero;stroke:none"
         id="path1559"
         inkscape:connector-curvature="0" /></g><g
       id="g1561"
       transform="translate(88.3662,698.251)"><path
         d="m 0,0 v 0.424 c 0.006,0.072 -0.016,0.106 -0.064,0.1 H -0.273 C -0.321,0.53 -0.344,0.496 -0.341,0.424 V 0 c 0.006,-0.078 0.024,-0.125 0.055,-0.142 h 0.231 C -0.027,-0.131 -0.009,-0.083 0,0 m 0.315,-0.142 v -0.333 h -0.703 v 0.333 h 0.069 c -0.037,0.017 -0.061,0.067 -0.069,0.15 v 0.524 c 0,0.217 0.048,0.324 0.145,0.324 h 0.145 c 0.099,0 0.148,-0.107 0.144,-0.324 V 0.017 c 0,-0.083 -0.02,-0.137 -0.063,-0.159 z"
         style="fill:#231f20;fill-opacity:1;fill-rule:nonzero;stroke:none"
         id="path1563"
         inkscape:connector-curvature="0" /></g><g
       id="g1565"
       transform="translate(88.0249,700.185)"><path
         d="m 0,0 v -0.549 c 0,-0.055 0.014,-0.08 0.042,-0.075 h 0.521 c 0.032,-0.005 0.046,0.02 0.042,0.075 L 0.605,0 C 0.609,0.044 0.596,0.066 0.568,0.066 H 0.042 C 0.014,0.066 0,0.044 0,0 m 0.657,-0.69 c 0,-0.178 -0.048,-0.266 -0.145,-0.266 H 0.093 c -0.096,0 -0.144,0.088 -0.144,0.266 v 0.058 0.008 0.749 c 0,0.172 0.048,0.26 0.144,0.267 h 0.419 c 0.097,0 0.145,-0.089 0.145,-0.267 v -0.782 -0.026 z"
         style="fill:#231f20;fill-opacity:1;fill-rule:nonzero;stroke:none"
         id="path1567"
         inkscape:connector-curvature="0" /></g><g
       id="g1569"
       transform="translate(88.2935,701.18)"><path
         d="M 0,0 V 0.425 C 0.003,0.479 -0.012,0.51 -0.047,0.516 h -0.18 C -0.255,0.51 -0.27,0.479 -0.273,0.425 V 0 c 0.005,-0.089 0.026,-0.136 0.06,-0.142 h 0.162 C -0.02,-0.131 -0.002,-0.083 0,0 m 0.38,-0.15 v -0.325 h -0.699 v 0.333 h 0.063 C -0.294,-0.115 -0.314,-0.067 -0.319,0 v 0.574 c 0.002,0.176 0.048,0.269 0.135,0.275 h 0.116 C -0.014,0.836 0.022,0.773 0.043,0.657 L 0.312,0.773 C 0.343,0.796 0.369,0.829 0.388,0.873 0.397,0.58 0.364,0.429 0.291,0.425 L 0.047,0.316 V -0.009 C 0.044,-0.075 0.026,-0.122 -0.008,-0.15 Z"
         style="fill:#231f20;fill-opacity:1;fill-rule:nonzero;stroke:none"
         id="path1571"
         inkscape:connector-curvature="0" /></g><g
       id="g1573"
       transform="translate(88.0249,703.365)"><path
         d="M 0,0 V -0.466 H 0.657 V -0.799 H 0 V -1.256 H -0.047 V 0 Z"
         style="fill:#231f20;fill-opacity:1;fill-rule:nonzero;stroke:none"
         id="path1575"
         inkscape:connector-curvature="0" /></g><g
       id="g1577"
       transform="translate(86.2461,698.663)"><path
         d="m 0,0 c -0.324,0.056 -0.586,0.275 -0.586,0.599 0,0.324 0.262,0.447 0.586,0.391 L 0.896,0.832 V 0.552 L 0,0.711 C -0.169,0.741 -0.308,0.72 -0.308,0.549 -0.308,0.381 -0.169,0.308 0,0.28 L 0.896,0.12 v -0.278 z"
         style="fill:#231f20;fill-opacity:1;fill-rule:nonzero;stroke:none"
         id="path1579"
         inkscape:connector-curvature="0" /></g><g
       id="g1581"
       transform="translate(86.2461,697.953)"><path
         d="m 0,0 c -0.324,0.058 -0.586,0.277 -0.586,0.6 0,0.323 0.262,0.447 0.586,0.39 L 0.896,0.83 V 0.552 L 0,0.71 C -0.169,0.74 -0.308,0.72 -0.308,0.55 -0.308,0.381 -0.169,0.309 0,0.279 L 0.896,0.123 v -0.281 z"
         style="fill:#231f20;fill-opacity:1;fill-rule:nonzero;stroke:none"
         id="path1583"
         inkscape:connector-curvature="0" /></g><g
       id="g1585"
       transform="translate(86.2461,699.813)"><path
         d="m 0,0 c -0.324,0.057 -0.586,0.365 -0.586,0.688 0,0.325 0.262,0.542 0.586,0.484 L 0.896,1.014 V 0.734 L 0,0.893 C -0.169,0.921 -0.308,0.809 -0.308,0.64 -0.308,0.471 -0.169,0.31 0,0.28 L 0.896,0.122 V -0.16 Z"
         style="fill:#231f20;fill-opacity:1;fill-rule:nonzero;stroke:none"
         id="path1587"
         inkscape:connector-curvature="0" /></g><g
       id="g1589"
       transform="translate(86.3028,700.694)"><path
         d="m 0,0 v -0.612 l 0.243,-0.041 v 0.61 z"
         style="fill:#231f20;fill-opacity:1;fill-rule:nonzero;stroke:none"
         id="path1591"
         inkscape:connector-curvature="0" /></g><g
       id="g1593"
       transform="translate(85.9912,703.676)"><path
         d="m 0,0 v -1.177 l -0.245,0.043 v 1.179 z"
         style="fill:#231f20;fill-opacity:1;fill-rule:nonzero;stroke:none"
         id="path1595"
         inkscape:connector-curvature="0" /></g><g
       id="g1597"
       transform="translate(85.9912,703.228)"><path
         d="m 0,0 v -0.282 l 1.151,-0.204 v 0.283 z"
         style="fill:#231f20;fill-opacity:1;fill-rule:nonzero;stroke:none"
         id="path1599"
         inkscape:connector-curvature="0" /></g><g
       id="g1601"
       transform="translate(85.9912,701.198)"><path
         d="m 0,0 v 0.723 c 0,0 0.037,0.167 0.145,0.148 C 0.253,0.853 0.312,0.658 0.312,0.658 V -0.054 L 1.151,-0.203 V 0.085 L 0.554,0.19 v 0.424 c 0,0 0.031,0.18 0.143,0.16 L 1.151,0.694 V 0.975 L 0.663,1.062 c 0,0 -0.23,-0.021 -0.23,-0.23 0,0 -0.053,0.28 -0.294,0.322 0,0 -0.384,0.063 -0.384,-0.361 v -0.75"
         style="fill:#231f20;fill-opacity:1;fill-rule:nonzero;stroke:none"
         id="path1603"
         inkscape:connector-curvature="0" /></g><g
       id="g1605"
       transform="translate(87.5166,697.736)"><path
         d="M 0,0 V 5.88"
         style="fill:none;stroke:#231f20;stroke-width:0.227;stroke-linecap:butt;stroke-linejoin:miter;stroke-miterlimit:10;stroke-dasharray:none;stroke-opacity:1"
         id="path1607"
         inkscape:connector-curvature="0" /></g><g
       id="g1609"
       transform="translate(82.897,692.94)"><path
         d="m 0,0 h -3.807 v 11.13 h 1.885 v 2.11 H 0 Z"
         style="fill:none;stroke:#231f20;stroke-width:0.56699997;stroke-linecap:butt;stroke-linejoin:miter;stroke-miterlimit:10;stroke-dasharray:none;stroke-opacity:1"
         id="path1611"
         inkscape:connector-curvature="0" /></g><g
       id="g1613"
       transform="translate(81.8789,702.799)"><path
         d="m 0,0 c 0.026,0 0.054,-0.013 0.073,-0.035 0.019,-0.023 0.024,-0.053 0.019,-0.08 L 0.056,-0.274 h -1.065 c -0.016,0 -0.03,-0.002 -0.04,-0.01 -0.012,-0.008 -0.018,-0.019 -0.02,-0.033 l -0.217,-1.066 h -0.025 c -0.084,0 -0.182,0.043 -0.255,0.12 -0.075,0.077 -0.104,0.168 -0.089,0.243 l 0.176,0.846 c 0.01,0.051 0.036,0.096 0.08,0.126 C -1.355,-0.018 -1.3,0 -1.241,0 Z"
         style="fill:#231f20;fill-opacity:1;fill-rule:nonzero;stroke:none"
         id="path1615"
         inkscape:connector-curvature="0" /></g><g
       id="g1617"
       transform="translate(80.103,700.632)"><path
         d="m 0,0 c -0.03,0 -0.056,0.014 -0.075,0.038 -0.02,0.024 -0.023,0.056 -0.017,0.082 l 0.067,0.315 h 1.066 c 0.015,0 0.029,0.004 0.04,0.011 0.01,0.008 0.019,0.02 0.022,0.033 l 0.214,1.007 h 0.028 c 0.083,0 0.18,-0.043 0.253,-0.122 C 1.672,1.287 1.703,1.195 1.687,1.122 L 1.486,0.175 C 1.476,0.124 1.45,0.079 1.408,0.048 1.363,0.015 1.308,0 1.249,0 Z"
         style="fill:#231f20;fill-opacity:1;fill-rule:nonzero;stroke:none"
         id="path1619"
         inkscape:connector-curvature="0" /></g><g
       id="g1621"
       transform="translate(81.188,702.117)"><path
         d="m 0,0 h -0.214 l -0.148,-0.701 h 0.213 z"
         style="fill:#231f20;fill-opacity:1;fill-rule:nonzero;stroke:none"
         id="path1623"
         inkscape:connector-curvature="0" /></g><g
       id="g1625"
       transform="translate(-18.1822,214.76)"><path
         d="m 100.093,479.893 h -1.82 v 0.332 h 1.82 z"
         style="fill:#231f20;fill-opacity:1;fill-rule:nonzero;stroke:none"
         id="path1627"
         inkscape:connector-curvature="0" /></g><g
       id="g1629"
       transform="translate(-18.1822,214.76)"><path
         d="m 100.093,483.133 h -1.82 v 0.332 h 1.82 z"
         style="fill:#231f20;fill-opacity:1;fill-rule:nonzero;stroke:none"
         id="path1631"
         inkscape:connector-curvature="0" /></g><g
       id="g1633"
       transform="translate(-18.1822,214.76)"><path
         d="m 99.017,484.209 h 0.331001 v -1.82101 H 99.017 Z"
         style="fill:#231f20;fill-opacity:1;fill-rule:nonzero;stroke:none"
         id="path1635"
         inkscape:connector-curvature="0" /></g><g
       id="g1637"
       transform="translate(130.98,699.004)"><path
         d="M 0,0 H 0.768 V -1.535 H 1.536 V 0 h 0.769"
         style="fill:none;stroke:#231f20;stroke-width:0.30000001;stroke-linecap:butt;stroke-linejoin:miter;stroke-miterlimit:10;stroke-dasharray:none;stroke-opacity:1"
         id="path1639"
         inkscape:connector-curvature="0" /></g><g
       id="g1641"
       transform="translate(130.252,707.318)"><path
         d="M 0,0 H 3.808 V -11.129 H 1.922 V -13.24 H 0 Z"
         style="fill:none;stroke:#231f20;stroke-width:0.56699997;stroke-linecap:butt;stroke-linejoin:miter;stroke-miterlimit:10;stroke-dasharray:none;stroke-opacity:1"
         id="path1643"
         inkscape:connector-curvature="0" /></g><g
       id="g1645"
       transform="translate(-18.1822,214.76)"><path
         d="m 149.405,490.788 h 1.82001 v -0.33099 H 149.405 Z"
         style="fill:#231f20;fill-opacity:1;fill-rule:nonzero;stroke:none"
         id="path1647"
         inkscape:connector-curvature="0" /></g><g
       id="g1649"
       transform="translate(-18.1822,214.76)"><path
         d="m 149.405,487.216 h 1.82001 v -0.33099 H 149.405 Z"
         style="fill:#231f20;fill-opacity:1;fill-rule:nonzero;stroke:none"
         id="path1651"
         inkscape:connector-curvature="0" /></g><g
       id="g1653"
       transform="translate(-18.1822,214.76)"><path
         d="m 150.481,486.141 h -0.33099 v 1.82001 h 0.33099 z"
         style="fill:#231f20;fill-opacity:1;fill-rule:nonzero;stroke:none"
         id="path1655"
         inkscape:connector-curvature="0" /></g><g
       id="g1657"
       transform="translate(116.051,676.635)"><path
         d="M 0,0 H 0.843 L 0.907,0.474 C 0.954,0.817 0.876,1.081 0.522,1.11 H -1.174 C -1.531,1.076 -1.81,0.863 -1.977,0.434 l -0.43,-1.755 c -0.098,-0.425 0.014,-0.716 0.494,-0.772 h 8.481 c 0.727,0 1.225,1.903 0.466,1.915 H 5.654 C 5.395,-0.195 5.372,0.438 5.729,0.468 H 8.693 L 8.066,-2.109 h 0.757 l 0.623,2.59 h 0.842 l 0.321,0.63 H 5.552 C 5.186,1.145 4.952,0.965 4.823,0.608 L 4.665,-0.068 C 4.54,-0.697 4.727,-0.796 4.97,-0.803 H 6.408 C 6.737,-0.814 6.564,-1.448 6.263,-1.424 H 1.676 l 0.385,1.52 C 2.133,0.342 2.243,0.421 2.37,0.425 H 3.208 C 3.34,0.429 3.401,0.314 3.354,0.022 h 0.81 l 0.11,0.586 C 4.312,0.886 4.253,1.101 3.872,1.11 H 2.156 C 1.846,1.099 1.547,0.884 1.395,0.531 l -0.441,-1.923 -2.318,0.005 c -0.125,0 -0.245,0.138 -0.176,0.495 l 0.266,1.01 c 0.041,0.171 0.139,0.286 0.335,0.28 l 0.755,0.008 c 0.145,0.008 0.21,-0.101 0.179,-0.35 z"
         style="fill:#231f20;fill-opacity:1;fill-rule:evenodd;stroke:none"
         id="path1659"
         inkscape:connector-curvature="0" /></g><g
       id="g1661"
       transform="translate(110.248,675.775)"><path
         d="M 0,0 -0.389,-0.601 H 3.007 L 2.905,0.021 Z"
         style="fill:#918f90;fill-opacity:1;fill-rule:evenodd;stroke:none"
         id="path1663"
         inkscape:connector-curvature="0" /></g><g
       id="g1665"
       transform="translate(125.846,678.094)"><path
         d="m 0,0 v 0.144 l 0.6,0.78 C 0.53,0.92 0.472,0.918 0.418,0.918 H 0.036 V 1.064 H 0.805 V 0.945 L 0.295,0.27 0.197,0.144 c 0.071,0.007 0.139,0.01 0.2,0.01 H 0.832 L 0.832,0 Z m -1.3,0 v 1.469 h 0.171 V 0.867 h 0.674 v 0.602 h 0.172 V 0 H -0.455 V 0.691 H -1.129 V 0 Z m -0.91,0.577 v 0.172 h 0.548 V 0.203 C -1.746,0.126 -1.832,0.071 -1.924,0.03 c -0.089,-0.037 -0.18,-0.056 -0.275,-0.056 -0.127,0 -0.242,0.03 -0.346,0.092 -0.107,0.062 -0.185,0.151 -0.239,0.267 -0.051,0.117 -0.077,0.248 -0.077,0.393 0,0.144 0.026,0.279 0.077,0.402 0.054,0.124 0.131,0.216 0.228,0.278 0.099,0.059 0.213,0.089 0.344,0.089 0.094,0 0.177,-0.018 0.253,-0.053 C -1.88,1.409 -1.823,1.363 -1.78,1.301 -1.735,1.237 -1.704,1.158 -1.683,1.058 L -1.835,1.01 C -1.855,1.085 -1.879,1.145 -1.908,1.188 -1.937,1.229 -1.979,1.265 -2.032,1.29 -2.086,1.315 -2.146,1.328 -2.21,1.328 -2.292,1.328 -2.358,1.315 -2.416,1.286 -2.471,1.261 -2.518,1.225 -2.554,1.181 -2.587,1.136 -2.615,1.088 -2.637,1.035 c -0.031,-0.09 -0.05,-0.189 -0.05,-0.297 0,-0.13 0.021,-0.24 0.061,-0.329 0.041,-0.087 0.097,-0.153 0.175,-0.198 0.076,-0.041 0.157,-0.064 0.242,-0.064 0.074,0 0.147,0.02 0.219,0.05 0.07,0.032 0.124,0.067 0.159,0.104 V 0.577 Z M -3.483,0.516 V 1.181 L -3.888,0.516 Z m 0,-0.516 v 0.35 h -0.563 v 0.166 l 0.593,0.953 h 0.13 V 0.516 h 0.176 V 0.35 H -3.323 V 0 Z M -4.51,0.203 h 0.183 V 0 H -4.51 Z M -4.87,0.172 V 0 h -0.861 c 0,0.042 0.004,0.083 0.021,0.124 0.021,0.068 0.055,0.132 0.103,0.194 0.05,0.066 0.12,0.139 0.209,0.224 0.143,0.131 0.237,0.236 0.288,0.314 0.049,0.075 0.074,0.147 0.074,0.214 0,0.072 -0.023,0.132 -0.069,0.183 -0.045,0.05 -0.103,0.073 -0.177,0.073 -0.075,0 -0.136,-0.025 -0.184,-0.077 C -5.512,1.197 -5.535,1.123 -5.535,1.032 L -5.699,1.05 c 0.011,0.139 0.053,0.246 0.127,0.319 0.073,0.07 0.171,0.108 0.296,0.108 0.124,0 0.222,-0.04 0.293,-0.119 0.073,-0.077 0.108,-0.175 0.108,-0.293 0,-0.058 -0.007,-0.114 -0.03,-0.171 C -4.926,0.838 -4.961,0.775 -5.01,0.714 -5.06,0.652 -5.142,0.565 -5.255,0.455 -5.351,0.365 -5.413,0.301 -5.442,0.27 -5.469,0.238 -5.49,0.205 -5.507,0.172 Z"
         style="fill:#231f20;fill-opacity:1;fill-rule:nonzero;stroke:none"
         id="path1667"
         inkscape:connector-curvature="0" /></g><g
       id="g1669"
       transform="translate(111.864,677.666)"><path
         d="M 0,0 H 0.977 L 1.493,-3.214 H 0.609 l -0.291,2.353 -1.526,-2.371 h -0.853 z"
         style="fill:#231f20;fill-opacity:1;fill-rule:evenodd;stroke:none"
         id="path1671"
         inkscape:connector-curvature="0" /></g><g
       id="g1673"
       transform="translate(133.187,682.815)"><path
         d="M 0,0 H -0.768 V 1.534 H -1.536 V 0 h -0.768"
         style="fill:none;stroke:#231f20;stroke-width:0.30000001;stroke-linecap:butt;stroke-linejoin:miter;stroke-miterlimit:10;stroke-dasharray:none;stroke-opacity:1"
         id="path1675"
         inkscape:connector-curvature="0" /></g><g
       id="g1677"
       transform="translate(133.916,674.499)"><path
         d="m 0,0 h -3.808 v 11.13 h 1.885 v 2.11 H 0 Z"
         style="fill:none;stroke:#231f20;stroke-width:0.56699997;stroke-linecap:butt;stroke-linejoin:miter;stroke-miterlimit:10;stroke-dasharray:none;stroke-opacity:1"
         id="path1679"
         inkscape:connector-curvature="0" /></g><g
       id="g1681"
       transform="translate(-18.1822,214.76)"><path
         d="m 151.127,461.51 h -1.82001 v 0.33099 h 1.82001 z"
         style="fill:#231f20;fill-opacity:1;fill-rule:nonzero;stroke:none"
         id="path1683"
         inkscape:connector-curvature="0" /></g><g
       id="g1685"
       transform="translate(-18.1822,214.76)"><path
         d="m 151.127,465.082 h -1.82001 v 0.33099 h 1.82001 z"
         style="fill:#231f20;fill-opacity:1;fill-rule:nonzero;stroke:none"
         id="path1687"
         inkscape:connector-curvature="0" /></g><g
       id="g1689"
       transform="translate(-18.1822,214.76)"><path
         d="m 150.051,466.157 h 0.33099 v -1.82001 H 150.051 Z"
         style="fill:#231f20;fill-opacity:1;fill-rule:nonzero;stroke:none"
         id="path1691"
         inkscape:connector-curvature="0" /></g><g
       id="g1693"
       transform="translate(69.1914,699.763)"><path
         d="m 0,0 h -4.51 v 14.025 h 2.436 v 1.845 l 2.074,0 z"
         style="fill:none;stroke:#231f20;stroke-width:0.56699997;stroke-linecap:butt;stroke-linejoin:miter;stroke-miterlimit:10;stroke-dasharray:none;stroke-opacity:1"
         id="path1695"
         inkscape:connector-curvature="0" /></g><g
       id="g1697"
       transform="translate(-18.1822,214.76)"><path
         d="m 85.561,495.737 h -1.044 v 1.04401 h 1.044 z"
         style="fill:#231f20;fill-opacity:1;fill-rule:nonzero;stroke:none"
         id="path1699"
         inkscape:connector-curvature="0" /></g><g
       id="g1701"
       transform="translate(-18.1822,214.76)"><path
         d="m 85.561,491.445 h -1.044 v 1.04401 h 1.044 z"
         style="fill:#231f20;fill-opacity:1;fill-rule:nonzero;stroke:none"
         id="path1703"
         inkscape:connector-curvature="0" /></g><g
       id="g1705"
       transform="translate(-18.1822,214.76)"><path
         d="m 85.561,487.153 h -1.044 v 1.04401 h 1.044 z"
         style="fill:#231f20;fill-opacity:1;fill-rule:nonzero;stroke:none"
         id="path1707"
         inkscape:connector-curvature="0" /></g><g
       id="g1709"
       transform="translate(71.7705,707.654)"><path
         d="m 0,0 c 0,-5.465 -2.119,-9.895 -4.733,-9.895 -2.614,0 -4.733,4.43 -4.733,9.895 0,5.464 2.119,9.894 4.733,9.894 C -2.119,9.894 0,5.464 0,0 Z"
         style="fill:none;stroke:#231f20;stroke-width:0.42500001;stroke-linecap:butt;stroke-linejoin:miter;stroke-miterlimit:10;stroke-dasharray:none;stroke-opacity:1"
         id="path1711"
         inkscape:connector-curvature="0" /></g><g
       id="g1713"
       transform="translate(183.432,671.325)"><path
         d="m 0,0 c 0,-0.527 -0.2,-1.055 -0.601,-1.458 -0.4,-0.403 -0.926,-0.603 -1.451,-0.603 H -24.12 c -0.525,0 -1.05,0.2 -1.451,0.603 -0.401,0.403 -0.601,0.931 -0.601,1.458 v 38.61 c 0,0.524 0.199,1.049 0.597,1.449 0.398,0.4 0.92,0.6 1.442,0.6 h 22.081 c 0.525,0 1.051,-0.201 1.451,-0.604 C -0.2,39.652 0,39.125 0,38.597 Z"
         style="fill:none;stroke:#231f20;stroke-width:0.85000002;stroke-linecap:butt;stroke-linejoin:miter;stroke-miterlimit:10;stroke-dasharray:none;stroke-opacity:1"
         id="path1715"
         inkscape:connector-curvature="0" /></g><g
       id="g1717"
       transform="translate(181.478,671.368)"><path
         d="m 0,0 h -4.51 v 14.025 h 2.436 v 1.845 l 2.074,0 z"
         style="fill:none;stroke:#231f20;stroke-width:0.56699997;stroke-linecap:butt;stroke-linejoin:miter;stroke-miterlimit:10;stroke-dasharray:none;stroke-opacity:1"
         id="path1719"
         inkscape:connector-curvature="0" /></g><g
       id="g1721"
       transform="translate(-18.1822,214.76)"><path
         d="m 197.848,467.219 h -1.04401 v 1.02899 h 1.04401 z"
         style="fill:#231f20;fill-opacity:1;fill-rule:nonzero;stroke:none"
         id="path1723"
         inkscape:connector-curvature="0" /></g><g
       id="g1725"
       transform="translate(-18.1822,214.76)"><path
         d="m 197.848,462.989 h -1.04401 v 1.02899 h 1.04401 z"
         style="fill:#231f20;fill-opacity:1;fill-rule:nonzero;stroke:none"
         id="path1727"
         inkscape:connector-curvature="0" /></g><g
       id="g1729"
       transform="translate(-18.1822,214.76)"><path
         d="m 197.848,458.757 h -1.04401 v 1.02899 h 1.04401 z"
         style="fill:#231f20;fill-opacity:1;fill-rule:nonzero;stroke:none"
         id="path1731"
         inkscape:connector-curvature="0" /></g><g
       id="g1733"
       transform="translate(176.968,708.441)"><path
         d="M 0,0 H 4.51 V -14.025 H 2.073 v -1.845 l -2.073,0 z"
         style="fill:none;stroke:#231f20;stroke-width:0.56699997;stroke-linecap:butt;stroke-linejoin:miter;stroke-miterlimit:10;stroke-dasharray:none;stroke-opacity:1"
         id="path1735"
         inkscape:connector-curvature="0" /></g><g
       id="g1737"
       transform="translate(-18.1822,214.76)"><path
         d="m 196.962,483.07 h 1.04401 v -1.02899 H 196.962 Z"
         style="fill:#231f20;fill-opacity:1;fill-rule:nonzero;stroke:none"
         id="path1739"
         inkscape:connector-curvature="0" /></g><g
       id="g1741"
       transform="translate(-18.1822,214.76)"><path
         d="m 196.962,487.301 h 1.04401 v -1.02899 H 196.962 Z"
         style="fill:#231f20;fill-opacity:1;fill-rule:nonzero;stroke:none"
         id="path1743"
         inkscape:connector-curvature="0" /></g><g
       id="g1745"
       transform="translate(-18.1822,214.76)"><path
         d="m 196.962,491.532 h 1.04401 v -1.02802 H 196.962 Z"
         style="fill:#231f20;fill-opacity:1;fill-rule:nonzero;stroke:none"
         id="path1747"
         inkscape:connector-curvature="0" /></g><g
       id="g1749"
       transform="translate(161.506,708.684)"><path
         d="m 0,0 h -0.696 -1.973 v -1.775 h 1.973 v -2.947 h -1.973 v -1.774 h 1.973 v -2.947 h -1.973 v -1.775 h 1.973 v -2.947 h -1.973 v -1.775 h 1.973 v -2.947 h -1.973 v -1.775 h 1.973 v -2.947 h -1.973 v -1.775 h 1.973 v -2.947 h -1.973 v -1.774 h 1.973 v -2.947 h -1.973 v -1.775 h 1.973 v -2.672 h 14.2 V 0 Z"
         style="fill:none;stroke:#231f20;stroke-width:0.56699997;stroke-linecap:butt;stroke-linejoin:miter;stroke-miterlimit:10;stroke-dasharray:none;stroke-opacity:1"
         id="path1751"
         inkscape:connector-curvature="0" /></g><g
       id="g1753"
       transform="translate(-18.1822,214.76)"><path
         d="m 182.032,491.255 h -0.929 v 0.92899 h 0.929 z"
         style="fill:#231f20;fill-opacity:1;fill-rule:nonzero;stroke:none"
         id="path1755"
         inkscape:connector-curvature="0" /></g><g
       id="g1757"
       transform="translate(-18.1822,214.76)"><path
         d="m 186.376,491.255 h -0.927 v 0.92899 h 0.927 z"
         style="fill:#231f20;fill-opacity:1;fill-rule:nonzero;stroke:none"
         id="path1759"
         inkscape:connector-curvature="0" /></g><g
       id="g1761"
       transform="translate(-18.1822,214.76)"><path
         d="m 190.721,491.255 h -0.929 v 0.92899 h 0.929 z"
         style="fill:#231f20;fill-opacity:1;fill-rule:nonzero;stroke:none"
         id="path1763"
         inkscape:connector-curvature="0" /></g><g
       id="g1765"
       transform="translate(-18.1822,214.76)"><path
         d="m 182.032,486.561 h -0.929 v 0.92801 h 0.929 z"
         style="fill:#231f20;fill-opacity:1;fill-rule:nonzero;stroke:none"
         id="path1767"
         inkscape:connector-curvature="0" /></g><g
       id="g1769"
       transform="translate(-18.1822,214.76)"><path
         d="m 186.376,486.561 h -0.927 v 0.92801 h 0.927 z"
         style="fill:#231f20;fill-opacity:1;fill-rule:nonzero;stroke:none"
         id="path1771"
         inkscape:connector-curvature="0" /></g><g
       id="g1773"
       transform="translate(-18.1822,214.76)"><path
         d="m 190.721,486.561 h -0.929 v 0.92801 h 0.929 z"
         style="fill:#231f20;fill-opacity:1;fill-rule:nonzero;stroke:none"
         id="path1775"
         inkscape:connector-curvature="0" /></g><g
       id="g1777"
       transform="translate(-18.1822,214.76)"><path
         d="m 182.032,481.867 h -0.929 v 0.92899 h 0.929 z"
         style="fill:#231f20;fill-opacity:1;fill-rule:nonzero;stroke:none"
         id="path1779"
         inkscape:connector-curvature="0" /></g><g
       id="g1781"
       transform="translate(-18.1822,214.76)"><path
         d="m 186.376,481.867 h -0.927 v 0.92899 h 0.927 z"
         style="fill:#231f20;fill-opacity:1;fill-rule:nonzero;stroke:none"
         id="path1783"
         inkscape:connector-curvature="0" /></g><g
       id="g1785"
       transform="translate(-18.1822,214.76)"><path
         d="m 190.721,481.867 h -0.929 v 0.92899 h 0.929 z"
         style="fill:#231f20;fill-opacity:1;fill-rule:nonzero;stroke:none"
         id="path1787"
         inkscape:connector-curvature="0" /></g><g
       id="g1789"
       transform="translate(-18.1822,214.76)"><path
         d="m 182.032,477.173 h -0.929 v 0.92899 h 0.929 z"
         style="fill:#231f20;fill-opacity:1;fill-rule:nonzero;stroke:none"
         id="path1791"
         inkscape:connector-curvature="0" /></g><g
       id="g1793"
       transform="translate(-18.1822,214.76)"><path
         d="m 186.376,477.173 h -0.927 v 0.92899 h 0.927 z"
         style="fill:#231f20;fill-opacity:1;fill-rule:nonzero;stroke:none"
         id="path1795"
         inkscape:connector-curvature="0" /></g><g
       id="g1797"
       transform="translate(-18.1822,214.76)"><path
         d="m 190.721,477.173 h -0.929 v 0.92899 h 0.929 z"
         style="fill:#231f20;fill-opacity:1;fill-rule:nonzero;stroke:none"
         id="path1799"
         inkscape:connector-curvature="0" /></g><g
       id="g1801"
       transform="translate(-18.1822,214.76)"><path
         d="m 182.032,472.478 h -0.929 v 0.92801 h 0.929 z"
         style="fill:#231f20;fill-opacity:1;fill-rule:nonzero;stroke:none"
         id="path1803"
         inkscape:connector-curvature="0" /></g><g
       id="g1805"
       transform="translate(-18.1822,214.76)"><path
         d="m 186.376,472.478 h -0.927 v 0.92801 h 0.927 z"
         style="fill:#231f20;fill-opacity:1;fill-rule:nonzero;stroke:none"
         id="path1807"
         inkscape:connector-curvature="0" /></g><g
       id="g1809"
       transform="translate(-18.1822,214.76)"><path
         d="m 190.721,472.478 h -0.929 v 0.92801 h 0.929 z"
         style="fill:#231f20;fill-opacity:1;fill-rule:nonzero;stroke:none"
         id="path1811"
         inkscape:connector-curvature="0" /></g><g
       id="g1813"
       transform="translate(-18.1822,214.76)"><path
         d="m 182.032,467.784 h -0.929 v 0.92801 h 0.929 z"
         style="fill:#231f20;fill-opacity:1;fill-rule:nonzero;stroke:none"
         id="path1815"
         inkscape:connector-curvature="0" /></g><g
       id="g1817"
       transform="translate(-18.1822,214.76)"><path
         d="m 186.376,467.784 h -0.927 v 0.92801 h 0.927 z"
         style="fill:#231f20;fill-opacity:1;fill-rule:nonzero;stroke:none"
         id="path1819"
         inkscape:connector-curvature="0" /></g><g
       id="g1821"
       transform="translate(-18.1822,214.76)"><path
         d="m 190.721,467.784 h -0.929 v 0.92801 h 0.929 z"
         style="fill:#231f20;fill-opacity:1;fill-rule:nonzero;stroke:none"
         id="path1823"
         inkscape:connector-curvature="0" /></g><g
       id="g1825"
       transform="translate(-18.1822,214.76)"><path
         d="m 182.032,463.09 h -0.929 v 0.92801 h 0.929 z"
         style="fill:#231f20;fill-opacity:1;fill-rule:nonzero;stroke:none"
         id="path1827"
         inkscape:connector-curvature="0" /></g><g
       id="g1829"
       transform="translate(-18.1822,214.76)"><path
         d="m 186.376,463.09 h -0.927 v 0.92801 h 0.927 z"
         style="fill:#231f20;fill-opacity:1;fill-rule:nonzero;stroke:none"
         id="path1831"
         inkscape:connector-curvature="0" /></g><g
       id="g1833"
       transform="translate(-18.1822,214.76)"><path
         d="m 190.721,463.09 h -0.929 v 0.92801 h 0.929 z"
         style="fill:#231f20;fill-opacity:1;fill-rule:nonzero;stroke:none"
         id="path1835"
         inkscape:connector-curvature="0" /></g><g
       id="g1837"
       transform="translate(-18.1822,214.76)"><path
         d="m 182.032,458.396 h -0.929 v 0.92801 h 0.929 z"
         style="fill:#231f20;fill-opacity:1;fill-rule:nonzero;stroke:none"
         id="path1839"
         inkscape:connector-curvature="0" /></g><g
       id="g1841"
       transform="translate(-18.1822,214.76)"><path
         d="m 186.376,458.396 h -0.927 v 0.92801 h 0.927 z"
         style="fill:#231f20;fill-opacity:1;fill-rule:nonzero;stroke:none"
         id="path1843"
         inkscape:connector-curvature="0" /></g><g
       id="g1845"
       transform="translate(-18.1822,214.76)"><path
         d="m 190.721,458.396 h -0.929 v 0.92801 h 0.929 z"
         style="fill:#231f20;fill-opacity:1;fill-rule:nonzero;stroke:none"
         id="path1847"
         inkscape:connector-curvature="0" /></g><g
       id="g1849"
       transform="translate(176.968,711.984)"><path
         d="M 0,0 V -42.72"
         style="fill:#7b7979;fill-opacity:1;fill-rule:nonzero;stroke:#231f20;stroke-width:0.56699997;stroke-linecap:butt;stroke-linejoin:miter;stroke-miterlimit:10;stroke-dasharray:none;stroke-opacity:1"
         id="path1851"
         inkscape:connector-curvature="0" /></g><g
       id="g1873"
       transform="translate(123.751,699.67)"><path
         d="M 0,0 H -0.019 V 0.028 C -0.019,0.015 -0.011,0.004 0,0"
         style="fill:#231f20;fill-opacity:1;fill-rule:nonzero;stroke:none"
         id="path1875"
         inkscape:connector-curvature="0" /></g><g
       id="g1877"
       transform="translate(126.502,699.697)"><path
         d="M 0,0 V -0.028 H -0.018 C -0.007,-0.023 0,-0.012 0,0"
         style="fill:#231f20;fill-opacity:1;fill-rule:nonzero;stroke:none"
         id="path1879"
         inkscape:connector-curvature="0" /></g><g
       id="g1881"
       transform="translate(126.502,698.966)"><path
         d="M 0,0 V -0.028 C 0,-0.015 -0.009,-0.003 -0.022,0 Z"
         style="fill:#231f20;fill-opacity:1;fill-rule:nonzero;stroke:none"
         id="path1883"
         inkscape:connector-curvature="0" /></g><g
       id="g1885"
       transform="translate(126.502,698.631)"><path
         d="M 0,0 V -0.027 H -0.018 C -0.007,-0.023 0,-0.012 0,0"
         style="fill:#231f20;fill-opacity:1;fill-rule:nonzero;stroke:none"
         id="path1887"
         inkscape:connector-curvature="0" /></g><g
       id="g1901"
       transform="translate(111.938,699.67)"><path
         d="M 0,0 H -0.022 V 0.022 C -0.019,0.011 -0.011,0.003 0,0"
         style="fill:#231f20;fill-opacity:1;fill-rule:nonzero;stroke:none"
         id="path1903"
         inkscape:connector-curvature="0" /></g><g
       id="g1905"
       transform="translate(111.916,700.049)"><path
         d="M 0,0 H 0.028 C 0.014,0 0.003,-0.009 0,-0.023 Z"
         style="fill:#231f20;fill-opacity:1;fill-rule:nonzero;stroke:none"
         id="path1907"
         inkscape:connector-curvature="0" /></g><g
       id="g1909"
       transform="translate(114.685,698.966)"><path
         d="M 0,0 V -0.023 C -0.003,-0.01 -0.015,0 -0.029,0 Z"
         style="fill:#231f20;fill-opacity:1;fill-rule:nonzero;stroke:none"
         id="path1911"
         inkscape:connector-curvature="0" /></g><g
       id="g1913"
       transform="translate(114.685,698.627)"><path
         d="M 0,0 V -0.023 H -0.023 C -0.012,-0.02 -0.003,-0.012 0,0"
         style="fill:#231f20;fill-opacity:1;fill-rule:nonzero;stroke:none"
         id="path1915"
         inkscape:connector-curvature="0" /></g><g
       id="g1929"
       transform="translate(117.825,698.948)"><path
         d="M 0,0 H 0.02 C 0.009,-0.004 0,-0.015 0,-0.028 Z"
         style="fill:#231f20;fill-opacity:1;fill-rule:nonzero;stroke:none"
         id="path1931"
         inkscape:connector-curvature="0" /></g><g
       id="g1933"
       transform="translate(117.846,699.67)"><path
         d="M 0,0 H -0.022 V 0.029 C -0.022,0.015 -0.012,0.003 0,0"
         style="fill:#231f20;fill-opacity:1;fill-rule:nonzero;stroke:none"
         id="path1935"
         inkscape:connector-curvature="0" /></g><g
       id="g1937"
       transform="translate(119.871,699.692)"><path
         d="M 0,0 V -0.023 H -0.022 C -0.011,-0.02 -0.003,-0.011 0,0"
         style="fill:#231f20;fill-opacity:1;fill-rule:nonzero;stroke:none"
         id="path1939"
         inkscape:connector-curvature="0" /></g><g
       id="g1941"
       transform="translate(120.593,698.948)"><path
         d="M 0,0 V -0.029 C 0,-0.015 -0.01,-0.003 -0.023,0 Z"
         style="fill:#231f20;fill-opacity:1;fill-rule:nonzero;stroke:none"
         id="path1943"
         inkscape:connector-curvature="0" /></g><g
       id="g1945"
       transform="translate(120.615,699.67)"><path
         d="M 0,0 H -0.022 V 0.029 C -0.022,0.015 -0.012,0.003 0,0"
         style="fill:#231f20;fill-opacity:1;fill-rule:nonzero;stroke:none"
         id="path1947"
         inkscape:connector-curvature="0" /></g><g
       id="g1961"
       transform="translate(108.115,698.952)"><path
         d="M 0,0 H 0.021 C 0.011,-0.003 0.003,-0.011 0,-0.02 Z"
         style="fill:#231f20;fill-opacity:1;fill-rule:nonzero;stroke:none"
         id="path1963"
         inkscape:connector-curvature="0" /></g><g
       id="g1969"
       transform="translate(102.24,699.67)"><path
         d="M 0,0 H -0.021 V 0.021 C -0.018,0.011 -0.01,0.003 0,0"
         style="fill:#231f20;fill-opacity:1;fill-rule:nonzero;stroke:none"
         id="path1971"
         inkscape:connector-curvature="0" /></g><g
       id="g1973"
       transform="translate(102.219,698.948)"><path
         d="M 0,0 H 0.021 C 0.011,-0.003 0.003,-0.012 0,-0.022 Z"
         style="fill:#231f20;fill-opacity:1;fill-rule:nonzero;stroke:none"
         id="path1975"
         inkscape:connector-curvature="0" /></g><g
       id="g1977"
       transform="translate(102.219,700.049)"><path
         d="M 0,0 H 0.023 C 0.012,-0.003 0.003,-0.012 0,-0.023 Z"
         style="fill:#231f20;fill-opacity:1;fill-rule:nonzero;stroke:none"
         id="path1979"
         inkscape:connector-curvature="0" /></g><g
       id="g2956"><g
         id="g2906"><g
           id="g1853"><g
             id="g1855"
             clip-path="url(#clipPath1859)"><g
               id="g1861"
               transform="translate(99.802,699.539)"><path
                 d="m 0,0 v -1.673 h -1.898 v 2.028 c 0,0.215 -0.175,0.391 -0.391,0.391 -0.215,0 -0.391,-0.176 -0.391,-0.391 V -1.673 H -2.692 -3.915 V 4.285 H -2.12 C -0.95,4.285 0,3.336 0,2.165 0,1.524 -0.283,0.951 -0.732,0.564 L -0.73,0.56 C -0.798,0.501 -0.84,0.416 -0.84,0.318 -0.84,0.143 -0.697,0 -0.522,0 Z"
                 style="fill:#231f20;fill-opacity:1;fill-rule:nonzero;stroke:none"
                 id="path1863"
                 inkscape:connector-curvature="0" /></g></g></g><g
           id="g1865"
           transform="translate(-18.1822,214.76)"><path
             d="m 113.281,483.104 h -1.156 v 4.98199 h 1.156 z"
             style="fill:#231f20;fill-opacity:1;fill-rule:nonzero;stroke:none"
             id="path1867"
             inkscape:connector-curvature="0" /></g><g
           id="g1869"
           transform="translate(-18.1822,214.76)"><path
             d="m 111.335,483.104 h -0.578 v 3.354 h 0.578 z"
             style="fill:#231f20;fill-opacity:1;fill-rule:nonzero;stroke:none"
             id="path1871"
             inkscape:connector-curvature="0" /></g></g><g
         id="g2926"><g
           id="g1889"><g
             id="g1891"
             clip-path="url(#clipPath1895)"><g
               id="g1897"
               transform="translate(126.484,699.67)"><path
                 d="M 0,0 H 0.018 V 0.028 1.084 H 0.74 v -2.89 h -4.215 v 0.74 H 0 0.018 v 0.028 0.307 0.028 h -0.022 -3.471 v 1.787 h 0.722 V 0.028 0 h 0.019 z"
                 style="fill:#231f20;fill-opacity:1;fill-rule:nonzero;stroke:none"
                 id="path1899"
                 inkscape:connector-curvature="0" /></g></g></g><g
           id="g1917"><g
             id="g1919"
             clip-path="url(#clipPath1923)"><g
               id="g1925"
               transform="translate(111.916,699.691)"><path
                 d="m 0,0 v -0.022 h 0.022 3.471 v -1.806 h -4.215 v 0.741 H 2.747 2.77 v 0.023 0.316 0.023 H 2.741 -0.722 V 1.063 H 3.493 V 0.358 H 0.028 L 0,0.358 V 0.335 Z"
                 style="fill:#231f20;fill-opacity:1;fill-rule:nonzero;stroke:none"
                 id="path1927"
                 inkscape:connector-curvature="0" /></g></g></g><g
           id="g1949"><g
             id="g1951"
             clip-path="url(#clipPath1955)"><g
               id="g1957"
               transform="translate(120.615,699.67)"><path
                 d="m 0,0 h 0.702 v -1.806 h -0.724 v 1.056 0.028 H -0.045 -2.77 -2.79 v -0.027 -1.057 h -0.723 v 2.89 H -2.79 V 0.029 0 h 0.022 2.002 0.022 v 0.023 1.061 h 0.722 V 0.029 l 0,-0.029 z"
                 style="fill:#231f20;fill-opacity:1;fill-rule:nonzero;stroke:none"
                 id="path1959"
                 inkscape:connector-curvature="0" /></g></g></g><g
           id="g1965"
           transform="translate(108.115,698.931)"><path
             d="M 0,0 V -1.067 H -0.722 V 0.736 H 1.385 V 0.02 H 0.021 L 0,0.02 Z"
             style="fill:#231f20;fill-opacity:1;fill-rule:nonzero;stroke:none"
             id="path1967"
             inkscape:connector-curvature="0" /></g><g
           id="g1981"><g
             id="g1983"
             clip-path="url(#clipPath1987)"><g
               id="g1989"
               transform="translate(102.24,699.67)"><path
                 d="M 0,0 H 3.46 V -0.722 H 0 -0.021 v -0.021 -1.063 h -0.723 v 2.89 H 3.46 V 0.379 H 0.002 -0.021 V 0.356 0.021 l 0,-0.021 z"
                 style="fill:#231f20;fill-opacity:1;fill-rule:nonzero;stroke:none"
                 id="path1991"
                 inkscape:connector-curvature="0" /></g></g></g></g></g><g
       id="g2604"><g
         transform="translate(99.0788,691.966)"
         id="g1993"><path
           inkscape:connector-curvature="0"
           id="path1995"
           style="fill:#231f20;fill-opacity:1;fill-rule:nonzero;stroke:none"
           d="m 0,0 c 0.423,-0.462 0.635,-1.025 0.635,-1.69 v -2.544 h -2.188 v 2.551 c 0.01,0.379 -0.117,0.627 -0.381,0.742 h -1.69 -2.05 l 0.003,-1.226 v -2.086 h -2.092 v 5.516 h 2.075 V 0.891 h 3.021 c 0.244,-0.011 0.498,0.112 0.762,0.372 H 0.268 L 0.279,1.084 C 0.279,0.741 0.092,0.38 -0.282,0 Z m -5.688,2.056 h -2.075 v 2.098 l 5.459,-0.006 c 0.812,0 1.457,-0.266 1.937,-0.798 C 0.064,2.866 0.276,2.435 0.268,2.056 H -1.99 l -0.109,0.08 c -0.146,0.161 -0.331,0.25 -0.555,0.266 h -3.034 z" /></g><g
         transform="translate(108.018,696.053)"
         id="g1997"><path
           inkscape:connector-curvature="0"
           id="path1999"
           style="fill:#231f20;fill-opacity:1;fill-rule:nonzero;stroke:none"
           d="M 0,0 H 2.463 L 0.939,-2.031 h -2.442 z m -0.007,-8.345 -2.252,3.083 c -0.018,0.041 -0.046,0.068 -0.084,0.08 -0.031,0.017 -0.07,0.025 -0.117,0.025 -0.044,0 -0.081,-0.009 -0.111,-0.028 -0.029,-0.019 -0.047,-0.044 -0.054,-0.077 l -2.301,-3.083 h -2.463 l 0.776,1.083 c 0.172,0.24 0.345,0.481 0.519,0.725 0.141,0.198 0.297,0.421 0.469,0.668 0.031,0.041 0.173,0.248 0.427,0.619 l 0.688,1.077 -0.917,1.35 h 2.568 l 0.184,-0.248 c 0.05,-0.083 0.121,-0.124 0.215,-0.124 0.094,0 0.162,0.036 0.201,0.106 l 0.205,0.266 h 2.626 l -0.911,-1.35 2.816,-4.172 z M -5.879,-2.031 -7.403,0 h 2.463 l 1.503,-2.031 z" /></g><g
         transform="translate(116.264,689.49)"
         id="g2001"><path
           inkscape:connector-curvature="0"
           id="path2003"
           style="fill:#231f20;fill-opacity:1;fill-rule:nonzero;stroke:none"
           d="m 0,0 c 0.231,0 0.413,0.078 0.547,0.235 0.134,0.157 0.201,0.335 0.201,0.533 0,0.198 -0.061,0.367 -0.183,0.507 -0.137,0.153 -0.34,0.239 -0.611,0.26 H -2.163 C -2.389,1.514 -2.57,1.428 -2.706,1.275 -2.829,1.135 -2.89,0.966 -2.89,0.768 -2.89,0.57 -2.823,0.392 -2.689,0.235 -2.555,0.078 -2.372,0 -2.142,0 h 0.953 z m -2.495,-1.765 c -0.814,0 -1.46,0.271 -1.941,0.811 -0.435,0.483 -0.652,1.073 -0.652,1.771 0,0.297 0.049,0.587 0.146,0.87 0.098,0.283 0.243,0.533 0.436,0.752 -0.193,0.202 -0.342,0.444 -0.448,0.724 -0.106,0.281 -0.156,0.473 -0.149,0.576 h 1.257 1.016 C -2.609,3.495 -2.379,3.374 -2.142,3.374 H 0 c 0.238,0 0.467,0.121 0.688,0.365 H 1.704 2.96 C 2.968,3.636 2.918,3.444 2.812,3.163 2.707,2.883 2.557,2.641 2.365,2.439 2.557,2.22 2.702,1.97 2.8,1.687 2.898,1.404 2.947,1.114 2.947,0.817 2.947,0.119 2.729,-0.471 2.294,-0.954 1.814,-1.494 1.167,-1.765 0.353,-1.765 l -1.5,0.007 z M 0.332,6.624 C 1.143,6.624 1.789,6.358 2.269,5.825 2.699,5.342 2.93,4.911 2.96,4.531 H 0.646 L 0.536,4.612 C 0.391,4.773 0.206,4.862 -0.017,4.878 H -2.146 C -2.369,4.862 -2.554,4.773 -2.699,4.612 l -0.11,-0.081 h -2.315 c 0.031,0.38 0.262,0.811 0.692,1.294 0.48,0.533 1.123,0.803 1.93,0.811 h 1.539 z" /></g><g
         transform="translate(127.848,691.966)"
         id="g2005"><path
           inkscape:connector-curvature="0"
           id="path2007"
           style="fill:#231f20;fill-opacity:1;fill-rule:nonzero;stroke:none"
           d="m 0,0 c 0.423,-0.462 0.635,-1.025 0.635,-1.69 v -2.544 h -2.188 v 2.551 c 0.01,0.379 -0.117,0.627 -0.381,0.742 h -1.69 -2.05 l 0.003,-1.226 v -2.086 h -2.092 v 5.516 h 2.075 V 0.891 h 3.021 c 0.244,-0.011 0.498,0.112 0.762,0.372 H 0.268 L 0.279,1.084 C 0.279,0.741 0.092,0.38 -0.282,0 Z m -5.688,2.056 h -2.075 v 2.098 l 5.459,-0.006 c 0.812,0 1.457,-0.266 1.937,-0.798 C 0.064,2.866 0.276,2.435 0.268,2.056 H -1.99 l -0.109,0.08 c -0.146,0.161 -0.331,0.25 -0.555,0.266 h -3.034 z" /></g></g><g
       id="g2009"
       transform="translate(137.543,693.558)"><path
         d="m 0,0 -0.041,0.422 c 0.142,0.025 0.246,0.077 0.312,0.154 0.066,0.078 0.1,0.183 0.1,0.315 0,0.139 -0.03,0.244 -0.089,0.315 C 0.223,1.277 0.154,1.312 0.075,1.312 0.024,1.312 -0.019,1.297 -0.055,1.268 -0.09,1.238 -0.122,1.186 -0.148,1.112 -0.166,1.061 -0.197,0.945 -0.242,0.765 -0.299,0.532 -0.37,0.369 -0.454,0.275 -0.572,0.144 -0.716,0.078 -0.886,0.078 c -0.11,0 -0.212,0.03 -0.307,0.093 -0.096,0.061 -0.168,0.151 -0.218,0.267 -0.049,0.117 -0.074,0.258 -0.074,0.423 0,0.27 0.059,0.473 0.177,0.609 0.118,0.136 0.276,0.208 0.473,0.215 L -0.816,1.251 C -0.926,1.232 -1.005,1.192 -1.054,1.132 -1.102,1.07 -1.126,0.979 -1.126,0.857 c 0,-0.126 0.025,-0.225 0.077,-0.296 0.033,-0.046 0.078,-0.069 0.133,-0.069 0.051,0 0.095,0.022 0.131,0.065 0.046,0.054 0.094,0.187 0.143,0.398 0.05,0.211 0.102,0.367 0.155,0.468 0.053,0.101 0.126,0.181 0.218,0.237 0.093,0.058 0.207,0.086 0.342,0.086 0.123,0 0.239,-0.034 0.346,-0.102 C 0.526,1.575 0.606,1.479 0.659,1.354 0.71,1.229 0.737,1.073 0.737,0.886 0.737,0.615 0.674,0.406 0.548,0.261 0.423,0.115 0.24,0.028 0,0"
         style="fill:#231f20;fill-opacity:1;fill-rule:nonzero;stroke:none"
         id="path2011"
         inkscape:connector-curvature="0" /></g><g
       id="g2013"
       transform="translate(137.306,695.954)"><path
         d="M 0,0 H 0.574 V 0.401 C 0.574,0.558 0.57,0.657 0.561,0.699 0.549,0.763 0.521,0.815 0.475,0.856 0.43,0.896 0.369,0.917 0.293,0.917 0.229,0.917 0.174,0.901 0.129,0.87 0.084,0.839 0.051,0.793 0.031,0.734 0.01,0.675 0,0.547 0,0.35 Z m -0.854,0 h 0.497 v 0.284 c 0,0.169 -0.003,0.274 -0.008,0.315 -0.009,0.074 -0.034,0.132 -0.077,0.175 -0.042,0.042 -0.098,0.064 -0.167,0.064 -0.067,0 -0.12,-0.019 -0.162,-0.055 C -0.812,0.746 -0.838,0.692 -0.847,0.62 -0.852,0.577 -0.854,0.453 -0.854,0.249 Z m -0.357,-0.434 v 0.859 c 0,0.17 0.007,0.297 0.021,0.38 0.014,0.084 0.044,0.158 0.088,0.224 0.045,0.066 0.105,0.121 0.18,0.165 0.075,0.044 0.158,0.066 0.251,0.066 0.101,0 0.193,-0.028 0.277,-0.081 0.084,-0.055 0.147,-0.128 0.189,-0.221 0.038,0.131 0.103,0.231 0.195,0.302 0.092,0.07 0.199,0.105 0.323,0.105 0.098,0 0.193,-0.022 0.285,-0.068 C 0.691,1.252 0.765,1.189 0.82,1.111 0.875,1.032 0.909,0.936 0.921,0.82 0.929,0.748 0.934,0.574 0.936,0.297 v -0.731 z"
         style="fill:#231f20;fill-opacity:1;fill-rule:nonzero;stroke:none"
         id="path2015"
         inkscape:connector-curvature="0" /></g><g
       id="g2017"
       transform="translate(136.094,697.532)"><path
         d="m 0,0 v 0.434 h 1.163 c 0.185,0 0.304,0.005 0.359,0.016 0.088,0.018 0.159,0.062 0.211,0.133 0.054,0.069 0.08,0.165 0.08,0.286 0,0.123 -0.024,0.215 -0.075,0.278 C 1.688,1.209 1.626,1.247 1.553,1.26 1.479,1.272 1.358,1.279 1.188,1.279 H 0 v 0.433 h 1.128 c 0.258,0 0.44,-0.011 0.546,-0.035 C 1.781,1.654 1.871,1.611 1.944,1.547 2.017,1.485 2.076,1.4 2.119,1.295 2.162,1.189 2.184,1.052 2.184,0.882 2.184,0.677 2.16,0.521 2.113,0.416 2.066,0.309 2.004,0.226 1.929,0.164 1.853,0.103 1.773,0.062 1.69,0.042 1.567,0.014 1.386,0 1.146,0 Z"
         style="fill:#231f20;fill-opacity:1;fill-rule:nonzero;stroke:none"
         id="path2019"
         inkscape:connector-curvature="0" /></g><g
       id="g2021"
       transform="translate(137.543,699.441)"><path
         d="m 0,0 -0.041,0.422 c 0.142,0.025 0.246,0.077 0.312,0.154 0.066,0.078 0.1,0.183 0.1,0.315 0,0.139 -0.03,0.244 -0.089,0.315 C 0.223,1.277 0.154,1.312 0.075,1.312 0.024,1.312 -0.019,1.297 -0.055,1.268 -0.09,1.238 -0.122,1.186 -0.148,1.112 -0.166,1.061 -0.197,0.945 -0.242,0.765 -0.299,0.532 -0.37,0.369 -0.454,0.275 -0.572,0.144 -0.716,0.078 -0.886,0.078 c -0.11,0 -0.212,0.03 -0.307,0.093 -0.096,0.061 -0.168,0.151 -0.218,0.267 -0.049,0.117 -0.074,0.258 -0.074,0.423 0,0.27 0.059,0.473 0.177,0.609 0.118,0.136 0.276,0.208 0.473,0.215 L -0.816,1.251 C -0.926,1.232 -1.005,1.192 -1.054,1.132 -1.102,1.07 -1.126,0.979 -1.126,0.857 c 0,-0.126 0.025,-0.225 0.077,-0.296 0.033,-0.046 0.078,-0.069 0.133,-0.069 0.051,0 0.095,0.022 0.131,0.065 0.046,0.054 0.094,0.187 0.143,0.398 0.05,0.211 0.102,0.367 0.155,0.468 0.053,0.101 0.126,0.181 0.218,0.237 0.093,0.058 0.207,0.086 0.342,0.086 0.123,0 0.239,-0.034 0.346,-0.102 C 0.526,1.575 0.606,1.479 0.659,1.354 0.71,1.229 0.737,1.073 0.737,0.886 0.737,0.615 0.674,0.406 0.548,0.261 0.423,0.115 0.24,0.028 0,0"
         style="fill:#231f20;fill-opacity:1;fill-rule:nonzero;stroke:none"
         id="path2023"
         inkscape:connector-curvature="0" /></g><g
       id="g2025"
       transform="translate(137.166,702.445)"><path
         d="m 0,0 c 0.243,0 0.428,0.056 0.553,0.168 0.126,0.113 0.188,0.255 0.188,0.428 0,0.173 -0.062,0.315 -0.186,0.425 -0.125,0.111 -0.312,0.167 -0.561,0.167 -0.246,0 -0.43,-0.054 -0.551,-0.162 -0.121,-0.108 -0.181,-0.251 -0.181,-0.43 0,-0.179 0.061,-0.323 0.183,-0.432 C -0.432,0.055 -0.247,0 0,0 m 0.015,-0.447 c -0.219,0 -0.403,0.033 -0.551,0.098 -0.11,0.049 -0.208,0.116 -0.295,0.201 -0.086,0.084 -0.151,0.176 -0.193,0.277 -0.057,0.134 -0.085,0.288 -0.085,0.463 0,0.316 0.098,0.569 0.295,0.76 0.196,0.189 0.469,0.284 0.818,0.284 0.347,0 0.619,-0.094 0.814,-0.282 C 1.014,1.165 1.112,0.913 1.112,0.598 1.112,0.278 1.015,0.024 0.819,-0.164 0.625,-0.353 0.356,-0.447 0.015,-0.447"
         style="fill:#231f20;fill-opacity:1;fill-rule:nonzero;stroke:none"
         id="path2027"
         inkscape:connector-curvature="0" /></g><g
       id="g2029"
       transform="translate(136.094,704.267)"><path
         d="m 0,0 v 0.434 h 1.163 c 0.185,0 0.304,0.005 0.359,0.016 0.088,0.018 0.159,0.062 0.211,0.133 0.054,0.069 0.08,0.165 0.08,0.286 0,0.123 -0.024,0.215 -0.075,0.278 C 1.688,1.209 1.626,1.247 1.553,1.26 1.479,1.272 1.358,1.279 1.188,1.279 H 0 v 0.433 h 1.128 c 0.258,0 0.44,-0.011 0.546,-0.035 C 1.781,1.654 1.871,1.611 1.944,1.547 2.017,1.485 2.076,1.4 2.119,1.295 2.162,1.189 2.184,1.052 2.184,0.882 2.184,0.677 2.16,0.521 2.113,0.416 2.066,0.309 2.004,0.226 1.929,0.164 1.853,0.103 1.773,0.062 1.69,0.042 1.567,0.014 1.386,0 1.146,0 Z"
         style="fill:#231f20;fill-opacity:1;fill-rule:nonzero;stroke:none"
         id="path2031"
         inkscape:connector-curvature="0" /></g><g
       id="g2033"
       transform="translate(138.242,706.77)"><path
         d="m 0,0 h -1.784 v -0.637 h -0.363 v 1.706 h 0.363 V 0.434 l 1.784,0 z"
         style="fill:#231f20;fill-opacity:1;fill-rule:nonzero;stroke:none"
         id="path2035"
         inkscape:connector-curvature="0" /></g><g
       id="g2037"
       transform="translate(137.003,677.782)"><path
         d="M 0,0 V 0.321 C 0,0.529 -0.009,0.659 -0.026,0.71 -0.044,0.762 -0.074,0.803 -0.117,0.832 -0.16,0.861 -0.214,0.876 -0.278,0.876 -0.351,0.876 -0.408,0.856 -0.453,0.818 -0.497,0.779 -0.525,0.725 -0.537,0.655 -0.542,0.62 -0.545,0.514 -0.545,0.338 V 0 Z m 1.239,-0.434 h -2.147 v 0.913 c 0,0.229 0.019,0.396 0.057,0.5 0.039,0.104 0.108,0.188 0.206,0.25 0.099,0.063 0.212,0.094 0.339,0.094 0.161,0 0.294,-0.048 0.399,-0.142 C 0.198,1.086 0.265,0.944 0.292,0.756 0.347,0.85 0.406,0.927 0.472,0.988 0.537,1.049 0.653,1.131 0.82,1.235 L 1.239,1.497 V 0.979 L 0.772,0.665 C 0.605,0.554 0.5,0.478 0.456,0.437 0.413,0.396 0.383,0.352 0.367,0.306 0.351,0.26 0.343,0.187 0.343,0.088 V 0 h 0.896 z"
         style="fill:#231f20;fill-opacity:1;fill-rule:nonzero;stroke:none"
         id="path2039"
         inkscape:connector-curvature="0" /></g><g
       id="g2041"
       transform="translate(138.242,679.295)"><path
         d="M 0,0 -1.12,0.734 -2.147,0.069 v 0.507 l 0.69,0.43 -0.69,0.422 V 1.931 L -1.104,1.263 0,1.997 V 1.474 L -0.742,0.998 0,0.52 Z"
         style="fill:#231f20;fill-opacity:1;fill-rule:nonzero;stroke:none"
         id="path2043"
         inkscape:connector-curvature="0" /></g><g
       id="g2045"
       transform="translate(-18.1822,214.76)"><path
         d="m 156.425,467.575 h -2.147 v 0.43399 h 2.147 z"
         style="fill:#231f20;fill-opacity:1;fill-rule:nonzero;stroke:none"
         id="path2047"
         inkscape:connector-curvature="0" /></g><g
       id="g2049"
       transform="translate(138.242,683.186)"><path
         d="m 0,0 h -2.147 v 0.422 l 1.434,0.879 H -2.147 V 1.704 H 0 V 1.269 L -1.4,0.403 H 0 Z"
         style="fill:#231f20;fill-opacity:1;fill-rule:nonzero;stroke:none"
         id="path2051"
         inkscape:connector-curvature="0" /></g></g></svg>