<?xml version="1.0" encoding="UTF-8" standalone="no"?>
<!-- Created with Inkscape (http://www.inkscape.org/) -->

<svg
   xmlns:dc="http://purl.org/dc/elements/1.1/"
   xmlns:cc="http://creativecommons.org/ns#"
   xmlns:rdf="http://www.w3.org/1999/02/22-rdf-syntax-ns#"
   xmlns:svg="http://www.w3.org/2000/svg"
   xmlns="http://www.w3.org/2000/svg"
   xmlns:sodipodi="http://sodipodi.sourceforge.net/DTD/sodipodi-0.dtd"
   xmlns:inkscape="http://www.inkscape.org/namespaces/inkscape"
   version="1.1"
   id="svg3128"
   xml:space="preserve"
   width="816"
   height="1056"
   viewBox="0 0 816 1056"
   sodipodi:docname="S6RS8R - P03.svg"
   inkscape:version="0.92.2 (5c3e80d, 2017-08-06)"><metadata
     id="metadata3134"><rdf:RDF><cc:Work
         rdf:about=""><dc:format>image/svg+xml</dc:format><dc:type
           rdf:resource="http://purl.org/dc/dcmitype/StillImage" /><dc:title></dc:title></cc:Work></rdf:RDF></metadata><defs
     id="defs3132" /><sodipodi:namedview
     pagecolor="#ffffff"
     bordercolor="#666666"
     borderopacity="1"
     objecttolerance="10"
     gridtolerance="10"
     guidetolerance="10"
     inkscape:pageopacity="0"
     inkscape:pageshadow="2"
     inkscape:window-width="1680"
     inkscape:window-height="987"
     id="namedview3130"
     showgrid="false"
     inkscape:zoom="5.6568543"
     inkscape:cx="300.07664"
     inkscape:cy="510.14897"
     inkscape:window-x="-8"
     inkscape:window-y="-8"
     inkscape:window-maximized="1"
     inkscape:current-layer="g3136"
     showguides="true"
     inkscape:guide-bbox="true"><sodipodi:guide
       position="21.276266,595.09199"
       orientation="1,0"
       id="guide4485"
       inkscape:locked="false" /><sodipodi:guide
       position="21.276266,595.09199"
       orientation="0,1"
       id="guide4487"
       inkscape:locked="false" /><sodipodi:guide
       position="21.275866,624.32398"
       orientation="0,1"
       id="guide4678"
       inkscape:locked="false" /><sodipodi:guide
       position="21.276266,642.04532"
       orientation="0,1"
       id="guide4680"
       inkscape:locked="false" /><sodipodi:guide
       position="380.11066,642.04532"
       orientation="1,0"
       id="guide4686"
       inkscape:locked="false" /><sodipodi:guide
       position="491.22159,642.04532"
       orientation="1,0"
       id="guide4688"
       inkscape:locked="false" /><sodipodi:guide
       position="380.11066,642.04532"
       orientation="0,1"
       id="guide4690"
       inkscape:locked="false" /><sodipodi:guide
       position="380.11066,624.32398"
       orientation="0,1"
       id="guide4692"
       inkscape:locked="false" /><sodipodi:guide
       position="380.11066,595.09199"
       orientation="0,1"
       id="guide4694"
       inkscape:locked="false" /></sodipodi:namedview><g
     id="g3136"
     inkscape:groupmode="layer"
     inkscape:label="S6RS8R - P03"
     transform="matrix(1.3333333,0,0,-1.3333333,0,1056)"><g
       id="g4676"><g
         transform="translate(151.883,310.002)"
         id="g3498"><path
           inkscape:connector-curvature="0"
           id="path3500"
           style="fill:#231815;fill-opacity:1;fill-rule:nonzero;stroke:none"
           d="M 0,0 0.07,-0.684 Z" /></g><g
         transform="translate(223.805,339.278)"
         id="g3502"><path
           inkscape:connector-curvature="0"
           id="path3504"
           style="fill:#ffffff;fill-opacity:1;fill-rule:nonzero;stroke:none"
           d="m 0,0 v -11.758 c 0.945,-0.209 4.404,-1.014 6.021,-1.949 1.339,-0.772 1.845,-0.829 1.985,-0.824 0.04,0.089 0.102,0.314 0.102,0.737 0,0.82 -0.216,5.18 -4.501,10.485 C 2.355,-1.925 1.142,-0.812 0,0" /></g><g
         transform="translate(231.811,324.747)"
         id="g3506"><path
           inkscape:connector-curvature="0"
           id="path3508"
           style="fill:#ffffff;fill-opacity:1;fill-rule:nonzero;stroke:none"
           d="m 0,0 c -0.14,-0.005 -0.646,0.052 -1.984,0.824 -1.618,0.935 -5.077,1.74 -6.022,1.949 V 14.531 C -6.864,13.72 -5.651,12.607 -4.399,11.223 -0.114,5.917 0.103,1.558 0.103,0.737 0.103,0.314 0.04,0.089 0,0 M -8.411,15.29 V 2.439 l 0.084,-0.01 c 0.245,-0.048 4.372,-0.934 6.139,-1.955 1.677,-0.968 2.231,-0.932 2.411,-0.828 0.138,0.079 0.285,0.408 0.285,1.091 0,0.845 -0.222,5.329 -4.592,10.74 -1.813,2.005 -3.281,3.156 -4.327,3.813" /></g><g
         transform="translate(232.034,324.393)"
         id="g3510"><path
           inkscape:connector-curvature="0"
           id="path3512"
           style="fill:#ffffff;fill-opacity:1;fill-rule:nonzero;stroke:none"
           d="M 0,0 C -0.18,-0.104 -0.734,-0.14 -2.411,0.828 -4.178,1.85 -8.305,2.735 -8.55,2.783 l -0.084,0.01 V 15.645 C -7.588,14.987 -6.12,13.837 -4.307,11.831 0.062,6.421 0.285,1.936 0.285,1.092 0.285,0.408 0.138,0.079 0,0 m -8.419,15.987 -0.621,0.39 V 2.432 l 0.428,-0.05 c 0.715,-0.142 4.434,-1 5.999,-1.905 1.087,-0.627 1.864,-0.933 2.372,-0.933 0.174,0 0.323,0.035 0.442,0.104 0.32,0.182 0.488,0.681 0.488,1.444 0,0.868 -0.225,5.476 -4.695,11.012 -1.546,1.709 -3.031,3.016 -4.413,3.883" /></g><g
         transform="translate(179.846,333.568)"
         id="g3514"><path
           inkscape:connector-curvature="0"
           id="path3516"
           style="fill:#ffffff;fill-opacity:1;fill-rule:nonzero;stroke:none"
           d="m 0,0 c 0,0.669 0.545,1.218 1.218,1.218 0.673,0 1.221,-0.549 1.221,-1.218 0,-0.336 -0.136,-0.641 -0.355,-0.862 l 0.181,-0.396 32.569,-3.721 v 2.825 L -5.059,2.638 v -3.059 l 5.696,-0.65 C 0.259,-0.862 0,-0.463 0,0" /></g><g
         transform="translate(160.352,387.545)"
         id="g3522"><path
           inkscape:connector-curvature="0"
           id="path3524"
           style="fill:#ffffff;fill-opacity:1;fill-rule:nonzero;stroke:none"
           d="M 0,0 C 0.259,1.524 0.124,2.994 -0.4,4.372 -1.035,6.048 -2.576,6.76 -2.592,6.767 L -2.668,6.8 C -3.025,6.561 -4.058,5.773 -4.589,4.373 -5.113,2.994 -5.247,1.524 -4.988,0 c 1.322,0.028 2.385,0.019 2.498,0.018 0.06,0 0.274,0.002 0.595,0.002 C -1.437,0.02 -0.759,0.017 0,0" /></g><g
         transform="translate(83.6263,325.758)"
         id="g3526"><path
           inkscape:connector-curvature="0"
           id="path3528"
           style="fill:#ffffff;fill-opacity:1;fill-rule:nonzero;stroke:none"
           d="m 0,0 c 0.023,-0.036 0.144,-0.1 0.7,-0.124 0.253,0 1.583,0.411 2.377,0.657 L 3.123,0.547 C 4.402,0.943 5.821,1.382 7.15,1.681 V 12.75 C 6.833,12.503 6.553,12.253 6.311,12.003 4.215,9.815 2.228,6.569 0.566,2.619 -0.312,0.531 -0.013,0.021 0,0" /></g><g
         transform="translate(133.461,333.571)"
         id="g3530"><path
           inkscape:connector-curvature="0"
           id="path3532"
           style="fill:#ffffff;fill-opacity:1;fill-rule:nonzero;stroke:none"
           d="m 0,0 c 0,0.669 0.546,1.218 1.218,1.218 0.676,0 1.221,-0.549 1.221,-1.218 0,-0.676 -0.545,-1.227 -1.221,-1.227 -0.079,0 -0.157,0.009 -0.233,0.024 L 0.9,-1.39 7.363,-0.693 v 3.676 l -40.155,-5.132 v -2.845 c 9.398,0.992 25.637,2.737 32.862,3.515 l 0.283,0.618 C 0.135,-0.64 0,-0.335 0,0" /></g><g
         transform="translate(98.4183,333.401)"
         id="g3542"><path
           inkscape:connector-curvature="0"
           id="path3544"
           style="fill:#ffffff;fill-opacity:1;fill-rule:nonzero;stroke:none"
           d="M 0,0 0.354,0.046 44.657,5.711 V -0.28 l 5.708,0.616 C 50.21,1.605 49.955,3.388 49.665,5.42 49.05,9.733 48.212,15.6 47.585,21.711 L -3.01,7.521 C -3.227,7.445 -4.225,7.093 -5.391,6.502 V -5.613 c 0.745,0.069 2.552,0.255 5.391,0.552 z" /></g><g
         transform="translate(221.457,340.502)"
         id="g3546"><path
           inkscape:connector-curvature="0"
           id="path3548"
           style="fill:#ffffff;fill-opacity:1;fill-rule:nonzero;stroke:none"
           d="m 0,0 -51.734,14.717 c -0.629,-6.152 -1.472,-12.056 -2.092,-16.398 -0.269,-1.882 -0.505,-3.535 -0.661,-4.781 l 5.566,-0.636 v 5.342 l 44.395,-5.337 v -5.077 l 4.623,-0.528 V -0.024 C 0.063,-0.015 0.04,-0.01 0.029,-0.007 Z" /></g><g
         transform="translate(232.235,324.041)"
         id="g3550"><path
           inkscape:connector-curvature="0"
           id="path3552"
           style="fill:#231815;fill-opacity:1;fill-rule:nonzero;stroke:none"
           d="m 0,0 c -0.119,-0.069 -0.268,-0.105 -0.441,-0.105 -0.509,0 -1.286,0.306 -2.373,0.933 -1.565,0.905 -5.284,1.764 -5.999,1.905 l -0.427,0.05 v 13.946 l 0.62,-0.39 c 1.383,-0.867 2.867,-2.174 4.413,-3.884 C 0.263,6.92 0.489,2.311 0.489,1.443 0.489,0.681 0.32,0.182 0,0 m -9.87,2.854 -6.244,0.714 v 5.081 l -42.774,5.142 V 8.455 l -7.279,0.832 0.048,0.402 -0.508,0.058 0.508,-0.058 v 0.002 c 0.155,1.29 0.413,3.104 0.714,5.204 0.635,4.447 1.504,10.538 2.136,16.845 l 0.048,0.483 0.466,-0.133 52.199,-14.85 c 0.046,-0.009 0.195,-0.046 0.421,-0.129 l 0.265,-0.098 v -0.451 c 0.017,-0.008 0.033,-0.015 0.052,-0.024 H -9.87 Z m -75.604,28.778 c 0.63,-6.266 1.495,-12.318 2.125,-16.737 0.324,-2.265 0.603,-4.221 0.75,-5.511 L -82.552,8.979 -89.97,8.178 V 14.15 L -133.006,8.647 V 3.569 l -0.363,-0.038 c -3.598,-0.378 -5.58,-0.58 -6.06,-0.617 l -0.589,-0.059 v 13.499 l 0.218,0.115 c 1.375,0.72 2.591,1.137 2.725,1.182 l 51.553,14.46 z m -55.173,-28.89 -0.323,-0.067 c -1.382,-0.29 -2.909,-0.762 -4.257,-1.179 l -0.065,-0.021 c -1.353,-0.418 -2.268,-0.693 -2.626,-0.693 -0.449,0.019 -1.087,0.047 -1.375,0.501 -0.364,0.573 -0.194,1.707 0.503,3.367 1.7,4.041 3.743,7.371 5.909,9.631 0.431,0.448 0.97,0.89 1.602,1.314 l 0.632,0.423 z M -3.729,12.865 c -4.218,4.667 -6.649,4.984 -6.673,4.985 l -0.077,0.015 -52.681,14.993 0.032,0.335 c 0.436,4.664 0.657,8.746 0.657,12.131 0,5.1 -1.501,13.187 -1.898,14.326 -0.412,1.181 -0.912,2.197 -2.85,2.665 -0.562,0.137 -1.502,0.242 -2.794,0.31 l -0.143,0.008 -0.437,0.394 0.038,0.22 c 0.307,1.772 0.151,3.49 -0.465,5.108 -0.772,2.038 -2.517,2.963 -2.859,3.127 l -0.046,0.027 c -0.187,0.122 -0.395,0.183 -0.619,0.183 -0.225,0 -0.42,-0.063 -0.529,-0.124 -0.077,-0.042 -1.823,-1.003 -2.661,-3.212 -0.592,-1.557 -0.758,-3.213 -0.494,-4.921 l 0.033,-0.209 -0.634,-0.605 -0.149,-0.009 c -1.169,-0.068 -2.029,-0.168 -2.556,-0.297 -1.94,-0.468 -2.439,-1.484 -2.852,-2.665 -0.396,-1.133 -1.897,-9.207 -1.897,-14.326 0,-3.41 0.225,-7.528 0.668,-12.239 l 0.031,-0.337 -51.665,-14.491 c -0.144,-0.047 -3.936,-1.31 -6.087,-3.539 -2.219,-2.317 -4.306,-5.714 -6.034,-9.825 -0.795,-1.886 -0.943,-3.176 -0.457,-3.944 0.459,-0.729 1.31,-0.77 1.873,-0.797 h 0.053 c 0.444,0 1.325,0.266 2.843,0.737 1.823,0.565 4.092,1.27 5.681,1.397 1.772,0.139 25.53,2.687 39.977,4.24 l 0.305,0.668 c -7.563,-0.814 -23.707,-2.549 -32.833,-3.511 l -0.448,-0.047 v 4.459 l 0.354,0.045 41.422,5.294 V 8.109 l -7.425,-0.8 c -0.077,-0.008 -0.161,-0.017 -0.24,-0.026 l -0.305,-0.667 0.381,0.041 c 6.872,0.739 12.623,1.361 15.26,1.645 l 0.43,0.047 0.019,-0.433 c 0.08,-1.853 1.122,-12.072 2.128,-21.955 l 0.07,-0.684 h 0.544 l -0.058,0.573 c -1.041,10.208 -2.116,20.764 -2.149,22.218 -0.022,0.977 -0.376,3.456 -0.867,6.89 -0.641,4.491 -1.517,10.624 -2.148,16.963 -0.048,0.486 -0.096,0.972 -0.141,1.46 -0.426,4.585 -0.642,8.603 -0.642,11.943 0,4.963 1.49,13.069 1.867,14.148 0.385,1.101 0.788,1.912 2.47,2.319 1.419,0.345 5.064,0.382 6.565,0.382 0.209,0 0.365,0 0.459,-0.001 l 0.005,0.514 -0.001,0.025 c -0.189,0.002 -1.381,0.012 -2.817,-0.026 l -0.339,-0.009 -0.069,0.333 c -0.37,1.796 -0.244,3.531 0.374,5.155 0.757,1.998 2.345,2.892 2.412,2.929 v -0.001 c 0.096,0.052 0.2,0.062 0.263,0.062 0.129,0 0.253,-0.04 0.359,-0.115 l 0.049,-0.027 c 0.016,-0.008 1.855,-0.827 2.622,-2.849 0.617,-1.623 0.742,-3.358 0.373,-5.155 l -0.069,-0.332 -0.339,0.009 c -1.43,0.038 -2.649,0.027 -2.807,0.026 h -0.01 l -10e-4,-0.025 0.005,-0.514 h 0.008 l 0.082,-10e-4 c 0.094,10e-4 0.255,0.002 0.469,0.002 1.472,0 5.047,-0.037 6.467,-0.383 1.68,-0.406 2.082,-1.217 2.468,-2.317 0.39,-1.123 1.867,-9.102 1.867,-14.149 0,-3.311 -0.213,-7.292 -0.632,-11.829 -0.045,-0.487 -0.091,-0.974 -0.139,-1.46 -0.633,-6.383 -1.514,-12.556 -2.158,-17.064 l -0.177,-1.235 c -0.366,-2.579 -0.672,-4.786 -0.692,-5.668 -0.033,-1.481 -1.136,-12.308 -2.204,-22.791 h 0.544 c 1.021,10.023 2.166,21.284 2.2,22.779 0.001,0.052 0.004,0.113 0.008,0.177 l 0.023,0.43 15.98,-1.825 -0.305,0.666 -7.695,0.88 v 4.695 L -16.744,8.092 V 3.64 L -49.73,7.409 -49.424,6.742 -8.896,2.113 c 0.17,-0.037 4.167,-0.906 5.767,-1.833 0.873,-0.501 1.876,-1.014 2.692,-1.014 0.289,0 0.535,0.062 0.752,0.189 0.535,0.307 0.804,0.976 0.804,1.988 0,0.907 -0.234,5.712 -4.848,11.422" /></g><g
         transform="translate(157.858,386.727)"
         id="g3554"><path
           inkscape:connector-curvature="0"
           id="path3556"
           style="fill:#231815;fill-opacity:1;fill-rule:nonzero;stroke:none"
           d="m 0,0 -0.005,-0.515 h 0.01 z" /></g><g
         transform="translate(222.365,340.604)"
         id="g3558"><path
           inkscape:connector-curvature="0"
           id="path3560"
           style="fill:#231815;fill-opacity:1;fill-rule:nonzero;stroke:none"
           d="M 0,0 V -0.025 H 0.052 C 0.034,-0.016 0.018,-0.009 0,0" /></g><g
         transform="translate(157.857,386.752)"
         id="g3562"><path
           inkscape:connector-curvature="0"
           id="path3564"
           style="fill:#231815;fill-opacity:1;fill-rule:nonzero;stroke:none"
           d="M 0,0 0.001,-0.024 V 0 Z" /></g><g
         transform="translate(155.364,387.545)"
         id="g3566"><path
           inkscape:connector-curvature="0"
           id="path3568"
           style="fill:#ffffff;fill-opacity:1;fill-rule:nonzero;stroke:none"
           d="M 0,0 C -0.259,1.524 -0.124,2.994 0.399,4.373 0.931,5.773 1.963,6.561 2.32,6.8 L 2.396,6.767 C 2.412,6.76 3.953,6.048 4.589,4.372 5.113,2.994 5.247,1.524 4.988,0 4.229,0.017 3.552,0.02 3.094,0.02 2.772,0.02 2.559,0.018 2.499,0.018 2.385,0.019 1.323,0.028 0,0 M 5.323,-0.414 C 5.676,1.301 5.561,2.957 4.968,4.516 4.264,6.37 2.578,7.129 2.561,7.137 L 2.497,7.165 2.44,7.205 C 2.346,7.273 2.251,7.234 2.25,7.233 2.231,7.224 0.727,6.378 0.021,4.517 -0.572,2.957 -0.687,1.301 -0.335,-0.414 c 1.467,0.039 2.707,0.027 2.83,0.026 0.125,0.001 1.363,0.013 2.828,-0.026" /></g><g
         transform="translate(126.145,330.891)"
         id="g3570"><path
           inkscape:connector-curvature="0"
           id="path3572"
           style="fill:#ffffff;fill-opacity:1;fill-rule:nonzero;stroke:none"
           d="M 0,0 C 2.479,0.267 4.903,0.527 7.191,0.773 4.887,0.525 2.465,0.265 0,0" /></g><g
         transform="translate(141.229,337.015)"
         id="g3574"><path
           inkscape:connector-curvature="0"
           id="path3576"
           style="fill:#ffffff;fill-opacity:1;fill-rule:nonzero;stroke:none"
           d="m 0,0 -40.965,-5.235 v -3.653 c 6.439,0.679 16.544,1.761 25.881,2.764 2.465,0.265 4.887,0.525 7.19,0.773 l 0.196,0.429 C -14.923,-5.7 -31.162,-7.445 -40.56,-8.438 v 2.845 L -0.405,-0.46 V -4.137 L -6.868,-4.833 -7.063,-5.262 C -4.515,-4.987 -2.126,-4.73 0,-4.5 Z" /></g><g
         transform="translate(93.0276,339.903)"
         id="g3578"><path
           inkscape:connector-curvature="0"
           id="path3580"
           style="fill:#ffffff;fill-opacity:1;fill-rule:nonzero;stroke:none"
           d="m 0,0 c 1.166,0.591 2.164,0.943 2.38,1.019 l 50.596,14.19 c 0.627,-6.111 1.464,-11.978 2.08,-16.291 0.29,-2.032 0.545,-3.814 0.699,-5.084 l -5.708,-0.616 v 5.991 L 5.744,-6.456 5.391,-6.502 v -5.061 C 2.552,-11.86 0.745,-12.046 0,-12.115 Z m -0.405,-12.56 c 0.05,0.005 0.102,0.011 0.152,0.015 0.504,0.04 2.735,0.269 6.049,0.617 v 5.07 l 43.846,5.607 v -5.982 c 2.897,0.312 5.188,0.56 6.564,0.709 -0.147,1.284 -0.424,3.225 -0.748,5.5 C 54.83,3.374 53.96,9.466 53.33,15.729 L 2.265,1.406 C 2.26,1.404 1.02,0.994 -0.405,0.247 Z" /></g><g
         transform="translate(221.597,340.886)"
         id="g3582"><path
           inkscape:connector-curvature="0"
           id="path3584"
           style="fill:#ffffff;fill-opacity:1;fill-rule:nonzero;stroke:none"
           d="M 0,0 H -0.001 Z" /></g><g
         transform="translate(221.554,327.804)"
         id="g3586"><path
           inkscape:connector-curvature="0"
           id="path3588"
           style="fill:#ffffff;fill-opacity:1;fill-rule:nonzero;stroke:none"
           d="m 0,0 -4.623,0.528 v 5.077 l -44.395,5.337 V 5.601 l -5.566,0.635 c 0.157,1.246 0.393,2.899 0.662,4.782 0.619,4.341 1.462,10.246 2.091,16.397 L -0.097,12.698 -0.068,12.691 C -0.057,12.688 -0.034,12.684 0,12.674 Z m 0.014,13.088 -52.199,14.849 c -0.631,-6.3 -1.507,-12.438 -2.139,-16.862 -0.3,-2.101 -0.559,-3.917 -0.712,-5.194 l 6.423,-0.735 v 5.339 L -5.028,5.246 V 0.167 l 5.433,-0.621 v 13.229 0.193 c -0.187,0.069 -0.31,0.101 -0.363,0.114 v 0 c -0.017,0.004 -0.026,0.006 -0.028,0.006" /></g><g
         transform="translate(90.7767,338.508)"
         id="g3590"><path
           inkscape:connector-curvature="0"
           id="path3592"
           style="fill:#ffffff;fill-opacity:1;fill-rule:nonzero;stroke:none"
           d="m 0,0 v -11.069 c -1.329,-0.299 -2.748,-0.738 -4.028,-1.134 l -0.046,-0.014 c -0.794,-0.246 -2.123,-0.657 -2.377,-0.657 -0.555,0.024 -0.677,0.088 -0.699,0.124 -0.014,0.021 -0.312,0.531 0.565,2.619 1.662,3.95 3.649,7.196 5.746,9.384 0.241,0.25 0.522,0.5 0.839,0.747 m -6.958,-9.974 c -0.875,-2.082 -0.667,-2.785 -0.535,-2.993 0.161,-0.253 0.577,-0.293 1.025,-0.312 h 0.008 c 0.329,0 1.562,0.383 2.552,0.689 1.337,0.413 2.905,0.9 4.313,1.195 V 0.791 C -0.151,0.418 -0.684,-0.002 -1.131,-0.466 -3.264,-2.691 -5.278,-5.98 -6.958,-9.974" /></g><g
         transform="translate(215.085,331.773)"
         id="g3594"><path
           inkscape:connector-curvature="0"
           id="path3596"
           style="fill:#ffffff;fill-opacity:1;fill-rule:nonzero;stroke:none"
           d="M 0,0 -40.704,4.89 V 1.013 l 7.094,-0.811 -0.179,0.39 c -0.075,-0.015 -0.153,-0.025 -0.232,-0.025 -0.211,0 -0.408,0.06 -0.581,0.157 l -5.696,0.65 V 4.433 L -0.405,-0.359 V -3.184 L -32.975,0.537 -32.777,0.106 0,-3.638 Z" /></g><g
         transform="translate(91.1819,327.112)"
         id="g3602"><path
           inkscape:connector-curvature="0"
           id="path3604"
           style="fill:#ffffff;fill-opacity:1;fill-rule:nonzero;stroke:none"
           d="m 0,0 c -1.408,-0.295 -2.977,-0.781 -4.313,-1.194 -0.991,-0.307 -2.223,-0.69 -2.552,-0.69 h -0.009 c -0.447,0.02 -0.863,0.06 -1.024,0.313 -0.132,0.208 -0.34,0.911 0.535,2.993 1.679,3.993 3.694,7.282 5.827,9.508 0.447,0.464 0.979,0.883 1.536,1.257 z M -1.829,11.21 C -3.994,8.95 -6.037,5.62 -7.737,1.579 c -0.697,-1.66 -0.867,-2.794 -0.503,-3.367 0.287,-0.454 0.926,-0.483 1.375,-0.501 0.358,0 1.272,0.274 2.626,0.693 l 0.065,0.021 c 1.347,0.417 2.875,0.888 4.257,1.179 l 0.322,0.067 V 12.946 L -0.226,12.523 C -0.858,12.1 -1.397,11.657 -1.829,11.21" /></g><g
         transform="translate(167.23,338.879)"
         id="g3606"><path
           inkscape:connector-curvature="0"
           id="path3608"
           style="fill:#ffffff;fill-opacity:1;fill-rule:nonzero;stroke:none"
           d="M 0,0 C 0.632,4.424 1.507,10.562 2.139,16.862 L 54.338,2.013 c 10e-4,0 0.012,-0.003 0.027,-0.006 h 10e-4 c 0.08,-0.019 0.342,-0.087 0.768,-0.282 v 0.45 l -0.265,0.098 c -0.226,0.083 -0.375,0.121 -0.42,0.129 L 2.249,17.252 1.784,17.385 1.735,16.902 C 1.104,10.596 0.234,4.504 -0.401,0.057 c -0.3,-2.1 -0.559,-3.913 -0.714,-5.203 v -0.002 l 0.403,-0.046 C -0.559,-3.917 -0.3,-2.102 0,0" /></g><g
         transform="translate(221.959,327.35)"
         id="g3610"><path
           inkscape:connector-curvature="0"
           id="path3612"
           style="fill:#ffffff;fill-opacity:1;fill-rule:nonzero;stroke:none"
           d="M 0,0 -5.434,0.621 V 5.7 l -43.584,5.239 V 5.601 l -6.423,0.734 -0.403,0.046 -0.048,-0.402 7.279,-0.833 v 5.336 L -5.839,5.341 V 0.26 L 0.405,-0.454 V 13.229 H 0 Z" /></g><g
         transform="translate(221.568,340.892)"
         id="g3614"><path
           inkscape:connector-curvature="0"
           id="path3616"
           style="fill:#ffffff;fill-opacity:1;fill-rule:nonzero;stroke:none"
           d="M 0,0 C 0.001,0 0.011,-0.002 0.027,-0.006 0.012,-0.003 0.001,0 0,0" /></g><g
         transform="translate(221.597,340.886)"
         id="g3618"><path
           inkscape:connector-curvature="0"
           id="path3620"
           style="fill:#ffffff;fill-opacity:1;fill-rule:nonzero;stroke:none"
           d="m 0,0 c 0.052,-0.013 0.175,-0.045 0.363,-0.114 v -0.193 h 0.405 v 0.025 C 0.341,-0.087 0.08,-0.019 0,0" /></g><g
         transform="translate(126.145,330.891)"
         id="g3622"><path
           inkscape:connector-curvature="0"
           id="path3624"
           style="fill:#ffffff;fill-opacity:1;fill-rule:nonzero;stroke:none"
           d="m 0,0 c -9.321,-1.002 -19.272,-2.067 -25.881,-2.764 v 3.653 l 40.965,5.235 v -4.5 C 12.958,1.395 10.569,1.137 8.021,0.862 L 7.825,0.434 C 7.904,0.442 7.988,0.451 8.064,0.46 l 7.426,0.8 V 6.584 L -25.932,1.29 -26.286,1.245 v -4.459 l 0.448,0.047 c 9.126,0.963 25.27,2.697 32.833,3.512 L 7.191,0.773 C 4.903,0.527 2.479,0.267 0,0" /></g><g
         transform="translate(126.145,330.891)"
         id="g3626"><path
           inkscape:connector-curvature="0"
           id="path3628"
           style="fill:#ffffff;fill-opacity:1;fill-rule:nonzero;stroke:none"
           d="M 0,0 C -9.337,-1.003 -19.442,-2.085 -25.881,-2.764 -19.272,-2.067 -9.321,-1.002 0,0" /></g><g
         transform="translate(174.382,332.786)"
         id="g3630"><path
           inkscape:connector-curvature="0"
           id="path3632"
           style="fill:#ffffff;fill-opacity:1;fill-rule:nonzero;stroke:none"
           d="m 0,0 v 3.877 l 40.704,-4.89 V -4.65 l -32.778,3.744 0.197,-0.43 32.986,-3.769 v 4.452 L -0.405,4.334 v -4.695 l 7.696,-0.88 -0.197,0.43 z" /></g><g
         transform="translate(182.308,331.88)"
         id="g3634"><path
           inkscape:connector-curvature="0"
           id="path3636"
           style="fill:#ffffff;fill-opacity:1;fill-rule:nonzero;stroke:none"
           d="M 0,0 V 0 L 32.777,-3.744 Z" /></g><g
         transform="translate(146.357,355.632)"
         id="g3638"><path
           inkscape:connector-curvature="0"
           id="path3640"
           style="fill:#ffffff;fill-opacity:1;fill-rule:nonzero;stroke:none"
           d="m 0,0 c 0.63,-6.263 1.5,-12.354 2.128,-16.753 0.325,-2.274 0.602,-4.216 0.748,-5.5 -1.376,-0.148 -3.667,-0.396 -6.564,-0.709 v 5.983 l -43.846,-5.608 v -5.069 c -3.313,-0.349 -5.545,-0.577 -6.049,-0.617 -0.049,-0.004 -0.101,-0.01 -0.152,-0.015 v 12.807 c 1.426,0.747 2.665,1.157 2.67,1.159 z m -53.923,-15.122 -0.217,-0.114 v -13.499 l 0.589,0.058 c 0.48,0.037 2.462,0.24 6.059,0.617 l 0.363,0.039 v 5.078 l 43.036,5.503 v -5.973 l 7.418,0.801 -0.046,0.405 c -0.148,1.29 -0.427,3.246 -0.75,5.511 -0.631,4.42 -1.495,10.471 -2.126,16.737 l -0.048,0.48 -51.553,-14.46 c -0.133,-0.045 -1.349,-0.462 -2.725,-1.183" /></g><g
         transform="translate(157.858,387.157)"
         id="g3642"><path
           inkscape:connector-curvature="0"
           id="path3644"
           style="fill:#ffffff;fill-opacity:1;fill-rule:nonzero;stroke:none"
           d="m 0,0 c -0.123,0.001 -1.363,0.013 -2.829,-0.026 -0.353,1.714 -0.237,3.371 0.355,4.93 0.706,1.862 2.21,2.707 2.229,2.717 0.001,10e-4 0.096,0.04 0.191,-0.028 L 0.003,7.553 0.067,7.524 C 0.083,7.517 1.77,6.758 2.473,4.903 3.066,3.345 3.181,1.688 2.828,-0.026 1.364,0.013 0.125,0.001 0,0 H 0.003 L 0,-0.405 h 0.01 c 0.159,0.001 1.378,0.011 2.807,-0.026 l 0.339,-0.01 0.069,0.333 C 3.595,1.688 3.469,3.424 2.852,5.047 2.085,7.069 0.247,7.888 0.23,7.895 L 0.182,7.923 c -0.106,0.075 -0.231,0.115 -0.36,0.115 -0.063,0 -0.167,-0.01 -0.262,-0.063 V 7.977 C -0.508,7.939 -2.095,7.046 -2.853,5.048 -3.47,3.424 -3.596,1.688 -3.226,-0.107 l 0.068,-0.334 0.34,0.01 c 1.435,0.037 2.627,0.028 2.817,0.026 L -0.005,0 Z" /></g><g
         transform="translate(157.862,387.157)"
         id="g3646"><path
           inkscape:connector-curvature="0"
           id="path3648"
           style="fill:#ffffff;fill-opacity:1;fill-rule:nonzero;stroke:none"
           d="m 0,0 h -0.004 -0.005 l 0.004,-0.405 h 0.001 z" /></g><g
         transform="translate(152.855,309.318)"
         id="g3650"><path
           inkscape:connector-curvature="0"
           id="path3652"
           style="fill:#ffffff;fill-opacity:1;fill-rule:nonzero;stroke:none"
           d="m 0,0 c -1.042,10.271 -2.071,20.714 -2.155,22.659 -0.003,0.054 -0.005,0.102 -0.006,0.141 -0.023,1.002 -0.379,3.497 -0.872,6.951 -0.634,4.44 -1.515,10.615 -2.144,16.934 -0.049,0.484 -0.096,0.969 -0.141,1.456 -0.381,4.104 -0.64,8.217 -0.64,11.906 0,4.924 1.471,12.948 1.844,14.014 0.364,1.041 0.692,1.698 2.182,2.058 0.052,0.013 0.107,0.026 0.164,0.036 0.035,0.007 0.071,0.015 0.107,0.021 0.024,0.005 0.047,0.009 0.071,0.013 0.053,0.009 0.108,0.018 0.165,0.027 0.008,0.001 0.016,0.003 0.024,0.004 1.398,0.21 3.813,0.259 5.241,0.268 h 0.088 0.003 c 0.508,0.004 0.892,0.002 1.062,0.001 l 0.004,0.406 c -0.093,0 -0.25,0 -0.458,0 -1.502,0 -5.146,-0.037 -6.566,-0.381 -1.681,-0.408 -2.084,-1.218 -2.469,-2.32 -0.378,-1.078 -1.867,-9.184 -1.867,-14.147 0,-3.34 0.215,-7.359 0.641,-11.943 0.046,-0.488 0.093,-0.974 0.141,-1.461 0.632,-6.338 1.507,-12.471 2.149,-16.962 0.49,-3.434 0.844,-5.913 0.866,-6.89 0.033,-1.454 1.109,-12.011 2.149,-22.219 L -0.358,0 Z" /></g><g
         transform="translate(157.868,385.808)"
         id="g3654"><path
           inkscape:connector-curvature="0"
           id="path3656"
           style="fill:#ffffff;fill-opacity:1;fill-rule:nonzero;stroke:none"
           d="m 0,0 v -0.001 c 0.052,0 5.2,0.051 6.925,-0.369 1.489,-0.36 1.817,-1.018 2.181,-2.058 0.386,-1.107 1.845,-9.007 1.845,-14.014 0,-3.654 -0.255,-7.726 -0.63,-11.792 -0.045,-0.487 -0.091,-0.972 -0.139,-1.457 -0.63,-6.357 -1.518,-12.58 -2.156,-17.047 -0.061,-0.427 -0.12,-0.839 -0.176,-1.235 -0.4,-2.812 -0.677,-4.839 -0.697,-5.716 C 7.152,-53.729 7.15,-53.777 7.148,-53.83 7.064,-55.778 6.034,-66.22 4.993,-76.489 h 0.362 c 1.067,10.482 2.17,21.309 2.204,22.791 0.02,0.882 0.325,3.089 0.692,5.668 l 0.176,1.234 c 0.644,4.508 1.525,10.682 2.158,17.065 0.048,0.486 0.095,0.972 0.14,1.46 0.419,4.537 0.631,8.517 0.631,11.829 0,5.046 -1.477,13.026 -1.867,14.148 C 9.104,-1.193 8.701,-0.383 7.021,0.023 5.602,0.369 2.026,0.406 0.555,0.406 0.34,0.406 0.179,0.405 0.085,0.404 L 0.003,0.405 h -0.007 z" /></g><g
         transform="translate(151.454,385.538)"
         id="g3658"><path
           inkscape:connector-curvature="0"
           id="path3660"
           style="fill:#ffffff;fill-opacity:1;fill-rule:nonzero;stroke:none"
           d="M 0,0 C 1.383,0.207 3.779,0.258 5.241,0.269 3.813,0.259 1.398,0.21 0,0" /></g><g
         transform="translate(156.783,385.807)"
         id="g3662"><path
           inkscape:connector-curvature="0"
           id="path3664"
           style="fill:#ffffff;fill-opacity:1;fill-rule:nonzero;stroke:none"
           d="M 0,0 H 0.003 Z" /></g><g
         transform="translate(162.86,309.318)"
         id="g3666"><path
           inkscape:connector-curvature="0"
           id="path3668"
           style="fill:#ffffff;fill-opacity:1;fill-rule:nonzero;stroke:none"
           d="M 0,0 C 1.041,10.27 2.071,20.711 2.155,22.659 2.066,20.736 0.975,10.021 -0.046,0 Z" /></g><g
         transform="translate(151.265,385.508)"
         id="g3670"><path
           inkscape:connector-curvature="0"
           id="path3672"
           style="fill:#ffffff;fill-opacity:1;fill-rule:nonzero;stroke:none"
           d="M 0,0 C 0.053,0.009 0.108,0.018 0.165,0.026 0.108,0.018 0.053,0.009 0,0" /></g><g
         transform="translate(151.088,385.474)"
         id="g3674"><path
           inkscape:connector-curvature="0"
           id="path3676"
           style="fill:#ffffff;fill-opacity:1;fill-rule:nonzero;stroke:none"
           d="M 0,0 C 0.034,0.007 0.071,0.015 0.107,0.021 0.071,0.015 0.034,0.007 0,0" /></g><g
         transform="translate(150.7,331.978)"
         id="g3678"><path
           inkscape:connector-curvature="0"
           id="path3680"
           style="fill:#ffffff;fill-opacity:1;fill-rule:nonzero;stroke:none"
           d="m 0,0 c 0.084,-1.945 1.114,-12.388 2.155,-22.659 h 0.05 C 1.183,-12.636 0.088,-1.919 0,0" /></g><g
         transform="translate(157.868,385.808)"
         id="g3682"><path
           inkscape:connector-curvature="0"
           id="path3684"
           style="fill:#ffffff;fill-opacity:1;fill-rule:nonzero;stroke:none"
           d="M 0,0 -0.004,0.405 H -0.015 L -0.02,0 Z" /></g><g
         transform="translate(157.883,321.21)"
         id="g3686"><path
           inkscape:connector-curvature="0"
           id="path3688"
           style="fill:#ffffff;fill-opacity:1;fill-rule:nonzero;stroke:none"
           d="m 0,0 c -4.069,0 -5.182,4.499 -5.202,6.879 l -1.852,26.387 c -0.003,0.035 -0.285,3.903 2.07,6.414 1.232,1.312 2.909,1.978 4.984,1.978 1.9,0 3.47,-0.642 4.664,-1.911 2.514,-2.668 2.364,-7.221 2.339,-7.73 L 6.345,20.024 5.296,6.722 C 5.233,4.41 4.042,0 0,0 m 6.732,10.918 c 0.022,0.927 0.317,3.065 0.701,5.764 l 0.176,1.235 c 0.642,4.5 1.523,10.663 2.154,17.029 0.048,0.485 0.094,0.97 0.139,1.454 0.416,4.513 0.628,8.468 0.628,11.755 0,4.968 -1.442,12.787 -1.822,13.882 -0.336,0.961 -0.573,1.478 -1.894,1.797 -1.372,0.334 -5.15,0.359 -6.275,0.359 -0.316,0 -0.516,-0.002 -0.547,-0.002 l -0.409,-0.003 v 0.006 h -0.072 c -1.149,0 -5.002,-0.026 -6.375,-0.36 -1.322,-0.319 -1.559,-0.837 -1.895,-1.799 -0.369,-1.053 -1.822,-8.994 -1.822,-13.88 0,-3.315 0.215,-7.308 0.639,-11.869 0.044,-0.484 0.092,-0.97 0.14,-1.453 0.63,-6.322 1.504,-12.445 2.142,-16.916 0.496,-3.475 0.853,-5.975 0.877,-6.999 0.032,-1.422 1.106,-11.963 2.145,-22.155 l 0.067,-0.655 h 9.095 l 0.005,0.046 C 5.546,-1.855 6.7,9.467 6.732,10.918" /></g><g
         transform="translate(157.883,321.412)"
         id="g3690"><path
           inkscape:connector-curvature="0"
           id="path3692"
           style="fill:#ffffff;fill-opacity:1;fill-rule:nonzero;stroke:none"
           d="m 0,0 c -3.91,0 -4.98,4.368 -4.999,6.678 l -1.853,26.4 c -0.003,0.036 -0.279,3.815 2.016,6.261 1.192,1.27 2.819,1.915 4.836,1.915 1.842,0 3.362,-0.622 4.517,-1.848 2.456,-2.607 2.309,-7.081 2.284,-7.582 L 6.143,19.834 5.095,6.536 C 5.032,4.282 3.886,0 0,0 m 6.345,19.822 0.658,11.992 c 0.025,0.51 0.175,5.063 -2.339,7.731 C 3.47,40.813 1.9,41.456 0,41.456 c -2.075,0 -3.752,-0.666 -4.984,-1.978 -2.355,-2.511 -2.073,-6.379 -2.07,-6.415 L -5.202,6.677 c 0.02,-2.38 1.133,-6.879 5.202,-6.879 4.042,0 5.233,4.41 5.296,6.722 z" /></g><g
         transform="translate(163.25,353.308)"
         id="g3694"><path
           inkscape:connector-curvature="0"
           id="path3696"
           style="fill:#000000;fill-opacity:1;fill-rule:nonzero;stroke:none"
           d="m 0,0 -0.654,-11.965 -1.047,-13.306 c -0.007,-1.124 -0.637,-5.192 -3.666,-5.192 -3.329,0 -3.555,4.755 -3.571,5.297 l -1.855,26.47 c -0.023,0.539 -0.052,3.363 1.633,5.158 0.909,0.972 2.186,1.464 3.793,1.464 1.452,0 2.588,-0.456 3.472,-1.394 C 0.227,4.284 0.003,0.042 0,0 m -5.367,8.548 c -1.784,0 -3.212,-0.559 -4.245,-1.659 -2.022,-2.156 -1.801,-5.61 -1.799,-5.644 l 1.853,-26.418 c 0.019,-2.053 0.918,-5.912 4.191,-5.912 3.262,0 4.229,3.767 4.285,5.758 l 1.049,13.324 0.657,11.97 c 0.023,0.466 0.161,4.625 -2.065,6.988 -0.995,1.057 -2.316,1.593 -3.926,1.593" /></g><g
         transform="translate(153.294,327.864)"
         id="g3698"><path
           inkscape:connector-curvature="0"
           id="path3700"
           style="fill:#ffffff;fill-opacity:1;fill-rule:nonzero;stroke:none"
           d="M 0,0 C 0.087,-2.23 1.125,-6.047 4.589,-6.047 1.133,-6.047 0.091,-2.229 0,0" /></g><g
         transform="translate(162.564,327.753)"
         id="g3702"><path
           inkscape:connector-curvature="0"
           id="path3704"
           style="fill:#ffffff;fill-opacity:1;fill-rule:nonzero;stroke:none"
           d="M 0,0 C 0.004,0.072 0.007,0.143 0.009,0.212 L 0.008,0.206 C 0.006,0.14 0.004,0.07 0,0" /></g><g
         transform="translate(163.256,336.631)"
         id="g3706"><path
           inkscape:connector-curvature="0"
           id="path3708"
           style="fill:#ffffff;fill-opacity:1;fill-rule:nonzero;stroke:none"
           d="M 0,0 0.366,4.642 0.473,6.6 0.366,4.646 Z" /></g><g
         transform="translate(153.288,328.113)"
         id="g3710"><path
           inkscape:connector-curvature="0"
           id="path3712"
           style="fill:#ffffff;fill-opacity:1;fill-rule:nonzero;stroke:none"
           d="M 0,0 V 0.005 L -1.809,25.789 Z" /></g><g
         transform="translate(155.177,361.754)"
         id="g3714"><path
           inkscape:connector-curvature="0"
           id="path3716"
           style="fill:#ffffff;fill-opacity:1;fill-rule:nonzero;stroke:none"
           d="m 0,0 c -0.7,-0.297 -1.312,-0.725 -1.834,-1.28 -0.08,-0.085 -0.156,-0.172 -0.23,-0.261 0.074,0.089 0.15,0.176 0.23,0.261 C -1.312,-0.725 -0.7,-0.297 0,0" /></g><g
         transform="translate(164.284,354.107)"
         id="g3718"><path
           inkscape:connector-curvature="0"
           id="path3720"
           style="fill:#ffffff;fill-opacity:1;fill-rule:nonzero;stroke:none"
           d="M 0,0 C -0.037,1.29 -0.285,3.715 -1.517,5.59 -0.285,3.715 -0.038,1.289 0,0" /></g><g
         transform="translate(163.875,353.274)"
         id="g3722"><path
           inkscape:connector-curvature="0"
           id="path3724"
           style="fill:#ffffff;fill-opacity:1;fill-rule:nonzero;stroke:none"
           d="m 0,0 -0.657,-11.97 -1.049,-13.324 c -0.056,-1.991 -1.023,-5.758 -4.286,-5.758 -3.273,0 -4.172,3.86 -4.191,5.912 l -1.852,26.418 c -0.003,0.034 -0.223,3.489 1.798,5.644 1.033,1.101 2.462,1.659 4.245,1.659 1.611,0 2.931,-0.536 3.927,-1.593 C 0.161,4.625 0.023,0.466 0,0 m -5.992,8.783 c -1.841,0 -3.32,-0.579 -4.393,-1.722 -2.078,-2.216 -1.855,-5.763 -1.852,-5.798 l 1.853,-26.417 c 0.018,-2.126 0.959,-6.1 4.392,-6.1 3.419,0 4.43,3.895 4.488,5.955 l 1.048,13.314 0.658,11.974 c 0.024,0.478 0.164,4.714 -2.12,7.138 -1.035,1.1 -2.406,1.656 -4.074,1.656" /></g><g
         transform="translate(162.776,327.964)"
         id="g3726"><path
           inkscape:connector-curvature="0"
           id="path3728"
           style="fill:#ffffff;fill-opacity:1;fill-rule:nonzero;stroke:none"
           d="m 0,0 c -0.06,-2.168 -1.165,-6.349 -4.893,-6.349 -3.749,0 -4.777,4.235 -4.796,6.477 l -1.853,26.412 c -0.013,0.155 -0.217,3.786 1.961,6.108 1.153,1.228 2.73,1.851 4.688,1.851 1.786,0 3.255,-0.601 4.37,-1.783 2.484,-2.639 2.238,-7.244 2.229,-7.439 L 1.048,13.293 Z m 1.908,25.273 c 0.025,0.5 0.172,4.974 -2.284,7.582 -1.155,1.225 -2.674,1.847 -4.517,1.847 -2.016,0 -3.643,-0.644 -4.836,-1.915 -2.294,-2.446 -2.018,-6.225 -2.015,-6.261 l 1.852,-26.4 c 0.019,-2.31 1.09,-6.678 4.999,-6.678 3.887,0 5.033,4.282 5.095,6.536 L 1.25,13.282 Z" /></g><g
         transform="translate(162.767,359.697)"
         id="g3730"><path
           inkscape:connector-curvature="0"
           id="path3732"
           style="fill:#ffffff;fill-opacity:1;fill-rule:nonzero;stroke:none"
           d="M 0,0 C 1.231,-1.875 1.48,-4.3 1.517,-5.59 1.479,-4.301 1.231,-1.875 0,0 M 1.31,-6.434 0.652,-18.408 -0.396,-31.722 c -0.058,-2.06 -1.069,-5.955 -4.488,-5.955 -3.433,0 -4.374,3.974 -4.392,6.1 l -1.853,26.417 c -0.003,0.035 -0.226,3.582 1.852,5.798 1.073,1.143 2.551,1.722 4.393,1.722 1.668,0 3.039,-0.556 4.074,-1.656 2.284,-2.424 2.144,-6.66 2.12,-7.138 m -0.455,-11.991 -0.366,-4.641 0.366,4.646 0.107,1.953 z m -1.058,-13.519 c 0.004,0.07 0.007,0.139 0.009,0.206 v 0.006 c -0.002,-0.069 -0.005,-0.14 -0.009,-0.212 m -4.681,-5.936 c -3.463,0 -4.502,3.817 -4.589,6.047 0.091,-2.229 1.134,-6.047 4.589,-6.047 0.048,0 0.094,0.001 0.141,0.002 -0.047,-10e-4 -0.093,-0.002 -0.141,-0.002 m -4.595,6.296 -1.809,25.789 1.809,-25.784 z m 0.055,32.36 c 0.521,0.556 1.134,0.984 1.834,1.281 0.233,0.098 0.476,0.183 0.728,0.254 0.606,0.168 1.266,0.253 1.978,0.253 -0.712,0 -1.372,-0.085 -1.978,-0.253 C -7.114,2.24 -7.357,2.155 -7.59,2.057 -8.29,1.76 -8.903,1.332 -9.424,0.776 c -0.08,-0.085 -0.157,-0.171 -0.23,-0.26 0.073,0.089 0.15,0.175 0.23,0.26 m 8.909,0.206 c -1.114,1.183 -2.584,1.784 -4.369,1.784 -1.958,0 -3.535,-0.623 -4.688,-1.851 -2.178,-2.322 -1.974,-5.953 -1.961,-6.108 l 1.852,-26.412 c 0.019,-2.243 1.048,-6.477 4.797,-6.477 3.728,0 4.833,4.181 4.893,6.349 l 1.048,13.293 0.657,11.984 c 0.01,0.194 0.256,4.8 -2.229,7.438" /></g><g
         transform="translate(162.442,353.357)"
         id="g3734"><path
           inkscape:connector-curvature="0"
           id="path3736"
           style="fill:#9e9e9f;fill-opacity:1;fill-rule:nonzero;stroke:none"
           d="m 0,0 -0.654,-11.96 -1.049,-13.335 c -10e-4,-0.044 -0.204,-4.407 -2.856,-4.407 -2.562,0 -2.747,4.047 -2.761,4.532 L -9.175,1.279 c -0.013,0.301 -0.08,2.988 1.415,4.579 0.75,0.801 1.827,1.207 3.201,1.207 1.217,0 2.16,-0.373 2.884,-1.139 C 0.204,3.935 0.002,0.042 0,0 m -4.559,7.876 c -1.606,0 -2.883,-0.492 -3.792,-1.464 -1.686,-1.795 -1.656,-4.619 -1.633,-5.158 l 1.855,-26.47 c 0.015,-0.542 0.242,-5.297 3.57,-5.297 3.029,0 3.66,4.069 3.666,5.193 l 1.047,13.305 0.655,11.965 c 0.003,0.042 0.226,4.284 -1.895,6.532 -0.885,0.938 -2.02,1.394 -3.473,1.394" /></g><g
         transform="translate(157.883,360.423)"
         id="g3738"><path
           inkscape:connector-curvature="0"
           id="path3740"
           style="fill:#9e9e9f;fill-opacity:1;fill-rule:nonzero;stroke:none"
           d="m 0,0 c -1.374,0 -2.451,-0.406 -3.201,-1.207 -1.495,-1.592 -1.428,-4.278 -1.415,-4.579 l 1.855,-26.449 c 0.013,-0.486 0.199,-4.533 2.761,-4.533 2.651,0 2.854,4.364 2.855,4.408 l 1.049,13.335 0.655,11.96 C 4.561,-7.023 4.762,-3.131 2.883,-1.14 2.16,-0.373 1.217,0 0,0" /></g><g
         transform="translate(165.021,332.118)"
         id="g3742"><path
           inkscape:connector-curvature="0"
           id="path3744"
           style="fill:#ffffff;fill-opacity:1;fill-rule:nonzero;stroke:none"
           d="M 0,0 C -0.001,-0.039 -0.003,-0.09 -0.005,-0.141 -0.003,-0.088 -0.001,-0.039 0,0" /></g><g
         transform="translate(157.848,385.807)"
         id="g3746"><path
           inkscape:connector-curvature="0"
           id="path3748"
           style="fill:#ffffff;fill-opacity:1;fill-rule:nonzero;stroke:none"
           d="M 0,0 V 0.001 C -0.17,0.002 -0.553,0.004 -1.062,0 -0.432,0.004 -0.014,0 0,0" /></g><g
         transform="translate(156.696,385.807)"
         id="g3750"><path
           inkscape:connector-curvature="0"
           id="path3752"
           style="fill:#ffffff;fill-opacity:1;fill-rule:nonzero;stroke:none"
           d="M 0,0 H 0.087 Z" /></g><g
         transform="translate(151.195,385.494)"
         id="g3754"><path
           inkscape:connector-curvature="0"
           id="path3756"
           style="fill:#ffffff;fill-opacity:1;fill-rule:nonzero;stroke:none"
           d="M 0,0 C 0.024,0.005 0.046,0.009 0.071,0.014 0.046,0.009 0.024,0.005 0,0" /></g><g
         transform="translate(151.43,385.534)"
         id="g3758"><path
           inkscape:connector-curvature="0"
           id="path3760"
           style="fill:#ffffff;fill-opacity:1;fill-rule:nonzero;stroke:none"
           d="M 0,0 C 0.008,0.001 0.016,0.003 0.024,0.004 0.016,0.003 0.008,0.001 0,0" /></g><g
         transform="translate(157.868,385.808)"
         id="g3762"><path
           inkscape:connector-curvature="0"
           id="path3764"
           style="fill:#ffffff;fill-opacity:1;fill-rule:nonzero;stroke:none"
           d="M 0,0 V 0 -0.001 Z" /></g><g
         transform="translate(150.7,331.978)"
         id="g3766"><path
           inkscape:connector-curvature="0"
           id="path3768"
           style="fill:#ffffff;fill-opacity:1;fill-rule:nonzero;stroke:none"
           d="M 0,0 C -0.002,0.052 -0.004,0.102 -0.005,0.141 -0.004,0.102 -0.002,0.054 0,0" /></g><g
         transform="translate(150.924,385.437)"
         id="g3770"><path
           inkscape:connector-curvature="0"
           id="path3772"
           style="fill:#ffffff;fill-opacity:1;fill-rule:nonzero;stroke:none"
           d="M 0,0 C 0.051,0.013 0.107,0.025 0.164,0.036 0.107,0.025 0.051,0.013 0,0" /></g><g
         transform="translate(153.312,309.318)"
         id="g3774"><path
           inkscape:connector-curvature="0"
           id="path3776"
           style="fill:#ffffff;fill-opacity:1;fill-rule:nonzero;stroke:none"
           d="m 0,0 -0.067,0.654 c -1.038,10.193 -2.113,20.734 -2.145,22.156 -0.023,1.024 -0.38,3.524 -0.876,6.999 -0.639,4.47 -1.513,10.593 -2.143,16.916 -0.048,0.483 -0.095,0.968 -0.14,1.453 -0.423,4.56 -0.638,8.553 -0.638,11.869 0,4.886 1.452,12.827 1.821,13.88 0.336,0.962 0.574,1.479 1.896,1.799 1.372,0.334 5.226,0.36 6.374,0.36 h 0.072 v -0.007 l 0.41,0.004 c 0.031,0 0.23,0.002 0.546,0.002 1.125,0 4.904,-0.025 6.275,-0.359 1.321,-0.32 1.558,-0.836 1.894,-1.797 0.381,-1.095 1.822,-8.914 1.822,-13.882 0,-3.287 -0.211,-7.242 -0.628,-11.755 -0.044,-0.484 -0.091,-0.97 -0.139,-1.454 C 13.703,40.472 12.823,34.309 12.18,29.809 L 12.004,28.573 C 11.62,25.875 11.325,23.736 11.304,22.81 11.271,21.358 10.118,10.036 9.1,0.046 L 9.096,0 h 0.407 c 1.02,10.021 2.112,20.736 2.201,22.659 0.002,0.051 0.004,0.102 0.005,0.141 0.02,0.878 0.296,2.904 0.696,5.717 0.057,0.395 0.116,0.807 0.177,1.234 0.637,4.467 1.525,10.69 2.155,17.047 0.048,0.485 0.095,0.97 0.14,1.457 0.375,4.066 0.629,8.138 0.629,11.792 0,5.008 -1.459,12.907 -1.844,14.014 -0.364,1.041 -0.692,1.698 -2.182,2.058 -1.725,0.42 -6.872,0.369 -6.924,0.369 v 0.001 h -0.02 v -0.001 c -0.014,0 -0.431,0.004 -1.062,0 H 3.471 3.384 C 1.921,76.477 -0.475,76.427 -1.857,76.22 -1.866,76.219 -1.874,76.217 -1.882,76.216 -1.938,76.207 -1.994,76.198 -2.046,76.189 -2.071,76.185 -2.093,76.181 -2.117,76.176 -2.153,76.17 -2.19,76.162 -2.224,76.155 c -0.058,-0.01 -0.113,-0.023 -0.164,-0.036 -1.49,-0.36 -1.818,-1.017 -2.182,-2.058 -0.374,-1.066 -1.845,-9.09 -1.845,-14.014 0,-3.689 0.259,-7.802 0.641,-11.906 0.045,-0.487 0.092,-0.972 0.14,-1.456 0.629,-6.319 1.51,-12.494 2.144,-16.934 0.493,-3.454 0.85,-5.949 0.873,-6.951 10e-4,-0.039 0.003,-0.089 0.005,-0.141 C -2.523,20.74 -1.429,10.023 -0.407,0 Z" /></g><g
         transform="translate(180.483,332.497)"
         id="g3802" /></g><g
       id="g4419"><g
         transform="translate(211.055,605.064)"
         id="g3194"><path
           inkscape:connector-curvature="0"
           id="path3196"
           style="fill:#ffffff;fill-opacity:1;fill-rule:nonzero;stroke:none"
           d="m 0,0 c -6.998,2.539 -19.262,-5.736 -19.384,-5.82 l -14.52,-10.149 1.171,-0.238 10.226,-1.379 6.167,5.738 73.279,-11.566 -6.234,-6.311 13.263,-1.775 c 6.31,5.205 8.039,10.34 8.473,12.143 L 39.06,-10.611 0.064,-0.018 0.273,0.756 Z" /></g><g
         transform="translate(194.19,609.826)"
         id="g3198"><path
           inkscape:connector-curvature="0"
           id="path3200"
           style="fill:#ffffff;fill-opacity:1;fill-rule:nonzero;stroke:none"
           d="M 0,0 -85.905,21.977 -97.644,35.6 c -2.256,1.41 -2.598,1.154 -2.924,0.896 -0.415,-0.521 -0.286,-4.066 0.3,-7.564 1.543,-10.549 4.077,-12.055 4.102,-12.071 l 8.381,-4.41 5.558,4.047 0.421,-0.182 57.556,-24.771 -7.147,-8.775 2.267,-1.194 c 2.286,1.518 13.797,9.149 18.101,11.811 C -8.652,-5.141 -1.693,-1.006 0,0" /></g><g
         transform="translate(190.758,600.568)"
         id="g3202"><path
           inkscape:connector-curvature="0"
           id="path3204"
           style="fill:#ffffff;fill-opacity:1;fill-rule:nonzero;stroke:none"
           d="m 0,0 c 0.527,0.359 12.625,8.51 20.425,6.146 1.808,1.356 10.497,7.885 12.995,10.194 2.267,2.086 2.028,3.148 2.024,3.16 -0.693,1.299 -3.633,1.205 -8.953,-0.389 C 21.468,18.283 4.801,8.205 4.635,8.102 L 4.225,8.777 4.629,8.1 C 4.626,8.098 -4.042,2.959 -6.751,1.277 c -4.698,-2.906 -18.069,-11.789 -18.444,-12.039 -4.576,-3.533 -7.698,-6.771 -7.748,-7.584 0.363,-0.642 2.253,-0.365 6.332,0.543 3.262,0.729 8.753,3.444 11.672,4.961 l -2.659,0.539 z" /></g><g
         transform="translate(290.919,582.224)"
         id="g3206"><path
           inkscape:connector-curvature="0"
           id="path3208"
           style="fill:#ffffff;fill-opacity:1;fill-rule:nonzero;stroke:none"
           d="m 0,0 c 0.625,3.713 -2.117,12.824 -2.987,13.609 -0.364,0.157 -0.661,0.018 -0.834,-0.111 L -5.703,3.912 C -5.788,3.275 -6.602,-1.537 -11.779,-7.02 -3.477,-3.344 -0.586,-0.615 0,0" /></g><g
         transform="translate(195.237,591.508)"
         id="g3210"><path
           inkscape:connector-curvature="0"
           id="path3212"
           style="fill:#ffffff;fill-opacity:1;fill-rule:nonzero;stroke:none"
           d="m 0,0 -4.668,-4.344 25.399,-4.248 0.685,1.496 c -0.332,0.303 -0.542,0.737 -0.542,1.223 0,0.902 0.737,1.643 1.644,1.643 0.911,0 1.648,-0.741 1.648,-1.643 0,-0.91 -0.737,-1.652 -1.648,-1.652 -0.136,0 -0.267,0.019 -0.395,0.05 l -0.574,-1.254 42.483,-7.105 0.498,-0.066 4.881,4.945 z" /></g><g
         transform="translate(112.17,624.484)"
         id="g3214"><path
           inkscape:connector-curvature="0"
           id="path3216"
           style="fill:#ffffff;fill-opacity:1;fill-rule:nonzero;stroke:none"
           d="m 0,0 -4.079,-2.969 53.514,-27.832 5.742,7.055 z" /></g><g
         transform="translate(211.329,605.82)"
         id="g3270"><path
           inkscape:connector-curvature="0"
           id="path3272"
           style="fill:#000000;fill-opacity:1;fill-rule:nonzero;stroke:none"
           d="M 0,0 V 0 0.002 Z" /></g><g
         transform="translate(165.106,590.472)"
         id="g3274"><path
           inkscape:connector-curvature="0"
           id="path3276"
           style="fill:#000000;fill-opacity:1;fill-rule:nonzero;stroke:none"
           d="M 0,0 0.001,-0.004 Z" /></g><g
         transform="translate(194.983,609.345)"
         id="g3278"><path
           inkscape:connector-curvature="0"
           id="path3280"
           style="fill:#000000;fill-opacity:1;fill-rule:nonzero;stroke:none"
           d="M 0,0 -0.194,0.326 -0.199,0.328 Z" /></g><g
         transform="translate(194.789,609.672)"
         id="g3282"><path
           inkscape:connector-curvature="0"
           id="path3284"
           style="fill:#000000;fill-opacity:1;fill-rule:nonzero;stroke:none"
           d="M 0,0 -0.224,0.377 -0.229,0.373 -0.005,0.002 Z" /></g><g
         transform="translate(161.497,594.211)"
         id="g3286"><path
           inkscape:connector-curvature="0"
           id="path3288"
           style="fill:#ffffff;fill-opacity:1;fill-rule:nonzero;stroke:none"
           d="m 0,0 -52.614,27.365 3.341,2.432 L 5.18,6.361 Z M -49.326,30.273 -53.405,27.305 0.108,-0.527 5.851,6.527 Z" /></g><g
         transform="translate(165.036,591.886)"
         id="g3290"><path
           inkscape:connector-curvature="0"
           id="path3292"
           style="fill:#ffffff;fill-opacity:1;fill-rule:nonzero;stroke:none"
           d="m 0,0 -1.598,0.84 7.175,8.808 -58.063,24.991 -0.639,0.275 -5.541,-4.033 -8.13,4.277 c -0.023,0.016 -2.424,1.66 -3.906,11.783 -0.611,3.645 -0.641,6.704 -0.399,7.209 0.072,0.053 0.111,0.071 0.193,0.071 0.353,0 1.074,-0.336 2.144,-1 L -56.98,39.545 28.076,17.783 C 25.664,16.352 19.992,12.975 17.905,11.68 13.839,9.164 3.431,2.275 0,0 m 29.154,17.939 -85.905,21.977 -11.738,13.623 c -2.257,1.41 -2.599,1.154 -2.925,0.897 -0.415,-0.522 -0.286,-4.067 0.301,-7.565 1.543,-10.549 4.076,-12.055 4.101,-12.07 l 8.381,-4.41 5.559,4.047 0.421,-0.182 L 4.904,9.484 -2.243,0.709 0.024,-0.484 c 2.287,1.517 13.797,9.148 18.101,11.81 2.377,1.473 9.336,5.608 11.029,6.613" /></g><g
         transform="translate(174.571,587.554)"
         id="g3294"><path
           inkscape:connector-curvature="0"
           id="path3296"
           style="fill:#ffffff;fill-opacity:1;fill-rule:nonzero;stroke:none"
           d="m 0,0 c -3.056,-1.555 -7.661,-3.744 -10.515,-4.381 -2.38,-0.531 -4.171,-0.885 -5.173,-0.885 -0.319,0 -0.496,0.037 -0.592,0.073 0.417,0.843 2.977,3.599 7.514,7.107 l 0.04,0.025 c 2.305,1.532 14.027,9.303 18.383,11.999 3.371,2.091 28.247,16.978 33.089,17.775 l 0.053,0.012 c 2.81,0.841 4.982,1.269 6.453,1.269 0.721,0 1.633,-0.107 1.971,-0.609 -0.011,-0.217 -0.166,-1.131 -1.899,-2.725 -2.352,-2.174 -10.178,-8.078 -12.796,-10.041 -0.926,0.258 -1.95,0.389 -3.044,0.389 -7.677,0 -17.133,-6.379 -17.536,-6.653 L -2.447,0.496 Z m 16.187,13.014 c 0.528,0.359 12.625,8.509 20.425,6.146 1.808,1.356 10.497,7.885 12.996,10.193 2.266,2.086 2.028,3.149 2.024,3.161 -0.693,1.299 -3.634,1.205 -8.953,-0.389 C 37.655,31.297 12.146,15.973 9.437,14.291 4.738,11.385 -8.633,2.502 -9.008,2.252 c -4.576,-3.533 -7.698,-6.772 -7.748,-7.584 0.364,-0.643 2.253,-0.365 6.332,0.543 3.263,0.728 8.753,3.443 11.672,4.961 L -1.41,0.711 Z" /></g><g
         transform="translate(290.529,582.42)"
         id="g3298"><path
           inkscape:connector-curvature="0"
           id="path3300"
           style="fill:#ffffff;fill-opacity:1;fill-rule:nonzero;stroke:none"
           d="m 0,0 c -0.638,-0.637 -3.203,-2.93 -9.772,-6.018 4.132,4.989 4.804,9.174 4.869,9.655 l 1.845,9.402 c 0.067,0.025 0.146,0.035 0.228,0.016 C -2.109,12.139 0.533,3.723 0,0 M -3.431,13.303 -5.312,3.717 c -0.085,-0.637 -0.899,-5.449 -6.077,-10.932 8.303,3.676 11.194,6.404 11.78,7.02 0.625,3.713 -2.118,12.824 -2.988,13.609 -0.363,0.156 -0.661,0.018 -0.834,-0.111" /></g><g
         transform="translate(274.897,574.002)"
         id="g3302"><path
           inkscape:connector-curvature="0"
           id="path3304"
           style="fill:#ffffff;fill-opacity:1;fill-rule:nonzero;stroke:none"
           d="m 0,0 -12.251,1.641 6.216,6.294 -74.081,11.694 -0.201,0.029 -6.172,-5.744 -10.004,1.352 -0.215,0.044 13.718,9.588 c 0.092,0.063 9.212,6.231 16.12,6.231 1.076,0 2.047,-0.154 2.909,-0.465 L -24.888,20.047 8.091,11.406 C 7.507,9.301 5.655,4.715 0,0 m -24.782,20.451 -38.996,10.594 -0.064,0.017 c -6.998,2.54 -19.262,-5.736 -19.384,-5.82 l -14.52,-10.148 1.171,-0.239 10.226,-1.378 6.167,5.738 L -6.903,7.648 -13.137,1.338 0.126,-0.437 C 6.436,4.768 8.165,9.902 8.6,11.705 Z" /></g><g
         transform="translate(215.789,582.523)"
         id="g3306"><path
           inkscape:connector-curvature="0"
           id="path3308"
           style="fill:#ffffff;fill-opacity:1;fill-rule:nonzero;stroke:none"
           d="M 0,0 V 0 L 0.322,-0.055 Z" /></g><g
         transform="translate(259.918,575.166)"
         id="g3310"><path
           inkscape:connector-curvature="0"
           id="path3312"
           style="fill:#ffffff;fill-opacity:1;fill-rule:nonzero;stroke:none"
           d="m 0,0 5.599,5.672 -70.215,11.082 -0.201,0.031 -5.436,-5.058 26.124,-4.37 0.18,0.393 -25.4,4.248 4.668,4.344 L 4.73,5.387 -0.15,0.441 -0.648,0.508 -43.132,7.613 -43.311,7.221 -42.884,7.148 -0.704,0.094 Z" /></g><g
         transform="translate(291.332,582.154)"
         id="g3314"><path
           inkscape:connector-curvature="0"
           id="path3316"
           style="fill:#000000;fill-opacity:1;fill-rule:nonzero;stroke:none"
           d="M 0,0 -0.021,-0.125 -0.109,-0.219 C -0.821,-0.965 -3.782,-3.684 -12.022,-7.33 l -1.898,-0.84 1.425,1.508 c 5.129,5.428 5.896,10.176 5.967,10.701 l 1.916,9.768 0.13,0.097 c 0.373,0.278 0.83,0.338 1.247,0.161 l 0.064,-0.028 0.051,-0.049 C -2.038,13.012 0.62,3.684 0,0 m -16.043,-8.912 -0.141,-0.115 -14.272,1.91 6.249,6.328 -72.273,11.408 -6.164,-5.736 -10.423,1.408 -2.151,0.434 15.319,10.709 c 0.096,0.064 9.432,6.378 16.594,6.378 1.174,0 2.241,-0.171 3.171,-0.509 l 0.04,-0.012 38.987,-10.59 L -7.334,3.854 -7.43,3.455 C -7.905,1.482 -9.694,-3.674 -16.043,-8.912 m -16.075,2.017 -42.18,7.055 -0.427,0.072 -0.496,0.083 -0.322,0.054 -26.124,4.369 5.436,5.059 0.201,-0.031 70.215,-11.082 -5.599,-5.672 z M -115.32,5.201 c -2.982,-1.549 -8.475,-4.26 -11.774,-4.998 -2.435,-0.541 -4.277,-0.902 -5.354,-0.902 -0.479,0 -1.147,0.058 -1.433,0.562 l -0.06,0.108 0.007,0.123 c 0.076,1.215 4.131,4.971 7.91,7.89 l 0.075,0.051 c 2.308,1.531 14.04,9.311 18.406,12.012 0.271,0.17 27.853,16.937 33.367,17.885 2.876,0.861 5.118,1.297 6.667,1.297 1.427,0 2.352,-0.375 2.748,-1.118 l 0.029,-0.068 c 0.017,-0.051 0.379,-1.279 -2.138,-3.598 -2.435,-2.248 -10.588,-8.39 -13.028,-10.218 l -0.169,-0.127 -0.203,0.062 c -0.9,0.272 -1.913,0.41 -3.006,0.41 -7.423,0 -16.672,-6.238 -17.063,-6.504 l -16.797,-11.74 2.863,-0.582 z m -13.866,5.11 7.122,8.742 -57.251,24.638 -5.576,-4.058 -8.611,4.531 c -0.122,0.068 -2.751,1.66 -4.32,12.379 -0.468,2.791 -0.846,7.09 -0.215,7.885 l 0.068,0.068 c 0.148,0.117 0.369,0.293 0.765,0.293 0.547,0 1.337,-0.348 2.641,-1.162 l 0.052,-0.033 0.041,-0.049 11.655,-13.523 86.752,-22.196 -0.866,-0.514 c -1.418,-0.841 -8.616,-5.117 -11.022,-6.609 -4.143,-2.562 -14.894,-9.683 -18.09,-11.803 l -0.206,-0.136 z m -54.845,28.992 4.817,3.506 55.903,-24.061 -6.306,-7.746 z M -2.824,14.713 c -0.301,0.137 -0.605,0.207 -0.903,0.207 -0.749,0 -1.317,-0.434 -1.536,-0.688 l -0.066,-0.078 -1.876,-9.539 -33.702,8.832 -38.232,10.385 0.683,0.512 c 2.889,2.172 9.851,7.449 12.109,9.535 2.869,2.641 2.443,4.182 2.31,4.494 -0.575,1.086 -1.753,1.613 -3.6,1.613 -2.106,0 -4.679,-0.695 -6.685,-1.3 l -0.054,-0.012 c -4.329,-0.707 -16.869,-7.987 -20.61,-10.201 l -0.149,-0.088 -87.257,22.322 -11.551,13.41 -0.132,0.113 c -1.498,0.946 -2.44,1.348 -3.146,1.348 -0.423,0 -0.798,-0.144 -1.217,-0.469 -0.886,-0.685 -0.943,-3.931 -0.149,-8.685 1.695,-11.576 4.594,-12.887 4.716,-12.938 l 0.036,-0.017 66.9,-35.215 -0.503,-0.399 c -7.518,-5.951 -7.389,-7.789 -7.171,-8.21 0.399,-0.758 1.087,-1.082 2.299,-1.082 1.302,0 3.13,0.384 5.386,0.886 4.36,0.975 12.193,5.17 13.72,6.002 l 0.119,0.065 0.136,-0.018 10.772,-1.457 26.301,-4.398 0.818,-0.137 0.634,-0.106 42.192,-7.056 16.211,-2.176 0.092,0.039 c 12.745,5.006 16.177,8.787 16.541,9.221 l 0.109,0.238 c 0.772,3.779 -1.974,14.336 -3.545,15.047" /></g><g
         transform="translate(161.605,593.683)"
         id="g3318"><path
           inkscape:connector-curvature="0"
           id="path3320"
           style="fill:#ffffff;fill-opacity:1;fill-rule:nonzero;stroke:none"
           d="m 0,0 -53.514,27.832 4.079,2.969 L 5.742,7.055 Z m -49.487,31.279 -4.818,-3.506 54.414,-28.3 6.307,7.746 z" /></g><g
         transform="translate(275.023,573.564)"
         id="g3322"><path
           inkscape:connector-curvature="0"
           id="path3324"
           style="fill:#ffffff;fill-opacity:1;fill-rule:nonzero;stroke:none"
           d="m 0,0 -13.263,1.775 6.234,6.311 -73.279,11.566 -6.167,-5.738 -10.226,1.379 -1.171,0.238 14.52,10.149 c 0.122,0.084 12.386,8.359 19.384,5.82 l 0.064,-0.018 38.996,-10.593 33.382,-8.746 C 8.039,10.34 6.31,5.205 0,0 m 8.879,12.045 0.096,0.398 -33.774,8.848 -38.986,10.59 -0.04,0.012 c -0.931,0.337 -1.997,0.509 -3.171,0.509 -7.162,0 -16.498,-6.314 -16.595,-6.379 l -15.318,-10.709 2.15,-0.433 10.424,-1.408 6.163,5.736 72.274,-11.408 -6.249,-6.328 14.272,-1.91 0.141,0.115 c 6.348,5.238 8.137,10.394 8.613,12.367" /></g><g
         transform="translate(290.919,582.224)"
         id="g3326"><path
           inkscape:connector-curvature="0"
           id="path3328"
           style="fill:#ffffff;fill-opacity:1;fill-rule:nonzero;stroke:none"
           d="m 0,0 c -0.586,-0.615 -3.477,-3.344 -11.779,-7.02 5.177,5.483 5.991,10.295 6.076,10.932 l 1.882,9.586 c 0.173,0.129 0.47,0.268 0.834,0.111 C -2.117,12.824 0.625,3.713 0,0 m -2.759,13.967 -0.064,0.027 c -0.417,0.178 -0.874,0.117 -1.247,-0.16 L -4.2,13.736 -6.116,3.969 c -0.07,-0.526 -0.838,-5.274 -5.967,-10.701 l -1.425,-1.508 1.898,0.84 c 8.24,3.646 11.201,6.365 11.913,7.111 l 0.088,0.094 0.021,0.125 c 0.62,3.683 -2.038,13.011 -3.12,13.988 z" /></g><g
         transform="translate(162.793,592.595)"
         id="g3330"><path
           inkscape:connector-curvature="0"
           id="path3332"
           style="fill:#ffffff;fill-opacity:1;fill-rule:nonzero;stroke:none"
           d="m 0,0 7.147,8.775 -57.555,24.772 -0.421,0.182 -5.559,-4.047 -8.38,4.41 c -0.026,0.015 -2.559,1.521 -4.102,12.07 -0.587,3.498 -0.716,7.043 -0.301,7.565 0.326,0.257 0.668,0.513 2.925,-0.897 L -54.508,39.207 31.397,17.23 C 29.704,16.225 22.745,12.09 20.368,10.617 16.064,7.955 4.554,0.324 2.268,-1.193 Z m 2.498,-1.541 c 3.196,2.119 13.947,9.24 18.09,11.803 2.406,1.492 9.604,5.767 11.022,6.609 l 0.867,0.514 -86.753,22.195 -11.655,13.524 -0.041,0.048 -0.052,0.034 c -1.304,0.814 -2.094,1.162 -2.641,1.162 -0.396,0 -0.617,-0.176 -0.765,-0.293 l -0.068,-0.069 c -0.631,-0.795 -0.253,-5.093 0.215,-7.884 1.569,-10.719 4.198,-12.311 4.32,-12.379 l 8.611,-4.532 5.576,4.059 L 6.475,8.611 -0.646,-0.131 2.292,-1.678 Z" /></g><g
         transform="translate(175.819,587.726)"
         id="g3334"><path
           inkscape:connector-curvature="0"
           id="path3336"
           style="fill:#ffffff;fill-opacity:1;fill-rule:nonzero;stroke:none"
           d="m 0,0 c -2.919,-1.518 -8.409,-4.232 -11.672,-4.961 -4.079,-0.908 -5.969,-1.185 -6.332,-0.543 0.05,0.813 3.172,4.051 7.748,7.584 0.375,0.25 13.746,9.133 18.444,12.039 2.709,1.682 28.219,17.006 33.243,17.834 5.319,1.594 8.259,1.688 8.953,0.389 0.004,-0.012 0.242,-1.074 -2.025,-3.16 C 45.861,26.873 37.172,20.344 35.364,18.988 27.564,21.352 15.467,13.201 14.939,12.842 L -2.658,0.539 Z m 15.174,12.496 c 0.39,0.266 9.639,6.504 17.062,6.504 1.094,0 2.107,-0.139 3.007,-0.41 l 0.202,-0.063 0.169,0.127 c 2.441,1.828 10.594,7.971 13.029,10.219 2.517,2.318 2.155,3.547 2.137,3.598 l -0.028,0.068 c -0.397,0.742 -1.321,1.117 -2.748,1.117 -1.549,0 -3.791,-0.435 -6.667,-1.297 C 35.822,31.412 8.24,14.645 7.97,14.475 3.604,11.773 -8.128,3.994 -10.437,2.463 l -0.075,-0.051 c -3.778,-2.92 -7.834,-6.676 -7.909,-7.89 l -0.008,-0.124 0.061,-0.107 c 0.286,-0.504 0.954,-0.562 1.432,-0.562 1.078,0 2.919,0.361 5.355,0.902 3.299,0.738 8.792,3.449 11.773,4.998 l 1.047,0.545 -2.862,0.582 z" /></g></g><g
       id="g3138"
       transform="translate(14.2383,256.102)"><path
         d="M 0,0 358.63,0.004"
         style="fill:#000000;fill-opacity:1;fill-rule:nonzero;stroke:#000000;stroke-width:0.42500001;stroke-linecap:butt;stroke-linejoin:miter;stroke-miterlimit:10;stroke-dasharray:none;stroke-opacity:1"
         id="path3140"
         inkscape:connector-curvature="0" /></g><g
       id="g3190"
       transform="translate(19.0723,750.141)"><path
         d="M 0,0 -0.542,2.137 -1.08,0 Z m -0.904,2.889 h 0.878 L 1.245,-1.777 H 0.452 l -0.297,1.169 h -1.388 l -0.294,-1.169 h -0.748 z"
         style="fill:#000000;fill-opacity:1;fill-rule:nonzero;stroke:none"
         id="path3192"
         inkscape:connector-curvature="0" /></g><g
       id="g4439"><g
         transform="translate(217.551,584.449)"
         id="g3226"><path
           inkscape:connector-curvature="0"
           id="path3228"
           style="fill:#000000;fill-opacity:1;fill-rule:nonzero;stroke:none"
           d="m 0,0 -0.191,-0.416 c 0.128,-0.031 0.258,-0.051 0.395,-0.051 0.91,0 1.648,0.742 1.648,1.653 0,0.902 -0.738,1.642 -1.648,1.642 -0.907,0 -1.644,-0.74 -1.644,-1.642 0,-0.487 0.21,-0.92 0.542,-1.223 l 0.169,0.373 z" /></g><g
         transform="translate(210.67,571.34)"
         id="g3230"><path
           inkscape:connector-curvature="0"
           id="path3232"
           style="fill:#000000;fill-opacity:1;fill-rule:nonzero;stroke:none"
           d="M 0,0 0.727,-0.334 5.425,9.928 4.606,10.064 Z" /></g><g
         transform="translate(216.653,584.412)"
         id="g3234"><path
           inkscape:connector-curvature="0"
           id="path3236"
           style="fill:#000000;fill-opacity:1;fill-rule:nonzero;stroke:none"
           d="m 0,0 -0.685,-1.496 0.818,-0.137 0.574,1.254 C 0.439,-0.312 0.198,-0.18 0,0" /></g><g
         transform="translate(215.968,582.916)"
         id="g3238"><path
           inkscape:connector-curvature="0"
           id="path3240"
           style="fill:#000000;fill-opacity:1;fill-rule:nonzero;stroke:none"
           d="m 0,0 -0.692,-1.512 0.818,-0.136 0.691,1.511 z" /></g><g
         transform="translate(217.551,584.449)"
         id="g3242"><path
           inkscape:connector-curvature="0"
           id="path3244"
           style="fill:#000000;fill-opacity:1;fill-rule:nonzero;stroke:none"
           d="m 0,0 -0.729,0.336 -0.169,-0.373 c 0.198,-0.18 0.439,-0.313 0.707,-0.379 z" /></g></g><g
       id="g4427"><g
         transform="translate(131.605,611.131)"
         id="g3218"><path
           inkscape:connector-curvature="0"
           id="path3220"
           style="fill:#000000;fill-opacity:1;fill-rule:nonzero;stroke:none"
           d="m 0,0 -0.189,-0.416 c 0.125,-0.031 0.257,-0.049 0.393,-0.049 0.909,0 1.648,0.736 1.648,1.649 0,0.906 -0.739,1.642 -1.648,1.642 -0.907,0 -1.644,-0.736 -1.644,-1.642 0,-0.485 0.21,-0.918 0.542,-1.221 l 0.169,0.373 z" /></g><g
         transform="translate(131.605,611.131)"
         id="g3222"><path
           inkscape:connector-curvature="0"
           id="path3224"
           style="fill:#000000;fill-opacity:1;fill-rule:nonzero;stroke:none"
           d="m 0,0 -0.729,0.336 -0.169,-0.373 c 0.198,-0.18 0.44,-0.313 0.709,-0.379 z" /></g><g
         transform="translate(130.707,611.094)"
         id="g3338"><path
           inkscape:connector-curvature="0"
           id="path3340"
           style="fill:#000000;fill-opacity:1;fill-rule:nonzero;stroke:none"
           d="m 0,0 -5.983,-13.072 0.727,-0.336 5.965,13.029 C 0.44,-0.312 0.198,-0.18 0,0" /></g></g><g
       id="g3342"
       transform="translate(19.2773,663.568)"><path
         d="m 0,0 v -3.918 h 0.373 c 0.522,0 0.9,0.178 1.136,0.533 0.236,0.356 0.354,0.83 0.354,1.424 C 1.863,-0.653 1.366,0 0.373,0 Z m -0.896,0.707 h 1.218 c 0.59,0 1.061,-0.103 1.415,-0.309 C 2.09,0.192 2.357,-0.113 2.538,-0.52 2.719,-0.926 2.81,-1.376 2.81,-1.871 2.81,-2.392 2.729,-2.856 2.566,-3.264 2.403,-3.671 2.155,-4 1.82,-4.25 1.485,-4.5 1.008,-4.625 0.39,-4.625 h -1.286 z"
         style="fill:#000000;fill-opacity:1;fill-rule:nonzero;stroke:none"
         id="path3344"
         inkscape:connector-curvature="0" /></g><g
       id="g3346"
       transform="translate(18.0381,552.503)"><path
         d="m 0,0 -1.14,4.295 h 0.583 L 0.097,1.479 C 0.167,1.185 0.228,0.892 0.278,0.601 0.388,1.06 0.452,1.324 0.472,1.395 l 0.817,2.9 H 1.975 L 2.59,2.121 C 2.744,1.582 2.855,1.075 2.924,0.601 2.979,0.872 3.05,1.184 3.138,1.535 l 0.674,2.76 H 4.383 L 3.205,0 H 2.657 L 1.752,3.272 C 1.676,3.546 1.631,3.714 1.617,3.776 1.572,3.579 1.53,3.411 1.491,3.272 L 0.58,0 Z"
         style="fill:#000000;fill-opacity:1;fill-rule:nonzero;stroke:none"
         id="path3348"
         inkscape:connector-curvature="0" /></g><g
       id="g3350"
       transform="translate(18.3809,488.104)"><path
         d="M 0,0 V 3.788 H -1.415 V 4.295 H 1.989 V 3.788 H 0.568 L 0.568,0 Z"
         style="fill:#000000;fill-opacity:1;fill-rule:nonzero;stroke:none"
         id="path3352"
         inkscape:connector-curvature="0" /></g><g
       id="g3354"
       transform="translate(17.1465,437.17)"><path
         d="M 0,0 V 4.295 H 0.855 L 1.872,1.254 C 1.966,0.971 2.034,0.759 2.077,0.618 2.126,0.774 2.202,1.004 2.306,1.307 L 3.334,4.295 H 4.099 V 0 H 3.551 V 3.595 L 2.303,0 H 1.79 L 0.548,3.656 V 0 Z"
         style="fill:#000000;fill-opacity:1;fill-rule:nonzero;stroke:none"
         id="path3356"
         inkscape:connector-curvature="0" /></g><g
       id="g3358"
       transform="translate(16.7935,419.651)"><path
         d="M 0,0 H 0.941 L 1.972,-4.254 3.006,0 H 3.797 L 2.368,-5.344 1.397,-5.332 Z"
         style="fill:#000000;fill-opacity:1;fill-rule:nonzero;stroke:none"
         id="path3360"
         inkscape:connector-curvature="0" /></g><g
       id="g4477"><g
         transform="translate(219.958,366.858)"
         id="g3362"><path
           inkscape:connector-curvature="0"
           id="path3364"
           style="fill:#ffffff;fill-opacity:1;fill-rule:nonzero;stroke:none"
           d="m 0,0 -4.026,1.531 58.414,42.231 5.236,-7.584 z" /></g><g
         transform="translate(201.977,402.719)"
         id="g3366"><path
           inkscape:connector-curvature="0"
           id="path3368"
           style="fill:#ffffff;fill-opacity:1;fill-rule:nonzero;stroke:none"
           d="m 0,0 c -0.928,0.851 -1.482,0.804 -1.663,0.645 l -3.4,-2.355 2.138,-2.756 0.53,-0.684 18.3,-23.601 c 1.304,0.783 4.435,2.866 7.405,4.896 C 19.673,-20.102 1.593,-1.456 0,0" /></g><g
         transform="translate(240.114,376.966)"
         id="g3370"><path
           inkscape:connector-curvature="0"
           id="path3372"
           style="fill:#ffffff;fill-opacity:1;fill-rule:nonzero;stroke:none"
           d="M 0,0 C -2.52,-0.551 -3.652,-1.72 -3.664,-1.731 L -6.69,-4.432 c 6.422,0.936 15.461,2.362 24.004,4.082 L 17.14,0.031 c -0.006,0 -0.012,-0.002 -0.018,-0.002 -0.464,0 -0.843,0.378 -0.843,0.844 0,0.465 0.379,0.843 0.843,0.843 0.466,0 0.843,-0.378 0.843,-0.843 0,-0.178 -0.055,-0.342 -0.149,-0.477 l 0.27,-0.589 c 3.002,0.613 5.93,1.262 8.648,1.939 L 29.96,5.828 C 23.289,4.546 2.353,0.51 0,0" /></g><g
         transform="translate(233.419,376.963)"
         id="g3374"><path
           inkscape:connector-curvature="0"
           id="path3376"
           style="fill:#ffffff;fill-opacity:1;fill-rule:nonzero;stroke:none"
           d="m 0,0 c -0.078,-0.05 -7.04,-4.394 -8.882,-5.605 0.077,-0.005 0.144,-0.011 0.207,-0.019 0.517,0.065 2.7,0.346 5.933,0.801 l 4.701,4.192 c 0.003,0.009 1.378,1.472 4.409,2.134 2.808,0.611 30.833,5.999 32.024,6.228 l 2.026,0.39 -4.53,-5.736 c 0.234,0.063 0.466,0.126 0.695,0.189 V 2.573 c -0.027,0 5.516,2.651 10.146,6.681 0.354,0.271 1.008,0.95 0.906,1.409 -0.039,0.182 -0.333,0.803 -2.467,1.302 L 18.563,9.813 18.686,9.891 C 16.998,9.705 14.966,9.324 13.647,8.544 10.992,6.978 0.111,0.068 0,0" /></g><g
         transform="translate(204.935,408.973)"
         id="g3378"><path
           inkscape:connector-curvature="0"
           id="path3380"
           style="fill:#ffffff;fill-opacity:1;fill-rule:nonzero;stroke:none"
           d="m 0,0 -10.07,-5.321 1.107,-1.428 3.361,2.313 -0.003,-0.001 c -0.024,0 0.411,0.414 1.179,0.452 0.726,0.037 1.638,-0.341 2.505,-1.135 1.798,-1.642 23.104,-23.638 24.01,-24.573 l 0.633,-0.654 -0.75,-0.514 c -1.968,-1.352 -6.08,-4.154 -8.082,-5.36 l 0.679,-0.876 22.991,16.641 C 32.424,-17.245 7.986,-1.978 5.251,-0.382 2.578,1.177 0.105,0.049 0,0" /></g><g
         transform="translate(218.125,372.883)"
         id="g3394"><path
           inkscape:connector-curvature="0"
           id="path3396"
           style="fill:#231815;fill-opacity:1;fill-rule:nonzero;stroke:none"
           d="m 0,0 0.456,0.275 c 2.04,1.228 6.315,4.146 8.058,5.343 L 8.803,5.816 8.56,6.067 c -6.159,6.361 -22.474,23.17 -23.989,24.554 -0.733,0.67 -1.53,1.045 -2.163,1.011 -0.544,-0.027 -0.854,-0.293 -0.857,-0.296 0.081,0.075 0.178,0.274 0.093,0.49 l -0.407,-0.16 0.239,-0.401 -3.729,-2.567 -1.726,2.226 10.568,5.583 c 0.125,0.059 1.091,0.496 2.467,0.496 1.144,0 2.235,-0.298 3.244,-0.887 2.998,-1.749 32.028,-19.898 32.321,-20.082 L 25.216,15.662 1.285,-1.658 Z m -21.891,28.232 3.793,2.625 c 0.113,0.091 0.302,0.189 0.587,0.189 0.492,0 1.058,-0.29 1.682,-0.862 C -14.113,28.616 6.62,7.22 7.501,6.31 L 7.892,5.907 7.428,5.59 C 4.116,3.327 1.2,1.4 0,0.679 L -0.359,0.463 Z m 26.84,-30.155 1.203,0.792 c 1.066,0.701 4.139,2.642 8.654,5.463 l 0.566,0.357 c 7.048,4.467 11.782,7.43 13.329,8.342 1.149,0.68 2.907,1.155 5.227,1.41 l 2.067,0.226 -0.234,-0.144 24.737,2 0.072,-0.017 c 2.143,-0.502 2.717,-1.182 2.821,-1.663 C 63.58,13.99 62.465,13.08 62.323,12.969 58.451,9.601 53.949,7.172 53.052,6.7185 L 51.477547,6.0406719 49.926,5.638 54.553,11.497 53.299,11.255 C 44.61,9.583 24.143,5.639 21.762,5.121 19.232,4.568 17.939,3.454 17.663,3.191 L 17.658,3.177 12.76,-1.19 12.618,-1.211 C 9.415,-1.662 7.262,-1.938 6.679,-2.013 L 6.619,-2.02 6.559,-2.013 C 6.507,-2.007 6.451,-2.001 6.387,-1.998 Z M 48.837,5.37 C 46.27,4.732 43.354,4.077 40.169,3.427 L 39.396,3.271 C 30.73,1.525 21.545,0.084 15.367,-0.816 l -1.557,-0.228 4.189,3.738 c 0.178,0.177 1.391,1.305 3.889,1.851 2.729,0.592 29.699,5.778 29.971,5.831 l 1.249,0.24 -4.114,-5.207 z M 2.167,-6.179 6.72,-2.604 6.85,-2.587 c 1.827,0.233 18.274,2.366 33.012,5.358 l 0.769,0.158 c 4.464,0.919 8.371,1.84 11.611,2.734 0.484,0.232 5.858,2.844 10.436,6.833 l 0.023,0.019 c 0.158,0.121 1.533,1.217 1.269,2.449 -0.21,0.977 -1.318,1.68 -3.387,2.144 L 60.537,17.119 38.144,15.309 61.612,29.902 61.276,30.39 36.863,15.207 36.734,15.203 C 33.018,15.112 30.059,14.521 28.402,13.541 25.795,12.004 15.419,5.42 14.732,4.98 14.093,4.584 6.835,0.053 5.558,-0.815 5.072,-1.147 4.538,-1.581 4.664,-2.027 4.709,-2.188 4.805,-2.296 4.976,-2.381 L 5.639,-2.71 2.031,-5.604 1.929,-5.628 C 1.688,-5.687 1.435,-5.717 1.177,-5.717 c -0.945,0 -1.805,0.396 -2.36,0.728 l -0.615,0.368 58.186,42.115 -0.335,0.486 -30.32,-21.944 -0.27,0.169 c -1.217,0.761 -29.848,18.662 -32.865,20.421 -1.098,0.64 -2.285,0.965 -3.527,0.965 -1.575,0 -2.699,-0.532 -2.746,-0.555 L -24.877,31.117 0.807,-2.004 -2.717,-4.555 -2.453,-4.8 c 0.067,-0.061 1.644,-1.506 3.625,-1.506 v -0.472 l 0.003,0.472 c 0.339,0 0.673,0.042 0.992,0.127"
           sodipodi:nodetypes="ccccccccccccccscccccccscccccccccccccccccccccccccccccccccccccccccccccccccccccccccccccccccccccscccccccsccccccccc" /></g><g
         transform="translate(266.577,379.132)"
         id="g3398"><path
           inkscape:connector-curvature="0"
           id="path3400"
           style="fill:#ffffff;fill-opacity:1;fill-rule:nonzero;stroke:none"
           d="m 0,0 c -2.516,-0.624 -5.365,-1.262 -8.472,-1.896 l -0.77,-0.156 c -7.944,-1.6 -16.327,-2.943 -22.419,-3.848 l 1.849,1.649 0.022,0.022 c 0.044,0.044 1.096,1.091 3.427,1.601 2.38,0.516 23.328,4.552 28.701,5.586 z m -26.463,-2.166 c -2.52,-0.551 -3.652,-1.72 -3.664,-1.731 l -3.026,-2.701 c 6.422,0.936 15.462,2.362 24.004,4.082 0.258,0.052 0.515,0.105 0.772,0.157 3.002,0.613 5.93,1.262 8.648,1.939 L 3.497,3.662 C -3.174,2.38 -24.11,-1.656 -26.463,-2.166" /></g><g
         transform="translate(233.432,376.413)"
         id="g3402"><path
           inkscape:connector-curvature="0"
           id="path3404"
           style="fill:#ffffff;fill-opacity:1;fill-rule:nonzero;stroke:none"
           d="m 0,0 0.237,0.147 c 0.011,0.007 0.128,0.082 0.334,0.213 7.041,4.462 11.765,7.419 13.304,8.328 0.815,0.481 2.051,0.862 3.616,1.116 l 27.628,2.234 c 1.831,-0.44 2.039,-0.924 2.041,-0.924 0.012,-0.154 -0.34,-0.635 -0.732,-0.935 L 46.405,10.16 C 43.165,7.34 39.465,5.187 37.379,4.075 l 4.185,5.301 -3.75,-0.723 C 29.121,6.98 8.646,3.034 6.254,2.515 3.639,1.943 2.092,0.76 1.638,0.265 L 1.632,0.272 -2.962,-3.825 C -4.6,-4.056 -5.955,-4.238 -6.955,-4.372 -5.399,-3.383 -3.023,-1.89 0,0 m -2.755,-4.273 4.702,4.192 c 0.003,0.009 1.377,1.472 4.408,2.134 2.809,0.611 30.833,5.999 32.024,6.228 l 2.026,0.39 -4.53,-5.736 c 0.234,0.063 0.466,0.126 0.695,0.189 V 3.123 c -0.027,0 5.516,2.65 10.146,6.681 0.354,0.271 1.008,0.95 0.906,1.409 -0.039,0.182 -0.333,0.803 -2.467,1.302 L 18.55,10.363 18.673,10.441 C 16.985,10.255 14.953,9.874 13.635,9.094 10.979,7.527 0.098,0.618 -0.013,0.55 -0.091,0.5 -7.053,-3.844 -8.895,-5.056 c 0.078,-0.005 0.144,-0.01 0.207,-0.018 0.518,0.065 2.7,0.345 5.933,0.801" /></g><g
         transform="translate(221.371,373.811)"
         id="g3406"><path
           inkscape:connector-curvature="0"
           id="path3408"
           style="fill:#ffffff;fill-opacity:1;fill-rule:nonzero;stroke:none"
           d="M 0,0 -1.774,-1.284 -1.85,-1.186 C -1.314,-0.853 -0.678,-0.444 0,0 m 5.993,5.798 c -0.222,0.228 -22.183,22.907 -24.03,24.593 -0.889,0.813 -1.857,1.26 -2.726,1.26 -0.041,0 -0.083,-0.001 -0.122,-0.003 -0.481,-0.023 -1.138,-0.238 -1.45,-0.552 l -2.964,-2.04 -0.489,0.63 9.554,5.047 c 0.034,0.017 0.853,0.397 2.044,0.397 0.974,0 1.905,-0.255 2.767,-0.758 C -8.676,32.77 16.097,17.29 20.278,14.677 L 6.825,4.939 Z m 15.131,8.908 c -5.136,3.211 -29.574,18.479 -32.309,20.074 -2.673,1.559 -5.146,0.431 -5.251,0.382 l -10.07,-5.321 1.107,-1.428 3.361,2.314 -0.004,-0.002 c -0.023,0 0.412,0.414 1.18,0.452 0.726,0.037 1.638,-0.341 2.505,-1.135 C -16.559,28.4 4.747,6.404 5.653,5.469 L 6.286,4.815 5.536,4.301 C 3.568,2.949 -0.544,0.147 -2.546,-1.059 l 0.679,-0.876 z" /></g><g
         transform="translate(197.593,400.904)"
         id="g3410"><path
           inkscape:connector-curvature="0"
           id="path3412"
           style="fill:#ffffff;fill-opacity:1;fill-rule:nonzero;stroke:none"
           d="m 0,0 3.001,2.078 c 0.005,0.001 0.012,0.001 0.02,0.001 0.063,0 0.407,-0.029 1.044,-0.614 1.589,-1.451 19.884,-20.321 22.898,-23.432 -2.813,-1.917 -5.281,-3.551 -6.56,-4.345 z M 4.384,1.814 C 3.456,2.665 2.901,2.618 2.721,2.459 l -3.4,-2.354 2.138,-2.756 0.53,-0.685 18.3,-23.6 c 1.304,0.783 4.435,2.866 7.405,4.895 C 24.057,-18.287 5.977,0.358 4.384,1.814" /></g><g
         transform="translate(221.879,370.599)"
         id="g3414"><path
           inkscape:connector-curvature="0"
           id="path3416"
           style="fill:#ffffff;fill-opacity:1;fill-rule:nonzero;stroke:none"
           d="m 0,0 c 0.055,-0.194 0.142,-0.367 0.261,-0.517 l -2.407,-1.93 c -0.139,-0.027 -0.284,-0.04 -0.431,-0.04 -0.43,0 -0.848,0.112 -1.211,0.259 l 3.732,2.702 C -0.063,0.323 -0.047,0.165 0,0 m -1.936,-2.885 2.948,2.365 c -0.261,0.129 -0.467,0.33 -0.557,0.648 -0.237,0.836 0.69,1.463 1.083,1.731 1.338,0.91 8.864,5.605 9.186,5.804 0.441,0.282 11.006,6.99 13.683,8.569 2.652,1.569 7.437,1.701 8.562,1.728 L 57.254,33.063 56.986,33.453 32.828,18.43 C 30.099,18.354 26.43,17.979 24.167,16.64 21.551,15.097 11.157,8.501 10.475,8.064 10.466,8.06 10.355,7.99 10.163,7.87 L 53.17,38.999 52.902,39.389 -4.694,-2.3 c 0.674,-0.403 1.719,-0.838 2.758,-0.585" /></g><g
         transform="translate(266.848,378.712)"
         id="g3418"><path
           inkscape:connector-curvature="0"
           id="path3420"
           style="fill:#ffffff;fill-opacity:1;fill-rule:nonzero;stroke:none"
           d="m 0,0 c -2.718,-0.677 -5.646,-1.326 -8.648,-1.939 -0.257,-0.052 -0.514,-0.105 -0.772,-0.157 -8.542,-1.72 -17.582,-3.146 -24.004,-4.082 l 3.026,2.701 c 0.012,0.011 1.144,1.18 3.664,1.731 2.353,0.51 23.289,4.546 29.96,5.828 z m 3.137,4.547 c -0.272,-0.053 -27.242,-5.239 -29.972,-5.831 -2.498,-0.546 -3.711,-1.674 -3.888,-1.851 l -4.19,-3.738 1.557,0.228 c 6.179,0.9 15.363,2.34 24.03,4.086 l 0.773,0.157 c 3.184,0.65 6.1,1.304 8.667,1.943 l 0.157,0.039 4.114,5.207 z" /></g><g
         transform="translate(216.327,368.262)"
         id="g3422"><path
           inkscape:connector-curvature="0"
           id="path3424"
           style="fill:#ffffff;fill-opacity:1;fill-rule:nonzero;stroke:none"
           d="M 0,0 0.615,-0.368 C 1.17,-0.7 2.03,-1.096 2.975,-1.096 c 0.258,0 0.511,0.03 0.753,0.089 L 3.829,-0.982 7.437,1.911 6.774,2.24 C 6.604,2.325 6.507,2.434 6.462,2.594 6.336,3.04 6.87,3.474 7.356,3.806 c 1.277,0.868 8.536,5.399 9.175,5.796 0.687,0.439 11.063,7.023 13.669,8.56 1.657,0.981 4.616,1.571 8.333,1.662 L 38.662,19.828 63.075,35.011 62.807,35.4 38.521,20.297 C 37.396,20.27 32.611,20.138 29.959,18.569 27.283,16.99 16.717,10.282 16.276,10 15.954,9.801 8.429,5.105 7.09,4.196 6.697,3.928 5.771,3.301 6.007,2.465 6.097,2.146 6.303,1.946 6.564,1.816 L 3.616,-0.548 C 2.577,-0.801 1.533,-0.366 0.858,0.037 l 57.597,41.689 -0.269,0.389 z" /></g><g
         transform="translate(226.908,378.111)"
         id="g3426"><path
           inkscape:connector-curvature="0"
           id="path3428"
           style="fill:#ffffff;fill-opacity:1;fill-rule:nonzero;stroke:none"
           d="M 0,0 0.75,0.515 0.117,1.168 c -0.907,0.936 -22.212,22.932 -24.01,24.573 -0.867,0.794 -1.779,1.172 -2.505,1.135 -1.696179,-0.41077 -3.09675,-1.772409 -4.537,-2.764 l -1.107,1.428 10.07,5.321 c 0.105,0.049 2.577,1.177 5.251,-0.382 2.735,-1.595 27.173,-16.863 32.309,-20.074 l -22.991,-16.64 -0.68,0.876 C -6.08,-4.153 -1.968,-1.352 0,0 m 16.434,10.434 -0.596,0.372 c -0.292,0.183 -29.322,18.333 -32.32,20.082 -1.009,0.589 -2.101,0.886 -3.245,0.886 -1.376,0 -2.341,-0.436 -2.466,-0.496 l -10.568,-5.583 1.726,-2.225 3.729,2.566 c -0.0086,0.03334 0.05,0.04733 0.075,0.071 0.003,0.003 0.313,0.27 0.857,0.296 0.633,0.034 1.43,-0.341 2.163,-1.01 1.515,-1.384 17.83,-18.194 23.989,-24.554 L 0.02,0.588 -0.268,0.39 c -1.743,-1.198 -6.019,-4.116 -8.059,-5.344 l -0.455,-0.275 1.285,-1.658 z"
           sodipodi:nodetypes="ccccccccccccccccscccccccccccccc" /></g><g
         transform="translate(233.419,376.963)"
         id="g3430"><path
           inkscape:connector-curvature="0"
           id="path3432"
           style="fill:#ffffff;fill-opacity:1;fill-rule:nonzero;stroke:none"
           d="m 0,0 c 0.111,0.068 10.992,6.978 13.647,8.544 1.319,0.78 3.351,1.161 5.039,1.347 l -0.123,-0.078 26.605,2.152 c 2.134,-0.499 2.428,-1.12 2.467,-1.302 C 47.737,10.204 47.083,9.525 46.729,9.254 42.099,5.224 36.556,2.573 36.583,2.573 V 2.574 C 36.354,2.511 36.122,2.448 35.888,2.385 l 4.53,5.736 -2.026,-0.39 C 37.201,7.502 9.176,2.114 6.368,1.503 3.337,0.841 1.962,-0.622 1.959,-0.631 l -4.701,-4.192 c -3.233,-0.455 -5.416,-0.736 -5.933,-0.801 -0.063,0.008 -0.13,0.014 -0.207,0.019 C -7.04,-4.394 -0.078,-0.05 0,0 m -8.735,-6.093 0.06,-0.008 0.06,0.008 c 0.583,0.074 2.737,0.351 5.939,0.802 l 0.142,0.02 4.898,4.368 0.005,0.014 c 0.276,0.263 1.569,1.377 4.099,1.93 2.381,0.518 22.848,4.462 31.537,6.134 l 1.254,0.242 -4.627,-5.859 1.379,0.371 0.888,0.275 c 1.756,0.888 6.258,3.316 10.13,6.685 0.142,0.111 1.257,1.021 1.068,1.874 -0.104,0.481 -0.678,1.161 -2.821,1.663 l -0.072,0.016 -24.737,-2 0.234,0.145 -2.067,-0.227 C 16.314,10.105 14.556,9.631 13.407,8.951 11.86,8.039 7.126,5.076 0.078,0.608 L -0.488,0.252 C -5.002,-2.569 -8.076,-4.51 -9.142,-5.211 l -1.203,-0.792 1.438,-0.075 c 0.064,-0.003 0.12,-0.009 0.172,-0.015"
           sodipodi:nodetypes="ccccccccccccccccccccccccccccccccccccccccccccc" /></g><g
         transform="translate(199.582,397.568)"
         id="g3434"><path
           inkscape:connector-curvature="0"
           id="path3436"
           style="fill:#ffffff;fill-opacity:1;fill-rule:nonzero;stroke:none"
           d="m 0,0 -0.53,0.685 -2.138,2.755 3.4,2.355 c 0.181,0.159 0.735,0.206 1.663,-0.645 1.593,-1.456 19.673,-20.101 23.31,-23.855 -2.97,-2.029 -6.101,-4.112 -7.405,-4.896 z m 25.972,-19.096 0.463,0.318 -0.391,0.402 C 25.163,-17.466 4.431,3.931 2.714,5.498 2.091,6.07 1.525,6.36 1.032,6.36 0.747,6.36 0.559,6.263 0.446,6.172 l -3.793,-2.626 21.531,-27.769 0.36,0.216 c 1.199,0.721 4.115,2.649 7.428,4.911" /></g><g
         transform="translate(279.425,403.287)"
         id="g3438"><path
           inkscape:connector-curvature="0"
           id="path3440"
           style="fill:#231815;fill-opacity:1;fill-rule:nonzero;stroke:none"
           d="M 0,0 -0.023,-0.015 0.312,-0.502 Z" /></g><g
         transform="translate(274.178,410.863)"
         id="g3442"><path
           inkscape:connector-curvature="0"
           id="path3444"
           style="fill:#231815;fill-opacity:1;fill-rule:nonzero;stroke:none"
           d="m 0,0 0.335,-0.486 0.012,0.007 z" /></g></g><g
       id="g4483"><g
         transform="translate(200.98,399.458)"
         id="g3458"><path
           inkscape:connector-curvature="0"
           id="path3460"
           style="fill:#000000;fill-opacity:1;fill-rule:nonzero;stroke:none"
           d="M 0,0 C -0.098,0.455 -0.546,0.742 -0.998,0.645 -1.172,0.608 -1.321,0.52 -1.435,0.4 l -1.876,0.415 -2.294,-0.278 3.954,-0.875 c 0.002,-0.006 0.001,-0.011 0.002,-0.016 0.098,-0.457 0.547,-0.748 1.005,-0.65 C -0.192,-0.907 0.098,-0.458 0,0" /></g><g
         transform="translate(191.89,401.51)"
         id="g3462"><path
           inkscape:connector-curvature="0"
           id="path3464"
           style="fill:#000000;fill-opacity:1;fill-rule:nonzero;stroke:none"
           d="m 0,0 -0.168,-0.748 5.39,-1.151 0.557,0.662 z" /></g></g><g
       id="g3466"
       transform="translate(258.852,375.349)"><path
         d="m 0,0 -0.652,1.424 -0.27,0.589 c 0.094,0.135 0.149,0.3 0.149,0.477 0,0.465 -0.377,0.843 -0.842,0.843 -0.465,0 -0.844,-0.378 -0.844,-0.843 0,-0.466 0.379,-0.844 0.844,-0.844 0.006,0 0.011,0.002 0.017,0.002 l 0.174,-0.38 0.653,-1.425 1.409,-3.077 0.696,0.321 z"
         style="fill:#000000;fill-opacity:1;fill-rule:nonzero;stroke:none"
         id="path3468"
         inkscape:connector-curvature="0" /></g><g
       id="g4523"><g
         transform="translate(135.901,333.571)"
         id="g3534"><path
           inkscape:connector-curvature="0"
           id="path3536"
           style="fill:#000000;fill-opacity:1;fill-rule:nonzero;stroke:none"
           d="m 0,0 c 0,0.669 -0.546,1.218 -1.221,1.218 -0.673,0 -1.218,-0.549 -1.218,-1.218 0,-0.335 0.134,-0.64 0.352,-0.861 l 0.117,0.256 0.653,-0.298 -0.137,-0.3 c 0.076,-0.015 0.153,-0.024 0.233,-0.024 C -0.546,-1.227 0,-0.676 0,0" /></g><g
         transform="translate(133.931,332.966)"
         id="g3538"><path
           inkscape:connector-curvature="0"
           id="path3540"
           style="fill:#000000;fill-opacity:1;fill-rule:nonzero;stroke:none"
           d="M 0,0 -0.117,-0.256 C 0.052,-0.429 0.27,-0.55 0.516,-0.598 l 0.137,0.3 z" /></g><g
         transform="translate(132.834,330.567)"
         id="g3778"><path
           inkscape:connector-curvature="0"
           id="path3780"
           style="fill:#000000;fill-opacity:1;fill-rule:nonzero;stroke:none"
           d="M 0,0 -0.196,-0.428 -3.464,-7.575 -2.811,-7.874 0.634,-0.339 0.83,0.09 0.591,0.064 C 0.396,0.043 0.199,0.021 0,0" /></g><g
         transform="translate(134.362,332.182)"
         id="g3782"><path
           inkscape:connector-curvature="0"
           id="path3784"
           style="fill:#000000;fill-opacity:1;fill-rule:nonzero;stroke:none"
           d="M 0,0 0.085,0.187 C -0.16,0.234 -0.379,0.355 -0.548,0.528 L -0.83,-0.089 c 0.203,0.022 0.402,0.043 0.591,0.064 z" /></g><g
         transform="translate(133.14,331.235)"
         id="g3786"><path
           inkscape:connector-curvature="0"
           id="path3788"
           style="fill:#000000;fill-opacity:1;fill-rule:nonzero;stroke:none"
           d="m 0,0 -0.305,-0.668 c 0.199,0.022 0.396,0.043 0.591,0.064 l 0.239,0.026 0.306,0.667 C 0.567,0.061 0.29,0.031 0,0" /></g><g
         transform="translate(134.122,332.156)"
         id="g3790"><path
           inkscape:connector-curvature="0"
           id="path3792"
           style="fill:#000000;fill-opacity:1;fill-rule:nonzero;stroke:none"
           d="m 0,0 c -0.189,-0.021 -0.388,-0.042 -0.591,-0.064 l -0.196,-0.428 c 0.279,0.03 0.556,0.059 0.83,0.089 l 0.196,0.428 z" /></g><g
         transform="translate(134.166,331.753)"
         id="g3794"><path
           inkscape:connector-curvature="0"
           id="path3796"
           style="fill:#000000;fill-opacity:1;fill-rule:nonzero;stroke:none"
           d="m 0,0 c -0.274,-0.029 -0.552,-0.059 -0.83,-0.089 l -0.196,-0.429 c 0.289,0.032 0.567,0.061 0.83,0.089 z" /></g></g><g
       id="g4507"><g
         transform="translate(181.812,332.963)"
         id="g3518"><path
           inkscape:connector-curvature="0"
           id="path3520"
           style="fill:#000000;fill-opacity:1;fill-rule:nonzero;stroke:none"
           d="m 0,0 -0.653,-0.298 0.119,-0.259 0.117,-0.013 c 0.205,0.058 0.389,0.165 0.535,0.313 z" /></g><g
         transform="translate(181.278,332.406)"
         id="g3598"><path
           inkscape:connector-curvature="0"
           id="path3600"
           style="fill:#ffffff;fill-opacity:1;fill-rule:nonzero;stroke:none"
           d="m 0,0 0.019,-0.041 c 0.034,0.007 0.066,0.017 0.099,0.027 z" /></g><g
         transform="translate(181.159,332.665)"
         id="g3798"><path
           inkscape:connector-curvature="0"
           id="path3800"
           style="fill:#000000;fill-opacity:1;fill-rule:nonzero;stroke:none"
           d="M 0,0 0.653,0.298 0.771,0.041 c 0.219,0.222 0.355,0.526 0.355,0.862 0,0.669 -0.548,1.218 -1.221,1.218 -0.673,0 -1.218,-0.549 -1.218,-1.218 0,-0.463 0.259,-0.862 0.637,-1.071 l 0.795,-0.091 z" /></g><path
         inkscape:connector-curvature="0"
         id="path3804"
         style="fill:#000000;fill-opacity:1;fill-rule:nonzero;stroke:none"
         d="m 0,0 c 0.173,-0.097 0.37,-0.156 0.581,-0.156 0.079,0 0.157,0.01 0.232,0.024 l -0.018,0.041 z"
         transform="translate(180.483,332.497)" /><g
         transform="translate(182.174,330.448)"
         id="g3806"><path
           inkscape:connector-curvature="0"
           id="path3808"
           style="fill:#000000;fill-opacity:1;fill-rule:nonzero;stroke:none"
           d="m 0,0 3.552,-7.758 0.654,0.299 -3.373,7.364 -0.196,0.43 -0.834,0.096 z" /></g><g
         transform="translate(181.396,332.393)"
         id="g3810"><path
           inkscape:connector-curvature="0"
           id="path3812"
           style="fill:#000000;fill-opacity:1;fill-rule:nonzero;stroke:none"
           d="M 0,0 0.715,-0.082 0.534,0.313 C 0.388,0.165 0.204,0.059 0,0" /></g><g
         transform="translate(181.672,331.545)"
         id="g3814"><path
           inkscape:connector-curvature="0"
           id="path3816"
           style="fill:#000000;fill-opacity:1;fill-rule:nonzero;stroke:none"
           d="M 0,0 0.305,-0.666 1.138,-0.762 0.833,-0.095 Z" /></g><g
         transform="translate(181.396,332.393)"
         id="g3818"><path
           inkscape:connector-curvature="0"
           id="path3820"
           style="fill:#000000;fill-opacity:1;fill-rule:nonzero;stroke:none"
           d="M 0,0 C -0.033,-0.01 -0.065,-0.021 -0.099,-0.027 L 0.08,-0.417 0.912,-0.513 0.715,-0.082 Z" /></g><g
         transform="translate(182.308,331.88)"
         id="g3822"><path
           inkscape:connector-curvature="0"
           id="path3824"
           style="fill:#000000;fill-opacity:1;fill-rule:nonzero;stroke:none"
           d="M 0,0 V 0 L -0.832,0.096 -0.636,-0.335 0.197,-0.43 Z" /></g></g><g
       id="g3826"
       transform="translate(18.7578,297.73)"><path
         d="m 0,0 -1.14,4.295 h 0.583 L 0.097,1.479 C 0.167,1.185 0.228,0.892 0.278,0.601 0.388,1.06 0.452,1.324 0.472,1.395 l 0.817,2.9 H 1.975 L 2.59,2.121 C 2.744,1.582 2.855,1.075 2.924,0.601 2.979,0.872 3.05,1.184 3.138,1.535 l 0.674,2.76 H 4.383 L 3.205,0 H 2.657 L 1.752,3.272 C 1.676,3.546 1.631,3.714 1.617,3.776 1.572,3.579 1.53,3.411 1.491,3.272 L 0.58,0 Z"
         style="fill:#000000;fill-opacity:1;fill-rule:nonzero;stroke:none"
         id="path3828"
         inkscape:connector-curvature="0" /></g><g
       id="g4774"><path
         inkscape:connector-curvature="0"
         id="path4708"
         d="m 15.9572,481.534 h 352.459"
         style="fill:none;stroke:#000000;stroke-width:0.52500001;stroke-linecap:round;stroke-linejoin:miter;stroke-opacity:1;stroke-miterlimit:4;stroke-dasharray:none" /><path
         inkscape:connector-curvature="0"
         id="path4708-2"
         d="m 15.9572,468.243 h 352.459"
         style="fill:none;stroke:#000000;stroke-width:0.52500004;stroke-linecap:round;stroke-linejoin:miter;stroke-miterlimit:4;stroke-dasharray:none;stroke-opacity:1" /><path
         inkscape:connector-curvature="0"
         id="path4708-3"
         d="m 15.9572,446.319 h 352.459"
         style="fill:none;stroke:#000000;stroke-width:0.52500004;stroke-linecap:round;stroke-linejoin:miter;stroke-miterlimit:4;stroke-dasharray:none;stroke-opacity:1" /><path
         inkscape:connector-curvature="0"
         id="path4731"
         d="M 15.9572,481.534 V 446.319"
         style="fill:none;stroke:#000000;stroke-width:0.52500001;stroke-linecap:round;stroke-linejoin:miter;stroke-opacity:1;stroke-miterlimit:4;stroke-dasharray:none" /><path
         inkscape:connector-curvature="0"
         id="path4731-4"
         d="M 103.156,481.534 V 446.319"
         style="fill:none;stroke:#000000;stroke-width:0.52500004;stroke-linecap:round;stroke-linejoin:miter;stroke-miterlimit:4;stroke-dasharray:none;stroke-opacity:1" /><path
         inkscape:connector-curvature="0"
         id="path4731-0"
         d="M 188.435,481.534 V 446.319"
         style="fill:none;stroke:#000000;stroke-width:0.52500004;stroke-linecap:round;stroke-linejoin:miter;stroke-miterlimit:4;stroke-dasharray:none;stroke-opacity:1" /><path
         inkscape:connector-curvature="0"
         id="path4731-3"
         d="M 285.083,481.534 V 446.319"
         style="fill:none;stroke:#000000;stroke-width:0.52500004;stroke-linecap:round;stroke-linejoin:miter;stroke-miterlimit:4;stroke-dasharray:none;stroke-opacity:1" /><path
         inkscape:connector-curvature="0"
         id="path4731-5"
         d="M 368.4162,481.534 V 446.319"
         style="fill:none;stroke:#000000;stroke-width:0.52500004;stroke-linecap:round;stroke-linejoin:miter;stroke-miterlimit:4;stroke-dasharray:none;stroke-opacity:1" /></g><text
       xml:space="preserve"
       style="font-style:normal;font-variant:normal;font-weight:normal;font-stretch:normal;font-size:6px;line-height:1.25;font-family:Arial;-inkscape-font-specification:Arial;letter-spacing:0px;word-spacing:0px;fill:#000000;fill-opacity:1;stroke:none;stroke-width:0.75"
       x="198.32812"
       y="-563.4375"
       id="text4778"
       transform="scale(1,-1)"><tspan
         sodipodi:role="line"
         id="tspan4776"
         x="198.32812"
         y="-563.4375"
         style="font-size:6px;stroke-width:0.75">ELE</tspan></text>
<text
       xml:space="preserve"
       style="font-style:normal;font-variant:normal;font-weight:normal;font-stretch:normal;font-size:6px;line-height:1.25;font-family:Arial;-inkscape-font-specification:Arial;letter-spacing:0px;word-spacing:0px;fill:#000000;fill-opacity:1;stroke:none;stroke-width:0.75"
       x="118.93652"
       y="-590.86816"
       id="text4778-4"
       transform="scale(1,-1)"><tspan
         sodipodi:role="line"
         id="tspan4776-5"
         x="118.93652"
         y="-590.86816"
         style="font-size:6px;stroke-width:0.75">AIL</tspan></text>
<text
       xml:space="preserve"
       style="font-style:normal;font-variant:normal;font-weight:normal;font-stretch:normal;font-size:6px;line-height:1.25;font-family:Arial;-inkscape-font-specification:Arial;letter-spacing:0px;word-spacing:0px;fill:#000000;fill-opacity:1;stroke:none;stroke-width:0.75"
       x="123.68166"
       y="-316.81296"
       id="text4778-4-9"
       transform="scale(1,-1)"><tspan
         sodipodi:role="line"
         id="tspan4776-5-6"
         x="123.68166"
         y="-316.81296"
         style="font-size:6px;stroke-width:0.75">AIL</tspan></text>
<text
       xml:space="preserve"
       style="font-style:normal;font-variant:normal;font-weight:normal;font-stretch:normal;font-size:6px;line-height:1.25;font-family:Arial;-inkscape-font-specification:Arial;letter-spacing:0px;word-spacing:0px;fill:#000000;fill-opacity:1;stroke:none;stroke-width:0.75"
       x="183.27751"
       y="-316.80417"
       id="text4778-4-9-0"
       transform="scale(1,-1)"><tspan
         sodipodi:role="line"
         id="tspan4776-5-6-5"
         x="183.27751"
         y="-316.80417"
         style="font-size:6px;stroke-width:0.75">AIL2</tspan></text>
<text
       xml:space="preserve"
       style="font-style:normal;font-variant:normal;font-weight:normal;font-stretch:normal;font-size:6px;line-height:1.25;font-family:Arial;-inkscape-font-specification:Arial;letter-spacing:0px;word-spacing:0px;fill:#000000;fill-opacity:1;stroke:none;stroke-width:0.75"
       x="176.94774"
       y="-400.73767"
       id="text4778-9"
       transform="scale(1,-1)"><tspan
         sodipodi:role="line"
         id="tspan4776-8"
         x="176.94774"
         y="-400.73767"
         style="font-size:6px;stroke-width:0.75">ELE</tspan></text>
<text
       xml:space="preserve"
       style="font-style:normal;font-variant:normal;font-weight:normal;font-stretch:normal;font-size:6px;line-height:1.25;font-family:Arial;-inkscape-font-specification:Arial;letter-spacing:0px;word-spacing:0px;fill:#000000;fill-opacity:1;stroke:none;stroke-width:0.75"
       x="254.01053"
       y="-365.58411"
       id="text4778-9-8"
       transform="scale(1,-1)"><tspan
         sodipodi:role="line"
         id="tspan4776-8-9"
         x="254.01053"
         y="-365.58411"
         style="font-size:6px;stroke-width:0.75">RUD</tspan></text>
</g></svg>