<?xml version="1.0" encoding="UTF-8" standalone="no"?>
<!-- Created with Inkscape (http://www.inkscape.org/) -->

<svg
   xmlns:dc="http://purl.org/dc/elements/1.1/"
   xmlns:cc="http://creativecommons.org/ns#"
   xmlns:rdf="http://www.w3.org/1999/02/22-rdf-syntax-ns#"
   xmlns:svg="http://www.w3.org/2000/svg"
   xmlns="http://www.w3.org/2000/svg"
   xmlns:sodipodi="http://sodipodi.sourceforge.net/DTD/sodipodi-0.dtd"
   xmlns:inkscape="http://www.inkscape.org/namespaces/inkscape"
   version="1.1"
   id="svg18578"
   xml:space="preserve"
   width="816"
   height="1056"
   viewBox="0 0 816 1056"
   sodipodi:docname="S6RS8R - P02.svg"
   inkscape:version="0.92.2 (5c3e80d, 2017-08-06)"><metadata
     id="metadata18584"><rdf:RDF><cc:Work
         rdf:about=""><dc:format>image/svg+xml</dc:format><dc:type
           rdf:resource="http://purl.org/dc/dcmitype/StillImage" /><dc:title></dc:title></cc:Work></rdf:RDF></metadata><defs
     id="defs18582" /><sodipodi:namedview
     pagecolor="#ffffff"
     bordercolor="#666666"
     borderopacity="1"
     objecttolerance="10"
     gridtolerance="10"
     guidetolerance="10"
     inkscape:pageopacity="0"
     inkscape:pageshadow="2"
     inkscape:window-width="794"
     inkscape:window-height="480"
     id="namedview18580"
     showgrid="false"
     inkscape:zoom="0.22348485"
     inkscape:cx="408"
     inkscape:cy="528"
     inkscape:window-x="0"
     inkscape:window-y="0"
     inkscape:window-maximized="0"
     inkscape:current-layer="g18586" /><g
     id="g18586"
     inkscape:groupmode="layer"
     inkscape:label="S6RS8R - P02"
     transform="matrix(1.3333333,0,0,-1.3333333,0,1056)"><g
       id="g18588"
       transform="translate(14.9669,256.101)"><path
         d="M 0,0 358.629,0.004"
         style="fill:none;stroke:#000000;stroke-width:0.42500001;stroke-linecap:butt;stroke-linejoin:miter;stroke-miterlimit:10;stroke-dasharray:none;stroke-opacity:1"
         id="path18590"
         inkscape:connector-curvature="0" /></g><g
       id="g18592"
       transform="translate(16.455,747.6)"><path
         d="M 0,0 H 353.67"
         style="fill:none;stroke:#000000;stroke-width:0.42500001;stroke-linecap:butt;stroke-linejoin:miter;stroke-miterlimit:10;stroke-dasharray:none;stroke-opacity:1"
         id="path18594"
         inkscape:connector-curvature="0" /></g><g
       id="g18596"
       transform="translate(16.455,695.624)"><path
         d="M 0,0 H 353.67"
         style="fill:none;stroke:#000000;stroke-width:0.42500001;stroke-linecap:butt;stroke-linejoin:miter;stroke-miterlimit:10;stroke-dasharray:none;stroke-opacity:1"
         id="path18598"
         inkscape:connector-curvature="0" /></g><g
       id="g18600"
       transform="translate(16.455,596.704)"><path
         d="M 0,0 H 353.67"
         style="fill:none;stroke:#000000;stroke-width:0.42500001;stroke-linecap:butt;stroke-linejoin:miter;stroke-miterlimit:10;stroke-dasharray:none;stroke-opacity:1"
         id="path18602"
         inkscape:connector-curvature="0" /></g><g
       id="g18604"
       transform="translate(204.768,510.796)"><path
         d="m 0,0 c -1.442,-0.259 -5.31,-1.331 -6.214,-3.245 -1.173,-2.489 -1.832,-5.674 -1.461,-13.669 h 2.904 l 0.009,7.196 H 27.204 L 26.603,5.746 Z"
         style="fill:#ffffff;fill-opacity:1;fill-rule:nonzero;stroke:none"
         id="path18606"
         inkscape:connector-curvature="0" /></g><g
       id="g18608"
       transform="translate(204.085,496.332)"><path
         d="m 0,0 c 0,0.456 0.369,0.829 0.826,0.829 0.46,0 0.832,-0.373 0.832,-0.829 0,-0.457 -0.372,-0.832 -0.832,-0.832 H 0.819 L 0.077,-2.45 h 22.109 l 4.293,5.648 H -2.531 L -2.539,-2.45 h 1.769 l 0.91,1.987 C 0.052,-0.33 0,-0.171 0,0"
         style="fill:#ffffff;fill-opacity:1;fill-rule:nonzero;stroke:none"
         id="path18610"
         inkscape:connector-curvature="0" /></g><g
       id="g18612"
       transform="translate(264.133,495.5)"><path
         d="m 0,0 c -0.459,0 -0.829,0.375 -0.829,0.832 0,0.456 0.37,0.829 0.829,0.829 0.456,0 0.826,-0.373 0.826,-0.829 0,-0.17 -0.052,-0.33 -0.14,-0.463 l 0.91,-1.987 h 1.6 V 4.03 H -25.82 l 4.3,-5.648 H 0.749 L 0.007,0 Z"
         style="fill:#ffffff;fill-opacity:1;fill-rule:nonzero;stroke:none"
         id="path18614"
         inkscape:connector-curvature="0" /></g><g
       id="g18616"
       transform="translate(268.877,501.078)"><path
         d="M 0,0 V -7.196 H 2.911 C 3.283,0.791 2.624,3.98 1.449,6.475 0.547,8.387 -3.319,9.459 -4.735,9.712 L -31.292,15.364 -31.917,0 Z"
         style="fill:#ffffff;fill-opacity:1;fill-rule:nonzero;stroke:none"
         id="path18618"
         inkscape:connector-curvature="0" /></g><g
       id="g18620"
       transform="translate(204.276,495.981)"><path
         d="m 0,0 -0.052,-0.112 c 0.147,-0.22 0.397,-0.366 0.68,-0.37 l 0.074,0.16 z"
         style="fill:#000000;fill-opacity:1;fill-rule:nonzero;stroke:none"
         id="path18622"
         inkscape:connector-curvature="0" /></g><g
       id="g18624"
       transform="translate(264.133,497.16)"><path
         d="m 0,0 c -0.459,0 -0.829,-0.373 -0.829,-0.829 0,-0.457 0.37,-0.832 0.829,-0.832 h 0.007 l -0.073,0.16 0.701,0.322 0.051,-0.113 c 0.088,0.134 0.14,0.293 0.14,0.463 C 0.826,-0.373 0.456,0 0,0"
         style="fill:#000000;fill-opacity:1;fill-rule:nonzero;stroke:none"
         id="path18626"
         inkscape:connector-curvature="0" /></g><g
       id="g18628"
       transform="translate(264.067,495.659)"><path
         d="m 0,0 0.072,-0.159 c 0.283,0.003 0.534,0.15 0.68,0.369 L 0.701,0.322 Z"
         style="fill:#000000;fill-opacity:1;fill-rule:nonzero;stroke:none"
         id="path18630"
         inkscape:connector-curvature="0" /></g><g
       id="g18632"
       transform="translate(234.464,522.612)"><path
         d="m 0,0 c -0.277,-0.083 -1.106,-1.164 -1.652,-2.227 l -0.041,0.022 0.75,-19.328 0.008,-0.205 0.615,-15.857 h 0.614 l 0.642,15.792 0.011,0.27 0.787,19.402 C 1.149,-1.095 0.324,-0.075 0,0"
         style="fill:#ffffff;fill-opacity:1;fill-rule:nonzero;stroke:none"
         id="path18634"
         inkscape:connector-curvature="0" /></g><g
       id="g18636"
       transform="translate(234.453,489.366)"><path
         d="m 0,0 -1.195,30.837 c 0.415,0.802 0.939,1.511 1.228,1.818 0.273,-0.262 0.768,-0.87 1.227,-1.659 z m 0.01,33.246 c -0.277,-0.083 -1.106,-1.164 -1.651,-2.227 l -0.041,0.022 0.749,-19.329 0.009,-0.204 0.615,-15.857 h 0.614 l 0.642,15.791 0.01,0.27 0.787,19.402 C 1.159,32.151 0.335,33.171 0.01,33.246"
         style="fill:#ffffff;fill-opacity:1;fill-rule:nonzero;stroke:none"
         id="path18638"
         inkscape:connector-curvature="0" /></g><g
       id="g18640"
       transform="translate(271.33,494.362)"><path
         d="m 0,0 h -1.973 v 7.196 h -31.898 l 0.581,14.296 26.018,-5.536 c 1.871,-0.333 5.11,-1.435 5.834,-2.969 C -0.311,10.597 0.323,7.571 0,0 M -7.188,16.429 -33.745,22.081 -34.37,6.717 H -2.453 V -0.48 h 2.911 c 0.372,7.988 -0.286,11.176 -1.462,13.671 -0.902,1.912 -4.768,2.985 -6.184,3.238"
         style="fill:#ffffff;fill-opacity:1;fill-rule:nonzero;stroke:none"
         id="path18642"
         inkscape:connector-curvature="0" /></g><g
       id="g18644"
       transform="translate(266.851,494.362)"><path
         d="M 0,0 H -23.999 L -27.57,4.69 H 0 Z m -24.238,-0.48 h 23.116 0.241 1.359 v 5.648 h -29.016 z"
         style="fill:#ffffff;fill-opacity:1;fill-rule:nonzero;stroke:none"
         id="path18646"
         inkscape:connector-curvature="0" /></g><g
       id="g18648"
       transform="translate(202.033,499.052)"><path
         d="M 0,0 H 27.565 L 23.998,-4.69 H -0.008 Z M 2.47,-5.17 H 24.237 L 28.53,0.478 H -0.479 L -0.487,-5.17 h 2.616 z"
         style="fill:#ffffff;fill-opacity:1;fill-rule:nonzero;stroke:none"
         id="path18650"
         inkscape:connector-curvature="0" /></g><g
       id="g18652"
       transform="translate(199.527,501.558)"><path
         d="m 0,0 -0.008,-7.196 h -1.967 c -0.322,7.577 0.312,10.6 1.436,12.983 0.725,1.535 3.982,2.641 5.882,2.984 L 31.387,14.395 31.947,0 Z M 5.241,9.238 C 3.8,8.979 -0.068,7.907 -0.973,5.993 -2.146,3.504 -2.804,0.319 -2.433,-7.676 H 0.47 l 0.009,7.196 h 31.966 l -0.601,15.464 z"
         style="fill:#ffffff;fill-opacity:1;fill-rule:nonzero;stroke:none"
         id="path18654"
         inkscape:connector-curvature="0" /></g><g
       id="g18656"
       transform="translate(201.554,499.53)"><path
         d="M 0,0 H 29.009 L 24.716,-5.648 H 2.949 2.608 -0.008 Z M -0.488,-6.126 H 24.954 L 29.975,0.48 H -0.479 Z"
         style="fill:#ffffff;fill-opacity:1;fill-rule:nonzero;stroke:none"
         id="path18658"
         inkscape:connector-curvature="0" /></g><g
       id="g18660"
       transform="translate(200.006,501.078)"><path
         d="m 0,0 -0.008,-7.196 h -2.904 c -0.371,7.995 0.288,11.18 1.46,13.669 0.905,1.914 4.773,2.986 6.214,3.245 L 31.366,15.464 31.966,0 Z M 4.678,10.19 C 4.624,10.181 -0.693,9.201 -1.885,6.677 -3.093,4.111 -3.767,0.892 -3.39,-7.219 l 0.021,-0.456 H 0.47 l 0.009,7.195 h 31.986 l -0.643,16.532 z"
         style="fill:#ffffff;fill-opacity:1;fill-rule:nonzero;stroke:none"
         id="path18662"
         inkscape:connector-curvature="0" /></g><g
       id="g18664"
       transform="translate(271.788,493.882)"><path
         d="m 0,0 h -2.911 v 7.196 h -31.917 l 0.624,15.365 26.558,-5.652 C -6.23,16.656 -2.364,15.583 -1.462,13.671 -0.287,11.176 0.372,7.988 0,0 m -7.546,17.377 -27.113,5.77 -0.667,-16.43 h 31.935 v -7.195 h 3.848 l 0.021,0.456 c 0.379,8.107 -0.296,11.328 -1.507,13.896 -1.19,2.527 -6.48,3.496 -6.517,3.503"
         style="fill:#ffffff;fill-opacity:1;fill-rule:nonzero;stroke:none"
         id="path18666"
         inkscape:connector-curvature="0" /></g><g
       id="g18668"
       transform="translate(235.41,501.078)"><path
         d="M 0,0 -0.01,-0.27 -0.652,-16.061 H -1.266 L -1.881,-0.204 -1.89,0 -2.639,19.329 -2.598,19.306 c 0.545,1.063 1.374,2.145 1.651,2.227 0.325,-0.075 1.149,-1.094 1.734,-2.131 z m 1.271,19.518 -0.067,0.12 C 0.865,20.242 -0.167,21.843 -0.837,22 l -0.123,0.028 -0.122,-0.035 c -0.495,-0.145 -1.26,-1.269 -1.711,-2.047 l -0.356,0.183 1.422,-36.67 h 1.534 l 1.459,35.924 z"
         style="fill:#ffffff;fill-opacity:1;fill-rule:nonzero;stroke:none"
         id="path18670"
         inkscape:connector-curvature="0" /></g><g
       id="g18672"
       transform="translate(272.267,493.859)"><path
         d="m 0,0 -0.021,-0.456 h -3.848 v 7.195 h -31.936 l 0.668,16.431 27.113,-5.77 c 0.037,-0.008 5.327,-0.977 6.517,-3.504 C -0.296,11.328 0.379,8.108 0,0 m -4.458,-0.456 h -25.433 l -5.029,6.607 h 30.462 z m -32.591,-8.866 h -1.535 l -1.422,36.67 V 26.6 c 0.45,0.778 1.573,2.467 2.068,2.612 l 0.122,0.035 0.123,-0.028 c 0.67,-0.157 1.702,-1.758 2.041,-2.362 l 0.067,-0.12 -0.005,-0.135 z M -71.782,6.739 -71.79,-0.456 h -3.839 L -75.651,0 c -0.376,8.111 0.297,11.33 1.506,13.896 1.192,2.523 6.508,3.504 6.562,3.513 l 27.144,5.862 0.643,-16.532 z m 26.024,-7.195 H -71.2 l 0.009,6.607 h 30.454 z m 44.783,14.605 c -1.329,2.812 -6.708,3.789 -6.937,3.83 l -27.202,5.789 0.349,8.57 -0.376,0.015 -0.216,0.01 -0.177,-4.387 -0.791,0.896 c -0.545,0.621 -1.049,0.947 -1.454,0.947 -0.412,0 -0.914,-0.337 -1.45,-0.977 l -0.799,-0.952 -0.174,4.473 -0.245,-0.01 h -10e-4 l -0.342,-0.015 0.327,-8.471 -27.234,-5.88 c -2.103,-0.373 -5.918,-1.594 -6.978,-3.838 -1.284,-2.714 -1.988,-6.158 -1.531,-14.914 l 0.015,-0.281 h 30.725 l 5.683,7.476 0.633,-16.341 h 2.669 l 0.661,16.275 5.637,-7.41 H 0.54 l 0.018,0.281 c 0.455,8.749 -0.25,12.192 -1.533,14.914"
         style="fill:#231815;fill-opacity:1;fill-rule:nonzero;stroke:none"
         id="path18674"
         inkscape:connector-curvature="0" /></g><g
       id="g18676"
       transform="translate(234.488,524.158)"><path
         d="m 0,0 c 0.64,0 1.273,-0.495 1.814,-1.11 l 0.128,3.165 h -3.884 l 0.124,-3.204 C -1.287,-0.516 -0.655,0 0,0"
         style="fill:#ffffff;fill-opacity:1;fill-rule:nonzero;stroke:none"
         id="path18678"
         inkscape:connector-curvature="0" /></g><g
       id="g18680"
       transform="translate(231.819,526.213)"><path
         d="M 0,0 V 0 H 0.001 Z"
         style="fill:#ffffff;fill-opacity:1;fill-rule:nonzero;stroke:none"
         id="path18682"
         inkscape:connector-curvature="0" /></g><g
       id="g18684"
       transform="translate(232.239,521.749)"><path
         d="m 0,0 0.799,0.952 c 0.536,0.64 1.038,0.977 1.45,0.977 0.405,0 0.909,-0.326 1.454,-0.947 L 4.494,0.086 4.671,4.463 H 4.192 L 4.063,1.299 C 3.522,1.914 2.89,2.409 2.249,2.409 1.594,2.409 0.963,1.893 0.431,1.26 L 0.307,4.463 h -0.479 z"
         style="fill:#ffffff;fill-opacity:1;fill-rule:nonzero;stroke:none"
         id="path18686"
         inkscape:connector-curvature="0" /></g><g
       id="g18688"
       transform="translate(267.329,493.882)"><path
         d="M 0,0 H -1.359 -1.6 -24.716 l -4.3,5.648 H 0 Z M -24.953,-0.478 H 0.48 v 6.606 h -30.462 z"
         style="fill:#ffffff;fill-opacity:1;fill-rule:nonzero;stroke:none"
         id="path18690"
         inkscape:connector-curvature="0" /></g><g
       id="g18692"
       transform="translate(198.311,486.265)"><path
         d="M 0,0 H 2.344 V 0.497 H 0 V 1.82 h 2.519 v 0.503 h -3.174 v -4.381 h 3.263 v 0.496 l -2.608,0 z"
         style="fill:#000000;fill-opacity:1;fill-rule:nonzero;stroke:none"
         id="path18694"
         inkscape:connector-curvature="0" /></g><g
       id="g18696"
       transform="translate(202.687,488.55)"><path
         d="m 0,0 h -0.653 v -4.343 h 2.998 v 0.496 H 0 Z"
         style="fill:#000000;fill-opacity:1;fill-rule:nonzero;stroke:none"
         id="path18698"
         inkscape:connector-curvature="0" /></g><g
       id="g18700"
       transform="translate(206.649,486.265)"><path
         d="M 0,0 H 2.343 V 0.497 H 0 V 1.82 h 2.518 v 0.503 h -3.174 v -4.381 h 3.264 v 0.496 l -2.608,0 z"
         style="fill:#000000;fill-opacity:1;fill-rule:nonzero;stroke:none"
         id="path18702"
         inkscape:connector-curvature="0" /></g><g
       id="g18704"
       transform="translate(264.202,483.049)"><path
         d="M 0,0 H 2.334 V 0.495 H 0 v 1.32 h 2.509 v 0.498 h -3.161 v -4.362 h 3.249 v 0.495 l -2.597,0 z"
         style="fill:#000000;fill-opacity:1;fill-rule:nonzero;stroke:none"
         id="path18706"
         inkscape:connector-curvature="0" /></g><g
       id="g18708"
       transform="translate(268.56,485.324)"><path
         d="M 0,0 H -0.652 V -4.325 H 2.334 V -3.83 H 0 Z"
         style="fill:#000000;fill-opacity:1;fill-rule:nonzero;stroke:none"
         id="path18710"
         inkscape:connector-curvature="0" /></g><g
       id="g18712"
       transform="translate(272.504,483.049)"><path
         d="M 0,0 H 2.334 V 0.495 H 0 v 1.32 h 2.508 v 0.498 h -3.16 v -4.362 h 3.247 v 0.495 l -2.595,0 z"
         style="fill:#000000;fill-opacity:1;fill-rule:nonzero;stroke:none"
         id="path18714"
         inkscape:connector-curvature="0" /></g><g
       id="g18716"
       transform="translate(276.959,481.755)"><path
         d="M 0,0 C 0.05,0.086 0.115,0.176 0.2,0.272 0.276,0.356 0.448,0.523 0.744,0.795 1.027,1.055 1.213,1.245 1.312,1.37 1.465,1.567 1.578,1.755 1.649,1.931 1.715,2.103 1.75,2.285 1.75,2.475 1.75,2.804 1.637,3.072 1.403,3.294 1.169,3.513 0.838,3.625 0.419,3.625 0.035,3.625 -0.289,3.528 -0.54,3.335 -0.758,3.168 -0.901,2.893 -0.962,2.521 l 0.597,-0.06 c 0.033,0.221 0.104,0.387 0.214,0.501 0.137,0.14 0.322,0.212 0.548,0.212 0.227,0 0.41,-0.068 0.544,-0.203 C 1.076,2.838 1.143,2.649 1.143,2.413 1.143,2.205 1.074,1.995 0.935,1.787 0.838,1.644 0.597,1.393 0.175,0.999 -0.311,0.549 -0.64,0.186 -0.803,-0.084 -0.931,-0.296 -1.02,-0.523 -1.064,-0.755 H 1.75 v 0.539 h -1.872 z"
         style="fill:#000000;fill-opacity:1;fill-rule:nonzero;stroke:none"
         id="path18718"
         inkscape:connector-curvature="0" /></g><g
       id="g18720"
       transform="translate(232.983,476.244)"><path
         d="M 0,0 H -0.829 V 1.449 H 0.037 C 0.548,1.449 0.679,1.438 0.734,1.43 0.919,1.4 1.065,1.323 1.169,1.203 1.274,1.082 1.327,0.926 1.327,0.737 1.327,0.572 1.286,0.429 1.208,0.313 1.129,0.195 1.018,0.112 0.877,0.064 0.796,0.038 0.616,0 0,0 m 1.321,-0.962 c 0,0 -0.232,0.283 -0.326,0.379 C 0.944,-0.53 0.75,-0.369 0.75,-0.369 l 0.158,0.03 c 0.367,0.052 0.644,0.18 0.822,0.377 0.178,0.198 0.267,0.453 0.267,0.759 0,0.24 -0.059,0.459 -0.178,0.646 C 1.703,1.627 1.552,1.753 1.356,1.826 1.153,1.903 0.81,1.94 0.337,1.94 H -1.47 v -4.302 h 0.641 v 1.914 h 0.33 c 0.231,0 0.4,-0.019 0.514,-0.06 0.119,-0.041 0.232,-0.118 0.334,-0.227 0.092,-0.097 0.257,-0.324 0.505,-0.693 l 0.625,-0.934 h 0.776 l -0.423,0.677 c -0.214,0.347 -0.387,0.59 -0.511,0.723"
         style="fill:#000000;fill-opacity:1;fill-rule:nonzero;stroke:none"
         id="path18722"
         inkscape:connector-curvature="0" /></g><g
       id="g18724"
       transform="translate(237.844,474.311)"><path
         d="m 0,0 c -0.291,0 -0.526,0.068 -0.699,0.201 -0.176,0.136 -0.29,0.315 -0.335,0.536 -0.025,0.127 -0.038,0.378 -0.038,0.795 V 3.873 H -1.713 V 1.569 c 0,-0.502 0.028,-0.885 0.086,-1.132 0.037,-0.158 0.115,-0.308 0.231,-0.452 0.118,-0.142 0.281,-0.262 0.486,-0.352 0.205,-0.094 0.521,-0.141 0.937,-0.141 0.343,0 0.622,0.043 0.83,0.129 0.202,0.083 0.367,0.195 0.485,0.336 0.118,0.137 0.2,0.309 0.247,0.512 0.047,0.217 0.07,0.599 0.07,1.138 V 3.873 H 1.016 V 1.477 C 1.016,1.112 1.004,0.842 0.975,0.675 0.942,0.487 0.845,0.324 0.682,0.193 0.526,0.064 0.296,0 0,0"
         style="fill:#000000;fill-opacity:1;fill-rule:nonzero;stroke:none"
         id="path18726"
         inkscape:connector-curvature="0" /></g><g
       id="g18728"
       transform="translate(243.548,475.147)"><path
         d="m 0,0 c -0.07,-0.229 -0.165,-0.399 -0.283,-0.504 -0.116,-0.105 -0.261,-0.18 -0.433,-0.225 -0.125,-0.032 -0.32,-0.047 -0.595,-0.047 h -0.834 v 3.322 h 0.557 c 0.4,0 0.652,-0.015 0.793,-0.049 0.195,-0.041 0.364,-0.128 0.494,-0.251 0.13,-0.122 0.23,-0.291 0.3,-0.503 C 0.066,1.539 0.1,1.256 0.1,0.883 0.1,0.51 0.068,0.221 0,0 m 0.226,2.572 c -0.177,0.184 -0.384,0.309 -0.631,0.384 -0.186,0.053 -0.466,0.081 -0.83,0.081 h -1.553 v -4.302 h 1.602 c 0.325,0 0.585,0.03 0.777,0.09 0.25,0.08 0.449,0.191 0.595,0.333 0.195,0.19 0.348,0.443 0.454,0.754 0.089,0.257 0.134,0.57 0.134,0.93 0,0.412 -0.048,0.763 -0.142,1.038 C 0.538,2.154 0.401,2.386 0.226,2.572"
         style="fill:#000000;fill-opacity:1;fill-rule:nonzero;stroke:none"
         id="path18730"
         inkscape:connector-curvature="0" /></g><g
       id="g18732"
       transform="translate(230.042,443.806)"><path
         d="m 0,0 c 0.248,-0.047 4.432,-0.947 6.224,-1.982 1.699,-0.98 2.26,-0.944 2.443,-0.837 0.14,0.078 0.289,0.412 0.289,1.106 0,0.854 -0.225,5.402 -4.656,10.885 -1.838,2.034 -3.325,3.2 -4.385,3.866 V 0.011 Z"
         style="fill:#ffffff;fill-opacity:1;fill-rule:nonzero;stroke:none"
         id="path18734"
         inkscape:connector-curvature="0" /></g><g
       id="g18736"
       transform="translate(205.99,434.847)"><path
         d="m 0,0 c 0.155,0.197 0.268,0.384 0.336,0.559 0.069,0.17 0.103,0.354 0.103,0.543 0,0.328 -0.114,0.596 -0.347,0.816 -0.232,0.219 -0.562,0.331 -0.981,0.331 -0.39,0 -0.702,-0.095 -0.957,-0.29 C -2.063,1.792 -2.204,1.522 -2.265,1.155 l 0.582,-0.056 c 0.032,0.219 0.105,0.384 0.215,0.498 0.14,0.143 0.327,0.216 0.557,0.216 0.23,0 0.415,-0.07 0.553,-0.206 0.135,-0.137 0.204,-0.327 0.204,-0.568 0,-0.21 -0.07,-0.422 -0.211,-0.632 -0.098,-0.146 -0.341,-0.398 -0.763,-0.791 -0.488,-0.454 -0.817,-0.819 -0.98,-1.087 -0.127,-0.211 -0.213,-0.434 -0.26,-0.662 h 2.807 v 0.525 h -1.887 l 0.129,0.23 c 0.051,0.086 0.117,0.176 0.203,0.272 0.075,0.084 0.243,0.247 0.547,0.527 0.283,0.262 0.47,0.45 0.569,0.579"
         style="fill:#000000;fill-opacity:1;fill-rule:nonzero;stroke:none"
         id="path18738"
         inkscape:connector-curvature="0" /></g><g
       id="g18740"
       transform="translate(194.235,434.255)"><path
         d="M 0,0 0.846,2.328 1.711,0 Z m 0.465,2.821 -1.699,-4.362 h 0.669 L -0.18,-0.48 H 1.899 L 2.306,-1.541 H 3 L 1.254,2.821 Z"
         style="fill:#000000;fill-opacity:1;fill-rule:nonzero;stroke:none"
         id="path18742"
         inkscape:connector-curvature="0" /></g><g
       id="g18744"
       transform="translate(-438.135,-380.523)"><path
         d="m 636.221,813.237 h 0.63599 v 4.362 H 636.221 Z"
         style="fill:#000000;fill-opacity:1;fill-rule:nonzero;stroke:none"
         id="path18746"
         inkscape:connector-curvature="0" /></g><g
       id="g18748"
       transform="translate(200.589,437.039)"><path
         d="m 0,0 h -0.636 v -4.325 h 2.978 v 0.48 H 0 Z"
         style="fill:#000000;fill-opacity:1;fill-rule:nonzero;stroke:none"
         id="path18750"
         inkscape:connector-curvature="0" /></g><g
       id="g18752"
       transform="translate(238.484,441.345)"><path
         d="M 0,0 C -0.142,-0.006 -0.655,0.052 -2.012,0.836 -3.651,1.783 -7.157,2.6 -8.116,2.812 V 14.729 C -6.958,13.907 -5.73,12.779 -4.46,11.375 -0.117,5.997 0.103,1.578 0.103,0.748 0.103,0.319 0.04,0.09 0,0 M -8.527,15.499 V 2.473 l 0.086,-0.012 c 0.248,-0.047 4.432,-0.946 6.223,-1.981 1.7,-0.981 2.261,-0.945 2.444,-0.838 0.14,0.079 0.289,0.412 0.289,1.106 0,0.855 -0.225,5.402 -4.656,10.886 -1.838,2.034 -3.325,3.2 -4.386,3.865"
         style="fill:#ffffff;fill-opacity:1;fill-rule:nonzero;stroke:none"
         id="path18754"
         inkscape:connector-curvature="0" /></g><g
       id="g18756"
       transform="translate(238.71,440.987)"><path
         d="m 0,0 c -0.183,-0.107 -0.744,-0.143 -2.444,0.838 -1.791,1.035 -5.975,1.934 -6.223,1.981 l -0.086,0.012 v 13.026 c 1.061,-0.665 2.548,-1.831 4.386,-3.865 C 0.064,6.508 0.289,1.961 0.289,1.106 0.289,0.412 0.14,0.079 0,0 m -8.535,16.206 -0.629,0.393 V 2.463 l 0.433,-0.05 c 0.726,-0.143 4.494,-1.015 6.082,-1.931 1.102,-0.636 1.889,-0.945 2.404,-0.945 0.177,0 0.327,0.036 0.448,0.105 0.324,0.184 0.495,0.692 0.495,1.464 0,0.879 -0.227,5.553 -4.76,11.161 -1.566,1.734 -3.071,3.06 -4.473,3.939"
         style="fill:#ffffff;fill-opacity:1;fill-rule:nonzero;stroke:none"
         id="path18758"
         inkscape:connector-curvature="0" /></g><g
       id="g18760"
       transform="translate(170.231,470.228)"><path
         d="m 0,0 -0.666,-12.147 -1.063,-13.475 c -0.061,-2.199 -1.181,-6.437 -4.958,-6.437 -3.802,0 -4.844,4.293 -4.863,6.567 l -1.879,26.774 c -0.013,0.156 -0.22,3.837 1.988,6.19 1.169,1.245 2.768,1.877 4.754,1.877 1.808,0 3.298,-0.61 4.426,-1.808 C 0.261,4.866 0.01,0.199 0,0 m 1.253,-15.617 c 0.057,0.403 0.116,0.819 0.179,1.252 0.647,4.529 1.546,10.837 2.184,17.282 0.05,0.491 0.097,0.982 0.143,1.475 0.379,4.122 0.638,8.25 0.638,11.954 0,5.077 -1.48,13.083 -1.87,14.206 -0.369,1.053 -0.702,1.721 -2.212,2.086 -1.749,0.426 -6.966,0.373 -7.019,0.373 l -0.01,0.936 -0.009,-0.936 c -0.052,0 -5.272,0.053 -7.02,-0.373 -1.511,-0.365 -1.844,-1.033 -2.213,-2.086 -0.377,-1.082 -1.868,-9.216 -1.868,-14.206 0,-3.739 0.262,-7.908 0.648,-12.07 0.046,-0.493 0.093,-0.984 0.143,-1.477 0.638,-6.404 1.531,-12.663 2.174,-17.164 0.5,-3.502 0.861,-6.03 0.885,-7.046 0.036,-1.645 1.232,-13.708 2.377,-24.949 h 9.767 c 1.144,11.241 2.34,23.304 2.377,24.949 0.02,0.89 0.301,2.943 0.706,5.794"
         style="fill:#ffffff;fill-opacity:1;fill-rule:nonzero;stroke:none"
         id="path18762"
         inkscape:connector-curvature="0" /></g><g
       id="g18764"
       transform="translate(180.268,453.423)"><path
         d="M 0,0 V -3.929 L 7.19,-4.75 7.009,-4.357 C 6.934,-4.372 6.854,-4.381 6.774,-4.381 c -0.682,0 -1.235,0.561 -1.235,1.245 0,0.678 0.553,1.235 1.235,1.235 0.681,0 1.238,-0.557 1.238,-1.235 0,-0.341 -0.139,-0.649 -0.36,-0.874 L 8.034,-4.848 41.26,-8.644 v 3.688 z"
         style="fill:#ffffff;fill-opacity:1;fill-rule:nonzero;stroke:none"
         id="path18766"
         inkscape:connector-curvature="0" /></g><g
       id="g18768"
       transform="translate(97.3886,456.958)"><path
         d="m 0,0 v -12.982 c 0.051,0.006 0.104,0.012 0.154,0.015 0.511,0.042 2.773,0.272 6.132,0.627 v 5.138 l 44.447,5.684 v -6.063 c 2.935,0.317 5.258,0.566 6.653,0.718 -0.147,1.301 -0.429,3.269 -0.758,5.573 C 55.991,3.17 55.11,9.347 54.471,15.694 L 2.707,1.175 C 2.701,1.175 1.445,0.757 0,0"
         style="fill:#ffffff;fill-opacity:1;fill-rule:nonzero;stroke:none"
         id="path18770"
         inkscape:connector-curvature="0" /></g><g
       id="g18772"
       transform="translate(105.134,448.472)"><path
         d="m 0,0 v -3.7 c 8.471,0.892 22.362,2.382 33.525,3.586 l 0.485,1.059 c -0.221,0.225 -0.358,0.532 -0.358,0.873 0,0.679 0.554,1.234 1.236,1.234 0.685,0 1.237,-0.555 1.237,-1.234 0,-0.686 -0.552,-1.244 -1.237,-1.244 -0.082,0 -0.16,0.009 -0.237,0.024 l -0.285,-0.622 c 2.584,0.277 5.006,0.538 7.161,0.77 v 4.563 z"
         style="fill:#ffffff;fill-opacity:1;fill-rule:nonzero;stroke:none"
         id="path18774"
         inkscape:connector-curvature="0" /></g><g
       id="g18776"
       transform="translate(172.296,450.405)"><path
         d="M 0,0 V 0 L 6.511,-0.744 V 4.67 L 50.693,-0.643 V -5.792 L 56.2,-6.42 V 6.988 h 0.464 C 56.11,7.249 55.812,7.303 55.805,7.305 L 2.891,22.358 C 2.251,15.971 1.363,9.75 0.724,5.264 0.417,3.136 0.156,1.295 0,0"
         style="fill:#ffffff;fill-opacity:1;fill-rule:nonzero;stroke:none"
         id="path18778"
         inkscape:connector-curvature="0" /></g><g
       id="g18780"
       transform="translate(94.3704,454.821)"><path
         d="m 0,0 c -2.161,-2.255 -4.204,-5.59 -5.905,-9.637 -0.889,-2.111 -0.678,-2.823 -0.543,-3.033 0.162,-0.259 0.584,-0.298 1.038,-0.319 h 0.007 c 0.335,0 1.585,0.388 2.588,0.699 1.357,0.42 2.945,0.911 4.373,1.209 V 1.275 C 0.994,0.896 0.454,0.471 0,0"
         style="fill:#ffffff;fill-opacity:1;fill-rule:nonzero;stroke:none"
         id="path18782"
         inkscape:connector-curvature="0" /></g><g
       id="g18784"
       transform="translate(187.801,449.673)"><path
         d="m 0,0 -0.663,-0.302 0.139,-0.305 c 0.248,0.048 0.471,0.172 0.643,0.347 z"
         style="fill:#000000;fill-opacity:1;fill-rule:nonzero;stroke:none"
         id="path18786"
         inkscape:connector-curvature="0" /></g><g
       id="g18788"
       transform="translate(129.168,434.488)"><path
         d="M 0,0 0.85,2.338 1.719,0 Z m 0.467,2.833 -1.706,-4.381 h 0.671 l 0.388,1.064 H 1.908 L 2.316,-1.548 H 3.014 L 1.259,2.833 Z"
         style="fill:#000000;fill-opacity:1;fill-rule:nonzero;stroke:none"
         id="path18790"
         inkscape:connector-curvature="0" /></g><g
       id="g18792"
       transform="translate(-438.135,-380.523)"><path
         d="m 571.17,813.462 h 0.64002 v 4.38098 H 571.17 Z"
         style="fill:#000000;fill-opacity:1;fill-rule:nonzero;stroke:none"
         id="path18794"
         inkscape:connector-curvature="0" /></g><g
       id="g18796"
       transform="translate(135.55,437.282)"><path
         d="m 0,0 h -0.64 v -4.343 h 2.993 v 0.481 H 0 Z"
         style="fill:#000000;fill-opacity:1;fill-rule:nonzero;stroke:none"
         id="path18798"
         inkscape:connector-curvature="0" /></g><g
       id="g18800"
       transform="translate(168.984,470.296)"><path
         d="m 0,0 -0.664,-12.129 -1.061,-13.487 c -0.007,-1.14 -0.645,-5.264 -3.716,-5.264 -3.374,0 -3.604,4.82 -3.619,5.371 l -1.882,26.831 c -0.022,0.547 -0.052,3.41 1.656,5.23 0.922,0.984 2.216,1.482 3.845,1.482 1.471,0 2.623,-0.461 3.52,-1.411 C 0.228,4.343 0.002,0.043 0,0 m -5.441,8.871 c -1.868,0 -3.365,-0.587 -4.454,-1.748 -2.107,-2.245 -1.881,-5.841 -1.877,-5.876 l 1.877,-26.779 c 0.02,-2.154 0.972,-6.182 4.454,-6.182 3.465,0 4.49,3.948 4.549,6.036 l 1.063,13.495 0.667,12.138 c 0.023,0.486 0.165,4.778 -2.15,7.236 -1.049,1.115 -2.439,1.68 -4.129,1.68"
         style="fill:#000000;fill-opacity:1;fill-rule:nonzero;stroke:none"
         id="path18802"
         inkscape:connector-curvature="0" /></g><g
       id="g18804"
       transform="translate(170.231,470.228)"><path
         d="m 0,0 -0.666,-12.147 -1.063,-13.475 c -0.061,-2.199 -1.181,-6.437 -4.958,-6.437 -3.802,0 -4.844,4.293 -4.863,6.567 l -1.879,26.774 c -0.013,0.156 -0.22,3.837 1.988,6.19 1.169,1.245 2.768,1.877 4.754,1.877 1.808,0 3.298,-0.61 4.426,-1.808 C 0.261,4.866 0.01,0.199 0,0 m -1.96,7.823 c -1.211,1.286 -2.801,1.936 -4.727,1.936 -2.104,0 -3.803,-0.675 -5.053,-2.006 -2.389,-2.545 -2.101,-6.467 -2.098,-6.501 l 1.877,-26.748 c 0.02,-2.413 1.148,-6.974 5.274,-6.974 4.096,0 5.303,4.471 5.368,6.814 l 1.063,13.486 0.667,12.155 C 0.436,0.502 0.589,5.118 -1.96,7.823"
         style="fill:#ffffff;fill-opacity:1;fill-rule:nonzero;stroke:none"
         id="path18806"
         inkscape:connector-curvature="0" /></g><g
       id="g18808"
       transform="translate(158.892,444.503)"><path
         d="M 0,0 C 0.087,-2.259 1.14,-6.128 4.652,-6.128 1.147,-6.128 0.092,-2.259 0,0"
         style="fill:#ffffff;fill-opacity:1;fill-rule:nonzero;stroke:none"
         id="path18810"
         inkscape:connector-curvature="0" /></g><g
       id="g18812"
       transform="translate(168.288,444.391)"><path
         d="M 0,0 C 0.004,0.073 0.008,0.146 0.009,0.216 L 0.008,0.21 C 0.008,0.143 0.003,0.073 0,0"
         style="fill:#ffffff;fill-opacity:1;fill-rule:nonzero;stroke:none"
         id="path18814"
         inkscape:connector-curvature="0" /></g><g
       id="g18816"
       transform="translate(168.989,453.391)"><path
         d="M 0,0 0.372,4.707 0.48,6.69 0.372,4.711 Z"
         style="fill:#ffffff;fill-opacity:1;fill-rule:nonzero;stroke:none"
         id="path18818"
         inkscape:connector-curvature="0" /></g><g
       id="g18820"
       transform="translate(158.885,444.756)"><path
         d="M 0,0 V 0.006 L -1.834,26.143 Z"
         style="fill:#ffffff;fill-opacity:1;fill-rule:nonzero;stroke:none"
         id="path18822"
         inkscape:connector-curvature="0" /></g><g
       id="g18824"
       transform="translate(161.538,479.116)"><path
         d="m 0,0 c -1.023,-0.285 -1.892,-0.804 -2.598,-1.554 -0.081,-0.088 -0.159,-0.176 -0.234,-0.266 0.075,0.09 0.153,0.178 0.234,0.266 C -1.892,-0.804 -1.023,-0.285 0,0"
         style="fill:#ffffff;fill-opacity:1;fill-rule:nonzero;stroke:none"
         id="path18826"
         inkscape:connector-curvature="0" /></g><g
       id="g18828"
       transform="translate(168.493,476.774)"><path
         d="M 0,0 C 1.248,-1.901 1.501,-4.36 1.538,-5.667 1.501,-4.36 1.248,-1.901 0,0"
         style="fill:#ffffff;fill-opacity:1;fill-rule:nonzero;stroke:none"
         id="path18830"
         inkscape:connector-curvature="0" /></g><g
       id="g18832"
       transform="translate(169.616,470.262)"><path
         d="m 0,0 -0.666,-12.134 -1.063,-13.505 c -0.057,-2.019 -1.037,-5.837 -4.344,-5.837 -3.319,0 -4.229,3.91 -4.248,5.993 l -1.878,26.78 c -0.003,0.034 -0.227,3.536 1.822,5.72 1.047,1.117 2.495,1.681 4.304,1.681 1.633,0 2.971,-0.542 3.98,-1.614 C 0.164,4.688 0.023,0.472 0,0 m -6.073,8.904 c -1.868,0 -3.365,-0.586 -4.454,-1.747 -2.107,-2.246 -1.881,-5.841 -1.877,-5.877 l 1.877,-26.778 c 0.02,-2.154 0.972,-6.182 4.454,-6.182 3.465,0 4.49,3.947 4.549,6.036 l 1.063,13.495 0.667,12.138 C 0.23,0.474 0.371,4.767 -1.944,7.225 -2.993,8.34 -4.383,8.904 -6.073,8.904"
         style="fill:#ffffff;fill-opacity:1;fill-rule:nonzero;stroke:none"
         id="path18834"
         inkscape:connector-curvature="0" /></g><g
       id="g18836"
       transform="translate(170.231,470.228)"><path
         d="m 0,0 -0.666,-12.147 -1.063,-13.475 c -0.061,-2.199 -1.181,-6.437 -4.958,-6.437 -3.802,0 -4.844,4.293 -4.863,6.567 l -1.879,26.774 c -0.013,0.156 -0.22,3.837 1.988,6.19 1.169,1.245 2.768,1.877 4.754,1.877 1.808,0 3.298,-0.61 4.426,-1.808 C 0.261,4.866 0.01,0.199 0,0 m -2.11,7.682 c -1.17,1.241 -2.71,1.873 -4.577,1.873 -2.046,0 -3.694,-0.655 -4.904,-1.942 -2.324,-2.479 -2.045,-6.31 -2.043,-6.346 l 1.878,-26.761 c 0.02,-2.342 1.105,-6.77 5.069,-6.77 3.938,0 5.099,4.34 5.164,6.625 l 1.062,13.48 0.667,12.153 c 0.025,0.51 0.175,5.045 -2.316,7.688"
         style="fill:#ffffff;fill-opacity:1;fill-rule:nonzero;stroke:none"
         id="path18838"
         inkscape:connector-curvature="0" /></g><g
       id="g18840"
       transform="translate(170.031,471.107)"><path
         d="M 0,0 C -0.037,1.307 -0.29,3.766 -1.538,5.667 -0.29,3.766 -0.037,1.307 0,0 M -0.209,-0.857 -0.876,-12.995 -1.939,-26.49 c -0.059,-2.088 -1.084,-6.036 -4.549,-6.036 -3.482,0 -4.434,4.029 -4.454,6.182 l -1.877,26.779 c -0.004,0.036 -0.23,3.631 1.877,5.877 1.089,1.16 2.586,1.747 4.454,1.747 1.69,0 3.08,-0.564 4.129,-1.68 2.315,-2.457 2.173,-6.75 2.15,-7.236 m -0.461,-12.153 -0.372,-4.707 0.372,4.711 0.108,1.98 z m -1.073,-13.707 c 0.002,0.074 0.007,0.143 0.008,0.21 l 0.001,0.006 c -0.002,-0.069 -0.006,-0.142 -0.009,-0.216 m -4.745,-6.015 c -3.512,0 -4.564,3.869 -4.652,6.128 0.092,-2.259 1.148,-6.128 4.652,-6.128 0.048,0 0.096,0 0.142,0.002 -0.046,-0.002 -0.094,-0.002 -0.142,-0.002 m -4.658,6.381 -1.835,26.143 1.835,-26.137 z m 0.054,32.805 c 0.706,0.75 1.576,1.269 2.598,1.554 0.613,0.171 1.283,0.257 2.006,0.257 -0.723,0 -1.393,-0.086 -2.006,-0.257 -1.022,-0.285 -1.892,-0.804 -2.598,-1.554 -0.08,-0.088 -0.158,-0.176 -0.233,-0.266 0.075,0.09 0.153,0.178 0.233,0.266 m 4.604,2.015 c -1.985,0 -3.584,-0.631 -4.753,-1.876 -2.208,-2.353 -2.001,-6.034 -1.988,-6.19 l 1.878,-26.775 c 0.019,-2.274 1.061,-6.566 4.863,-6.566 3.777,0 4.897,4.238 4.958,6.437 L -0.467,-13.026 0.2,-0.879 C 0.21,-0.68 0.46,3.987 -2.061,6.662 -3.19,7.86 -4.679,8.469 -6.488,8.469"
         style="fill:#ffffff;fill-opacity:1;fill-rule:nonzero;stroke:none"
         id="path18842"
         inkscape:connector-curvature="0" /></g><g
       id="g18844"
       transform="translate(167.064,476.919)"><path
         d="m 0,0 c -0.898,0.95 -2.05,1.412 -3.52,1.412 -1.629,0 -2.924,-0.499 -3.845,-1.483 -1.709,-1.82 -1.679,-4.683 -1.656,-5.23 l 1.882,-26.831 c 0.015,-0.551 0.244,-5.371 3.619,-5.371 3.07,0 3.708,4.124 3.716,5.264 l 1.061,13.488 0.664,12.128 C 1.922,-6.58 2.148,-2.279 0,0"
         style="fill:#9e9e9f;fill-opacity:1;fill-rule:nonzero;stroke:none"
         id="path18846"
         inkscape:connector-curvature="0" /></g><g
       id="g18848"
       transform="translate(139.925,449.373)"><path
         d="m 0,0 -0.14,-0.304 c 0.077,-0.015 0.156,-0.024 0.237,-0.024 0.686,0 1.238,0.559 1.238,1.245 0,0.678 -0.552,1.233 -1.238,1.233 -0.682,0 -1.236,-0.555 -1.236,-1.233 0,-0.341 0.138,-0.649 0.358,-0.874 l 0.119,0.261 z"
         style="fill:#000000;fill-opacity:1;fill-rule:nonzero;stroke:none"
         id="path18850"
         inkscape:connector-curvature="0" /></g><g
       id="g18852"
       transform="translate(139.925,449.373)"><path
         d="M 0,0 -0.662,0.304 -0.781,0.043 c 0.172,-0.174 0.394,-0.298 0.641,-0.347 z"
         style="fill:#000000;fill-opacity:1;fill-rule:nonzero;stroke:none"
         id="path18854"
         inkscape:connector-curvature="0" /></g><g
       id="g18856"
       transform="translate(166.385,504.582)"><path
         d="M 0,0 C 0.357,1.74 0.241,3.417 -0.36,4.998 -1.073,6.88 -2.783,7.646 -2.801,7.654 l -0.064,0.03 -0.057,0.041 C -3.019,7.795 -3.116,7.755 -3.116,7.753 -3.136,7.744 -4.66,6.887 -5.375,5 -5.976,3.417 -6.093,1.74 -5.735,0.002 -4.25,0.039 -2.992,0.028 -2.868,0.028 -2.742,0.028 -1.486,0.039 0,0"
         style="fill:#ffffff;fill-opacity:1;fill-rule:nonzero;stroke:none"
         id="path18858"
         inkscape:connector-curvature="0" /></g><g
       id="g18860"
       transform="translate(163.517,504.61)"><path
         d="M 0,0 H -0.005 L 0,-0.435 0.006,0 Z"
         style="fill:#000000;fill-opacity:1;fill-rule:nonzero;stroke:none"
         id="path18862"
         inkscape:connector-curvature="0" /></g><g
       id="g18864"
       transform="translate(172.296,450.405)"><path
         d="M 0,0 -0.921,0.105 Z"
         style="fill:#000000;fill-opacity:1;fill-rule:nonzero;stroke:none"
         id="path18866"
         inkscape:connector-curvature="0" /></g><g
       id="g18868"
       transform="translate(166.046,505.002)"><path
         d="m 0,0 c -0.771,0.017 -1.458,0.021 -1.922,0.021 -0.325,0 -0.541,-0.002 -0.602,-0.002 -0.115,0 -1.192,0.011 -2.533,-0.019 -0.263,1.547 -0.126,3.035 0.404,4.433 0.539,1.419 1.585,2.218 1.949,2.46 L -2.627,6.859 C -2.612,6.854 -1.049,6.132 -0.405,4.433 0.127,3.035 0.261,1.547 0,0 m -2.461,7.234 -0.065,0.03 -0.057,0.041 C -2.68,7.375 -2.776,7.335 -2.776,7.333 -2.797,7.324 -4.321,6.467 -5.036,4.58 -5.637,2.997 -5.754,1.32 -5.396,-0.418 c 1.486,0.037 2.743,0.026 2.867,0.026 0.127,0 1.383,0.011 2.868,-0.028 0.357,1.74 0.241,3.417 -0.36,4.998 -0.713,1.882 -2.423,2.649 -2.44,2.656"
         style="fill:#ffffff;fill-opacity:1;fill-rule:nonzero;stroke:none"
         id="path18870"
         inkscape:connector-curvature="0" /></g><g
       id="g18872"
       transform="translate(105.545,445.227)"><path
         d="M 0,0 V 2.885 L 40.706,8.087 V 4.36 L 33.911,3.627 C 26.923,2.876 9.796,1.035 0,0 M 41.116,3.991 V 8.554 L -0.411,3.245 v -3.701 c 8.472,0.893 23.204,2.475 34.366,3.677 2.584,0.277 5.006,0.538 7.161,0.77"
         style="fill:#ffffff;fill-opacity:1;fill-rule:nonzero;stroke:none"
         id="path18874"
         inkscape:connector-curvature="0" /></g><g
       id="g18876"
       transform="translate(97.7982,456.709)"><path
         d="m 0,0 c 1.183,0.6 2.194,0.956 2.414,1.031 l 51.287,14.386 c 0.638,-6.194 1.486,-12.142 2.11,-16.514 0.294,-2.06 0.553,-3.867 0.708,-5.153 l -5.785,-0.624 v 6.072 L 5.823,-6.544 5.466,-6.591 v -5.131 C 2.588,-12.024 0.756,-12.211 0,-12.282 Z m -0.41,-12.732 c 0.051,0.005 0.104,0.011 0.154,0.015 0.511,0.041 2.774,0.272 6.133,0.626 v 5.138 l 44.446,5.684 v -6.062 c 2.936,0.316 5.258,0.566 6.653,0.717 -0.147,1.301 -0.428,3.27 -0.757,5.574 C 55.581,3.419 54.7,9.596 54.061,15.943 L 2.297,1.425 C 2.292,1.425 1.036,1.007 -0.41,0.249 Z"
         style="fill:#ffffff;fill-opacity:1;fill-rule:nonzero;stroke:none"
         id="path18878"
         inkscape:connector-curvature="0" /></g><g
       id="g18880"
       transform="translate(228.085,444.443)"><path
         d="m 0,0 -4.685,0.536 v 5.146 l -45.004,5.41 V 5.676 l -5.642,0.647 c 0.159,1.262 0.398,2.936 0.67,4.846 0.629,4.399 1.484,10.385 2.12,16.622 l 52.444,-14.918 0.03,-0.008 C -0.056,12.863 -0.034,12.858 0,12.848 Z m -52.899,28.319 c -0.639,-6.386 -1.528,-12.608 -2.167,-17.094 -0.306,-2.128 -0.568,-3.968 -0.723,-5.264 l 6.511,-0.744 v 5.414 L -5.097,5.318 V 0.169 L 0.411,-0.459 V 13.146 C 0.158,13.24 0.02,13.265 0.015,13.266 Z"
         style="fill:#ffffff;fill-opacity:1;fill-rule:nonzero;stroke:none"
         id="path18882"
         inkscape:connector-curvature="0" /></g><g
       id="g18884"
       transform="translate(95.5177,455.293)"><path
         d="m 0,0 v -11.219 c -1.348,-0.304 -2.786,-0.75 -4.083,-1.149 l -0.046,-0.015 c -0.806,-0.25 -2.153,-0.668 -2.411,-0.668 -0.563,0.025 -0.685,0.09 -0.709,0.128 -0.012,0.02 -0.316,0.538 0.574,2.654 1.684,4.004 3.698,7.294 5.825,9.512 C -0.607,-0.504 -0.323,-0.249 0,0 m -7.052,-10.11 c -0.889,-2.11 -0.678,-2.823 -0.543,-3.033 0.162,-0.258 0.584,-0.298 1.038,-0.318 h 0.007 c 0.335,0 1.585,0.388 2.588,0.699 1.356,0.42 2.945,0.911 4.372,1.209 V 0.802 c -0.563,-0.378 -1.104,-0.804 -1.557,-1.274 -2.162,-2.255 -4.204,-5.59 -5.905,-9.638"
         style="fill:#ffffff;fill-opacity:1;fill-rule:nonzero;stroke:none"
         id="path18886"
         inkscape:connector-curvature="0" /></g><g
       id="g18888"
       transform="translate(180.679,452.96)"><path
         d="M 0,0 40.438,-4.857 V -7.72 L 0,-3.101 Z m 40.849,-8.181 v 3.688 l -41.26,4.956 v -3.929 l 7.19,-0.821 z"
         style="fill:#ffffff;fill-opacity:1;fill-rule:nonzero;stroke:none"
         id="path18890"
         inkscape:connector-curvature="0" /></g><g
       id="g18892"
       transform="translate(95.9282,443.74)"><path
         d="M 0,0 C -1.427,-0.298 -3.016,-0.789 -4.372,-1.209 -5.375,-1.52 -6.626,-1.908 -6.96,-1.908 h -0.008 c -0.453,0.02 -0.875,0.06 -1.037,0.318 -0.135,0.21 -0.346,0.923 0.542,3.033 1.702,4.048 3.744,7.383 5.905,9.638 0.454,0.47 0.995,0.896 1.558,1.274 z M -1.854,11.366 C -4.049,9.075 -6.119,5.699 -7.842,1.603 -8.551,-0.081 -8.721,-1.23 -8.352,-1.811 -8.061,-2.27 -7.415,-2.3 -6.96,-2.319 c 0.364,0 1.291,0.279 2.663,0.703 l 0.065,0.021 c 1.367,0.421 2.914,0.901 4.316,1.194 l 0.327,0.069 V 13.126 L -0.23,12.697 c -0.64,-0.43 -1.185,-0.878 -1.624,-1.331"
         style="fill:#ffffff;fill-opacity:1;fill-rule:nonzero;stroke:none"
         id="path18894"
         inkscape:connector-curvature="0" /></g><g
       id="g18896"
       transform="translate(228.496,443.984)"><path
         d="M 0,0 -5.508,0.628 V 5.777 L -49.689,11.09 V 5.676 L -56.2,6.42 c 0.156,1.296 0.417,3.137 0.724,5.264 0.639,4.486 1.527,10.708 2.167,17.095 L -0.396,13.726 C -0.391,13.724 -0.253,13.699 0,13.606 Z m -0.285,14.121 -52.913,15.053 -0.471,0.135 -0.049,-0.489 c -0.641,-6.393 -1.523,-12.567 -2.167,-17.076 -0.303,-2.129 -0.565,-3.966 -0.723,-5.275 l -0.049,-0.41 7.378,-0.844 v 5.41 L -5.918,5.414 V 0.262 L 0.411,-0.461 V 13.891 L 0.142,13.99 c -0.228,0.086 -0.379,0.124 -0.427,0.131"
         style="fill:#ffffff;fill-opacity:1;fill-rule:nonzero;stroke:none"
         id="path18898"
         inkscape:connector-curvature="0" /></g><g
       id="g18900"
       transform="translate(105.134,448.472)"><path
         d="M 0,0 41.527,5.309 V 0.746 C 39.372,0.514 36.95,0.253 34.366,-0.024 23.204,-1.226 8.471,-2.808 0,-3.7 Z m -0.411,0.362 v -4.52 l 0.454,0.049 c 9.712,1.023 27.269,2.911 34.367,3.676 l 7.527,0.812 V 5.776 L -0.051,0.409 Z"
         style="fill:#ffffff;fill-opacity:1;fill-rule:nonzero;stroke:none"
         id="path18902"
         inkscape:connector-curvature="0" /></g><g
       id="g18904"
       transform="translate(180.268,453.423)"><path
         d="M 0,0 41.26,-4.956 V -8.644 L 7.19,-4.75 0,-3.929 Z m -0.412,-4.295 42.084,-4.808 v 4.512 L -0.412,0.465 Z"
         style="fill:#ffffff;fill-opacity:1;fill-rule:nonzero;stroke:none"
         id="path18906"
         inkscape:connector-curvature="0" /></g><g
       id="g18908"
       transform="translate(151.859,472.652)"><path
         d="m 0,0 c 0.639,-6.347 1.52,-12.524 2.158,-16.984 0.329,-2.304 0.61,-4.272 0.757,-5.573 -1.395,-0.152 -3.717,-0.401 -6.653,-0.718 v 6.063 l -44.446,-5.684 v -5.138 c -3.36,-0.355 -5.622,-0.585 -6.133,-0.627 -0.05,-0.003 -0.103,-0.009 -0.154,-0.015 v 12.982 c 1.446,0.757 2.702,1.175 2.707,1.175 z m -54.661,-15.329 -0.22,-0.116 v -13.684 l 0.596,0.06 c 0.487,0.037 2.497,0.243 6.143,0.626 l 0.367,0.037 v 5.148 l 43.627,5.579 v -6.053 l 7.519,0.811 -0.048,0.411 c -0.149,1.308 -0.431,3.29 -0.76,5.586 C 1.923,-12.445 1.048,-6.31 0.409,0.041 L 0.36,0.529 -51.899,-14.131 c -0.135,-0.045 -1.368,-0.468 -2.762,-1.198"
         style="fill:#ffffff;fill-opacity:1;fill-rule:nonzero;stroke:none"
         id="path18910"
         inkscape:connector-curvature="0" /></g><g
       id="g18912"
       transform="translate(166.385,504.582)"><path
         d="m 0,0 c -1.486,0.039 -2.742,0.028 -2.868,0.028 -0.124,0 -1.382,0.011 -2.867,-0.026 -0.358,1.738 -0.241,3.415 0.36,4.998 0.715,1.887 2.239,2.744 2.259,2.753 0,0.002 0.097,0.042 0.194,-0.028 l 0.057,-0.041 0.064,-0.03 C -2.783,7.646 -1.073,6.88 -0.36,4.998 0.241,3.417 0.357,1.74 0,0 M -2.636,8.031 -2.683,8.059 C -2.791,8.136 -2.917,8.177 -3.048,8.177 -3.111,8.177 -3.217,8.166 -3.313,8.113 -3.382,8.076 -4.992,7.17 -5.76,5.146 -6.386,3.498 -6.512,1.74 -6.137,-0.081 l 0.068,-0.337 0.344,0.009 c 1.482,0.04 2.708,0.027 2.868,0.027 0.16,0 1.396,0.011 2.846,-0.027 l 0.343,-0.009 0.07,0.336 C 0.776,1.74 0.649,3.498 0.023,5.144 -0.754,7.193 -2.618,8.023 -2.636,8.031"
         style="fill:#ffffff;fill-opacity:1;fill-rule:nonzero;stroke:none"
         id="path18914"
         inkscape:connector-curvature="0" /></g><g
       id="g18916"
       transform="translate(171.189,448.807)"><path
         d="m 0,0 c 0.021,0.894 0.33,3.131 0.701,5.746 l 0.18,1.25 c 0.651,4.572 1.546,10.829 2.187,17.301 0.048,0.491 0.096,0.985 0.142,1.479 0.425,4.6 0.639,8.634 0.639,11.991 0,5.116 -1.497,13.205 -1.893,14.343 -0.39,1.115 -0.798,1.936 -2.501,2.348 -1.438,0.349 -5.063,0.388 -6.554,0.388 -0.219,0 -0.382,-10e-4 -0.477,-10e-4 H -7.66 c -0.09,0 -0.257,10e-4 -0.482,10e-4 -1.522,0 -5.216,-0.037 -6.655,-0.388 -1.705,-0.412 -2.114,-1.235 -2.505,-2.35 -0.383,-1.093 -1.892,-9.311 -1.892,-14.341 0,-3.385 0.22,-7.461 0.652,-12.108 0.045,-0.493 0.093,-0.986 0.142,-1.479 0.64,-6.426 1.529,-12.642 2.178,-17.195 0.497,-3.48 0.856,-5.995 0.878,-6.985 0.033,-1.473 1.124,-12.175 2.179,-22.523 l 0.246,-2.417 h 0.414 c -1.113,10.926 -2.391,23.375 -2.427,24.949 -0.024,1.016 -0.385,3.545 -0.885,7.047 -0.643,4.501 -1.536,10.76 -2.174,17.164 -0.05,0.493 -0.097,0.984 -0.143,1.477 -0.386,4.161 -0.647,8.33 -0.647,12.07 0,4.99 1.49,13.124 1.868,14.206 0.368,1.053 0.702,1.721 2.212,2.086 1.632,0.396 6.369,0.379 7.039,0.375 v -0.002 c 0.053,0 5.27,0.053 7.019,-0.373 C 0.867,53.694 1.2,53.026 1.569,51.973 1.959,50.85 3.439,42.844 3.439,37.767 3.439,34.063 3.18,29.935 2.801,25.813 2.755,25.32 2.708,24.829 2.658,24.338 2.02,17.893 1.121,11.585 0.474,7.056 0.411,6.623 0.352,6.207 0.295,5.804 -0.11,2.953 -0.391,0.9 -0.411,0.009 -0.445,-1.565 -1.722,-14.014 -2.833,-24.94 h 0.411 l 0.184,1.8 C -1.155,-12.502 -0.034,-1.503 0,0"
         style="fill:#ffffff;fill-opacity:1;fill-rule:nonzero;stroke:none"
         id="path18918"
         inkscape:connector-curvature="0" /></g><g
       id="g18920"
       transform="translate(171.484,454.611)"><path
         d="m 0,0 c 0.057,0.403 0.116,0.819 0.179,1.252 0.647,4.529 1.546,10.837 2.184,17.282 0.05,0.491 0.096,0.982 0.142,1.475 0.38,4.123 0.639,8.25 0.639,11.955 0,5.076 -1.48,13.082 -1.87,14.205 -0.369,1.054 -0.702,1.721 -2.212,2.086 -1.749,0.426 -6.966,0.374 -7.02,0.374 v 0.001 c -0.669,0.004 -5.406,0.021 -7.039,-0.375 -1.51,-0.365 -1.843,-1.032 -2.212,-2.086 -0.377,-1.082 -1.868,-9.215 -1.868,-14.205 0,-3.74 0.262,-7.909 0.648,-12.071 0.046,-0.493 0.093,-0.984 0.143,-1.477 0.638,-6.404 1.531,-12.663 2.174,-17.164 0.5,-3.502 0.86,-6.03 0.885,-7.046 0.035,-1.575 1.314,-14.024 2.426,-24.949 h 0.412 l -0.255,2.499 c -1.053,10.332 -2.141,21.017 -2.173,22.459 -0.024,1.039 -0.387,3.573 -0.888,7.095 -0.648,4.533 -1.534,10.74 -2.172,17.147 -0.05,0.491 -0.097,0.982 -0.143,1.475 -0.43,4.623 -0.647,8.67 -0.647,12.032 0,4.95 1.473,13.002 1.846,14.068 0.342,0.977 0.582,1.5 1.923,1.824 1.39,0.339 5.297,0.366 6.46,0.366 h 0.075 v -0.008 l 0.413,0.004 c 0.033,0 0.235,0.002 0.556,0.002 1.139,0 4.97,-0.026 6.36,-0.364 1.339,-0.324 1.579,-0.847 1.92,-1.822 0.386,-1.11 1.847,-9.035 1.847,-14.07 0,-3.333 -0.215,-7.341 -0.637,-11.917 C 2.051,19.556 2.004,19.065 1.955,18.573 1.316,12.119 0.424,5.873 -0.229,1.31 L -0.408,0.058 C -0.796,-2.677 -1.095,-4.844 -1.115,-5.785 -1.15,-7.257 -2.319,-18.733 -3.35,-28.859 l -0.192,-1.884 h 0.413 c 1.112,10.925 2.389,23.374 2.423,24.949 0.02,0.89 0.301,2.943 0.706,5.794"
         style="fill:#ffffff;fill-opacity:1;fill-rule:nonzero;stroke:none"
         id="path18922"
         inkscape:connector-curvature="0" /></g><g
       id="g18924"
       transform="translate(139.144,449.417)"><path
         d="m 0,0 -0.485,-1.059 -0.705,-1.547 -3.314,-7.245 0.661,-0.302 3.493,7.637 0.706,1.547 0.285,0.622 C 0.394,-0.298 0.172,-0.174 0,0"
         style="fill:#000000;fill-opacity:1;fill-rule:nonzero;stroke:none"
         id="path18926"
         inkscape:connector-curvature="0" /></g><g
       id="g18928"
       transform="translate(187.801,449.673)"><path
         d="m 0,0 0.119,-0.26 c 0.221,0.224 0.36,0.532 0.36,0.873 0,0.679 -0.557,1.235 -1.238,1.235 -0.682,0 -1.235,-0.556 -1.235,-1.235 0,-0.684 0.553,-1.245 1.235,-1.245 0.08,0 0.16,0.01 0.235,0.025 l -0.139,0.305 z"
         style="fill:#000000;fill-opacity:1;fill-rule:nonzero;stroke:none"
         id="path18930"
         inkscape:connector-curvature="0" /></g><g
       id="g18932"
       transform="translate(189.011,447.028)"><path
         d="M 0,0 -0.71,1.547 -1.092,2.385 C -1.264,2.21 -1.487,2.086 -1.735,2.038 l 0.181,-0.394 0.71,-1.548 3.599,-7.864 0.662,0.302 z"
         style="fill:#000000;fill-opacity:1;fill-rule:nonzero;stroke:none"
         id="path18934"
         inkscape:connector-curvature="0" /></g><g
       id="g18936"
       transform="translate(204.911,497.16)"><path
         d="m 0,0 c -0.456,0 -0.826,-0.373 -0.826,-0.829 0,-0.17 0.052,-0.329 0.14,-0.463 l 0.051,0.113 0.702,-0.322 -0.074,-0.16 H 0 c 0.46,0 0.832,0.375 0.832,0.832 C 0.832,-0.373 0.46,0 0,0"
         style="fill:#000000;fill-opacity:1;fill-rule:nonzero;stroke:none"
         id="path18938"
         inkscape:connector-curvature="0" /></g><g
       id="g18940"
       transform="translate(204.225,495.869)"><path
         d="m 0,0 -0.91,-1.987 -0.71,-1.548 -0.597,-1.303 0.701,-0.321 0.744,1.624 0.709,1.548 0.743,1.618 C 0.396,-0.366 0.146,-0.219 0,0"
         style="fill:#000000;fill-opacity:1;fill-rule:nonzero;stroke:none"
         id="path18942"
         inkscape:connector-curvature="0" /></g><g
       id="g18944"
       transform="translate(266.438,492.333)"><path
         d="M 0,0 -0.71,1.548 -1.62,3.535 C -1.766,3.316 -2.016,3.17 -2.299,3.166 L -1.557,1.548 -0.849,0 l 0.745,-1.623 0.701,0.32 z"
         style="fill:#000000;fill-opacity:1;fill-rule:nonzero;stroke:none"
         id="path18946"
         inkscape:connector-curvature="0" /></g><g
       id="g18948"
       transform="translate(238.913,440.629)"><path
         d="m 0,0 c -0.121,-0.069 -0.272,-0.105 -0.448,-0.105 -0.516,0 -1.303,0.309 -2.404,0.945 -1.588,0.917 -5.357,1.788 -6.082,1.931 l -0.433,0.05 v 14.137 l 0.629,-0.394 c 1.402,-0.879 2.906,-2.205 4.472,-3.939 C 0.267,7.017 0.495,2.343 0.495,1.464 0.495,0.692 0.323,0.184 0,0 m -10.006,2.894 -6.329,0.724 v 5.151 l -43.361,5.212 v -5.41 l -7.379,0.843 0.05,0.411 c 0.158,1.308 0.42,3.145 0.723,5.275 0.644,4.508 1.526,10.683 2.167,17.075 l 0.049,0.49 0.471,-0.135 52.913,-15.053 c 0.048,-0.008 0.199,-0.045 0.427,-0.131 l 0.269,-0.1 z m -6.967,0.797 -42.084,4.808 v 4.76 l 42.084,-5.056 z m -55.153,60.18 -0.07,-0.336 -0.343,0.01 c -1.45,0.037 -2.685,0.026 -2.846,0.026 -0.16,0 -1.386,0.013 -2.868,-0.026 l -0.344,-0.01 -0.068,0.338 c -0.375,1.82 -0.248,3.578 0.378,5.226 0.767,2.025 2.378,2.93 2.446,2.968 0.097,0.052 0.203,0.063 0.265,0.063 0.131,0 0.257,-0.041 0.365,-0.118 l 0.048,-0.028 c 0.017,-0.007 1.882,-0.838 2.659,-2.887 0.625,-1.646 0.752,-3.404 0.378,-5.226 M -86.645,32.065 c 0.639,-6.351 1.515,-12.487 2.155,-16.965 0.328,-2.297 0.61,-4.278 0.759,-5.587 l 0.049,-0.41 -7.519,-0.812 v 6.053 L -134.828,8.766 V 3.618 l -0.368,-0.037 c -3.646,-0.383 -5.655,-0.589 -6.143,-0.627 l -0.596,-0.06 v 13.685 l 0.22,0.116 c 1.394,0.729 2.628,1.153 2.762,1.198 l 52.259,14.659 z M -91.841,8.222 -99.369,7.41 c -7.098,-0.765 -24.654,-2.652 -34.367,-3.676 l -0.453,-0.049 v 4.52 l 0.36,0.047 41.988,5.367 z M -142.574,2.78 -142.9,2.711 c -1.403,-0.293 -2.95,-0.773 -4.317,-1.194 l -0.065,-0.021 c -1.372,-0.424 -2.299,-0.703 -2.663,-0.703 -0.455,0.019 -1.1,0.049 -1.392,0.508 -0.369,0.581 -0.199,1.73 0.51,3.414 1.724,4.096 3.793,7.472 5.988,9.762 0.439,0.454 0.984,0.902 1.625,1.331 l 0.64,0.43 z M -3.78,13.042 c -4.276,4.731 -6.74,5.052 -6.765,5.053 l -0.078,0.013 -53.401,15.2 0.031,0.339 c 0.443,4.73 0.667,8.867 0.667,12.299 0,5.168 -1.522,13.366 -1.924,14.522 -0.419,1.196 -0.925,2.226 -2.891,2.702 -0.568,0.138 -1.521,0.243 -2.831,0.313 l -0.144,0.007 -0.444,0.401 0.039,0.222 c 0.31,1.797 0.153,3.539 -0.471,5.179 -0.784,2.066 -2.552,3.003 -2.899,3.17 l -0.046,0.026 c -0.191,0.124 -0.402,0.186 -0.628,0.186 -0.227,0 -0.426,-0.064 -0.536,-0.124 -0.079,-0.043 -1.849,-1.018 -2.698,-3.256 -0.6,-1.58 -0.769,-3.258 -0.501,-4.988 l 0.033,-0.212 -0.642,-0.615 -0.15,-0.009 c -1.186,-0.07 -2.057,-0.171 -2.591,-0.3 -1.966,-0.476 -2.474,-1.506 -2.892,-2.702 -0.402,-1.149 -1.923,-9.333 -1.923,-14.522 0,-3.459 0.229,-7.631 0.676,-12.408 l 0.032,-0.341 -52.373,-14.689 c -0.145,-0.049 -3.989,-1.327 -6.168,-3.588 -2.251,-2.349 -4.367,-5.793 -6.118,-9.96 -0.805,-1.912 -0.956,-3.22 -0.463,-3.998 0.467,-0.739 1.327,-0.78 1.898,-0.806 h 0.055 c 0.449,0 1.343,0.268 2.88,0.744 1.848,0.573 4.148,1.29 5.76,1.419 1.821,0.142 26.546,2.795 41.122,4.362 l 0.63,0.068 c 6.965,0.749 12.795,1.379 15.47,1.666 l 0.435,0.047 0.019,-0.437 c 0.08,-1.878 1.137,-12.239 2.157,-22.257 l 0.257,-2.529 h 0.553 l -0.246,2.417 c -1.055,10.347 -2.146,21.049 -2.179,22.523 -0.022,0.99 -0.381,3.505 -0.878,6.984 -0.649,4.554 -1.538,10.77 -2.178,17.196 -0.049,0.493 -0.097,0.986 -0.142,1.479 -0.432,4.647 -0.652,8.723 -0.652,12.108 0,5.03 1.509,13.248 1.892,14.341 0.391,1.115 0.8,1.938 2.505,2.35 1.439,0.351 5.133,0.388 6.655,0.388 0.225,0 0.392,-0.002 0.482,-0.002 h 0.084 c 0.095,0 0.258,0.002 0.477,0.002 1.491,0 5.116,-0.039 6.554,-0.388 1.703,-0.412 2.111,-1.233 2.501,-2.348 0.396,-1.138 1.893,-9.227 1.893,-14.343 0,-3.357 -0.214,-7.391 -0.639,-11.992 -0.046,-0.493 -0.094,-0.988 -0.142,-1.479 -0.641,-6.471 -1.536,-12.728 -2.187,-17.3 l -0.18,-1.251 c -0.371,-2.615 -0.68,-4.851 -0.701,-5.745 -0.034,-1.504 -1.155,-12.502 -2.238,-23.14 l -0.184,-1.8 h 0.553 l 0.161,1.598 c 1.041,10.218 2.221,21.801 2.255,23.329 0.002,0.054 0.005,0.116 0.008,0.18 l 0.024,0.436 58.126,-6.639 c 0.173,-0.038 4.225,-0.919 5.847,-1.858 0.884,-0.508 1.901,-1.029 2.729,-1.029 0.292,0 0.541,0.064 0.763,0.193 0.54,0.311 0.815,0.988 0.815,2.015 0,0.919 -0.238,5.789 -4.915,11.578"
         style="fill:#231815;fill-opacity:1;fill-rule:nonzero;stroke:none"
         id="path18950"
         inkscape:connector-curvature="0" /></g><g
       id="g18952"
       transform="translate(235.182,486.472)"><path
         d="m 0,0 c 0.089,0.133 0.143,0.292 0.143,0.465 0,0.457 -0.373,0.825 -0.829,0.825 -0.46,0 -0.83,-0.368 -0.83,-0.825 0,-0.459 0.37,-0.829 0.83,-0.829 h 0.005 l 2.196,-4.795 0.703,0.321 z"
         style="fill:#000000;fill-opacity:1;fill-rule:nonzero;stroke:none"
         id="path18954"
         inkscape:connector-curvature="0" /></g><g
       id="g18956"
       transform="translate(-438.135,-380.523)"><path
         d="M 455.801,771.227 H 808.26 V 726.062 H 455.801 Z"
         style="fill:none;stroke:#231815;stroke-width:0.5;stroke-linecap:butt;stroke-linejoin:miter;stroke-miterlimit:10;stroke-dasharray:none;stroke-opacity:1"
         id="path18958"
         inkscape:connector-curvature="0" /></g><g
       id="g18960"
       transform="translate(17.6657,361.831)"><path
         d="M 0,0 H 294.866"
         style="fill:none;stroke:#231815;stroke-width:0.5;stroke-linecap:butt;stroke-linejoin:miter;stroke-miterlimit:10;stroke-dasharray:none;stroke-opacity:1"
         id="path18962"
         inkscape:connector-curvature="0" /></g><g
       id="g18964"
       transform="translate(17.6657,377.413)"><path
         d="M 0,0 H 352.459"
         style="fill:none;stroke:#231815;stroke-width:0.5;stroke-linecap:butt;stroke-linejoin:miter;stroke-miterlimit:10;stroke-dasharray:none;stroke-opacity:1"
         id="path18966"
         inkscape:connector-curvature="0" /></g><g
       id="g18968"
       transform="translate(193.29,390.704)"><path
         d="M 0,0 V -45.165"
         style="fill:none;stroke:#231815;stroke-width:0.5;stroke-linecap:butt;stroke-linejoin:miter;stroke-miterlimit:10;stroke-dasharray:none;stroke-opacity:1"
         id="path18970"
         inkscape:connector-curvature="0" /></g><g
       id="g18972"
       transform="translate(252.578,390.704)"><path
         d="M 0,0 V -45.165"
         style="fill:none;stroke:#231815;stroke-width:0.5;stroke-linecap:butt;stroke-linejoin:miter;stroke-miterlimit:10;stroke-dasharray:none;stroke-opacity:1"
         id="path18974"
         inkscape:connector-curvature="0" /></g><g
       id="g18976"
       transform="translate(312.532,390.704)"><path
         d="M 0,0 V -45.165"
         style="fill:none;stroke:#231815;stroke-width:0.5;stroke-linecap:butt;stroke-linejoin:miter;stroke-miterlimit:10;stroke-dasharray:none;stroke-opacity:1"
         id="path18978"
         inkscape:connector-curvature="0" /></g><g
       id="g18980"
       transform="translate(78.8652,390.704)"><path
         d="M 0,0 V -45.165"
         style="fill:none;stroke:#231815;stroke-width:0.5;stroke-linecap:butt;stroke-linejoin:miter;stroke-miterlimit:10;stroke-dasharray:none;stroke-opacity:1"
         id="path18982"
         inkscape:connector-curvature="0" /></g><g
       id="g18984"
       transform="translate(139.144,390.704)"><path
         d="M 0,0 V -45.165"
         style="fill:none;stroke:#231815;stroke-width:0.5;stroke-linecap:butt;stroke-linejoin:miter;stroke-miterlimit:10;stroke-dasharray:none;stroke-opacity:1"
         id="path18986"
         inkscape:connector-curvature="0" /></g><g
       id="g18988"
       transform="translate(20.4091,536.164)"><path
         d="m 0,0 0.824,-0.113 c -0.169,-1.185 -0.759,-1.778 -1.769,-1.778 -0.658,0 -1.148,0.249 -1.469,0.746 -0.322,0.498 -0.483,1.163 -0.483,1.997 0,0.898 0.169,1.587 0.51,2.066 0.341,0.479 0.831,0.719 1.473,0.719 0.992,0 1.574,-0.607 1.746,-1.821 L 0,1.695 c -0.09,0.807 -0.394,1.211 -0.91,1.211 -0.691,0 -1.036,-0.701 -1.036,-2.105 0,-1.307 0.345,-1.961 1.036,-1.961 0.277,0 0.483,0.099 0.619,0.299 C -0.155,-0.662 -0.059,-0.375 0,0"
         style="fill:#000000;fill-opacity:1;fill-rule:nonzero;stroke:none"
         id="path18990"
         inkscape:connector-curvature="0" /></g><g
       id="g18992"
       transform="translate(17.4101,409.006)"><path
         d="m 0,0 0.536,0.047 c 0.026,-0.215 0.084,-0.392 0.177,-0.528 0.093,-0.139 0.237,-0.25 0.433,-0.334 0.195,-0.086 0.415,-0.128 0.659,-0.128 0.216,0 0.408,0.032 0.574,0.096 0.166,0.065 0.289,0.153 0.371,0.266 0.08,0.111 0.121,0.234 0.121,0.367 0,0.135 -0.039,0.252 -0.117,0.354 C 2.676,0.239 2.547,0.324 2.367,0.393 2.252,0.437 1.997,0.507 1.603,0.603 1.208,0.696 0.932,0.786 0.773,0.87 0.568,0.978 0.415,1.11 0.314,1.271 c -0.1,0.158 -0.15,0.336 -0.15,0.534 0,0.216 0.062,0.419 0.185,0.608 0.123,0.188 0.302,0.331 0.539,0.429 0.236,0.097 0.499,0.146 0.788,0.146 0.318,0 0.599,-0.051 0.842,-0.153 C 2.762,2.731 2.948,2.581 3.079,2.382 3.21,2.183 3.28,1.957 3.29,1.705 L 2.745,1.664 C 2.716,1.936 2.616,2.141 2.447,2.279 2.278,2.418 2.029,2.487 1.699,2.487 1.355,2.487 1.104,2.425 0.947,2.298 0.79,2.173 0.712,2.021 0.712,1.843 0.712,1.688 0.768,1.562 0.879,1.462 0.988,1.362 1.273,1.26 1.736,1.155 2.197,1.051 2.515,0.96 2.687,0.882 2.937,0.767 3.121,0.62 3.24,0.444 3.359,0.267 3.419,0.063 3.419,-0.167 3.419,-0.396 3.354,-0.61 3.223,-0.813 3.092,-1.015 2.903,-1.173 2.658,-1.284 2.413,-1.396 2.138,-1.453 1.831,-1.453 c -0.389,0 -0.715,0.057 -0.977,0.17 C 0.591,-1.17 0.385,-1 0.236,-0.772 0.086,-0.545 0.008,-0.287 0,0"
         style="fill:#000000;fill-opacity:1;fill-rule:nonzero;stroke:none"
         id="path18994"
         inkscape:connector-curvature="0" /></g></g></svg>