<?xml version="1.0" encoding="UTF-8" standalone="no"?>
<!-- Created with Inkscape (http://www.inkscape.org/) -->

<svg
   xmlns:dc="http://purl.org/dc/elements/1.1/"
   xmlns:cc="http://creativecommons.org/ns#"
   xmlns:rdf="http://www.w3.org/1999/02/22-rdf-syntax-ns#"
   xmlns:svg="http://www.w3.org/2000/svg"
   xmlns="http://www.w3.org/2000/svg"
   xmlns:sodipodi="http://sodipodi.sourceforge.net/DTD/sodipodi-0.dtd"
   xmlns:inkscape="http://www.inkscape.org/namespaces/inkscape"
   version="1.1"
   id="svg8843"
   xml:space="preserve"
   width="816"
   height="1056"
   viewBox="0 0 816 1056"
   sodipodi:docname="S6RS8R - P08.svg"
   inkscape:version="0.92.2 (5c3e80d, 2017-08-06)"><metadata
     id="metadata8849"><rdf:RDF><cc:Work
         rdf:about=""><dc:format>image/svg+xml</dc:format><dc:type
           rdf:resource="http://purl.org/dc/dcmitype/StillImage" /><dc:title></dc:title></cc:Work></rdf:RDF></metadata><defs
     id="defs8847" /><sodipodi:namedview
     pagecolor="#ffffff"
     bordercolor="#666666"
     borderopacity="1"
     objecttolerance="10"
     gridtolerance="10"
     guidetolerance="10"
     inkscape:pageopacity="0"
     inkscape:pageshadow="2"
     inkscape:window-width="1680"
     inkscape:window-height="987"
     id="namedview8845"
     showgrid="false"
     inkscape:zoom="0.74810606"
     inkscape:cx="408"
     inkscape:cy="528"
     inkscape:window-x="-8"
     inkscape:window-y="-8"
     inkscape:window-maximized="1"
     inkscape:current-layer="g8851" /><g
     id="g8851"
     inkscape:groupmode="layer"
     inkscape:label="S6RS8R - P08"
     transform="matrix(1.3333333,0,0,-1.3333333,0,1056)"><g
       id="g8853"
       transform="translate(-438.135,213.898)"><path
         d="M 803,235.894 H 462 v 26.333 h 341 z"
         style="fill:#c9caca;fill-opacity:1;fill-rule:nonzero;stroke:none"
         id="path8855"
         inkscape:connector-curvature="0" /></g><g
       id="g8857"
       transform="translate(24.2949,611.231)"><path
         d="M 0,0 H 340.57"
         style="fill:none;stroke:#000000;stroke-width:0.42500001;stroke-linecap:butt;stroke-linejoin:miter;stroke-miterlimit:10;stroke-dasharray:none;stroke-opacity:1"
         id="path8859"
         inkscape:connector-curvature="0" /></g><g
       id="g8861"
       transform="translate(14.9669,256.101)"><path
         d="M 0,0 358.629,0.004"
         style="fill:none;stroke:#000000;stroke-width:0.42500001;stroke-linecap:butt;stroke-linejoin:miter;stroke-miterlimit:10;stroke-dasharray:none;stroke-opacity:1"
         id="path8863"
         inkscape:connector-curvature="0" /></g><g
       id="g8865"
       transform="translate(24.8965,748.186)"><path
         d="m 0,0 h 1.11 c 0.368,0 0.628,0.068 0.783,0.205 0.154,0.137 0.231,0.329 0.231,0.577 0,0.18 -0.046,0.333 -0.136,0.461 C 1.896,1.371 1.777,1.456 1.629,1.497 1.533,1.522 1.356,1.535 1.099,1.535 H 0 Z m -0.568,-2.253 v 4.295 h 1.62 C 1.337,2.042 1.555,2.028 1.705,2.001 1.916,1.966 2.093,1.898 2.235,1.8 2.378,1.701 2.492,1.563 2.58,1.386 2.666,1.208 2.71,1.013 2.71,0.8 2.71,0.435 2.594,0.125 2.361,-0.128 2.129,-0.381 1.709,-0.507 1.102,-0.507 H 0 v -1.746 z"
         style="fill:#000000;fill-opacity:1;fill-rule:nonzero;stroke:none"
         id="path8867"
         inkscape:connector-curvature="0" /></g><g
       id="g8869"
       transform="translate(24.873,701.44)"><path
         d="m 0,0 h 1.069 c 0.184,0 0.313,0.007 0.387,0.021 0.131,0.023 0.24,0.062 0.328,0.117 0.088,0.054 0.16,0.133 0.217,0.238 0.057,0.104 0.085,0.226 0.085,0.362 0,0.16 -0.041,0.299 -0.123,0.417 C 1.881,1.273 1.767,1.356 1.621,1.405 1.476,1.452 1.267,1.477 0.993,1.477 H 0 Z m 0,1.983 h 0.929 c 0.252,0 0.432,0.017 0.542,0.05 0.144,0.043 0.254,0.114 0.326,0.214 0.074,0.1 0.11,0.225 0.11,0.375 0,0.143 -0.034,0.268 -0.102,0.377 C 1.736,3.106 1.639,3.181 1.512,3.222 1.385,3.261 1.167,3.281 0.858,3.281 H 0 Z m -0.568,-2.49 V 3.788 H 1.043 C 1.371,3.788 1.634,3.744 1.832,3.657 2.03,3.57 2.186,3.437 2.299,3.257 2.41,3.075 2.467,2.887 2.467,2.689 2.467,2.506 2.417,2.333 2.317,2.171 2.218,2.009 2.067,1.878 1.866,1.778 2.126,1.702 2.325,1.572 2.465,1.389 2.604,1.205 2.675,0.988 2.675,0.738 2.675,0.537 2.633,0.351 2.547,0.177 2.463,0.005 2.357,-0.129 2.232,-0.223 2.107,-0.316 1.95,-0.388 1.762,-0.435 1.573,-0.483 1.343,-0.507 1.069,-0.507 Z"
         style="fill:#000000;fill-opacity:1;fill-rule:nonzero;stroke:none"
         id="path8871"
         inkscape:connector-curvature="0" /></g><g
       id="g8873"
       transform="translate(28.7627,617.706)"><path
         d="m 0,0 -0.646,-0.172 c -0.12,0.396 -0.345,0.594 -0.678,0.594 -0.154,0 -0.277,-0.047 -0.37,-0.141 -0.094,-0.094 -0.141,-0.21 -0.141,-0.347 0,-0.157 0.047,-0.271 0.143,-0.344 0.094,-0.073 0.312,-0.164 0.653,-0.274 0.421,-0.137 0.723,-0.294 0.908,-0.466 0.185,-0.173 0.277,-0.415 0.277,-0.725 0,-0.349 -0.131,-0.644 -0.396,-0.885 -0.265,-0.241 -0.621,-0.361 -1.07,-0.361 -0.848,0 -1.329,0.383 -1.443,1.148 l 0.701,0.129 c 0.09,-0.453 0.345,-0.679 0.766,-0.679 0.214,0 0.373,0.051 0.478,0.156 0.104,0.104 0.156,0.227 0.156,0.371 0,0.099 -0.036,0.197 -0.108,0.295 -0.071,0.097 -0.27,0.198 -0.597,0.303 -0.315,0.098 -0.552,0.191 -0.712,0.277 -0.16,0.086 -0.291,0.21 -0.395,0.373 -0.102,0.163 -0.154,0.347 -0.154,0.553 0,0.336 0.124,0.622 0.372,0.857 0.249,0.235 0.569,0.354 0.964,0.354 C -0.624,1.016 -0.193,0.677 0,0"
         style="fill:#000000;fill-opacity:1;fill-rule:nonzero;stroke:none"
         id="path8875"
         inkscape:connector-curvature="0" /></g><g
       id="g8877"
       transform="translate(27.1386,604.748)"><path
         d="m 0,0 -0.669,-0.229 c -0.079,0.248 -0.183,0.43 -0.31,0.547 -0.128,0.119 -0.304,0.178 -0.526,0.178 -0.206,0 -0.364,-0.06 -0.476,-0.181 -0.113,-0.12 -0.168,-0.257 -0.168,-0.413 0,-0.171 0.062,-0.307 0.188,-0.409 0.126,-0.101 0.378,-0.223 0.754,-0.364 0.322,-0.121 0.569,-0.236 0.742,-0.346 0.174,-0.109 0.315,-0.256 0.422,-0.439 0.107,-0.184 0.161,-0.396 0.161,-0.637 0,-0.393 -0.14,-0.727 -0.421,-1.002 -0.281,-0.275 -0.675,-0.414 -1.181,-0.414 -0.874,0 -1.414,0.436 -1.623,1.307 l 0.701,0.194 c 0.122,-0.574 0.441,-0.861 0.957,-0.861 0.252,0 0.443,0.064 0.574,0.193 0.13,0.129 0.195,0.287 0.195,0.477 0,0.138 -0.045,0.267 -0.134,0.385 -0.091,0.119 -0.315,0.245 -0.673,0.38 -0.379,0.142 -0.653,0.261 -0.821,0.359 -0.168,0.098 -0.31,0.243 -0.428,0.434 -0.118,0.192 -0.177,0.409 -0.177,0.654 0,0.371 0.132,0.683 0.393,0.935 0.263,0.254 0.612,0.38 1.046,0.38 C -0.704,1.128 -0.213,0.752 0,0"
         style="fill:#000000;fill-opacity:1;fill-rule:nonzero;stroke:none"
         id="path8879"
         inkscape:connector-curvature="0" /></g><g
       id="g8881"
       transform="translate(26.1006,591.125)"><path
         d="M 0,0 H -0.527 V 3.36 C -0.654,3.239 -0.821,3.118 -1.026,2.997 -1.233,2.876 -1.418,2.785 -1.582,2.725 v 0.509 c 0.295,0.139 0.553,0.307 0.773,0.504 0.221,0.198 0.377,0.389 0.469,0.574 H 0 Z"
         style="fill:#000000;fill-opacity:1;fill-rule:nonzero;stroke:none"
         id="path8883"
         inkscape:connector-curvature="0" /></g><g
       id="g8885"
       transform="translate(24.3398,491.125)"><path
         d="M 0,0 V 4.295 H 3.105 V 3.788 H 0.568 V 2.473 H 2.944 V 1.969 H 0.568 V 0.507 H 3.205 V 0 Z"
         style="fill:#000000;fill-opacity:1;fill-rule:nonzero;stroke:none"
         id="path8887"
         inkscape:connector-curvature="0" /></g><g
       id="g8889"
       transform="translate(27.2607,466.81)"><path
         d="M 0,0 V 4.295 H 2.897 V 3.788 H 0.568 V 2.458 H 2.584 V 1.951 H 0.568 L 0.568,0 Z"
         style="fill:#000000;fill-opacity:1;fill-rule:nonzero;stroke:none"
         id="path8891"
         inkscape:connector-curvature="0" /></g></g></svg>