<?xml version="1.0" encoding="UTF-8" standalone="no"?>
<!-- Created with Inkscape (http://www.inkscape.org/) -->

<svg
   xmlns:dc="http://purl.org/dc/elements/1.1/"
   xmlns:cc="http://creativecommons.org/ns#"
   xmlns:rdf="http://www.w3.org/1999/02/22-rdf-syntax-ns#"
   xmlns:svg="http://www.w3.org/2000/svg"
   xmlns="http://www.w3.org/2000/svg"
   xmlns:sodipodi="http://sodipodi.sourceforge.net/DTD/sodipodi-0.dtd"
   xmlns:inkscape="http://www.inkscape.org/namespaces/inkscape"
   version="1.1"
   id="svg851"
   xml:space="preserve"
   width="816"
   height="1056"
   viewBox="0 0 816 1056"
   sodipodi:docname="XM - PCB from source manual.svg"
   inkscape:version="0.92.2 (5c3e80d, 2017-08-06)"><metadata
     id="metadata857"><rdf:RDF><cc:Work
         rdf:about=""><dc:format>image/svg+xml</dc:format><dc:type
           rdf:resource="http://purl.org/dc/dcmitype/StillImage" /><dc:title></dc:title></cc:Work></rdf:RDF></metadata><defs
     id="defs855" /><sodipodi:namedview
     pagecolor="#ffffff"
     bordercolor="#666666"
     borderopacity="1"
     objecttolerance="10"
     gridtolerance="10"
     guidetolerance="10"
     inkscape:pageopacity="0"
     inkscape:pageshadow="2"
     inkscape:window-width="1680"
     inkscape:window-height="987"
     id="namedview853"
     showgrid="false"
     inkscape:zoom="1.7878788"
     inkscape:cx="620.6981"
     inkscape:cy="782.35076"
     inkscape:window-x="-8"
     inkscape:window-y="-8"
     inkscape:window-maximized="1"
     inkscape:current-layer="g859" /><g
     id="g859"
     inkscape:groupmode="layer"
     inkscape:label="XM - PCB from source manual"
     transform="matrix(1.3333333,0,0,-1.3333333,0,1056)"><g
       id="g861"
       transform="translate(345.561,589.176)"><path
         d="m 0,0 c 0,-3.62 -2.962,-6.581 -6.581,-6.581 h -71.617 c -3.62,0 -6.581,2.961 -6.581,6.581 v 42.806 c 0,3.619 2.961,6.581 6.581,6.581 H -6.581 C -2.962,49.387 0,46.425 0,42.806 Z"
         style="fill:none;stroke:#221b19;stroke-width:0.25;stroke-linecap:butt;stroke-linejoin:miter;stroke-miterlimit:10;stroke-dasharray:none;stroke-opacity:1"
         id="path863"
         inkscape:connector-curvature="0" /></g><g
       id="g865"
       transform="translate(267.267,599.081)"><path
         d="M 0,0 C -1.881,0 -3.405,1.525 -3.405,3.405 -3.405,5.286 -1.881,6.81 0,6.81 1.881,6.81 3.405,5.286 3.405,3.405 3.405,1.525 1.881,0 0,0 m 0,7.541 c -2.284,0 -4.136,-1.852 -4.136,-4.136 0,-2.284 1.852,-4.135 4.136,-4.135 2.284,0 4.136,1.851 4.136,4.135 0,2.284 -1.852,4.136 -4.136,4.136"
         style="fill:#221b19;fill-opacity:1;fill-rule:nonzero;stroke:none"
         id="path867"
         inkscape:connector-curvature="0" /></g><g
       id="g869"
       transform="translate(267.267,585.878)"><path
         d="M 0,0 C -1.881,0 -3.405,1.525 -3.405,3.405 -3.405,5.286 -1.881,6.81 0,6.81 1.881,6.81 3.405,5.286 3.405,3.405 3.405,1.525 1.881,0 0,0 m 0,7.541 c -2.284,0 -4.136,-1.852 -4.136,-4.136 0,-2.284 1.852,-4.135 4.136,-4.135 2.284,0 4.136,1.851 4.136,4.135 0,2.284 -1.852,4.136 -4.136,4.136"
         style="fill:#221b19;fill-opacity:1;fill-rule:nonzero;stroke:none"
         id="path871"
         inkscape:connector-curvature="0" /></g><g
       id="g873"
       transform="translate(339.414,593.419)"><path
         d="m 0,0 c -2.284,0 -4.136,-1.852 -4.136,-4.136 0,-2.284 1.852,-4.135 4.136,-4.135 2.284,0 4.136,1.851 4.136,4.135 C 4.136,-1.852 2.284,0 0,0"
         style="fill:#221b19;fill-opacity:1;fill-rule:nonzero;stroke:none"
         id="path875"
         inkscape:connector-curvature="0" /></g><g
       id="g877"
       transform="translate(339.414,585.878)"><path
         d="M 0,0 C -1.881,0 -3.405,1.525 -3.405,3.405 -3.405,5.286 -1.881,6.81 0,6.81 1.881,6.81 3.405,5.286 3.405,3.405 3.405,1.525 1.881,0 0,0"
         style="fill:#221b19;fill-opacity:1;fill-rule:nonzero;stroke:none"
         id="path879"
         inkscape:connector-curvature="0" /></g><g
       id="g881"
       transform="translate(339.414,610.272)"><path
         d="m 0,0 c -2.284,0 -4.136,-1.852 -4.136,-4.136 0,-2.284 1.852,-4.135 4.136,-4.135 2.284,0 4.136,1.851 4.136,4.135 C 4.136,-1.852 2.284,0 0,0"
         style="fill:#221b19;fill-opacity:1;fill-rule:nonzero;stroke:none"
         id="path883"
         inkscape:connector-curvature="0" /></g><g
       id="g885"
       transform="translate(339.414,602.731)"><path
         d="M 0,0 C -1.881,0 -3.405,1.525 -3.405,3.405 -3.405,5.286 -1.881,6.81 0,6.81 1.881,6.81 3.405,5.286 3.405,3.405 3.405,1.525 1.881,0 0,0"
         style="fill:#221b19;fill-opacity:1;fill-rule:nonzero;stroke:none"
         id="path887"
         inkscape:connector-curvature="0" /></g><g
       id="g889"
       transform="translate(267.267,612.285)"><path
         d="M 0,0 C -1.881,0 -3.405,1.525 -3.405,3.405 -3.405,5.286 -1.881,6.81 0,6.81 1.881,6.81 3.405,5.286 3.405,3.405 3.405,1.525 1.881,0 0,0 m -4.136,-0.73 h 8.271 v 8.271 h -8.271 z"
         style="fill:#221b19;fill-opacity:1;fill-rule:nonzero;stroke:none"
         id="path891"
         inkscape:connector-curvature="0" /></g><g
       id="g893"
       transform="translate(405.87,599.081)"><path
         d="M 0,0 C -1.881,0 -3.405,1.525 -3.405,3.405 -3.405,5.286 -1.881,6.81 0,6.81 1.881,6.81 3.405,5.286 3.405,3.405 3.405,1.525 1.881,0 0,0 m 0,7.541 c -2.284,0 -4.136,-1.852 -4.136,-4.136 0,-2.284 1.852,-4.135 4.136,-4.135 2.284,0 4.136,1.851 4.136,4.135 0,2.284 -1.852,4.136 -4.136,4.136"
         style="fill:#221b19;fill-opacity:1;fill-rule:nonzero;stroke:none"
         id="path895"
         inkscape:connector-curvature="0" /></g><g
       id="g897"
       transform="translate(405.87,585.878)"><path
         d="M 0,0 C -1.881,0 -3.405,1.525 -3.405,3.405 -3.405,5.286 -1.881,6.81 0,6.81 1.881,6.81 3.405,5.286 3.405,3.405 3.405,1.525 1.881,0 0,0 m 0,7.541 c -2.284,0 -4.136,-1.852 -4.136,-4.136 0,-2.284 1.852,-4.135 4.136,-4.135 2.284,0 4.136,1.851 4.136,4.135 0,2.284 -1.852,4.136 -4.136,4.136"
         style="fill:#221b19;fill-opacity:1;fill-rule:nonzero;stroke:none"
         id="path899"
         inkscape:connector-curvature="0" /></g><g
       id="g901"
       transform="translate(405.87,612.285)"><path
         d="M 0,0 C -1.881,0 -3.405,1.525 -3.405,3.405 -3.405,5.286 -1.881,6.81 0,6.81 1.881,6.81 3.405,5.286 3.405,3.405 3.405,1.525 1.881,0 0,0 m -4.136,-0.73 h 8.271 v 8.271 h -8.271 z"
         style="fill:#221b19;fill-opacity:1;fill-rule:nonzero;stroke:none"
         id="path903"
         inkscape:connector-curvature="0" /></g><g
       id="g905"
       transform="translate(274.999,601.015)"><path
         d="M 0,0 V 1.267 H -1.277 V 2.141 H 0 V 3.408 H 0.851 V 2.141 H 2.13 V 1.267 H 0.851 V 0 Z"
         style="fill:#383638;fill-opacity:1;fill-rule:nonzero;stroke:none"
         id="path907"
         inkscape:connector-curvature="0" /></g><g
       id="g909"
       transform="translate(277.717,601.568)"><path
         d="m 0,0 0.931,0.095 c 0.026,-0.209 0.105,-0.376 0.236,-0.5 0.131,-0.123 0.281,-0.184 0.452,-0.184 0.195,0 0.36,0.08 0.495,0.238 0.136,0.159 0.204,0.397 0.204,0.716 0,0.3 -0.068,0.524 -0.202,0.674 C 1.982,1.187 1.808,1.263 1.593,1.263 1.325,1.263 1.085,1.144 0.872,0.908 L 0.114,1.016 0.593,3.552 H 3.062 V 2.679 H 1.3 L 1.154,1.85 c 0.208,0.105 0.421,0.158 0.638,0.158 0.414,0 0.766,-0.152 1.054,-0.452 0.288,-0.302 0.433,-0.694 0.433,-1.174 0,-0.401 -0.117,-0.76 -0.35,-1.073 -0.317,-0.432 -0.757,-0.646 -1.32,-0.646 -0.449,0 -0.816,0.121 -1.1,0.362 C 0.225,-0.733 0.056,-0.408 0,0"
         style="fill:#383638;fill-opacity:1;fill-rule:nonzero;stroke:none"
         id="path911"
         inkscape:connector-curvature="0" /></g><g
       id="g913"
       transform="translate(282.939,600.314)"><path
         d="m 0,0 -1.742,4.875 h 1.068 L 0.558,1.267 1.752,4.875 H 2.796 L 1.051,0 Z"
         style="fill:#383638;fill-opacity:1;fill-rule:nonzero;stroke:none"
         id="path915"
         inkscape:connector-curvature="0" /></g><g
       id="g917"
       transform="translate(276.201,588.488)"><path
         d="M 0,0 V 0.823 H 2.122 V -1.119 C 1.915,-1.32 1.617,-1.495 1.225,-1.647 0.834,-1.799 0.438,-1.875 0.037,-1.875 c -0.51,0 -0.955,0.108 -1.333,0.321 -0.379,0.215 -0.663,0.521 -0.854,0.918 -0.191,0.399 -0.286,0.83 -0.286,1.299 0,0.507 0.106,0.957 0.319,1.353 0.213,0.393 0.524,0.697 0.934,0.908 0.313,0.161 0.701,0.241 1.167,0.241 0.605,0 1.078,-0.127 1.418,-0.38 C 1.742,2.53 1.96,2.181 2.058,1.733 L 1.081,1.55 C 1.013,1.789 0.883,1.978 0.693,2.116 0.504,2.255 0.268,2.323 -0.016,2.323 c -0.43,0 -0.772,-0.135 -1.026,-0.408 -0.254,-0.272 -0.381,-0.676 -0.381,-1.214 0,-0.577 0.129,-1.011 0.386,-1.301 0.257,-0.289 0.594,-0.433 1.01,-0.433 0.207,0 0.414,0.04 0.621,0.121 0.207,0.08 0.385,0.179 0.533,0.295 l 0,0.617 z"
         style="fill:#383638;fill-opacity:1;fill-rule:nonzero;stroke:none"
         id="path919"
         inkscape:connector-curvature="0" /></g><g
       id="g921"
       transform="translate(279.241,586.697)"><path
         d="M 0,0 V 4.875 H 0.957 L 2.952,1.618 V 4.875 H 3.866 V 0 H 2.879 L 0.914,3.178 V 0 Z"
         style="fill:#383638;fill-opacity:1;fill-rule:nonzero;stroke:none"
         id="path923"
         inkscape:connector-curvature="0" /></g><g
       id="g925"
       transform="translate(285.128,590.747)"><path
         d="m 0,0 v -3.229 h 0.735 c 0.275,0 0.473,0.015 0.595,0.047 0.159,0.04 0.291,0.106 0.397,0.203 0.105,0.095 0.192,0.251 0.258,0.47 0.067,0.218 0.099,0.516 0.099,0.892 0,0.377 -0.032,0.667 -0.099,0.869 -0.066,0.201 -0.159,0.359 -0.279,0.471 -0.12,0.114 -0.272,0.19 -0.456,0.23 C 1.112,-0.017 0.843,0 0.443,0 Z M -0.984,0.824 H 0.815 C 1.22,0.824 1.529,0.792 1.742,0.729 2.028,0.646 2.273,0.496 2.477,0.281 2.68,0.066 2.836,-0.196 2.943,-0.507 3.049,-0.819 3.102,-1.202 3.102,-1.66 3.102,-2.061 3.052,-2.407 2.952,-2.698 2.83,-3.051 2.656,-3.34 2.43,-3.558 2.26,-3.723 2.029,-3.854 1.738,-3.947 1.522,-4.016 1.231,-4.05 0.868,-4.05 h -1.852 z"
         style="fill:#383638;fill-opacity:1;fill-rule:nonzero;stroke:none"
         id="path927"
         inkscape:connector-curvature="0" /></g><g
       id="g929"
       transform="translate(448.508,631.669)"><path
         d="M 0,0 V 0.823 H 2.122 V -1.119 C 1.915,-1.32 1.617,-1.495 1.225,-1.647 0.834,-1.799 0.438,-1.875 0.037,-1.875 c -0.51,0 -0.955,0.108 -1.333,0.321 -0.38,0.215 -0.664,0.521 -0.854,0.918 -0.191,0.399 -0.286,0.83 -0.286,1.299 0,0.507 0.106,0.957 0.319,1.353 0.213,0.393 0.524,0.697 0.934,0.908 0.313,0.161 0.701,0.241 1.167,0.241 0.605,0 1.078,-0.127 1.418,-0.38 C 1.742,2.53 1.96,2.181 2.058,1.732 L 1.081,1.55 C 1.013,1.789 0.883,1.978 0.693,2.116 0.504,2.255 0.268,2.323 -0.016,2.323 c -0.43,0 -0.772,-0.135 -1.026,-0.408 -0.254,-0.272 -0.381,-0.676 -0.381,-1.214 0,-0.578 0.129,-1.011 0.386,-1.301 0.257,-0.289 0.594,-0.433 1.01,-0.433 0.207,0 0.414,0.039 0.621,0.121 0.207,0.08 0.385,0.179 0.533,0.295 l 0,0.617 z"
         style="fill:#383638;fill-opacity:1;fill-rule:nonzero;stroke:none"
         id="path931"
         inkscape:connector-curvature="0" /></g><g
       id="g933"
       transform="translate(451.548,629.877)"><path
         d="M 0,0 V 4.875 H 0.957 L 2.952,1.619 V 4.875 H 3.866 V 0 H 2.879 L 0.914,3.178 V 0 Z"
         style="fill:#383638;fill-opacity:1;fill-rule:nonzero;stroke:none"
         id="path935"
         inkscape:connector-curvature="0" /></g><g
       id="g937"
       transform="translate(457.435,633.927)"><path
         d="m 0,0 v -3.229 h 0.735 c 0.275,0 0.473,0.015 0.595,0.047 0.159,0.04 0.291,0.106 0.397,0.203 0.105,0.095 0.192,0.251 0.258,0.47 0.067,0.218 0.099,0.516 0.099,0.892 0,0.377 -0.032,0.667 -0.099,0.869 -0.066,0.201 -0.159,0.359 -0.279,0.471 -0.12,0.114 -0.272,0.19 -0.456,0.23 C 1.112,-0.017 0.843,0 0.443,0 Z M -0.984,0.824 H 0.815 C 1.22,0.824 1.529,0.792 1.742,0.729 2.028,0.646 2.273,0.496 2.477,0.281 2.68,0.067 2.836,-0.196 2.943,-0.507 3.049,-0.819 3.102,-1.202 3.102,-1.66 3.102,-2.061 3.052,-2.407 2.952,-2.698 2.831,-3.051 2.656,-3.34 2.43,-3.558 2.26,-3.723 2.029,-3.854 1.738,-3.947 1.522,-4.016 1.231,-4.05 0.868,-4.05 h -1.852 z"
         style="fill:#383638;fill-opacity:1;fill-rule:nonzero;stroke:none"
         id="path939"
         inkscape:connector-curvature="0" /></g><g
       id="g941"
       transform="translate(290.974,574.865)"><path
         d="M 0,0 H -0.801 V 3.017 C -1.093,2.743 -1.438,2.542 -1.835,2.411 v 0.727 c 0.209,0.069 0.436,0.198 0.681,0.388 0.245,0.192 0.413,0.414 0.504,0.668 H 0 Z"
         style="fill:#383638;fill-opacity:1;fill-rule:nonzero;stroke:none"
         id="path943"
         inkscape:connector-curvature="0" /></g><g
       id="g945"
       transform="translate(292.182,575.94)"><path
         d="m 0,0 0.798,0.082 c 0.023,-0.181 0.09,-0.323 0.202,-0.43 0.112,-0.104 0.241,-0.157 0.388,-0.157 0.167,0 0.308,0.068 0.424,0.203 0.116,0.137 0.174,0.34 0.174,0.614 0,0.258 -0.058,0.45 -0.173,0.577 C 1.698,1.018 1.549,1.083 1.365,1.083 1.135,1.083 0.929,0.98 0.747,0.777 L 0.097,0.87 0.507,3.045 H 2.624 V 2.295 H 1.114 L 0.989,1.586 C 1.167,1.675 1.35,1.721 1.536,1.721 1.891,1.721 2.192,1.59 2.439,1.334 2.686,1.073 2.81,0.739 2.81,0.327 c 0,-0.344 -0.1,-0.652 -0.3,-0.92 -0.271,-0.37 -0.648,-0.554 -1.131,-0.554 -0.385,0 -0.7,0.104 -0.943,0.311 C 0.193,-0.629 0.047,-0.351 0,0"
         style="fill:#383638;fill-opacity:1;fill-rule:nonzero;stroke:none"
         id="path947"
         inkscape:connector-curvature="0" /></g><g
       id="g949"
       transform="translate(178.877,109.412)"><path
         d="m 116.71,466.254 h 0.801 v -0.802 h -0.801 z"
         style="fill:#383638;fill-opacity:1;fill-rule:nonzero;stroke:none"
         id="path951"
         inkscape:connector-curvature="0" /></g><g
       id="g953"
       transform="translate(297.009,575.974)"><path
         d="m 0,0 0.775,0.093 c 0.025,-0.197 0.091,-0.349 0.2,-0.454 0.108,-0.104 0.239,-0.156 0.393,-0.156 0.165,0 0.304,0.063 0.417,0.188 0.113,0.126 0.17,0.295 0.17,0.508 0,0.201 -0.054,0.36 -0.163,0.478 C 1.684,0.775 1.552,0.834 1.396,0.834 1.294,0.834 1.171,0.813 1.029,0.775 L 1.117,1.427 C 1.334,1.421 1.499,1.468 1.613,1.567 1.727,1.668 1.784,1.801 1.784,1.964 1.784,2.105 1.742,2.217 1.658,2.302 1.575,2.384 1.464,2.428 1.325,2.428 1.188,2.428 1.071,2.378 0.975,2.283 0.878,2.188 0.819,2.052 0.798,1.869 L 0.06,1.995 C 0.111,2.245 0.188,2.449 0.292,2.599 0.395,2.751 0.54,2.868 0.725,2.956 0.911,3.041 1.118,3.085 1.348,3.085 1.741,3.085 2.056,2.96 2.294,2.709 2.49,2.504 2.587,2.272 2.587,2.014 2.587,1.647 2.387,1.354 1.986,1.136 2.225,1.085 2.416,0.969 2.56,0.79 2.703,0.612 2.775,0.397 2.775,0.144 c 0,-0.366 -0.134,-0.68 -0.401,-0.938 -0.268,-0.258 -0.602,-0.388 -1.001,-0.388 -0.378,0 -0.691,0.111 -0.94,0.327 C 0.184,-0.636 0.04,-0.353 0,0"
         style="fill:#383638;fill-opacity:1;fill-rule:nonzero;stroke:none"
         id="path955"
         inkscape:connector-curvature="0" /></g><g
       id="g957"
       transform="translate(300.283,578.242)"><path
         d="M 0,0 V 0.743 H 2.738 V 0.161 C 2.512,-0.061 2.282,-0.38 2.049,-0.796 1.815,-1.212 1.637,-1.655 1.515,-2.122 1.391,-2.591 1.332,-3.009 1.334,-3.378 H 0.561 c 0.014,0.578 0.133,1.167 0.357,1.767 0.227,0.6 0.527,1.136 0.903,1.611 z"
         style="fill:#383638;fill-opacity:1;fill-rule:nonzero;stroke:none"
         id="path959"
         inkscape:connector-curvature="0" /></g><g
       id="g961"
       transform="translate(303.54,575.94)"><path
         d="m 0,0 0.798,0.082 c 0.023,-0.181 0.09,-0.323 0.202,-0.43 0.112,-0.104 0.241,-0.157 0.388,-0.157 0.167,0 0.308,0.068 0.424,0.203 0.116,0.137 0.174,0.34 0.174,0.614 0,0.258 -0.058,0.45 -0.173,0.577 C 1.698,1.018 1.549,1.083 1.365,1.083 1.135,1.083 0.929,0.98 0.747,0.777 L 0.097,0.87 0.507,3.045 H 2.624 V 2.295 H 1.114 L 0.989,1.586 C 1.167,1.675 1.35,1.721 1.536,1.721 1.891,1.721 2.192,1.59 2.439,1.334 2.686,1.073 2.81,0.739 2.81,0.327 c 0,-0.344 -0.1,-0.652 -0.3,-0.92 -0.271,-0.37 -0.648,-0.554 -1.131,-0.554 -0.385,0 -0.7,0.104 -0.943,0.311 C 0.193,-0.629 0.047,-0.351 0,0"
         style="fill:#383638;fill-opacity:1;fill-rule:nonzero;stroke:none"
         id="path963"
         inkscape:connector-curvature="0" /></g><g
       id="g965"
       transform="translate(306.885,577.891)"><path
         d="m 0,0 h 0.738 v -0.412 c 0.264,0.319 0.578,0.48 0.943,0.48 0.194,0 0.362,-0.039 0.505,-0.119 0.142,-0.08 0.259,-0.202 0.35,-0.361 0.133,0.159 0.276,0.281 0.43,0.361 0.154,0.08 0.319,0.119 0.493,0.119 0.223,0 0.411,-0.045 0.564,-0.134 0.154,-0.092 0.269,-0.225 0.345,-0.399 0.055,-0.13 0.083,-0.339 0.083,-0.627 V -3.026 H 3.65 v 1.729 c 0,0.3 -0.027,0.493 -0.082,0.581 -0.075,0.114 -0.189,0.171 -0.342,0.171 -0.112,0 -0.218,-0.034 -0.317,-0.103 C 2.811,-0.716 2.739,-0.815 2.696,-0.948 2.652,-1.079 2.63,-1.288 2.63,-1.573 V -3.026 H 1.829 v 1.658 c 0,0.295 -0.014,0.485 -0.042,0.57 -0.029,0.086 -0.074,0.148 -0.132,0.192 -0.061,0.04 -0.142,0.061 -0.245,0.061 -0.123,0 -0.234,-0.032 -0.333,-0.099 C 0.978,-0.71 0.908,-0.807 0.864,-0.933 0.823,-1.058 0.801,-1.265 0.801,-1.556 v -1.47 H 0 Z"
         style="fill:#383638;fill-opacity:1;fill-rule:nonzero;stroke:none"
         id="path967"
         inkscape:connector-curvature="0" /></g><g
       id="g969"
       transform="translate(312.074,577.891)"><path
         d="m 0,0 h 0.738 v -0.412 c 0.264,0.319 0.578,0.48 0.943,0.48 0.194,0 0.362,-0.039 0.505,-0.119 0.142,-0.08 0.259,-0.202 0.35,-0.361 0.133,0.159 0.276,0.281 0.43,0.361 0.154,0.08 0.319,0.119 0.493,0.119 0.223,0 0.411,-0.045 0.564,-0.134 0.154,-0.092 0.269,-0.225 0.345,-0.399 0.055,-0.13 0.083,-0.339 0.083,-0.627 V -3.026 H 3.65 v 1.729 c 0,0.3 -0.027,0.493 -0.082,0.581 -0.075,0.114 -0.189,0.171 -0.342,0.171 -0.112,0 -0.218,-0.034 -0.317,-0.103 C 2.811,-0.716 2.739,-0.815 2.696,-0.948 2.652,-1.079 2.63,-1.288 2.63,-1.573 V -3.026 H 1.829 v 1.658 c 0,0.295 -0.014,0.485 -0.042,0.57 -0.029,0.086 -0.074,0.148 -0.132,0.192 -0.061,0.04 -0.142,0.061 -0.245,0.061 -0.123,0 -0.234,-0.032 -0.333,-0.099 C 0.978,-0.71 0.908,-0.807 0.864,-0.933 0.823,-1.058 0.801,-1.265 0.801,-1.556 v -1.47 H 0 Z"
         style="fill:#383638;fill-opacity:1;fill-rule:nonzero;stroke:none"
         id="path971"
         inkscape:connector-curvature="0" /></g><g
       id="g973"
       transform="translate(491.694,598.941)"><path
         d="m 0,0 v -0.801 h -3.017 c 0.274,-0.292 0.475,-0.637 0.606,-1.034 h -0.727 c -0.069,0.209 -0.198,0.436 -0.388,0.681 -0.192,0.245 -0.414,0.413 -0.668,0.504 V 0 Z"
         style="fill:#383638;fill-opacity:1;fill-rule:nonzero;stroke:none"
         id="path975"
         inkscape:connector-curvature="0" /></g><g
       id="g977"
       transform="translate(488.164,601.491)"><path
         d="m 0,0 c 0,-0.097 0.03,-0.183 0.091,-0.259 0.063,-0.076 0.173,-0.135 0.333,-0.177 0.207,-0.055 0.556,-0.083 1.046,-0.083 0.49,0 0.827,0.025 1.009,0.074 0.184,0.05 0.306,0.112 0.367,0.187 0.06,0.075 0.091,0.161 0.091,0.258 0,0.097 -0.031,0.183 -0.093,0.259 C 2.783,0.335 2.671,0.394 2.511,0.436 2.306,0.491 1.96,0.519 1.47,0.519 0.98,0.519 0.642,0.494 0.46,0.445 0.275,0.395 0.154,0.332 0.091,0.258 0.03,0.182 0,0.097 0,0 m -0.665,0 c 0,0.405 0.144,0.721 0.433,0.949 C 0.11,1.221 0.676,1.356 1.47,1.356 2.261,1.356 2.829,1.22 3.172,0.946 3.457,0.72 3.602,0.405 3.602,0 3.602,-0.407 3.444,-0.734 3.133,-0.983 2.819,-1.232 2.262,-1.356 1.461,-1.356 c -0.787,0 -1.353,0.136 -1.698,0.41 C -0.522,-0.72 -0.665,-0.405 -0.665,0"
         style="fill:#383638;fill-opacity:1;fill-rule:nonzero;stroke:none"
         id="path979"
         inkscape:connector-curvature="0" /></g><g
       id="g981"
       transform="translate(178.877,109.412)"><path
         d="m 312.817,494.143 h -0.802 v 0.801 h 0.802 z"
         style="fill:#383638;fill-opacity:1;fill-rule:nonzero;stroke:none"
         id="path983"
         inkscape:connector-curvature="0" /></g><g
       id="g985"
       transform="translate(491.694,607.054)"><path
         d="m 0,0 v -0.801 h -3.017 c 0.274,-0.292 0.475,-0.637 0.606,-1.034 h -0.727 c -0.069,0.209 -0.198,0.436 -0.388,0.681 -0.192,0.245 -0.414,0.413 -0.668,0.504 V 0 Z"
         style="fill:#383638;fill-opacity:1;fill-rule:nonzero;stroke:none"
         id="path987"
         inkscape:connector-curvature="0" /></g><g
       id="g989"
       transform="translate(490.619,608.262)"><path
         d="m 0,0 -0.082,0.798 c 0.181,0.023 0.323,0.09 0.43,0.202 0.104,0.112 0.157,0.241 0.157,0.388 0,0.167 -0.068,0.308 -0.203,0.424 -0.137,0.116 -0.34,0.174 -0.614,0.174 -0.258,0 -0.45,-0.058 -0.577,-0.173 -0.129,-0.115 -0.194,-0.264 -0.194,-0.448 0,-0.23 0.103,-0.436 0.306,-0.618 l -0.093,-0.65 -2.175,0.41 v 2.117 h 0.75 v -1.51 l 0.709,-0.125 c -0.089,0.178 -0.135,0.361 -0.135,0.547 0,0.355 0.131,0.656 0.387,0.903 0.261,0.247 0.595,0.371 1.007,0.371 0.344,0 0.652,-0.1 0.92,-0.3 C 0.963,2.239 1.147,1.862 1.147,1.379 1.147,0.994 1.043,0.679 0.836,0.436 0.629,0.193 0.351,0.047 0,0"
         style="fill:#383638;fill-opacity:1;fill-rule:nonzero;stroke:none"
         id="path991"
         inkscape:connector-curvature="0" /></g><g
       id="g993"
       transform="translate(488.164,612.85)"><path
         d="m 0,0 c 0,-0.097 0.03,-0.183 0.091,-0.259 0.063,-0.076 0.173,-0.135 0.333,-0.177 0.207,-0.055 0.556,-0.083 1.046,-0.083 0.49,0 0.827,0.025 1.009,0.074 0.184,0.05 0.306,0.112 0.367,0.187 0.06,0.075 0.091,0.161 0.091,0.258 0,0.097 -0.031,0.183 -0.093,0.259 C 2.783,0.335 2.671,0.394 2.511,0.436 2.306,0.491 1.96,0.519 1.47,0.519 0.98,0.519 0.642,0.494 0.46,0.445 0.275,0.395 0.154,0.332 0.091,0.258 0.03,0.182 0,0.097 0,0 m -0.665,0 c 0,0.405 0.144,0.721 0.433,0.949 C 0.11,1.221 0.676,1.356 1.47,1.356 2.261,1.356 2.829,1.22 3.172,0.946 3.457,0.72 3.602,0.405 3.602,0 3.602,-0.407 3.444,-0.734 3.133,-0.983 2.819,-1.232 2.262,-1.356 1.461,-1.356 c -0.787,0 -1.353,0.136 -1.698,0.41 C -0.522,-0.72 -0.665,-0.405 -0.665,0"
         style="fill:#383638;fill-opacity:1;fill-rule:nonzero;stroke:none"
         id="path995"
         inkscape:connector-curvature="0" /></g><g
       id="g997"
       transform="translate(488.668,614.853)"><path
         d="m 0,0 v 0.738 h 0.412 c -0.319,0.264 -0.48,0.578 -0.48,0.943 0,0.194 0.039,0.362 0.119,0.505 0.08,0.142 0.202,0.259 0.361,0.35 -0.159,0.133 -0.281,0.276 -0.361,0.43 -0.08,0.154 -0.119,0.319 -0.119,0.493 0,0.223 0.045,0.411 0.134,0.564 0.092,0.154 0.225,0.269 0.399,0.345 0.13,0.055 0.339,0.083 0.627,0.083 H 3.026 V 3.65 H 1.297 C 0.997,3.65 0.804,3.623 0.716,3.568 0.602,3.493 0.545,3.38 0.545,3.226 0.545,3.114 0.579,3.008 0.648,2.909 0.716,2.811 0.815,2.739 0.948,2.696 1.079,2.652 1.288,2.63 1.573,2.63 H 3.026 V 1.829 H 1.368 C 1.073,1.829 0.883,1.815 0.798,1.787 0.712,1.758 0.65,1.714 0.606,1.655 0.566,1.594 0.545,1.513 0.545,1.411 0.545,1.287 0.577,1.176 0.644,1.077 0.71,0.978 0.807,0.908 0.933,0.864 1.058,0.823 1.265,0.801 1.556,0.801 h 1.47 V 0 Z"
         style="fill:#383638;fill-opacity:1;fill-rule:nonzero;stroke:none"
         id="path999"
         inkscape:connector-curvature="0" /></g><g
       id="g1001"
       transform="translate(488.668,620.042)"><path
         d="m 0,0 v 0.738 h 0.412 c -0.319,0.264 -0.48,0.578 -0.48,0.943 0,0.194 0.039,0.362 0.119,0.505 0.08,0.142 0.202,0.259 0.361,0.35 -0.159,0.133 -0.281,0.276 -0.361,0.43 -0.08,0.154 -0.119,0.318 -0.119,0.493 0,0.223 0.045,0.411 0.134,0.564 0.092,0.154 0.225,0.269 0.399,0.345 0.13,0.055 0.339,0.083 0.627,0.083 H 3.026 V 3.65 H 1.297 C 0.997,3.65 0.804,3.623 0.716,3.568 0.602,3.493 0.545,3.38 0.545,3.226 0.545,3.114 0.579,3.008 0.648,2.909 0.716,2.811 0.815,2.739 0.948,2.696 1.079,2.652 1.288,2.63 1.573,2.63 H 3.026 V 1.829 H 1.368 C 1.073,1.829 0.883,1.815 0.798,1.787 0.712,1.758 0.65,1.714 0.606,1.655 0.566,1.594 0.545,1.513 0.545,1.41 0.545,1.287 0.577,1.176 0.644,1.077 0.71,0.978 0.807,0.908 0.933,0.864 1.058,0.823 1.265,0.801 1.556,0.801 h 1.47 V 0 Z"
         style="fill:#383638;fill-opacity:1;fill-rule:nonzero;stroke:none"
         id="path1003"
         inkscape:connector-curvature="0" /></g><g
       id="g1005"
       transform="translate(321.591,588.488)"><path
         d="M 0,0 V 0.823 H 2.122 V -1.119 C 1.915,-1.32 1.617,-1.495 1.225,-1.647 0.834,-1.799 0.438,-1.875 0.037,-1.875 c -0.51,0 -0.955,0.108 -1.333,0.321 -0.379,0.215 -0.663,0.521 -0.854,0.918 -0.191,0.399 -0.286,0.83 -0.286,1.299 0,0.507 0.106,0.957 0.319,1.353 0.213,0.393 0.524,0.697 0.934,0.908 0.313,0.161 0.701,0.241 1.167,0.241 0.605,0 1.078,-0.127 1.418,-0.38 C 1.742,2.53 1.96,2.181 2.058,1.733 L 1.081,1.55 C 1.013,1.789 0.883,1.978 0.693,2.116 0.504,2.255 0.268,2.323 -0.016,2.323 c -0.43,0 -0.772,-0.135 -1.026,-0.408 -0.254,-0.272 -0.381,-0.676 -0.381,-1.214 0,-0.577 0.129,-1.011 0.386,-1.301 0.257,-0.289 0.594,-0.433 1.01,-0.433 0.207,0 0.414,0.04 0.621,0.121 0.207,0.08 0.385,0.179 0.533,0.295 l 0,0.617 z"
         style="fill:#383638;fill-opacity:1;fill-rule:nonzero;stroke:none"
         id="path1007"
         inkscape:connector-curvature="0" /></g><g
       id="g1009"
       transform="translate(324.63,586.697)"><path
         d="M 0,0 V 4.875 H 0.957 L 2.952,1.618 V 4.875 H 3.866 V 0 H 2.879 L 0.914,3.178 V 0 Z"
         style="fill:#383638;fill-opacity:1;fill-rule:nonzero;stroke:none"
         id="path1011"
         inkscape:connector-curvature="0" /></g><g
       id="g1013"
       transform="translate(330.517,590.747)"><path
         d="m 0,0 v -3.229 h 0.735 c 0.275,0 0.473,0.015 0.595,0.047 0.159,0.04 0.291,0.106 0.397,0.203 0.105,0.095 0.192,0.251 0.258,0.47 0.067,0.218 0.099,0.516 0.099,0.892 0,0.377 -0.032,0.667 -0.099,0.869 -0.066,0.201 -0.159,0.359 -0.279,0.471 -0.12,0.114 -0.272,0.19 -0.456,0.23 C 1.112,-0.017 0.843,0 0.443,0 Z M -0.984,0.824 H 0.815 C 1.22,0.824 1.529,0.792 1.742,0.729 2.028,0.646 2.273,0.496 2.477,0.281 2.68,0.066 2.836,-0.196 2.943,-0.507 3.049,-0.819 3.102,-1.202 3.102,-1.66 3.102,-2.061 3.052,-2.407 2.952,-2.698 2.83,-3.051 2.656,-3.34 2.43,-3.558 2.26,-3.723 2.029,-3.854 1.738,-3.947 1.522,-4.016 1.231,-4.05 0.868,-4.05 h -1.852 z"
         style="fill:#383638;fill-opacity:1;fill-rule:nonzero;stroke:none"
         id="path1015"
         inkscape:connector-curvature="0" /></g><g
       id="g1017"
       transform="translate(273.685,614.756)"><path
         d="m 0,0 0.957,0.093 c 0.058,-0.321 0.175,-0.558 0.351,-0.709 0.177,-0.15 0.414,-0.226 0.713,-0.226 0.317,0 0.556,0.067 0.716,0.202 0.161,0.133 0.242,0.29 0.242,0.471 0,0.114 -0.035,0.213 -0.102,0.292 C 2.81,0.205 2.692,0.275 2.524,0.336 2.408,0.374 2.146,0.446 1.735,0.549 1.208,0.678 0.838,0.84 0.625,1.03 0.326,1.297 0.176,1.624 0.176,2.012 0.176,2.259 0.247,2.49 0.388,2.707 0.528,2.924 0.73,3.087 0.995,3.201 1.26,3.315 1.581,3.37 1.955,3.37 2.566,3.37 3.027,3.237 3.336,2.969 3.645,2.699 3.808,2.342 3.823,1.894 L 2.839,1.852 C 2.797,2.101 2.707,2.281 2.568,2.392 2.43,2.502 2.222,2.555 1.944,2.555 1.659,2.555 1.435,2.498 1.274,2.38 1.169,2.304 1.117,2.204 1.117,2.076 1.117,1.962 1.165,1.864 1.263,1.782 1.388,1.677 1.689,1.569 2.168,1.455 2.646,1.343 3.001,1.225 3.229,1.106 3.459,0.984 3.639,0.819 3.768,0.61 3.898,0.401 3.963,0.141 3.963,-0.167 3.963,-0.446 3.885,-0.707 3.73,-0.952 3.575,-1.195 3.356,-1.375 3.072,-1.495 2.788,-1.613 2.434,-1.674 2.011,-1.674 1.395,-1.674 0.922,-1.531 0.592,-1.246 0.261,-0.961 0.065,-0.545 0,0"
         style="fill:#383638;fill-opacity:1;fill-rule:nonzero;stroke:none"
         id="path1019"
         inkscape:connector-curvature="0" /></g><g
       id="g1021"
       transform="translate(279.463,615.293)"><path
         d="m 0,0 v -1.303 h 0.911 c 0.354,0 0.579,0.011 0.674,0.03 0.147,0.027 0.266,0.091 0.358,0.194 0.092,0.104 0.138,0.241 0.138,0.414 0,0.146 -0.035,0.272 -0.106,0.372 C 1.903,-0.19 1.801,-0.116 1.667,-0.068 1.533,-0.023 1.242,0 0.795,0 Z M 0,1.938 V 0.811 h 0.645 c 0.384,0 0.621,0.006 0.714,0.017 C 1.528,0.847 1.66,0.906 1.757,1.003 1.853,1.1 1.902,1.225 1.902,1.383 1.902,1.535 1.86,1.656 1.777,1.751 1.694,1.845 1.57,1.902 1.407,1.922 1.309,1.934 1.029,1.938 0.565,1.938 Z M -0.984,2.751 H 0.964 C 1.35,2.751 1.637,2.734 1.827,2.701 2.016,2.669 2.186,2.603 2.336,2.5 2.485,2.399 2.609,2.262 2.71,2.093 2.809,1.924 2.859,1.734 2.859,1.524 2.859,1.296 2.797,1.085 2.675,0.895 2.551,0.705 2.385,0.56 2.174,0.465 2.471,0.38 2.699,0.232 2.859,0.023 3.019,-0.184 3.098,-0.429 3.098,-0.71 3.098,-0.933 3.047,-1.147 2.944,-1.358 2.841,-1.567 2.7,-1.734 2.522,-1.86 2.343,-1.985 2.123,-2.061 1.862,-2.09 1.697,-2.109 1.302,-2.12 0.675,-2.124 h -1.659 z"
         style="fill:#383638;fill-opacity:1;fill-rule:nonzero;stroke:none"
         id="path1023"
         inkscape:connector-curvature="0" /></g><g
       id="g1025"
       transform="translate(283.386,618.044)"><path
         d="m 0,0 h 0.984 v -2.641 c 0,-0.417 0.012,-0.689 0.037,-0.814 0.042,-0.2 0.143,-0.36 0.301,-0.481 0.159,-0.12 0.375,-0.181 0.65,-0.181 0.279,0 0.49,0.057 0.631,0.171 0.142,0.114 0.227,0.255 0.256,0.42 0.029,0.167 0.044,0.443 0.044,0.828 V 0 H 3.887 V -2.561 C 3.887,-3.146 3.86,-3.56 3.807,-3.801 3.754,-4.042 3.656,-4.246 3.512,-4.413 3.37,-4.578 3.178,-4.711 2.939,-4.81 2.699,-4.909 2.388,-4.958 2.002,-4.958 c -0.465,0 -0.819,0.055 -1.059,0.161 -0.24,0.109 -0.43,0.247 -0.571,0.42 -0.138,0.171 -0.23,0.352 -0.275,0.54 C 0.032,-3.558 0,-3.146 0,-2.601 Z"
         style="fill:#383638;fill-opacity:1;fill-rule:nonzero;stroke:none"
         id="path1027"
         inkscape:connector-curvature="0" /></g><g
       id="g1029"
       transform="translate(288.06,614.756)"><path
         d="m 0,0 0.957,0.093 c 0.058,-0.321 0.175,-0.558 0.351,-0.709 0.177,-0.15 0.414,-0.226 0.713,-0.226 0.317,0 0.556,0.067 0.716,0.202 0.161,0.133 0.242,0.29 0.242,0.471 0,0.114 -0.035,0.213 -0.102,0.292 C 2.81,0.205 2.692,0.275 2.524,0.336 2.408,0.374 2.146,0.446 1.735,0.549 1.208,0.678 0.838,0.84 0.625,1.03 0.326,1.297 0.176,1.624 0.176,2.012 0.176,2.259 0.247,2.49 0.388,2.707 0.528,2.924 0.73,3.087 0.995,3.201 1.26,3.315 1.581,3.37 1.955,3.37 2.566,3.37 3.027,3.237 3.336,2.969 3.645,2.699 3.808,2.342 3.823,1.894 L 2.839,1.852 C 2.797,2.101 2.707,2.281 2.568,2.392 2.43,2.502 2.222,2.555 1.944,2.555 1.659,2.555 1.435,2.498 1.274,2.38 1.169,2.304 1.117,2.204 1.117,2.076 1.117,1.962 1.165,1.864 1.263,1.782 1.388,1.677 1.689,1.569 2.167,1.455 2.646,1.343 3.001,1.225 3.229,1.106 3.459,0.984 3.639,0.819 3.768,0.61 3.898,0.401 3.963,0.141 3.963,-0.167 3.963,-0.446 3.885,-0.707 3.73,-0.952 3.575,-1.195 3.356,-1.375 3.072,-1.495 2.788,-1.613 2.434,-1.674 2.011,-1.674 1.395,-1.674 0.922,-1.531 0.592,-1.246 0.261,-0.961 0.065,-0.545 0,0"
         style="fill:#383638;fill-opacity:1;fill-rule:nonzero;stroke:none"
         id="path1031"
         inkscape:connector-curvature="0" /></g><g
       id="g1033"
       transform="translate(482.645,589.176)"><path
         d="m 0,0 c 0,-3.62 -2.962,-6.581 -6.581,-6.581 h -71.617 c -3.62,0 -6.581,2.961 -6.581,6.581 v 42.806 c 0,3.619 2.961,6.581 6.581,6.581 H -6.581 C -2.962,49.387 0,46.425 0,42.806 Z"
         style="fill:none;stroke:#221b19;stroke-width:0.25;stroke-linecap:butt;stroke-linejoin:miter;stroke-miterlimit:10;stroke-dasharray:none;stroke-opacity:1"
         id="path1035"
         inkscape:connector-curvature="0" /></g><g
       id="g1037"
       transform="translate(415.562,636.08)"><path
         d="m 0,0 c -2.284,0 -4.136,-1.852 -4.136,-4.136 0,-2.284 1.852,-4.135 4.136,-4.135 2.284,0 4.136,1.851 4.136,4.135 C 4.136,-1.852 2.284,0 0,0"
         style="fill:#221b19;fill-opacity:1;fill-rule:nonzero;stroke:none"
         id="path1039"
         inkscape:connector-curvature="0" /></g><g
       id="g1041"
       transform="translate(415.562,628.54)"><path
         d="M 0,0 C -1.881,0 -3.405,1.525 -3.405,3.405 -3.405,5.286 -1.881,6.81 0,6.81 1.881,6.81 3.405,5.286 3.405,3.405 3.405,1.525 1.881,0 0,0"
         style="fill:#221b19;fill-opacity:1;fill-rule:nonzero;stroke:none"
         id="path1043"
         inkscape:connector-curvature="0" /></g><g
       id="g1045"
       transform="translate(466.616,636.08)"><path
         d="m 0,0 c -2.284,0 -4.136,-1.852 -4.136,-4.136 0,-2.284 1.852,-4.135 4.136,-4.135 2.284,0 4.136,1.851 4.136,4.135 C 4.136,-1.852 2.284,0 0,0"
         style="fill:#221b19;fill-opacity:1;fill-rule:nonzero;stroke:none"
         id="path1047"
         inkscape:connector-curvature="0" /></g><g
       id="g1049"
       transform="translate(466.616,628.54)"><path
         d="M 0,0 C -1.881,0 -3.405,1.525 -3.405,3.405 -3.405,5.286 -1.881,6.81 0,6.81 1.881,6.81 3.405,5.286 3.405,3.405 3.405,1.525 1.881,0 0,0"
         style="fill:#221b19;fill-opacity:1;fill-rule:nonzero;stroke:none"
         id="path1051"
         inkscape:connector-curvature="0" /></g><g
       id="g1053"
       transform="translate(260.782,582.595)"><path
         d="M 0,0 V -10.41"
         style="fill:none;stroke:#221b19;stroke-width:0.25;stroke-linecap:butt;stroke-linejoin:miter;stroke-miterlimit:10;stroke-dasharray:none;stroke-opacity:1"
         id="path1055"
         inkscape:connector-curvature="0" /></g><g
       id="g1057"
       transform="translate(345.561,582.813)"><path
         d="M 0,0 V -10.628"
         style="fill:none;stroke:#221b19;stroke-width:0.25;stroke-linecap:butt;stroke-linejoin:miter;stroke-miterlimit:10;stroke-dasharray:none;stroke-opacity:1"
         id="path1059"
         inkscape:connector-curvature="0" /></g><g
       id="g1061"
       transform="translate(260.782,577.394)"><path
         d="M 0,0 H 26.436"
         style="fill:none;stroke:#221b19;stroke-width:0.25;stroke-linecap:butt;stroke-linejoin:miter;stroke-miterlimit:10;stroke-dasharray:none;stroke-opacity:1"
         id="path1063"
         inkscape:connector-curvature="0" /></g><g
       id="g1065"
       transform="translate(318.085,577.394)"><path
         d="M 0,0 H 27.476"
         style="fill:none;stroke:#221b19;stroke-width:0.25;stroke-linecap:butt;stroke-linejoin:miter;stroke-miterlimit:10;stroke-dasharray:none;stroke-opacity:1"
         id="path1067"
         inkscape:connector-curvature="0" /></g><g
       id="g1069"
       transform="translate(482.645,638.562)"><path
         d="M 0,0 H 13.188"
         style="fill:none;stroke:#221b19;stroke-width:0.25;stroke-linecap:butt;stroke-linejoin:miter;stroke-miterlimit:10;stroke-dasharray:none;stroke-opacity:1"
         id="path1071"
         inkscape:connector-curvature="0" /></g><g
       id="g1073"
       transform="translate(482.645,582.595)"><path
         d="M 0,0 H 13.188"
         style="fill:none;stroke:#221b19;stroke-width:0.25;stroke-linecap:butt;stroke-linejoin:miter;stroke-miterlimit:10;stroke-dasharray:none;stroke-opacity:1"
         id="path1075"
         inkscape:connector-curvature="0" /></g><g
       id="g1077"
       transform="translate(489.696,638.562)"><path
         d="M 0,0 V -12.498"
         style="fill:none;stroke:#221b19;stroke-width:0.25;stroke-linecap:butt;stroke-linejoin:miter;stroke-miterlimit:10;stroke-dasharray:none;stroke-opacity:1"
         id="path1079"
         inkscape:connector-curvature="0" /></g><g
       id="g1081"
       transform="translate(489.696,595.913)"><path
         d="M 0,0 V -13.547"
         style="fill:none;stroke:#221b19;stroke-width:0.25;stroke-linecap:butt;stroke-linejoin:miter;stroke-miterlimit:10;stroke-dasharray:none;stroke-opacity:1"
         id="path1083"
         inkscape:connector-curvature="0" /></g><g
       id="g1085"
       transform="translate(267.303,615.69)"><path
         d="M 0,0 H -21.131"
         style="fill:none;stroke:#0e0f0f;stroke-width:0.25;stroke-linecap:butt;stroke-linejoin:miter;stroke-miterlimit:10;stroke-dasharray:none;stroke-opacity:1"
         id="path1087"
         inkscape:connector-curvature="0" /></g><g
       id="g1089"
       transform="translate(267.251,602.486)"><path
         d="M 0,0 H -21.079"
         style="fill:none;stroke:#0e0f0f;stroke-width:0.25;stroke-linecap:butt;stroke-linejoin:miter;stroke-miterlimit:10;stroke-dasharray:none;stroke-opacity:1"
         id="path1091"
         inkscape:connector-curvature="0" /></g><g
       id="g1093"
       transform="translate(247.423,615.69)"><path
         d="M 0,0 V -3.85"
         style="fill:none;stroke:#0e0f0f;stroke-width:0.25;stroke-linecap:butt;stroke-linejoin:miter;stroke-miterlimit:10;stroke-dasharray:none;stroke-opacity:1"
         id="path1095"
         inkscape:connector-curvature="0" /></g><g
       id="g1097"
       transform="translate(247.423,606.348)"><path
         d="M 0,0 V -3.85"
         style="fill:none;stroke:#0e0f0f;stroke-width:0.25;stroke-linecap:butt;stroke-linejoin:miter;stroke-miterlimit:10;stroke-dasharray:none;stroke-opacity:1"
         id="path1099"
         inkscape:connector-curvature="0" /></g><g
       id="g1101"
       transform="translate(247.423,602.497)"><path
         d="M 0,0 V -3.85"
         style="fill:none;stroke:#0e0f0f;stroke-width:0.25;stroke-linecap:butt;stroke-linejoin:miter;stroke-miterlimit:10;stroke-dasharray:none;stroke-opacity:1"
         id="path1103"
         inkscape:connector-curvature="0" /></g><g
       id="g1105"
       transform="translate(267.251,589.134)"><path
         d="M 0,0 H -21.079"
         style="fill:none;stroke:#0e0f0f;stroke-width:0.25;stroke-linecap:butt;stroke-linejoin:miter;stroke-miterlimit:10;stroke-dasharray:none;stroke-opacity:1"
         id="path1107"
         inkscape:connector-curvature="0" /></g><g
       id="g1109"
       transform="translate(247.423,592.985)"><path
         d="M 0,0 V -3.85"
         style="fill:none;stroke:#0e0f0f;stroke-width:0.25;stroke-linecap:butt;stroke-linejoin:miter;stroke-miterlimit:10;stroke-dasharray:none;stroke-opacity:1"
         id="path1111"
         inkscape:connector-curvature="0" /></g><g
       id="g1113"
       transform="translate(242.619,608.379)"><path
         d="m 0,0 v -0.637 h -2.405 c 0.026,0.241 0.104,0.469 0.235,0.684 0.13,0.216 0.387,0.502 0.771,0.859 0.309,0.288 0.499,0.483 0.569,0.586 0.094,0.141 0.142,0.281 0.142,0.42 0,0.152 -0.041,0.27 -0.124,0.352 -0.082,0.083 -0.195,0.124 -0.34,0.124 -0.143,0 -0.258,-0.043 -0.342,-0.13 C -1.579,2.172 -1.627,2.029 -1.641,1.829 l -0.683,0.068 c 0.04,0.377 0.168,0.648 0.383,0.813 0.215,0.165 0.483,0.247 0.806,0.247 0.353,0 0.631,-0.096 0.832,-0.286 C -0.101,2.48 0,2.244 0,1.96 0,1.799 -0.029,1.646 -0.087,1.5 -0.145,1.354 -0.236,1.202 -0.361,1.042 -0.444,0.937 -0.594,0.785 -0.811,0.586 -1.027,0.387 -1.164,0.255 -1.222,0.19 -1.28,0.125 -1.327,0.062 -1.362,0 Z"
         style="fill:#383638;fill-opacity:1;fill-rule:nonzero;stroke:none"
         id="path1115"
         inkscape:connector-curvature="0" /></g><g
       id="g1117"
       transform="translate(178.877,109.412)"><path
         d="m 64.352,499.015 h 0.685997 v -0.68601 H 64.352 Z"
         style="fill:#383638;fill-opacity:1;fill-rule:nonzero;stroke:none"
         id="path1119"
         inkscape:connector-curvature="0" /></g><g
       id="g1121"
       transform="translate(244.482,608.662)"><path
         d="m 0,0 0.684,0.071 c 0.019,-0.155 0.077,-0.278 0.173,-0.367 0.096,-0.091 0.206,-0.136 0.332,-0.136 0.143,0 0.265,0.058 0.364,0.175 0.099,0.116 0.149,0.291 0.149,0.526 0,0.219 -0.05,0.384 -0.148,0.494 C 1.456,0.873 1.327,0.928 1.169,0.928 0.973,0.928 0.796,0.841 0.64,0.667 L 0.083,0.747 0.435,2.61 H 2.249 V 1.968 H 0.955 L 0.847,1.36 C 1,1.437 1.156,1.475 1.316,1.475 1.62,1.475 1.878,1.364 2.09,1.143 2.301,0.921 2.407,0.634 2.407,0.281 2.407,-0.014 2.322,-0.277 2.151,-0.508 1.918,-0.824 1.595,-0.981 1.182,-0.981 c -0.331,0 -0.6,0.088 -0.808,0.266 C 0.165,-0.538 0.041,-0.299 0,0"
         style="fill:#383638;fill-opacity:1;fill-rule:nonzero;stroke:none"
         id="path1123"
         inkscape:connector-curvature="0" /></g><g
       id="g1125"
       transform="translate(248.598,609.065)"><path
         d="M 0,0 V 1.223 L -0.823,0 Z m 0,-1.323 v 0.72 h -1.465 v 0.601 L 0.088,2.271 H 0.664 V 0 H 1.108 V -0.603 H 0.664 v -0.72 z"
         style="fill:#383638;fill-opacity:1;fill-rule:nonzero;stroke:none"
         id="path1127"
         inkscape:connector-curvature="0" /></g><g
       id="g1129"
       transform="translate(250.129,610.334)"><path
         d="m 0,0 h 0.632 v -0.354 c 0.226,0.275 0.496,0.413 0.808,0.413 0.166,0 0.31,-0.035 0.433,-0.103 0.122,-0.068 0.222,-0.172 0.3,-0.31 0.114,0.138 0.237,0.242 0.369,0.31 0.131,0.068 0.272,0.103 0.422,0.103 0.19,0 0.351,-0.039 0.483,-0.117 0.132,-0.077 0.231,-0.19 0.296,-0.34 0.047,-0.111 0.07,-0.289 0.07,-0.537 V -2.593 H 3.127 v 1.482 c 0,0.257 -0.023,0.424 -0.07,0.498 -0.064,0.098 -0.161,0.147 -0.293,0.147 -0.097,0 -0.187,-0.03 -0.271,-0.088 C 2.408,-0.613 2.347,-0.699 2.31,-0.812 2.272,-0.925 2.253,-1.104 2.253,-1.348 V -2.593 H 1.567 v 1.421 c 0,0.253 -0.012,0.415 -0.036,0.488 C 1.506,-0.61 1.469,-0.556 1.417,-0.52 1.366,-0.484 1.296,-0.466 1.208,-0.466 1.103,-0.466 1.007,-0.495 0.923,-0.552 0.838,-0.609 0.777,-0.691 0.741,-0.798 0.704,-0.906 0.686,-1.084 0.686,-1.333 v -1.26 H 0 Z"
         style="fill:#383638;fill-opacity:1;fill-rule:nonzero;stroke:none"
         id="path1131"
         inkscape:connector-curvature="0" /></g><g
       id="g1133"
       transform="translate(254.574,610.334)"><path
         d="m 0,0 h 0.632 v -0.354 c 0.226,0.275 0.496,0.413 0.808,0.413 0.166,0 0.31,-0.035 0.433,-0.103 0.122,-0.068 0.222,-0.172 0.3,-0.31 0.114,0.138 0.237,0.242 0.369,0.31 0.131,0.068 0.272,0.103 0.422,0.103 0.19,0 0.351,-0.039 0.483,-0.117 0.132,-0.077 0.231,-0.19 0.296,-0.34 0.047,-0.111 0.07,-0.289 0.07,-0.537 V -2.593 H 3.127 v 1.482 c 0,0.257 -0.023,0.424 -0.07,0.498 -0.064,0.098 -0.161,0.147 -0.293,0.147 -0.097,0 -0.187,-0.03 -0.271,-0.088 C 2.408,-0.613 2.347,-0.699 2.31,-0.812 2.272,-0.925 2.253,-1.104 2.253,-1.348 V -2.593 H 1.567 v 1.421 c 0,0.253 -0.012,0.415 -0.036,0.488 C 1.506,-0.61 1.469,-0.556 1.417,-0.52 1.366,-0.484 1.296,-0.466 1.208,-0.466 1.103,-0.466 1.007,-0.495 0.923,-0.552 0.838,-0.609 0.777,-0.691 0.741,-0.798 0.704,-0.906 0.686,-1.084 0.686,-1.333 v -1.26 H 0 Z"
         style="fill:#383638;fill-opacity:1;fill-rule:nonzero;stroke:none"
         id="path1135"
         inkscape:connector-curvature="0" /></g><g
       id="g1137"
       transform="translate(423.617,632.923)"><path
         d="M 0,0 H 0.749 C 1.234,0 1.537,0.021 1.658,0.062 1.778,0.103 1.873,0.173 1.941,0.273 2.01,0.374 2.044,0.499 2.044,0.649 2.044,0.818 1.999,0.954 1.909,1.058 1.819,1.162 1.692,1.227 1.528,1.254 1.446,1.266 1.2,1.271 0.79,1.271 H 0 Z m -1.012,-2.892 v 5.011 h 2.13 C 1.653,2.119 2.042,2.074 2.285,1.984 2.527,1.894 2.722,1.734 2.868,1.504 3.014,1.274 3.086,1.011 3.086,0.714 3.086,0.338 2.976,0.028 2.755,-0.217 2.534,-0.462 2.204,-0.616 1.764,-0.68 1.982,-0.808 2.163,-0.948 2.306,-1.101 2.448,-1.253 2.64,-1.524 2.881,-1.914 L 3.493,-2.892 H 2.283 L 1.552,-1.801 C 1.292,-1.412 1.114,-1.166 1.019,-1.064 0.923,-0.963 0.821,-0.894 0.714,-0.856 0.607,-0.818 0.437,-0.8 0.205,-0.8 H 0 v -2.092 z"
         style="fill:#383638;fill-opacity:1;fill-rule:nonzero;stroke:none"
         id="path1139"
         inkscape:connector-curvature="0" /></g><g
       id="g1141"
       transform="translate(427.401,631.661)"><path
         d="m 0,0 0.984,0.096 c 0.059,-0.331 0.18,-0.574 0.361,-0.728 0.181,-0.155 0.426,-0.233 0.733,-0.233 0.326,0 0.571,0.069 0.736,0.207 0.166,0.138 0.249,0.299 0.249,0.484 0,0.118 -0.035,0.219 -0.105,0.302 C 2.889,0.211 2.768,0.284 2.594,0.345 2.476,0.386 2.206,0.459 1.784,0.564 1.242,0.698 0.861,0.864 0.643,1.06 0.335,1.335 0.181,1.671 0.181,2.068 c 0,0.255 0.072,0.494 0.217,0.716 0.145,0.222 0.353,0.391 0.625,0.508 0.273,0.116 0.602,0.174 0.987,0.174 0.629,0 1.102,-0.138 1.42,-0.414 C 3.748,2.776 3.915,2.409 3.931,1.948 L 2.919,1.904 C 2.875,2.161 2.783,2.346 2.641,2.459 2.498,2.572 2.284,2.628 2,2.628 1.706,2.628 1.476,2.568 1.309,2.447 1.202,2.37 1.148,2.266 1.148,2.136 1.148,2.018 1.199,1.917 1.299,1.832 1.426,1.725 1.736,1.613 2.229,1.497 2.721,1.381 3.085,1.261 3.32,1.136 3.557,1.012 3.741,0.842 3.874,0.627 c 0.134,-0.215 0.2,-0.481 0.2,-0.798 0,-0.287 -0.079,-0.556 -0.239,-0.807 -0.16,-0.25 -0.385,-0.437 -0.677,-0.559 -0.291,-0.121 -0.655,-0.182 -1.09,-0.182 -0.633,0 -1.12,0.146 -1.46,0.439 C 0.269,-0.987 0.066,-0.561 0,0"
         style="fill:#383638;fill-opacity:1;fill-rule:nonzero;stroke:none"
         id="path1143"
         inkscape:connector-curvature="0" /></g><g
       id="g1145"
       transform="translate(432.07,631.661)"><path
         d="m 0,0 0.984,0.096 c 0.059,-0.331 0.18,-0.574 0.361,-0.728 0.181,-0.155 0.426,-0.233 0.733,-0.233 0.326,0 0.571,0.069 0.736,0.207 0.166,0.138 0.249,0.299 0.249,0.484 0,0.118 -0.035,0.219 -0.105,0.302 C 2.889,0.211 2.768,0.284 2.594,0.345 2.476,0.386 2.206,0.459 1.784,0.564 1.242,0.698 0.861,0.864 0.643,1.06 0.335,1.335 0.181,1.671 0.181,2.068 c 0,0.255 0.072,0.494 0.217,0.716 0.145,0.222 0.353,0.391 0.625,0.508 0.273,0.116 0.602,0.174 0.987,0.174 0.629,0 1.102,-0.138 1.42,-0.414 C 3.748,2.776 3.915,2.409 3.931,1.948 L 2.919,1.904 C 2.875,2.161 2.783,2.346 2.641,2.459 2.498,2.572 2.284,2.628 2,2.628 1.706,2.628 1.476,2.568 1.309,2.447 1.202,2.37 1.148,2.266 1.148,2.136 1.148,2.018 1.199,1.917 1.299,1.832 1.426,1.725 1.736,1.613 2.229,1.497 2.721,1.381 3.085,1.261 3.32,1.136 3.557,1.012 3.741,0.842 3.874,0.627 c 0.134,-0.215 0.2,-0.481 0.2,-0.798 0,-0.287 -0.079,-0.556 -0.239,-0.807 -0.16,-0.25 -0.385,-0.437 -0.677,-0.559 -0.291,-0.121 -0.655,-0.182 -1.09,-0.182 -0.633,0 -1.12,0.146 -1.46,0.439 C 0.269,-0.987 0.066,-0.561 0,0"
         style="fill:#383638;fill-opacity:1;fill-rule:nonzero;stroke:none"
         id="path1147"
         inkscape:connector-curvature="0" /></g><g
       id="g1149"
       transform="translate(178.877,109.412)"><path
         d="m 258.087,525.63 h 1.01199 v -5.01099 H 258.087 Z"
         style="fill:#383638;fill-opacity:1;fill-rule:nonzero;stroke:none"
         id="path1151"
         inkscape:connector-curvature="0" /></g><g
       id="g1153"
       transform="translate(349.341,610.423)"><path
         d="m 0,0 c -0.123,-0.041 -0.318,-0.09 -0.584,-0.147 -0.267,-0.057 -0.441,-0.113 -0.523,-0.167 -0.126,-0.089 -0.188,-0.202 -0.188,-0.339 0,-0.134 0.05,-0.25 0.15,-0.348 0.1,-0.099 0.228,-0.147 0.383,-0.147 0.173,0 0.338,0.057 0.495,0.17 0.117,0.087 0.193,0.193 0.229,0.318 C -0.013,-0.578 0,-0.421 0,-0.191 Z m -1.285,0.779 -0.872,0.158 c 0.098,0.351 0.267,0.61 0.506,0.779 0.239,0.168 0.595,0.253 1.067,0.253 0.428,0 0.747,-0.051 0.957,-0.153 C 0.582,1.715 0.73,1.586 0.815,1.431 0.901,1.274 0.943,0.988 0.943,0.571 L 0.933,-0.55 c 0,-0.319 0.016,-0.554 0.046,-0.706 0.031,-0.152 0.088,-0.314 0.173,-0.487 h -0.95 c -0.025,0.064 -0.056,0.158 -0.093,0.284 -0.016,0.057 -0.027,0.094 -0.034,0.112 -0.164,-0.159 -0.339,-0.279 -0.526,-0.359 -0.187,-0.079 -0.386,-0.119 -0.598,-0.119 -0.374,0 -0.668,0.101 -0.884,0.304 -0.215,0.203 -0.323,0.459 -0.323,0.769 0,0.205 0.049,0.388 0.147,0.549 0.098,0.16 0.235,0.283 0.412,0.369 0.176,0.085 0.431,0.16 0.764,0.224 0.449,0.084 0.76,0.163 0.933,0.235 V 0.721 C 0,0.906 -0.045,1.037 -0.137,1.116 -0.228,1.194 -0.4,1.234 -0.653,1.234 -0.824,1.234 -0.957,1.2 -1.053,1.133 -1.148,1.066 -1.226,0.948 -1.285,0.779"
         style="fill:#383638;fill-opacity:1;fill-rule:nonzero;stroke:none"
         id="path1155"
         inkscape:connector-curvature="0" /></g><g
       id="g1157"
       transform="translate(354.533,608.68)"><path
         d="m 0,0 h -0.96 v 1.853 c 0,0.392 -0.021,0.645 -0.062,0.76 -0.041,0.115 -0.107,0.204 -0.2,0.268 -0.092,0.064 -0.203,0.096 -0.333,0.096 -0.167,0 -0.316,-0.045 -0.448,-0.137 C -2.135,2.749 -2.226,2.628 -2.275,2.478 -2.324,2.328 -2.348,2.05 -2.348,1.644 V 0 h -0.961 v 3.63 h 0.892 V 3.097 c 0.317,0.41 0.716,0.615 1.197,0.615 0.212,0 0.406,-0.038 0.581,-0.114 0.175,-0.077 0.308,-0.174 0.398,-0.293 0.09,-0.118 0.153,-0.253 0.188,-0.403 C -0.018,2.751 0,2.536 0,2.256 Z"
         style="fill:#383638;fill-opacity:1;fill-rule:nonzero;stroke:none"
         id="path1159"
         inkscape:connector-curvature="0" /></g><g
       id="g1161"
       transform="translate(357.172,612.31)"><path
         d="m 0,0 v -0.766 h -0.656 v -1.463 c 0,-0.296 0.006,-0.468 0.018,-0.517 0.013,-0.049 0.041,-0.09 0.086,-0.122 0.044,-0.031 0.098,-0.048 0.162,-0.048 0.089,0 0.218,0.031 0.387,0.093 l 0.082,-0.745 c -0.224,-0.096 -0.476,-0.144 -0.759,-0.144 -0.174,0 -0.329,0.029 -0.468,0.087 -0.14,0.059 -0.242,0.134 -0.306,0.226 -0.066,0.092 -0.11,0.217 -0.135,0.374 -0.021,0.112 -0.031,0.337 -0.031,0.677 v 1.582 H -2.061 V 0 h 0.441 v 0.721 l 0.964,0.561 0,-1.282 z"
         style="fill:#383638;fill-opacity:1;fill-rule:nonzero;stroke:none"
         id="path1163"
         inkscape:connector-curvature="0" /></g><g
       id="g1165"
       transform="translate(359.995,610.806)"><path
         d="m 0,0 c -0.007,0.278 -0.079,0.489 -0.215,0.634 -0.137,0.145 -0.304,0.217 -0.499,0.217 -0.21,0 -0.383,-0.076 -0.52,-0.229 C -1.371,0.469 -1.438,0.262 -1.436,0 Z m -0.055,-0.971 0.957,-0.16 C 0.779,-1.482 0.585,-1.75 0.319,-1.933 0.054,-2.116 -0.278,-2.208 -0.677,-2.208 c -0.631,0 -1.098,0.206 -1.401,0.619 -0.239,0.33 -0.359,0.747 -0.359,1.251 0,0.601 0.157,1.072 0.472,1.413 0.314,0.341 0.712,0.511 1.193,0.511 0.54,0 0.966,-0.178 1.278,-0.535 0.312,-0.357 0.461,-0.903 0.448,-1.639 h -2.407 c 0.007,-0.285 0.085,-0.506 0.233,-0.665 0.148,-0.158 0.332,-0.237 0.553,-0.237 0.151,0 0.277,0.041 0.38,0.123 0.102,0.082 0.18,0.214 0.232,0.396"
         style="fill:#383638;fill-opacity:1;fill-rule:nonzero;stroke:none"
         id="path1167"
         inkscape:connector-curvature="0" /></g><g
       id="g1169"
       transform="translate(365.033,608.68)"><path
         d="m 0,0 h -0.96 v 1.853 c 0,0.392 -0.021,0.645 -0.062,0.76 -0.041,0.115 -0.107,0.204 -0.2,0.268 -0.092,0.064 -0.203,0.096 -0.333,0.096 -0.167,0 -0.316,-0.045 -0.448,-0.137 C -2.135,2.749 -2.226,2.628 -2.275,2.478 -2.324,2.328 -2.348,2.05 -2.348,1.644 V 0 h -0.961 v 3.63 h 0.892 V 3.097 c 0.317,0.41 0.716,0.615 1.197,0.615 0.212,0 0.406,-0.038 0.581,-0.114 0.175,-0.077 0.308,-0.174 0.398,-0.293 0.09,-0.118 0.153,-0.253 0.188,-0.403 C -0.018,2.751 0,2.536 0,2.256 Z"
         style="fill:#383638;fill-opacity:1;fill-rule:nonzero;stroke:none"
         id="path1171"
         inkscape:connector-curvature="0" /></g><g
       id="g1173"
       transform="translate(369.309,608.68)"><path
         d="m 0,0 h -0.96 v 1.853 c 0,0.392 -0.021,0.645 -0.062,0.76 -0.041,0.115 -0.107,0.204 -0.2,0.268 -0.092,0.064 -0.203,0.096 -0.333,0.096 -0.167,0 -0.316,-0.045 -0.448,-0.137 C -2.135,2.749 -2.226,2.628 -2.275,2.478 -2.324,2.328 -2.348,2.05 -2.348,1.644 V 0 h -0.961 v 3.63 h 0.892 V 3.097 c 0.317,0.41 0.716,0.615 1.197,0.615 0.212,0 0.406,-0.038 0.581,-0.114 0.175,-0.077 0.308,-0.174 0.398,-0.293 0.09,-0.118 0.153,-0.253 0.188,-0.403 C -0.018,2.751 0,2.536 0,2.256 Z"
         style="fill:#383638;fill-opacity:1;fill-rule:nonzero;stroke:none"
         id="path1175"
         inkscape:connector-curvature="0" /></g><g
       id="g1177"
       transform="translate(372.286,610.423)"><path
         d="m 0,0 c -0.123,-0.041 -0.318,-0.09 -0.584,-0.147 -0.267,-0.057 -0.441,-0.113 -0.523,-0.167 -0.126,-0.089 -0.188,-0.202 -0.188,-0.339 0,-0.134 0.05,-0.25 0.15,-0.348 0.1,-0.099 0.228,-0.147 0.383,-0.147 0.173,0 0.338,0.057 0.495,0.17 0.117,0.087 0.193,0.193 0.229,0.318 C -0.013,-0.578 0,-0.421 0,-0.191 Z m -1.285,0.779 -0.872,0.158 c 0.098,0.351 0.267,0.61 0.506,0.779 0.239,0.168 0.595,0.253 1.067,0.253 0.428,0 0.747,-0.051 0.957,-0.153 C 0.582,1.715 0.73,1.586 0.815,1.431 0.901,1.274 0.943,0.988 0.943,0.571 L 0.933,-0.55 c 0,-0.319 0.016,-0.554 0.046,-0.706 0.031,-0.152 0.088,-0.314 0.173,-0.487 h -0.95 c -0.025,0.064 -0.056,0.158 -0.093,0.284 -0.016,0.057 -0.027,0.094 -0.034,0.112 -0.164,-0.159 -0.339,-0.279 -0.526,-0.359 -0.187,-0.079 -0.386,-0.119 -0.598,-0.119 -0.374,0 -0.668,0.101 -0.884,0.304 -0.215,0.203 -0.323,0.459 -0.323,0.769 0,0.205 0.049,0.388 0.147,0.549 0.098,0.16 0.235,0.283 0.412,0.369 0.176,0.085 0.431,0.16 0.764,0.224 0.449,0.084 0.76,0.163 0.933,0.235 V 0.721 C 0,0.906 -0.045,1.037 -0.137,1.116 -0.228,1.194 -0.4,1.234 -0.653,1.234 -0.824,1.234 -0.957,1.2 -1.053,1.133 -1.148,1.066 -1.226,0.948 -1.285,0.779"
         style="fill:#383638;fill-opacity:1;fill-rule:nonzero;stroke:none"
         id="path1179"
         inkscape:connector-curvature="0" /></g><g
       id="g1181"
       transform="translate(242.619,595.16)"><path
         d="m 0,0 v -0.637 h -2.405 c 0.026,0.241 0.104,0.469 0.235,0.684 0.13,0.216 0.387,0.502 0.771,0.859 0.309,0.288 0.499,0.483 0.569,0.586 0.094,0.141 0.142,0.281 0.142,0.42 0,0.152 -0.041,0.27 -0.124,0.352 -0.082,0.083 -0.195,0.124 -0.34,0.124 -0.143,0 -0.258,-0.043 -0.342,-0.13 C -1.579,2.172 -1.627,2.029 -1.641,1.829 l -0.683,0.068 c 0.04,0.377 0.168,0.648 0.383,0.813 0.215,0.165 0.483,0.247 0.806,0.247 0.353,0 0.631,-0.096 0.832,-0.286 C -0.101,2.48 0,2.244 0,1.96 0,1.799 -0.029,1.646 -0.087,1.5 -0.145,1.354 -0.236,1.202 -0.361,1.042 -0.444,0.937 -0.594,0.785 -0.811,0.586 -1.027,0.387 -1.164,0.255 -1.222,0.19 -1.28,0.125 -1.327,0.062 -1.362,0 Z"
         style="fill:#383638;fill-opacity:1;fill-rule:nonzero;stroke:none"
         id="path1183"
         inkscape:connector-curvature="0" /></g><g
       id="g1185"
       transform="translate(178.877,109.412)"><path
         d="m 64.352,485.797 h 0.685997 v -0.68601 H 64.352 Z"
         style="fill:#383638;fill-opacity:1;fill-rule:nonzero;stroke:none"
         id="path1187"
         inkscape:connector-curvature="0" /></g><g
       id="g1189"
       transform="translate(244.482,595.443)"><path
         d="m 0,0 0.684,0.071 c 0.019,-0.155 0.077,-0.278 0.173,-0.367 0.096,-0.091 0.206,-0.136 0.332,-0.136 0.143,0 0.265,0.058 0.364,0.175 0.099,0.116 0.149,0.291 0.149,0.526 0,0.219 -0.05,0.384 -0.148,0.494 C 1.456,0.873 1.327,0.928 1.169,0.928 0.973,0.928 0.796,0.841 0.64,0.667 L 0.083,0.747 0.435,2.61 H 2.249 V 1.968 H 0.955 L 0.847,1.36 C 1,1.437 1.156,1.475 1.316,1.475 1.62,1.475 1.878,1.364 2.09,1.143 2.301,0.921 2.407,0.634 2.407,0.281 2.407,-0.014 2.322,-0.277 2.151,-0.508 1.918,-0.824 1.595,-0.981 1.182,-0.981 c -0.331,0 -0.6,0.088 -0.808,0.266 C 0.165,-0.538 0.041,-0.299 0,0"
         style="fill:#383638;fill-opacity:1;fill-rule:nonzero;stroke:none"
         id="path1191"
         inkscape:connector-curvature="0" /></g><g
       id="g1193"
       transform="translate(248.598,595.846)"><path
         d="M 0,0 V 1.223 L -0.823,0 Z m 0,-1.323 v 0.72 h -1.465 v 0.601 L 0.088,2.271 H 0.664 V 0 H 1.108 V -0.603 H 0.664 v -0.72 z"
         style="fill:#383638;fill-opacity:1;fill-rule:nonzero;stroke:none"
         id="path1195"
         inkscape:connector-curvature="0" /></g><g
       id="g1197"
       transform="translate(250.129,597.115)"><path
         d="m 0,0 h 0.632 v -0.354 c 0.226,0.275 0.496,0.413 0.808,0.413 0.166,0 0.31,-0.035 0.433,-0.103 0.122,-0.068 0.222,-0.172 0.3,-0.31 0.114,0.138 0.237,0.242 0.369,0.31 0.131,0.068 0.272,0.103 0.422,0.103 0.19,0 0.351,-0.039 0.483,-0.117 0.132,-0.077 0.231,-0.19 0.296,-0.34 0.047,-0.111 0.07,-0.289 0.07,-0.537 V -2.593 H 3.127 v 1.482 c 0,0.257 -0.023,0.424 -0.07,0.498 -0.064,0.098 -0.161,0.147 -0.293,0.147 -0.097,0 -0.187,-0.03 -0.271,-0.088 C 2.408,-0.613 2.347,-0.699 2.31,-0.812 2.272,-0.925 2.253,-1.104 2.253,-1.348 V -2.593 H 1.567 v 1.421 c 0,0.253 -0.012,0.415 -0.036,0.488 C 1.506,-0.61 1.469,-0.556 1.417,-0.52 1.366,-0.484 1.296,-0.466 1.208,-0.466 1.103,-0.466 1.007,-0.495 0.923,-0.552 0.838,-0.609 0.777,-0.691 0.741,-0.798 0.704,-0.906 0.686,-1.084 0.686,-1.333 v -1.26 H 0 Z"
         style="fill:#383638;fill-opacity:1;fill-rule:nonzero;stroke:none"
         id="path1199"
         inkscape:connector-curvature="0" /></g><g
       id="g1201"
       transform="translate(254.574,597.115)"><path
         d="m 0,0 h 0.632 v -0.354 c 0.226,0.275 0.496,0.413 0.808,0.413 0.166,0 0.31,-0.035 0.433,-0.103 0.122,-0.068 0.222,-0.172 0.3,-0.31 0.114,0.138 0.237,0.242 0.369,0.31 0.131,0.068 0.272,0.103 0.422,0.103 0.19,0 0.351,-0.039 0.483,-0.117 0.132,-0.077 0.231,-0.19 0.296,-0.34 0.047,-0.111 0.07,-0.289 0.07,-0.537 V -2.593 H 3.127 v 1.482 c 0,0.257 -0.023,0.424 -0.07,0.498 -0.064,0.098 -0.161,0.147 -0.293,0.147 -0.097,0 -0.187,-0.03 -0.271,-0.088 C 2.408,-0.613 2.347,-0.699 2.31,-0.812 2.272,-0.925 2.253,-1.104 2.253,-1.348 V -2.593 H 1.567 v 1.421 c 0,0.253 -0.012,0.415 -0.036,0.488 C 1.506,-0.61 1.469,-0.556 1.417,-0.52 1.366,-0.484 1.296,-0.466 1.208,-0.466 1.103,-0.466 1.007,-0.495 0.923,-0.552 0.838,-0.609 0.777,-0.691 0.741,-0.798 0.704,-0.906 0.686,-1.084 0.686,-1.333 v -1.26 H 0 Z"
         style="fill:#383638;fill-opacity:1;fill-rule:nonzero;stroke:none"
         id="path1203"
         inkscape:connector-curvature="0" /></g><g
       id="g1205"
       transform="translate(313.366,629.993)"><path
         d="m 0,0 v -1.34 h 0.937 c 0.364,0 0.595,0.01 0.693,0.031 0.151,0.027 0.273,0.094 0.368,0.2 0.094,0.106 0.142,0.248 0.142,0.425 0,0.151 -0.037,0.278 -0.11,0.383 C 1.958,-0.196 1.852,-0.12 1.714,-0.072 1.576,-0.024 1.277,0 0.817,0 Z M 0,1.993 V 0.834 h 0.663 c 0.394,0 0.639,0.006 0.735,0.017 0.173,0.021 0.309,0.08 0.409,0.18 0.098,0.098 0.148,0.229 0.148,0.391 0,0.155 -0.043,0.281 -0.128,0.377 C 1.741,1.896 1.614,1.955 1.446,1.976 1.346,1.987 1.057,1.993 0.581,1.993 Z M -1.012,2.827 H 0.991 C 1.388,2.827 1.684,2.81 1.878,2.777 2.073,2.744 2.247,2.675 2.401,2.57 2.555,2.465 2.683,2.326 2.786,2.152 2.888,1.977 2.939,1.782 2.939,1.565 2.939,1.331 2.876,1.115 2.75,0.919 2.623,0.724 2.452,0.577 2.235,0.479 2.541,0.39 2.775,0.238 2.939,0.024 3.104,-0.19 3.186,-0.442 3.186,-0.731 3.186,-0.959 3.133,-1.181 3.026,-1.396 2.921,-1.612 2.776,-1.784 2.593,-1.913 2.409,-2.041 2.183,-2.12 1.914,-2.15 1.746,-2.168 1.339,-2.18 0.694,-2.184 h -1.706 z"
         style="fill:#383638;fill-opacity:1;fill-rule:nonzero;stroke:none"
         id="path1207"
         inkscape:connector-curvature="0" /></g><g
       id="g1209"
       transform="translate(178.877,109.412)"><path
         d="m 138.498,523.408 h 1.01199 v -5.01099 H 138.498 Z"
         style="fill:#383638;fill-opacity:1;fill-rule:nonzero;stroke:none"
         id="path1211"
         inkscape:connector-curvature="0" /></g><g
       id="g1213"
       transform="translate(319.361,627.809)"><path
         d="M 0,0 V 5.011 H 0.984 L 3.035,1.665 v 3.346 h 0.94 V 0 H 2.96 L 0.94,3.268 V 0 Z"
         style="fill:#383638;fill-opacity:1;fill-rule:nonzero;stroke:none"
         id="path1215"
         inkscape:connector-curvature="0" /></g><g
       id="g1217"
       transform="translate(325.415,631.972)"><path
         d="m 0,0 v -3.319 h 0.755 c 0.283,0 0.487,0.016 0.612,0.048 0.164,0.041 0.3,0.11 0.408,0.208 0.109,0.099 0.197,0.26 0.266,0.484 0.068,0.225 0.102,0.531 0.102,0.918 0,0.387 -0.034,0.684 -0.102,0.892 C 1.972,-0.562 1.876,-0.4 1.753,-0.284 1.63,-0.167 1.474,-0.089 1.285,-0.048 1.144,-0.016 0.867,0 0.455,0 Z m -1.012,0.848 h 1.849 c 0.417,0 0.735,-0.032 0.954,-0.096 0.294,-0.086 0.546,-0.24 0.755,-0.461 0.21,-0.222 0.37,-0.492 0.479,-0.812 0.109,-0.32 0.164,-0.715 0.164,-1.185 0,-0.412 -0.051,-0.768 -0.154,-1.066 C 2.91,-3.137 2.731,-3.432 2.499,-3.657 2.323,-3.828 2.086,-3.961 1.788,-4.057 1.564,-4.128 1.266,-4.163 0.892,-4.163 h -1.904 z"
         style="fill:#383638;fill-opacity:1;fill-rule:nonzero;stroke:none"
         id="path1219"
         inkscape:connector-curvature="0" /></g><g
       id="g1221"
       transform="translate(178.877,109.412)"><path
         d="m 164.673,517.279 h -13.246 v 6.67999 h 13.246 z"
         style="fill:#383638;fill-opacity:1;fill-rule:nonzero;stroke:none"
         id="path1223"
         inkscape:connector-curvature="0" /></g><g
       id="g1225"
       transform="translate(178.877,109.412)"><path
         d="m 196.018,495.279 h -34.75 v 2.40201 h 34.75 z"
         style="fill:#221b19;fill-opacity:1;fill-rule:nonzero;stroke:none"
         id="path1227"
         inkscape:connector-curvature="0" /></g></g></svg>