<?xml version="1.0" encoding="UTF-8" standalone="no"?>
<!-- Created with Inkscape (http://www.inkscape.org/) -->

<svg
   xmlns:dc="http://purl.org/dc/elements/1.1/"
   xmlns:cc="http://creativecommons.org/ns#"
   xmlns:rdf="http://www.w3.org/1999/02/22-rdf-syntax-ns#"
   xmlns:svg="http://www.w3.org/2000/svg"
   xmlns="http://www.w3.org/2000/svg"
   xmlns:sodipodi="http://sodipodi.sourceforge.net/DTD/sodipodi-0.dtd"
   xmlns:inkscape="http://www.inkscape.org/namespaces/inkscape"
   version="1.1"
   id="svg4734"
   xml:space="preserve"
   width="816"
   height="1056"
   viewBox="0 0 816 1056"
   sodipodi:docname="XM+ - PCB of User manual.svg"
   inkscape:version="0.92.1 r15371"><metadata
     id="metadata4740"><rdf:RDF><cc:Work
         rdf:about=""><dc:format>image/svg+xml</dc:format><dc:type
           rdf:resource="http://purl.org/dc/dcmitype/StillImage" /><dc:title></dc:title></cc:Work></rdf:RDF></metadata><defs
     id="defs4738" /><sodipodi:namedview
     pagecolor="#ffffff"
     bordercolor="#666666"
     borderopacity="1"
     objecttolerance="10"
     gridtolerance="10"
     guidetolerance="10"
     inkscape:pageopacity="0"
     inkscape:pageshadow="2"
     inkscape:window-width="1680"
     inkscape:window-height="987"
     id="namedview4736"
     showgrid="false"
     showguides="true"
     inkscape:guide-bbox="true"
     inkscape:zoom="1.7878788"
     inkscape:cx="315.25376"
     inkscape:cy="933.49224"
     inkscape:window-x="-8"
     inkscape:window-y="-8"
     inkscape:window-maximized="1"
     inkscape:current-layer="g4742"><sodipodi:guide
       position="132.19601,907.92062"
       orientation="0,1"
       id="guide5639"
       inkscape:locked="false" /><sodipodi:guide
       position="458.29449,932.25"
       orientation="0,1"
       id="guide5641"
       inkscape:locked="false" /><sodipodi:guide
       position="68.718195,947.81672"
       orientation="0,1"
       id="guide5643"
       inkscape:locked="false" /><sodipodi:guide
       position="54.232993,940.99434"
       orientation="1,0"
       id="guide5645"
       inkscape:locked="false" /><sodipodi:guide
       position="266.02754,938.12288"
       orientation="0,1"
       id="guide5647"
       inkscape:locked="false" /><sodipodi:guide
       position="268.89407,954.20339"
       orientation="0,1"
       id="guide5649"
       inkscape:locked="false" /><sodipodi:guide
       position="199.13445,973.62312"
       orientation="0,1"
       id="guide5651"
       inkscape:locked="false" /><sodipodi:guide
       position="174.3168,967.09736"
       orientation="1,0"
       id="guide5653"
       inkscape:locked="false" /><sodipodi:guide
       position="348.93023,976.491"
       orientation="0,1"
       id="guide5655"
       inkscape:locked="false"
       inkscape:label=""
       inkscape:color="rgb(255,15,0)" /><sodipodi:guide
       position="444.048,936.84158"
       orientation="1,0"
       id="guide5657"
       inkscape:locked="false"
       inkscape:label=""
       inkscape:color="rgb(249,13,16)" /><sodipodi:guide
       position="97.461865,946.86229"
       orientation="1,0"
       id="guide5669"
       inkscape:locked="false" /><sodipodi:guide
       position="108.99788,924.13983"
       orientation="0,1"
       id="guide5697"
       inkscape:locked="false" /><sodipodi:guide
       position="133.356,905.43598"
       orientation="1,0"
       id="guide5759"
       inkscape:locked="false" /><sodipodi:guide
       position="224.63771,947.81672"
       orientation="1,0"
       id="guide5799"
       inkscape:locked="false" /><sodipodi:guide
       position="324.85414,970.36024"
       orientation="1,0"
       id="guide5827"
       inkscape:locked="false" /><sodipodi:guide
       position="442.56666,941.54531"
       orientation="0,1"
       id="guide5855"
       inkscape:locked="false" /></sodipodi:namedview><g
     id="g4742"
     inkscape:groupmode="layer"
     inkscape:label="XM+ - PCB of User manual"
     transform="matrix(1.3333333,0,0,-1.3333333,0,1056)"><g
       id="g5943"><g
         transform="translate(67.4532,701.958)"
         id="g4744"><path
           inkscape:connector-curvature="0"
           id="path4746"
           style="fill:#221b19;fill-opacity:1;fill-rule:nonzero;stroke:none"
           d="m 0,0 c -1.669,0 -3.022,1.353 -3.022,3.022 0,1.669 1.353,3.022 3.022,3.022 1.669,0 3.022,-1.353 3.022,-3.022 C 3.022,1.353 1.669,0 0,0 m 0,6.693 c -2.027,0 -3.67,-1.644 -3.67,-3.671 0,-2.027 1.643,-3.67 3.67,-3.67 2.027,0 3.671,1.643 3.671,3.67 0,2.027 -1.644,3.671 -3.671,3.671" /></g><g
         transform="translate(158.915,713.227)"
         id="g4748"><path
           inkscape:connector-curvature="0"
           id="path4750"
           style="fill:#221b19;fill-opacity:1;fill-rule:nonzero;stroke:none"
           d="m 0,0 c -2.027,0 -3.67,-1.643 -3.67,-3.67 0,-2.028 1.643,-3.671 3.67,-3.671 2.027,0 3.671,1.643 3.671,3.671 C 3.671,-1.643 2.027,0 0,0" /></g><g
         transform="translate(158.915,706.535)"
         id="g4752"><path
           inkscape:connector-curvature="0"
           id="path4754"
           style="fill:#221b19;fill-opacity:1;fill-rule:nonzero;stroke:none"
           d="m 0,0 c -1.669,0 -3.022,1.353 -3.022,3.022 0,1.669 1.353,3.022 3.022,3.022 1.669,0 3.022,-1.353 3.022,-3.022 C 3.022,1.353 1.669,0 0,0" /></g><g
         transform="translate(158.915,701.556)"
         id="g4756"><path
           inkscape:connector-curvature="0"
           id="path4758"
           style="fill:#221b19;fill-opacity:1;fill-rule:nonzero;stroke:none"
           d="m 0,0 c -2.027,0 -3.67,-1.643 -3.67,-3.67 0,-2.028 1.643,-3.671 3.67,-3.671 2.027,0 3.671,1.643 3.671,3.671 C 3.671,-1.643 2.027,0 0,0" /></g><g
         transform="translate(158.915,694.863)"
         id="g4760"><path
           inkscape:connector-curvature="0"
           id="path4762"
           style="fill:#221b19;fill-opacity:1;fill-rule:nonzero;stroke:none"
           d="m 0,0 c -1.669,0 -3.022,1.353 -3.022,3.022 0,1.669 1.353,3.022 3.022,3.022 1.669,0 3.022,-1.353 3.022,-3.022 C 3.022,1.353 1.669,0 0,0" /></g><g
         transform="translate(67.4532,690.24)"
         id="g4764"><path
           inkscape:connector-curvature="0"
           id="path4766"
           style="fill:#221b19;fill-opacity:1;fill-rule:nonzero;stroke:none"
           d="m 0,0 c -1.669,0 -3.022,1.353 -3.022,3.022 0,1.669 1.353,3.022 3.022,3.022 1.669,0 3.022,-1.353 3.022,-3.022 C 3.022,1.353 1.669,0 0,0 m 0,6.693 c -2.027,0 -3.67,-1.644 -3.67,-3.671 0,-2.027 1.643,-3.67 3.67,-3.67 2.027,0 3.671,1.643 3.671,3.67 0,2.027 -1.644,3.671 -3.671,3.671" /></g><g
         transform="translate(67.4532,713.676)"
         id="g4768"><path
           inkscape:connector-curvature="0"
           id="path4770"
           style="fill:#221b19;fill-opacity:1;fill-rule:nonzero;stroke:none"
           d="m 0,0 c -1.669,0 -3.022,1.353 -3.022,3.022 0,1.669 1.353,3.022 3.022,3.022 1.669,0 3.022,-1.353 3.022,-3.022 C 3.022,1.353 1.669,0 0,0 M -3.67,-0.648 H 3.671 V 6.693 H -3.67 Z" /></g><g
         transform="translate(60.4558,686.746)"
         id="g4844"><path
           inkscape:connector-curvature="0"
           id="path4846"
           style="fill:none;stroke:#221b19;stroke-width:0.25;stroke-linecap:butt;stroke-linejoin:miter;stroke-miterlimit:10;stroke-dasharray:none;stroke-opacity:1"
           d="M 0,0 V -11.28" /></g><g
         transform="translate(166.042,686.362)"
         id="g4848"><path
           inkscape:connector-curvature="0"
           id="path4850"
           style="fill:none;stroke:#221b19;stroke-width:0.25;stroke-linecap:butt;stroke-linejoin:miter;stroke-miterlimit:10;stroke-dasharray:none;stroke-opacity:1"
           d="M 0,0 V -10.896" /></g><g
         transform="translate(60.4558,681.322)"
         id="g4852"><path
           inkscape:connector-curvature="0"
           id="path4854"
           style="fill:none;stroke:#221b19;stroke-width:0.25;stroke-linecap:butt;stroke-linejoin:miter;stroke-miterlimit:10;stroke-dasharray:none;stroke-opacity:1"
           d="M 0,0 H 34.979" /></g><g
         transform="translate(132.842,681.322)"
         id="g4856"><path
           inkscape:connector-curvature="0"
           id="path4858"
           style="fill:none;stroke:#221b19;stroke-width:0.25;stroke-linecap:butt;stroke-linejoin:miter;stroke-miterlimit:10;stroke-dasharray:none;stroke-opacity:1"
           d="M 0,0 H 33.201" /></g><g
         transform="translate(328.179,745.473)"
         id="g4876"><path
           inkscape:connector-curvature="0"
           id="path4878"
           style="fill:none;stroke:#221b19;stroke-width:0.25;stroke-linecap:butt;stroke-linejoin:miter;stroke-miterlimit:10;stroke-dasharray:none;stroke-opacity:1"
           d="M 0,0 H 9.76" /></g><g
         transform="translate(328.179,686.422)"
         id="g4880"><path
           inkscape:connector-curvature="0"
           id="path4882"
           style="fill:none;stroke:#221b19;stroke-width:0.25;stroke-linecap:butt;stroke-linejoin:miter;stroke-miterlimit:10;stroke-dasharray:none;stroke-opacity:1"
           d="M 0,0 H 9.76" /></g><g
         transform="translate(333.148,745.473)"
         id="g4884"><path
           inkscape:connector-curvature="0"
           id="path4886"
           style="fill:none;stroke:#221b19;stroke-width:0.25;stroke-linecap:butt;stroke-linejoin:miter;stroke-miterlimit:10;stroke-dasharray:none;stroke-opacity:1"
           d="M 0,0 V -21.272" /></g><g
         transform="translate(333.148,704.98)"
         id="g4888"><path
           inkscape:connector-curvature="0"
           id="path4890"
           style="fill:none;stroke:#221b19;stroke-width:0.25;stroke-linecap:butt;stroke-linejoin:miter;stroke-miterlimit:10;stroke-dasharray:none;stroke-opacity:1"
           d="M 0,0 V -18.76" /></g><g
         transform="translate(166.042,693.314)"
         id="g4892"><path
           inkscape:connector-curvature="0"
           id="path4894"
           style="fill:none;stroke:#221b19;stroke-width:0.25;stroke-linecap:butt;stroke-linejoin:miter;stroke-miterlimit:10;stroke-dasharray:none;stroke-opacity:1"
           d="m 0,0 c 0,-3.613 -2.956,-6.568 -6.568,-6.568 h -92.45 c -3.613,0 -6.569,2.955 -6.569,6.568 v 45.591 c 0,3.612 2.956,6.568 6.569,6.568 h 92.45 C -2.956,52.159 0,49.203 0,45.591 Z" /></g><g
         transform="translate(229.59,701.958)"
         id="g4896"><path
           inkscape:connector-curvature="0"
           id="path4898"
           style="fill:#221b19;fill-opacity:1;fill-rule:nonzero;stroke:none"
           d="m 0,0 c -1.669,0 -3.022,1.353 -3.022,3.022 0,1.669 1.353,3.022 3.022,3.022 1.669,0 3.022,-1.353 3.022,-3.022 C 3.022,1.353 1.669,0 0,0 m 0,6.693 c -2.027,0 -3.67,-1.644 -3.67,-3.671 0,-2.027 1.643,-3.67 3.67,-3.67 2.027,0 3.671,1.643 3.671,3.67 0,2.027 -1.644,3.671 -3.671,3.671" /></g><g
         transform="translate(236.83,736.284)"
         id="g4900"><path
           inkscape:connector-curvature="0"
           id="path4902"
           style="fill:#221b19;fill-opacity:1;fill-rule:nonzero;stroke:none"
           d="m 0,0 c -2.027,0 -3.67,-1.643 -3.67,-3.67 0,-2.028 1.643,-3.671 3.67,-3.671 2.027,0 3.671,1.643 3.671,3.671 C 3.671,-1.643 2.027,0 0,0" /></g><g
         transform="translate(236.83,729.591)"
         id="g4904"><path
           inkscape:connector-curvature="0"
           id="path4906"
           style="fill:#221b19;fill-opacity:1;fill-rule:nonzero;stroke:none"
           d="m 0,0 c -1.669,0 -3.022,1.353 -3.022,3.022 0,1.669 1.353,3.022 3.022,3.022 1.669,0 3.022,-1.353 3.022,-3.022 C 3.022,1.353 1.669,0 0,0" /></g><g
         transform="translate(229.59,690.24)"
         id="g4908"><path
           inkscape:connector-curvature="0"
           id="path4910"
           style="fill:#221b19;fill-opacity:1;fill-rule:nonzero;stroke:none"
           d="m 0,0 c -1.669,0 -3.022,1.353 -3.022,3.022 0,1.669 1.353,3.022 3.022,3.022 1.669,0 3.022,-1.353 3.022,-3.022 C 3.022,1.353 1.669,0 0,0 m 0,6.693 c -2.027,0 -3.67,-1.644 -3.67,-3.671 0,-2.027 1.643,-3.67 3.67,-3.67 2.027,0 3.671,1.643 3.671,3.67 0,2.027 -1.644,3.671 -3.671,3.671" /></g><g
         transform="translate(229.59,713.676)"
         id="g4912"><path
           inkscape:connector-curvature="0"
           id="path4914"
           style="fill:#221b19;fill-opacity:1;fill-rule:nonzero;stroke:none"
           d="m 0,0 c -1.669,0 -3.022,1.353 -3.022,3.022 0,1.669 1.353,3.022 3.022,3.022 1.669,0 3.022,-1.353 3.022,-3.022 C 3.022,1.353 1.669,0 0,0 M -3.67,-0.648 H 3.671 V 6.693 H -3.67 Z" /></g><g
         transform="translate(328.179,693.314)"
         id="g4916"><path
           inkscape:connector-curvature="0"
           id="path4918"
           style="fill:none;stroke:#221b19;stroke-width:0.25;stroke-linecap:butt;stroke-linejoin:miter;stroke-miterlimit:10;stroke-dasharray:none;stroke-opacity:1"
           d="m 0,0 c 0,-3.613 -2.956,-6.568 -6.568,-6.568 h -92.45 c -3.613,0 -6.569,2.955 -6.569,6.568 v 45.591 c 0,3.612 2.956,6.568 6.569,6.568 h 92.45 C -2.956,52.159 0,49.203 0,45.591 Z" /></g><g
         transform="translate(67.4532,716.575)"
         id="g4952"><path
           inkscape:connector-curvature="0"
           id="path4954"
           style="fill:none;stroke:#0e0f0f;stroke-width:0.25;stroke-linecap:butt;stroke-linejoin:miter;stroke-miterlimit:10;stroke-dasharray:none;stroke-opacity:1"
           d="M 0,0 H -12.899" /></g><g
         transform="translate(67.4216,704.917)"
         id="g4956"><path
           inkscape:connector-curvature="0"
           id="path4958"
           style="fill:none;stroke:#0e0f0f;stroke-width:0.25;stroke-linecap:butt;stroke-linejoin:miter;stroke-miterlimit:10;stroke-dasharray:none;stroke-opacity:1"
           d="M 0,0 H -12.868" /></g><g
         transform="translate(55.6575,716.575)"
         id="g4960"><path
           inkscape:connector-curvature="0"
           id="path4962"
           style="fill:none;stroke:#0e0f0f;stroke-width:0.25;stroke-linecap:butt;stroke-linejoin:miter;stroke-miterlimit:10;stroke-dasharray:none;stroke-opacity:1"
           d="M 0,0 V -3.4" /></g><g
         transform="translate(55.6575,708.327)"
         id="g4964"><path
           inkscape:connector-curvature="0"
           id="path4966"
           style="fill:none;stroke:#0e0f0f;stroke-width:0.25;stroke-linecap:butt;stroke-linejoin:miter;stroke-miterlimit:10;stroke-dasharray:none;stroke-opacity:1"
           d="M 0,0 V -3.4" /></g><g
         transform="translate(55.6575,704.927)"
         id="g4968"><path
           inkscape:connector-curvature="0"
           id="path4970"
           style="fill:none;stroke:#0e0f0f;stroke-width:0.25;stroke-linecap:butt;stroke-linejoin:miter;stroke-miterlimit:10;stroke-dasharray:none;stroke-opacity:1"
           d="M 0,0 V -3.4" /></g><g
         transform="translate(67.4216,693.128)"
         id="g4972"><path
           inkscape:connector-curvature="0"
           id="path4974"
           style="fill:none;stroke:#0e0f0f;stroke-width:0.25;stroke-linecap:butt;stroke-linejoin:miter;stroke-miterlimit:10;stroke-dasharray:none;stroke-opacity:1"
           d="M 0,0 H -12.868" /></g><g
         transform="translate(55.6575,696.527)"
         id="g4976"><path
           inkscape:connector-curvature="0"
           id="path4978"
           style="fill:none;stroke:#0e0f0f;stroke-width:0.25;stroke-linecap:butt;stroke-linejoin:miter;stroke-miterlimit:10;stroke-dasharray:none;stroke-opacity:1"
           d="M 0,0 V -3.4" /></g><g
         transform="translate(-16.2858,215)"
         id="g5028"><path
           inkscape:connector-curvature="0"
           id="path5030"
           style="fill:#383638;fill-opacity:1;fill-rule:nonzero;stroke:none"
           d="m 171.53,522.658 h 7.341 v -14.556 h -7.341 z" /></g><g
         transform="translate(-16.2858,215)"
         id="g5088"><path
           inkscape:connector-curvature="0"
           id="path5090"
           style="fill:#221b19;fill-opacity:1;fill-rule:nonzero;stroke:none"
           d="m 213.086,493.354 h -38.187 v 2.63901 h 38.187 z" /></g><g
         transform="translate(-16.2858,215)"
         id="g5092"><path
           inkscape:connector-curvature="0"
           id="path5094"
           style="fill:#221b19;fill-opacity:1;fill-rule:nonzero;stroke:none"
           d="m 213.086,481.566 h -38.187 v 2.63901 h 38.187 z" /></g><text
         transform="scale(1,-1)"
         xml:space="preserve"
         style="font-style:normal;font-variant:normal;font-weight:normal;font-stretch:normal;font-size:7px;line-height:0%;font-family:Arial;-inkscape-font-specification:Arial;letter-spacing:0px;word-spacing:0px;opacity:0.98999999;fill:#383638;fill-opacity:1;stroke:none;stroke-width:0.80000007px;stroke-linecap:butt;stroke-linejoin:miter;stroke-opacity:1"
         x="72.848434"
         y="-714.04059"
         id="text7795-5-0-1-6"><tspan
           sodipodi:role="line"
           x="72.848434"
           y="-714.04059"
           style="font-style:normal;font-variant:normal;font-weight:bold;font-stretch:normal;font-size:7px;line-height:125%;font-family:Arial;-inkscape-font-specification:'Arial Bold';fill:#383638;fill-opacity:1;stroke-width:0.80000007px"
           id="tspan7308-5-6-8">SBUS</tspan></text>
<text
         transform="scale(1,-1)"
         xml:space="preserve"
         style="font-style:normal;font-variant:normal;font-weight:normal;font-stretch:normal;font-size:7px;line-height:0%;font-family:Arial;-inkscape-font-specification:Arial;letter-spacing:0px;word-spacing:0px;opacity:0.98999999;fill:#383638;fill-opacity:1;stroke:none;stroke-width:0.80000007px;stroke-linecap:butt;stroke-linejoin:miter;stroke-opacity:1"
         x="72.830757"
         y="-702.4314"
         id="text7795-5-0-1-6-2"><tspan
           sodipodi:role="line"
           x="72.830757"
           y="-702.4314"
           style="font-style:normal;font-variant:normal;font-weight:bold;font-stretch:normal;font-size:7px;line-height:125%;font-family:Arial;-inkscape-font-specification:'Arial Bold';fill:#383638;fill-opacity:1;stroke-width:0.80000007px"
           id="tspan7308-5-6-8-0">+5V</tspan></text>
<text
         transform="scale(1,-1)"
         xml:space="preserve"
         style="font-style:normal;font-variant:normal;font-weight:normal;font-stretch:normal;font-size:7px;line-height:0%;font-family:Arial;-inkscape-font-specification:Arial;letter-spacing:0px;word-spacing:0px;opacity:0.98999999;fill:#383638;fill-opacity:1;stroke:none;stroke-width:0.80000007px;stroke-linecap:butt;stroke-linejoin:miter;stroke-opacity:1"
         x="72.792969"
         y="-690.69525"
         id="text7795-5-0-1-6-3"><tspan
           sodipodi:role="line"
           x="72.792969"
           y="-690.69525"
           style="font-style:normal;font-variant:normal;font-weight:bold;font-stretch:normal;font-size:7px;line-height:125%;font-family:Arial;-inkscape-font-specification:'Arial Bold';fill:#383638;fill-opacity:1;stroke-width:0.80000007px"
           id="tspan7308-5-6-8-8">GND</tspan></text>
<text
         transform="scale(1,-1)"
         xml:space="preserve"
         style="font-style:normal;font-variant:normal;font-weight:normal;font-stretch:normal;font-size:5px;line-height:0%;font-family:Arial;-inkscape-font-specification:Arial;letter-spacing:0px;word-spacing:0px;opacity:0.98999999;fill:#383638;fill-opacity:1;stroke:none;stroke-width:0.80000007px;stroke-linecap:butt;stroke-linejoin:miter;stroke-opacity:1"
         x="40.691616"
         y="-709.42017"
         id="text7795-5-0-0"><tspan
           sodipodi:role="line"
           x="40.691616"
           y="-709.42017"
           style="font-style:normal;font-variant:normal;font-weight:bold;font-stretch:normal;font-size:5px;line-height:125%;font-family:Arial;-inkscape-font-specification:'Arial Bold';fill:#383638;fill-opacity:1;stroke-width:0.80000007px"
           id="tspan7308-5-9">2,54mm</tspan></text>
<text
         transform="scale(1,-1)"
         xml:space="preserve"
         style="font-style:normal;font-variant:normal;font-weight:normal;font-stretch:normal;font-size:5px;line-height:0%;font-family:Arial;-inkscape-font-specification:Arial;letter-spacing:0px;word-spacing:0px;opacity:0.98999999;fill:#383638;fill-opacity:1;stroke:none;stroke-width:0.80000007px;stroke-linecap:butt;stroke-linejoin:miter;stroke-opacity:1"
         x="40.697502"
         y="-697.73547"
         id="text7795-5-0-1"><tspan
           sodipodi:role="line"
           x="40.697502"
           y="-697.73547"
           style="font-style:normal;font-variant:normal;font-weight:bold;font-stretch:normal;font-size:5px;line-height:125%;font-family:Arial;-inkscape-font-specification:'Arial Bold';fill:#383638;fill-opacity:1;stroke-width:0.80000007px"
           id="tspan7308-5-6">2,54mm</tspan></text>
<text
         transform="scale(1,-1)"
         xml:space="preserve"
         style="font-style:normal;font-variant:normal;font-weight:normal;font-stretch:normal;font-size:5px;line-height:0%;font-family:Arial;-inkscape-font-specification:Arial;letter-spacing:0px;word-spacing:0px;opacity:0.98999999;fill:#383638;fill-opacity:1;stroke:none;stroke-width:0.80000007px;stroke-linecap:butt;stroke-linejoin:miter;stroke-opacity:1"
         x="99.885582"
         y="-679.55994"
         id="text7795-5-0-1-5"><tspan
           sodipodi:role="line"
           x="99.885582"
           y="-679.55994"
           style="font-style:normal;font-variant:normal;font-weight:bold;font-stretch:normal;font-size:5px;line-height:125%;font-family:Arial;-inkscape-font-specification:'Arial Bold';fill:#383638;fill-opacity:1;stroke-width:0.80000007px"
           id="tspan7308-5-6-88">21,575mm</tspan></text>
<text
         transform="scale(1,-1)"
         xml:space="preserve"
         style="font-style:normal;font-variant:normal;font-weight:normal;font-stretch:normal;font-size:7px;line-height:0%;font-family:Arial;-inkscape-font-specification:Arial;letter-spacing:0px;word-spacing:0px;opacity:0.98999999;fill:#383638;fill-opacity:1;stroke:none;stroke-width:0.80000007px;stroke-linecap:butt;stroke-linejoin:miter;stroke-opacity:1"
         x="130.26524"
         y="-727.72449"
         id="text7795-5-0-1-6-3-7"><tspan
           sodipodi:role="line"
           x="130.26524"
           y="-727.72449"
           style="font-style:normal;font-variant:normal;font-weight:bold;font-stretch:normal;font-size:7px;line-height:125%;font-family:Arial;-inkscape-font-specification:'Arial Bold';fill:#383638;fill-opacity:1;stroke-width:0.80000007px"
           id="tspan7308-5-6-8-8-8">BIND</tspan></text>
<text
         transform="scale(1,-1)"
         xml:space="preserve"
         style="font-style:normal;font-variant:normal;font-weight:normal;font-stretch:normal;font-size:7px;line-height:0%;font-family:Arial;-inkscape-font-specification:Arial;letter-spacing:0px;word-spacing:0px;opacity:0.98999999;fill:#383638;fill-opacity:1;stroke:none;stroke-width:0.80000007px;stroke-linecap:butt;stroke-linejoin:miter;stroke-opacity:1"
         x="170.03845"
         y="-713.23785"
         id="text7795-5-0-1-6-3-7-2"><tspan
           sodipodi:role="line"
           x="170.03845"
           y="-713.23785"
           style="font-style:normal;font-variant:normal;font-weight:bold;font-stretch:normal;font-size:7px;line-height:125%;font-family:Arial;-inkscape-font-specification:'Arial Bold';fill:#383638;fill-opacity:1;stroke-width:0.80000007px"
           id="tspan7308-5-6-8-8-8-1">antenne</tspan></text>
<text
         transform="scale(1,-1)"
         xml:space="preserve"
         style="font-style:normal;font-variant:normal;font-weight:normal;font-stretch:normal;font-size:7px;line-height:0%;font-family:Arial;-inkscape-font-specification:Arial;letter-spacing:0px;word-spacing:0px;opacity:0.98999999;fill:#383638;fill-opacity:1;stroke:none;stroke-width:0.80000007px;stroke-linecap:butt;stroke-linejoin:miter;stroke-opacity:1"
         x="170.03845"
         y="-701.17743"
         id="text7795-5-0-1-6-3-7-2-4"><tspan
           sodipodi:role="line"
           x="170.03845"
           y="-701.17743"
           style="font-style:normal;font-variant:normal;font-weight:bold;font-stretch:normal;font-size:7px;line-height:125%;font-family:Arial;-inkscape-font-specification:'Arial Bold';fill:#383638;fill-opacity:1;stroke-width:0.80000007px"
           id="tspan7308-5-6-8-8-8-1-5">antenne</tspan></text>
<text
         transform="scale(1,-1)"
         xml:space="preserve"
         style="font-style:normal;font-variant:normal;font-weight:normal;font-stretch:normal;font-size:7px;line-height:0%;font-family:Arial;-inkscape-font-specification:Arial;letter-spacing:0px;word-spacing:0px;opacity:0.98999999;fill:#383638;fill-opacity:1;stroke:none;stroke-width:0.80000007px;stroke-linecap:butt;stroke-linejoin:miter;stroke-opacity:1"
         x="243.14633"
         y="-729.8642"
         id="text7795-5-0-1-6-3-7-3"><tspan
           sodipodi:role="line"
           x="243.14633"
           y="-729.8642"
           style="font-style:normal;font-variant:normal;font-weight:bold;font-stretch:normal;font-size:7px;line-height:125%;font-family:Arial;-inkscape-font-specification:'Arial Bold';fill:#383638;fill-opacity:1;stroke-width:0.80000007px"
           id="tspan7308-5-6-8-8-8-7">RSSI</tspan></text>
<text
         xml:space="preserve"
         style="font-style:normal;font-variant:normal;font-weight:normal;font-stretch:normal;font-size:6px;line-height:0%;font-family:Arial;-inkscape-font-specification:Arial;letter-spacing:0px;word-spacing:0px;opacity:0.98999999;fill:#383638;fill-opacity:1;stroke:none;stroke-width:0.80000007px;stroke-linecap:butt;stroke-linejoin:miter;stroke-opacity:1"
         x="705.68976"
         y="335.16299"
         id="text7795-5-0-1-5-4"
         transform="matrix(0,1,1,0,0,0)"><tspan
           sodipodi:role="line"
           x="705.68976"
           y="335.16299"
           style="font-style:normal;font-variant:normal;font-weight:bold;font-stretch:normal;font-size:6px;line-height:125%;font-family:Arial;-inkscape-font-specification:'Arial Bold';fill:#383638;fill-opacity:1;stroke-width:0.80000007px"
           id="tspan7308-5-6-1-1">12mm</tspan></text>
</g></g></svg>